<svg xmlns="http://www.w3.org/2000/svg" xmlns:xlink="http://www.w3.org/1999/xlink" width="110" height="110" viewBox="0 0 110 110">
  <defs>
    <filter id="Trazado_982547" x="0" y="0" width="110" height="110" filterUnits="userSpaceOnUse">
      <feOffset dy="3" input="SourceAlpha"/>
      <feGaussianBlur stdDeviation="3" result="blur"/>
      <feFlood flood-opacity="0.161"/>
      <feComposite operator="in" in2="blur"/>
      <feComposite in="SourceGraphic"/>
    </filter>
  </defs>
  <g id="Grupo_1174934" data-name="Grupo 1174934" transform="translate(-1229 -1919.935)">
    <g id="Grupo_1174836" data-name="Grupo 1174836" transform="translate(116 729.272)">
      <g id="Grupo_1171901" data-name="Grupo 1171901" transform="translate(1 -769.338)">
        <g id="Grupo_1164700" data-name="Grupo 1164700" transform="translate(1121 1966)">
          <g id="Grupo_1160931" data-name="Grupo 1160931" transform="translate(0)">
            <g id="Grupo_1160749" data-name="Grupo 1160749" transform="translate(0)">
              <g id="Grupo_1158891" data-name="Grupo 1158891" transform="translate(0 0)">
                <g id="Grupo_1157406" data-name="Grupo 1157406" transform="translate(0)">
                  <g id="Grupo_1155793" data-name="Grupo 1155793" transform="translate(0)">
                    <g id="Grupo_1154704" data-name="Grupo 1154704" transform="translate(0)">
                      <g id="Grupo_1150790" data-name="Grupo 1150790" transform="translate(0)">
                        <g id="Grupo_1154214" data-name="Grupo 1154214" transform="translate(0)">
                          <g id="Grupo_1152583" data-name="Grupo 1152583" transform="translate(0 0)">
                            <g id="Grupo_1146973" data-name="Grupo 1146973" transform="translate(0 0)">
                              <g id="Grupo_1146954" data-name="Grupo 1146954">
                                <g transform="matrix(1, 0, 0, 1, -9, -6)" filter="url(#Trazado_982547)">
                                  <g id="Trazado_982547-2" data-name="Trazado 982547" transform="translate(9 6)" fill="#e9f9fd">
                                    <path d="M 46.00000381469727 90.49988555908203 C 39.99188232421875 90.49988555908203 34.16427230834961 89.32352447509766 28.67905807495117 87.00347137451172 C 23.38020324707031 84.76226043701172 18.62104415893555 81.55342864990234 14.53375053405762 77.46615600585938 C 10.44647026062012 73.37887573242188 7.237643718719482 68.61971282958984 4.996417045593262 63.32085800170898 C 2.676363706588745 57.83565902709961 1.500003814697266 52.00806045532227 1.500003814697266 45.99993896484375 C 1.500003814697266 39.99181747436523 2.676363706588745 34.16421890258789 4.996417045593262 28.67901802062988 C 7.237643718719482 23.38017845153809 10.44647026062012 18.62101936340332 14.53375053405762 14.53373908996582 C 18.62104415893555 10.44645881652832 23.38020324707031 7.237632274627686 28.67905807495117 4.996418952941895 C 34.16427230834961 2.676365613937378 39.99188232421875 1.500005602836609 46.00000381469727 1.500005602836609 C 52.00812530517578 1.500005602836609 57.83573532104492 2.676365613937378 63.32094955444336 4.996418952941895 C 68.61980438232422 7.237632274627686 73.37897491455078 10.44645881652832 77.46625518798828 14.53373908996582 C 81.55355072021484 18.62101936340332 84.76236724853516 23.38017845153809 87.00359344482422 28.67901802062988 C 89.32364654541016 34.16421890258789 90.5 39.99181747436523 90.5 45.99993896484375 C 90.5 52.00806045532227 89.32364654541016 57.83565902709961 87.00359344482422 63.32085800170898 C 84.76236724853516 68.61971282958984 81.55355072021484 73.37887573242188 77.46625518798828 77.46615600585938 C 73.37897491455078 81.55342864990234 68.61980438232422 84.76226043701172 63.32094955444336 87.00347137451172 C 57.83573532104492 89.32352447509766 52.00812530517578 90.49988555908203 46.00000381469727 90.49988555908203 Z" stroke="none"/>
                                    <path d="M 46.00000381469727 2.999992370605469 C 40.19371795654297 2.999992370605469 34.56270217895508 4.136497497558594 29.26338958740234 6.377906799316406 C 24.14333343505859 8.543510437011719 19.54441833496094 11.64437866210938 15.59440612792969 15.59439849853516 C 11.64440155029297 19.54439544677734 8.54351806640625 24.14329528808594 6.377914428710938 29.26335144042969 C 4.136505126953125 34.56266784667969 3.000007629394531 40.19366836547852 3.000007629394531 45.99993896484375 C 3.000007629394531 51.80620956420898 4.136505126953125 57.43722534179688 6.377914428710938 62.73654174804688 C 8.54351806640625 67.85658264160156 11.64440155029297 72.45548248291016 15.59440612792969 76.40549468994141 C 19.54441833496094 80.35549926757812 24.14333343505859 83.45636749267578 29.26337432861328 85.62196350097656 C 34.56270217895508 87.86338043212891 40.19371795654297 88.9998779296875 46.00000381469727 88.9998779296875 C 51.80628967285156 88.9998779296875 57.43730545043945 87.86338043212891 62.73663330078125 85.62196350097656 C 67.85667419433594 83.45636749267578 72.45558929443359 80.35549926757812 76.40560150146484 76.40549468994141 C 80.35560607910156 72.45548248291016 83.45648956298828 67.85658264160156 85.62208557128906 62.73654174804688 C 87.86350250244141 57.43722534179688 89 51.80620956420898 89 45.99993896484375 C 89 40.19366836547852 87.86350250244141 34.56266784667969 85.62208557128906 29.26335144042969 C 83.45648956298828 24.14329528808594 80.35560607910156 19.54439544677734 76.40560150146484 15.59439849853516 C 72.45558929443359 11.64437866210938 67.85667419433594 8.543510437011719 62.73661804199219 6.377906799316406 C 57.43730545043945 4.136497497558594 51.80628967285156 2.999992370605469 46.00000381469727 2.999992370605469 M 46.00000381469727 -7.62939453125e-06 C 71.40510559082031 -7.62939453125e-06 92 20.59487915039062 92 45.99993896484375 C 92 71.40501403808594 71.40510559082031 91.99988555908203 46.00000381469727 91.99988555908203 C 20.59490203857422 91.99988555908203 7.62939453125e-06 71.40501403808594 7.62939453125e-06 45.99993896484375 C 7.62939453125e-06 20.59487915039062 20.59490203857422 -7.62939453125e-06 46.00000381469727 -7.62939453125e-06 Z" stroke="none" fill="#36ceef"/>
                                  </g>
                                </g>
                              </g>
                            </g>
                          </g>
                        </g>
                      </g>
                    </g>
                  </g>
                </g>
              </g>
            </g>
          </g>
        </g>
      </g>
    </g>
    <g id="notice_15586581" transform="translate(1230.11 1940.904)">
      <g id="Grupo_1174933" data-name="Grupo 1174933" transform="translate(27.852 1.943)">
        <g id="Grupo_1174929" data-name="Grupo 1174929" transform="translate(0 0)">
          <path id="Trazado_1035463" data-name="Trazado 1035463" d="M76.047,51.459a2.315,2.315,0,0,1,2.311,2.311v46.4a2.315,2.315,0,0,1-2.311,2.311H37.213A2.315,2.315,0,0,1,34.9,100.17V53.77a2.316,2.316,0,0,1,2.311-2.311H76.047Z" transform="translate(-34.902 -46.459)" fill="#b4d2d7" fill-rule="evenodd"/>
          <path id="Trazado_1035464" data-name="Trazado 1035464" d="M367.3,51.459a2.316,2.316,0,0,1,2.311,2.311v46.4a2.316,2.316,0,0,1-2.311,2.311h-2.268a2.315,2.315,0,0,0,2.311-2.311V53.77a2.316,2.316,0,0,0-2.311-2.311H367.3Z" transform="translate(-326.15 -46.459)" fill="#9bb9c3" fill-rule="evenodd"/>
          <path id="Trazado_1035465" data-name="Trazado 1035465" d="M66.88,83.892v42.583a.455.455,0,0,0,.454.454h29.94L102.8,121.4V83.892a.455.455,0,0,0-.454-.454H67.334A.454.454,0,0,0,66.88,83.892Z" transform="translate(-63.114 -74.672)" fill="#eff4f7" fill-rule="evenodd"/>
          <path id="Trazado_1035466" data-name="Trazado 1035466" d="M66.88,83.892v42.583a.455.455,0,0,0,.454.454H69.3a.455.455,0,0,1-.454-.454V83.892a.454.454,0,0,1,.454-.454H67.334A.454.454,0,0,0,66.88,83.892Z" transform="translate(-63.114 -74.672)" fill="#e2e3e3" fill-rule="evenodd"/>
          <path id="Trazado_1035467" data-name="Trazado 1035467" d="M324.966,405.768V411.3l5.531-5.531Z" transform="translate(-290.807 -359.043)" fill="#e2e3e3" fill-rule="evenodd"/>
          <path id="Trazado_1035468" data-name="Trazado 1035468" d="M164.084,14h-5.794l2.305-3.259a1.1,1.1,0,0,0-.9-1.741h-7.218a1.1,1.1,0,0,0-.9,1.741L153.881,14h-5.794a.452.452,0,0,0-.443.549l.783,3.625a1.349,1.349,0,0,0,1.33,1.073h12.657a1.349,1.349,0,0,0,1.33-1.073l.783-3.625A.452.452,0,0,0,164.084,14Z" transform="translate(-134.358 -9.002)" fill="#da8c36" fill-rule="evenodd"/>
          <path id="Trazado_1035469" data-name="Trazado 1035469" d="M154,9h-1.525a1.1,1.1,0,0,0-.9,1.741L153.88,14H155.4L153.1,10.743A1.1,1.1,0,0,1,154,9Zm-4.39,5a.452.452,0,0,0-.443.549l.783,3.625a1.349,1.349,0,0,0,1.33,1.073h-1.525a1.349,1.349,0,0,1-1.33-1.073l-.783-3.625a.452.452,0,0,1,.443-.549Z" transform="translate(-134.357 -9.002)" fill="#c97629" fill-rule="evenodd"/>
        </g>
        <g id="Grupo_1174931" data-name="Grupo 1174931" transform="translate(7.766 17.29)">
          <circle id="Elipse_12284" data-name="Elipse 12284" cx="13.962" cy="13.962" r="13.962" fill="#fdb800"/>
          <path id="Trazado_1035470" data-name="Trazado 1035470" d="M148.813,184.1a13.962,13.962,0,1,1-19.681,19.681A13.961,13.961,0,0,0,148.813,184.1Z" transform="translate(-125.801 -180.772)" fill="#f4a40e" fill-rule="evenodd"/>
          <circle id="Elipse_12285" data-name="Elipse 12285" cx="9.745" cy="9.745" r="9.745" transform="translate(4.217 4.217)" fill="#ffda2d"/>
          <g id="Grupo_1174930" data-name="Grupo 1174930" transform="translate(4.217 4.217)">
            <path id="Trazado_1035471" data-name="Trazado 1035471" d="M146.4,191.626a9.718,9.718,0,0,1,7.135,3.109,9.745,9.745,0,0,0-12.91,14.487,9.745,9.745,0,0,1,5.775-17.6Z" transform="translate(-136.654 -191.626)" fill="#ffc700" fill-rule="evenodd"/>
            <path id="Trazado_1035472" data-name="Trazado 1035472" d="M185.146,225.623a.989.989,0,0,1,1.979,0v.8a3.063,3.063,0,0,1,1.868,1.2.988.988,0,1,1-1.6,1.159,1.063,1.063,0,0,0-.372-.325,1.031,1.031,0,0,0-.473-.11h-.639a1.04,1.04,0,0,0,0,2.08h.454a3.019,3.019,0,0,1,.763,5.939v.842a.989.989,0,1,1-1.979,0v-.8a3.063,3.063,0,0,1-1.868-1.2.988.988,0,0,1,1.6-1.159,1.063,1.063,0,0,0,.372.325,1.031,1.031,0,0,0,.473.11h.639a1.04,1.04,0,0,0,0-2.08h-.454a3.019,3.019,0,0,1-.763-5.939Z" transform="translate(-177.445 -220.747)" fill="#ffc700" fill-rule="evenodd"/>
          </g>
        </g>
        <g id="Grupo_1174932" data-name="Grupo 1174932" transform="translate(21.391 31.782)">
          <path id="Trazado_1035473" data-name="Trazado 1035473" d="M232.811,279.4l14.215,23.722a1.418,1.418,0,0,1-1.218,2.15H217.972a1.418,1.418,0,0,1-1.218-2.15L230.969,279.4a1.075,1.075,0,0,1,1.842,0Z" transform="translate(-216.548 -278.881)" fill="#fc685b" fill-rule="evenodd"/>
          <path id="Trazado_1035474" data-name="Trazado 1035474" d="M232.818,279.4l14.215,23.722a1.418,1.418,0,0,1-1.218,2.15H217.979a1.419,1.419,0,0,1-1.423-1.369h26.522a1.418,1.418,0,0,0,1.218-2.15l-13.358-22.291.037-.062a1.075,1.075,0,0,1,1.842,0Z" transform="translate(-216.555 -278.88)" fill="#f35244" fill-rule="evenodd"/>
          <path id="Trazado_1035475" data-name="Trazado 1035475" d="M332.562,342.822a1.518,1.518,0,1,1-1.518,1.518A1.518,1.518,0,0,1,332.562,342.822Zm1.18-3a1.182,1.182,0,0,1-2.359,0l-.724-10.514c0-2.385,3.807-2.385,3.807,0Z" transform="translate(-317.22 -321.795)" fill="#eff4f7" fill-rule="evenodd"/>
          <path id="Trazado_1035476" data-name="Trazado 1035476" d="M332.562,342.824a1.513,1.513,0,0,1,1.115.488,1.519,1.519,0,0,0-1.747,1.5,1.513,1.513,0,0,0,.4,1.03,1.518,1.518,0,0,1,.229-3.019Zm-.107-1.892a1.087,1.087,0,0,1-1.073-1.1l-.724-10.514c0-1.841,2.269-2.261,3.3-1.259a1.854,1.854,0,0,0-2.418,1.729l.724,10.514A1.086,1.086,0,0,0,332.455,340.933Z" transform="translate(-317.22 -321.797)" fill="#e2e3e3" fill-rule="evenodd"/>
        </g>
      </g>
      <path id="Trazado_1035477" data-name="Trazado 1035477" d="M52.777,35.225a2.976,2.976,0,0,1-2.255,2.884v.878a.941.941,0,1,1-1.883,0v-.84a2.992,2.992,0,0,1-1.883-1.186.947.947,0,0,1,.217-1.315.937.937,0,0,1,1.311.211,1.1,1.1,0,0,0,.883.455h.639a1.087,1.087,0,1,0,0-2.175H49.35a2.972,2.972,0,0,1-.711-5.856V27.4a.941.941,0,1,1,1.883,0v.84A2.985,2.985,0,0,1,52.4,29.43a.942.942,0,0,1-1.527,1.1,1.087,1.087,0,0,0-.878-.455H49.35a1.087,1.087,0,0,0,0,2.175h.456a2.975,2.975,0,0,1,2.972,2.971ZM49.578,42a8.8,8.8,0,1,0-8.8-8.8A8.813,8.813,0,0,0,49.578,42Zm0-19.491A10.688,10.688,0,1,0,60.27,33.2,10.7,10.7,0,0,0,49.578,22.508ZM64.824,51.692v.065c0,.054,0,.166-.239.166s-.239-.112-.239-.166v-.065l-.722-10.477c.017-.779.8-.819.961-.819s.944.04.961.819Zm-.239-13.18a2.7,2.7,0,0,0-2.844,2.73v.065l.722,10.486a2.125,2.125,0,0,0,4.244,0l.722-10.486v-.065a2.705,2.705,0,0,0-2.844-2.73Zm0,18.334a.576.576,0,1,1,.572-.576A.579.579,0,0,1,64.586,56.846Zm0-3.036a2.46,2.46,0,1,0,2.461,2.46A2.464,2.464,0,0,0,64.586,53.81Zm14.336,5.125a.479.479,0,0,0-.006-.482L64.7,34.731a.125.125,0,0,0-.111-.063.128.128,0,0,0-.117.063L50.256,58.453a.466.466,0,0,0-.006.482.461.461,0,0,0,.417.242H78.5A.469.469,0,0,0,78.921,58.935ZM28.794,55.654a1.373,1.373,0,0,0,1.372,1.369H48.917l1.128-1.882H31.615a.941.941,0,0,1-.939-.942V10.709a.941.941,0,0,1,.939-.942h9.048l-.405-1.882H30.166a1.373,1.373,0,0,0-1.372,1.369ZM47.373,7.885a.94.94,0,0,0,.839-.509.951.951,0,0,0-.067-.977L45.84,3.14a.145.145,0,0,1-.017-.168.154.154,0,0,1,.15-.087h7.215a.152.152,0,0,1,.144.087.158.158,0,0,1-.011.168L51.017,6.4a.927.927,0,0,0-.067.977.938.938,0,0,0,.833.509h5.188l-.655,3.034a.4.4,0,0,1-.405.33H43.252a.409.409,0,0,1-.411-.33l-.655-3.034Zm9.265,36.249,5.915-9.873c.033-.354.05-.712.05-1.066a13.029,13.029,0,1,0-5.965,10.939Zm7.948-11.351a2,2,0,0,1,1.727.979l.289.477V11.651H58.059a2.284,2.284,0,0,1-2.15,1.482H43.252a2.278,2.278,0,0,1-2.15-1.482H32.56V53.257H51.172l3.666-6.113A14.906,14.906,0,1,1,64.48,32.787c.033,0,.067,0,.106,0ZM70.368,9.254v31.27l-1.883-3.14V10.709a.943.943,0,0,0-.944-.942H58.493L58.9,7.885H69a1.373,1.373,0,0,1,1.372,1.369Zm10.159,48.23L72.25,43.668V9.254A3.258,3.258,0,0,0,69,6H53.6L54.86,4.228A2.047,2.047,0,0,0,53.188,1H45.973A2.042,2.042,0,0,0,44.3,4.228L45.556,6H30.166a3.255,3.255,0,0,0-3.255,3.254v46.4a3.254,3.254,0,0,0,3.255,3.253H48.312a2.367,2.367,0,0,0,2.355,2.153H78.5a2.358,2.358,0,0,0,2.022-3.576Z" fill-rule="evenodd"/>
    </g>
  </g>
</svg>
