<svg xmlns="http://www.w3.org/2000/svg" xmlns:xlink="http://www.w3.org/1999/xlink" width="113" height="113" viewBox="0 0 113 113">
  <defs>
    <filter id="Trazado_982547" x="0" y="0" width="113" height="113" filterUnits="userSpaceOnUse">
      <feOffset dy="3" input="SourceAlpha"/>
      <feGaussianBlur stdDeviation="3" result="blur"/>
      <feFlood flood-opacity="0.161"/>
      <feComposite operator="in" in2="blur"/>
      <feComposite in="SourceGraphic"/>
    </filter>
  </defs>
  <g id="Grupo_1174941" data-name="Grupo 1174941" transform="translate(-901.5 -5222.553)">
    <g id="Grupo_1174849" data-name="Grupo 1174849" transform="translate(910.5 5228.553)">
      <g id="Grupo_1167343" data-name="Grupo 1167343" transform="translate(0)">
        <g id="Grupo_1166777" data-name="Grupo 1166777" transform="translate(0)">
          <g id="Grupo_1164305" data-name="Grupo 1164305">
            <g id="Grupo_1163948" data-name="Grupo 1163948">
              <g id="Grupo_1158168" data-name="Grupo 1158168">
                <g id="Grupo_1152576" data-name="Grupo 1152576">
                  <g id="Grupo_1148633" data-name="Grupo 1148633">
                    <g id="Grupo_1148525" data-name="Grupo 1148525">
                      <g transform="matrix(1, 0, 0, 1, -9, -6)" filter="url(#Trazado_982547)">
                        <g id="Trazado_982547-2" data-name="Trazado 982547" transform="translate(9 6)" fill="#f2f7e5">
                          <path d="M 47.5 93.5 C 41.28937149047852 93.5 35.26533508300781 92.28397369384766 29.59518623352051 89.88570404052734 C 24.11771965026855 87.56893157958984 19.19813346862793 84.25196075439453 14.97309303283691 80.02691650390625 C 10.74804019927979 75.80186462402344 7.431066513061523 70.88229370117188 5.114293098449707 65.40481567382812 C 2.716026782989502 59.73468017578125 1.5 53.71062850952148 1.5 47.5 C 1.5 41.28937149047852 2.716026782989502 35.26533508300781 5.114293098449707 29.59518623352051 C 7.431066513061523 24.11771965026855 10.74804019927979 19.19813346862793 14.97309303283691 14.97309303283691 C 19.19813346862793 10.74804019927979 24.11771965026855 7.431066513061523 29.59518623352051 5.114293098449707 C 35.26533508300781 2.716026782989502 41.28937149047852 1.5 47.5 1.5 C 53.71062850952148 1.5 59.73468017578125 2.716026782989502 65.40481567382812 5.114293098449707 C 70.88229370117188 7.431066513061523 75.80186462402344 10.74804019927979 80.02691650390625 14.97309303283691 C 84.25196075439453 19.19813346862793 87.56893157958984 24.11771965026855 89.88570404052734 29.59518623352051 C 92.28397369384766 35.26533508300781 93.5 41.28937149047852 93.5 47.5 C 93.5 53.71062850952148 92.28397369384766 59.73468017578125 89.88570404052734 65.40481567382812 C 87.56893157958984 70.88229370117188 84.25196075439453 75.80186462402344 80.02691650390625 80.02691650390625 C 75.80186462402344 84.25196075439453 70.88229370117188 87.56893157958984 65.40481567382812 89.88570404052734 C 59.73468017578125 92.28397369384766 53.71062850952148 93.5 47.5 93.5 Z" stroke="none"/>
                          <path d="M 47.5 3 C 41.49121475219727 3 35.66376876831055 4.176155090332031 30.17950439453125 6.495796203613281 C 24.88084411621094 8.736953735351562 20.12152099609375 11.94598388671875 16.03375244140625 16.03375244140625 C 11.94598388671875 20.12152099609375 8.736953735351562 24.88084411621094 6.495796203613281 30.17950439453125 C 4.176155090332031 35.66376876831055 3 41.49121475219727 3 47.5 C 3 53.50878524780273 4.176155090332031 59.33624649047852 6.495796203613281 64.82049560546875 C 8.736953735351562 70.11917114257812 11.94598388671875 74.87849426269531 16.03375244140625 78.96626281738281 C 20.12152099609375 83.05403137207031 24.88084411621094 86.2630615234375 30.17950439453125 88.50419616699219 C 35.66376876831055 90.82384490966797 41.49121475219727 92 47.5 92 C 53.50878524780273 92 59.33624649047852 90.82384490966797 64.82049560546875 88.50419616699219 C 70.11917114257812 86.2630615234375 74.87849426269531 83.05403137207031 78.96626281738281 78.96626281738281 C 83.05403137207031 74.87849426269531 86.2630615234375 70.11917114257812 88.50419616699219 64.82049560546875 C 90.82384490966797 59.33624649047852 92 53.50878524780273 92 47.5 C 92 41.49121475219727 90.82384490966797 35.66376876831055 88.50419616699219 30.17950439453125 C 86.2630615234375 24.88084411621094 83.05403137207031 20.12152099609375 78.96626281738281 16.03375244140625 C 74.87849426269531 11.94598388671875 70.11917114257812 8.736953735351562 64.82049560546875 6.495796203613281 C 59.33624649047852 4.176155090332031 53.50878524780273 3 47.5 3 M 47.5 0 C 73.73353576660156 0 95 21.2664794921875 95 47.5 C 95 73.73353576660156 73.73353576660156 95 47.5 95 C 21.2664794921875 95 0 73.73353576660156 0 47.5 C 0 21.2664794921875 21.2664794921875 0 47.5 0 Z" stroke="none" fill="#86b60c"/>
                        </g>
                      </g>
                    </g>
                  </g>
                </g>
              </g>
            </g>
          </g>
        </g>
      </g>
    </g>
    <g id="fildoutline" transform="translate(925 5244)">
      <g id="_16-Valentine_copy_4" data-name="16-Valentine copy 4">
        <path id="Trazado_1035493" data-name="Trazado 1035493" d="M31.737,61H20.173C9,61-.676,53.122,5.391,41.734A117.729,117.729,0,0,1,18,23H35A176.182,176.182,0,0,1,46.608,41.734C52.682,53.118,43,61,31.737,61Z" fill="#44bc59"/>
        <path id="Trazado_1035494" data-name="Trazado 1035494" d="M37.737,60H26.173C15,60,5.323,52.122,11.391,40.734A118.847,118.847,0,0,1,23.178,23H18A117.728,117.728,0,0,0,5.391,41.734C-.677,53.122,9,61,20.173,61H31.737a22.7,22.7,0,0,0,6.787-1.017C38.262,59.991,38,60,37.737,60Z" fill="#2d9739"/>
        <path id="Trazado_1035495" data-name="Trazado 1035495" d="M28,17H24L21.016,5.7A2,2,0,0,1,22.888,3h6.228a2,2,0,0,1,1.873,2.7Z" fill="#81c785"/>
        <path id="Trazado_1035496" data-name="Trazado 1035496" d="M23.016,6.7A2,2,0,0,1,24.888,4h5.946a1.978,1.978,0,0,0-1.718-1H22.888a2,2,0,0,0-1.873,2.7L24,17h1.736Z" fill="#66bb6a"/>
        <path id="Trazado_1035497" data-name="Trazado 1035497" d="M28.989,6.7A2,2,0,0,0,27.116,4H21.17a1.978,1.978,0,0,1,1.718-1h6.228a2,2,0,0,1,1.873,2.7L28,17H26.267Z" fill="#66bb6a"/>
        <path id="Trazado_1035498" data-name="Trazado 1035498" d="M21.018,5.7,24,17H19s-3.861-4.886-5.42-7a2.026,2.026,0,0,1,1.28-3.33,33.39,33.39,0,0,0,6.07-1.28,1.583,1.583,0,0,0,.09.31Z" fill="#81c785"/>
        <path id="Trazado_1035499" data-name="Trazado 1035499" d="M16.858,6.67a41.076,41.076,0,0,0,4.218-.749L21.018,5.7a1.583,1.583,0,0,1-.09-.31,33.39,33.39,0,0,1-6.07,1.28A2.026,2.026,0,0,0,13.578,10C15.138,12.114,19,17,19,17h2s-3.861-4.886-5.42-7a2.026,2.026,0,0,1,1.28-3.33Z" fill="#66bb6a"/>
        <path id="Trazado_1035500" data-name="Trazado 1035500" d="M38.418,10C36.854,12.11,33,17,33,17H28l2.99-11.3a1.637,1.637,0,0,0,.1-.38,30.732,30.732,0,0,0,6.06,1.35A2.023,2.023,0,0,1,38.418,10Z" fill="#81c785"/>
        <path id="Trazado_1035501" data-name="Trazado 1035501" d="M37.148,6.67a30.732,30.732,0,0,1-6.06-1.35,1.637,1.637,0,0,1-.1.38l-.048.183a35.777,35.777,0,0,0,4.208.787A2.023,2.023,0,0,1,36.418,10C34.854,12.11,31,17,31,17h2s3.856-4.89,5.42-7a2.024,2.024,0,0,0-1.27-3.33Z" fill="#66bb6a"/>
        <rect id="Rectángulo_415354" data-name="Rectángulo 415354" width="23" height="6" rx="3" transform="translate(14.5 17)" fill="#ffd55d"/>
        <path id="Trazado_1035502" data-name="Trazado 1035502" d="M21.5,21a2.971,2.971,0,0,1-2.816-4H17.5a3,3,0,0,0,0,6h17a2.991,2.991,0,0,0,2.816-2Z" fill="#ffc239"/>
        <circle id="Elipse_12291" data-name="Elipse 12291" cx="9.5" cy="9.5" r="9.5" transform="translate(16.5 32.047)" fill="#cdf8c8"/>
        <path id="Trazado_1035503" data-name="Trazado 1035503" d="M30,49.047a9.5,9.5,0,0,1-6.13-16.752,9.5,9.5,0,1,0,8.26,16.5,9.5,9.5,0,0,1-2.13.248Z" fill="#abe4a3"/>
        <rect id="Rectángulo_415355" data-name="Rectángulo 415355" width="4" height="15" transform="translate(39 46)" fill="#ffd55d"/>
        <rect id="Rectángulo_415356" data-name="Rectángulo 415356" width="2" height="15" transform="translate(39 46)" fill="#ffcb29"/>
        <rect id="Rectángulo_415357" data-name="Rectángulo 415357" width="4" height="6" transform="translate(31 55)" fill="#ffd55d"/>
        <rect id="Rectángulo_415358" data-name="Rectángulo 415358" width="2" height="6" transform="translate(31 55)" fill="#ffcb29"/>
        <rect id="Rectángulo_415359" data-name="Rectángulo 415359" width="4" height="26" transform="translate(47 35)" fill="#ffd55d"/>
        <rect id="Rectángulo_415360" data-name="Rectángulo 415360" width="2" height="26" transform="translate(47 35)" fill="#ffcb29"/>
        <rect id="Rectángulo_415361" data-name="Rectángulo 415361" width="4" height="34" transform="translate(55 27)" fill="#ffd55d"/>
        <rect id="Rectángulo_415362" data-name="Rectángulo 415362" width="2" height="34" transform="translate(55 27)" fill="#ffcb29"/>
        <path id="Trazado_1035504" data-name="Trazado 1035504" d="M58.24,18.98l-1.88-.74C51.01,28.06,39.07,34.16,28,32l.46-3.72c9.48,2.06,19.57-3.19,24.14-11.51l-1.63-.64,6.3-5.94Z" fill="#ffc239"/>
        <path id="Trazado_1035505" data-name="Trazado 1035505" d="M32.89,28.707A23.283,23.283,0,0,0,53.6,16.77l-1.63-.64,5.394-5.086-.094-.854-6.3,5.94,1.63.64A23.359,23.359,0,0,1,32.89,28.707Z" fill="#faa629"/>
        <path id="Trazado_1035506" data-name="Trazado 1035506" d="M29,32l.44-3.554c-.327-.054-.654-.095-.979-.166L28,32a23.717,23.717,0,0,0,4.856.413A23.57,23.57,0,0,1,29,32Z" fill="#faa629"/>
        <path id="Trazado_1035507" data-name="Trazado 1035507" d="M26,34.547a1,1,0,0,1,1,1v1h1a1,1,0,0,1,0,2H25a1.132,1.132,0,0,0-1,1,1.151,1.151,0,0,0,1,1h2a3,3,0,0,1,0,6v1a1,1,0,0,1-2,0v-1H24a1,1,0,0,1,0-2h3a1.151,1.151,0,0,0,1-1,1.132,1.132,0,0,0-1-1H25a3,3,0,0,1,0-6v-1a1,1,0,0,1,1-1ZM63,61a1,1,0,0,1-1,1H3a1,1,0,0,1,0-2h7.673a14.763,14.763,0,0,1-6.531-5.621c-1.6-2.667-2.838-7.108.365-13.119a121.436,121.436,0,0,1,11.6-17.523,3.979,3.979,0,0,1,.87-7.684c-1.27-1.619-3.2-4.091-4.207-5.459a3.232,3.232,0,0,1-.4-3.21,2.888,2.888,0,0,1,2.379-1.709,37.24,37.24,0,0,0,5.159-1A2.98,2.98,0,0,1,22.889,2h6.228A3,3,0,0,1,32.09,4.614a33.921,33.921,0,0,0,5.155,1.061,2.886,2.886,0,0,1,2.382,1.711,3.23,3.23,0,0,1-.405,3.21c-1,1.346-2.935,3.831-4.207,5.456a3.974,3.974,0,0,1,1.516,7.375c.552.786,1.392,2.005,2.421,3.555a23.307,23.307,0,0,0,12.611-9.51l-.986-.423a1,1,0,0,1-.292-1.647l6.3-5.94a1,1,0,0,1,1.68.618l.971,8.79a1,1,0,0,1-1.311,1.059l-1.064-.355A25.8,25.8,0,0,1,42.174,32.04C43.519,34.227,44.8,36.4,46,38.539V35a1,1,0,0,1,1-1h4a1,1,0,0,1,1,1V60h2V27a1,1,0,0,1,1-1h4a1,1,0,0,1,1,1V60h2A1,1,0,0,1,63,61ZM38.761,29.111a23.256,23.256,0,0,1-9.439.353l-.212,1.717a26.131,26.131,0,0,0,11.266-.672A23.819,23.819,0,0,0,55.446,17.922a1,1,0,0,1,1.22-.521l.409.136L56.5,12.294l-3.73,3.518.628.27a1,1,0,0,1,.484,1.4A24.807,24.807,0,0,1,38.8,29.1h0ZM26,33.046a8.5,8.5,0,1,0,8.5,8.5,8.5,8.5,0,0,0-8.5-8.5ZM29.3,16h3.212c.928-1.18,3.815-4.858,5.1-6.6A1.228,1.228,0,0,0,37.8,8.191a.869.869,0,0,0-.752-.526A36.3,36.3,0,0,1,31.785,6.6ZM21.952,5.351a.933.933,0,0,1,.03.1L24.772,16h2.46L30.022,5.446c.009-.032.018-.064.03-.1A1,1,0,0,0,29.116,4H22.889a1,1,0,0,0-.937,1.351ZM19.483,16H22.7L20.235,6.662a40.754,40.754,0,0,1-5.274,1,.873.873,0,0,0-.756.527,1.231,1.231,0,0,0,.178,1.215C15.667,11.146,18.555,14.822,19.483,16ZM17.5,22h17a2,2,0,0,0,0-4h-17a2,2,0,0,0,0,4ZM34,56H32v4h2Zm8-9H40V60h2Zm4,9.74A14.731,14.731,0,0,1,44,58.4V60h2Zm0-14c-.087-.18-3.808-6.88-5.82-10.128a27.994,27.994,0,0,1-6.952.889c-.168,0-.335-.009-.5-.012A10.492,10.492,0,1,1,27.1,31.106l.365-2.948a1,1,0,0,1,.414-.693.985.985,0,0,1,.79-.162,21.343,21.343,0,0,0,8.2.16C35.753,25.8,34.905,24.589,34.486,24H18.469a119.085,119.085,0,0,0-12.2,18.2c-2.187,4.1-2.33,7.959-.415,11.149C8.281,57.39,13.9,60,20.17,60H30V55a1,1,0,0,1,1-1h4a1,1,0,0,1,1,1v4.574q1.025-.2,2-.5V46a1,1,0,0,1,1-1h4a1,1,0,0,1,1,1v9.856a10.769,10.769,0,0,0,2-2.323ZM50,36H48V60h2Zm8-8H56V60h2Z"/>
      </g>
    </g>
  </g>
</svg>
