<svg xmlns="http://www.w3.org/2000/svg" xmlns:xlink="http://www.w3.org/1999/xlink" width="113" height="113" viewBox="0 0 113 113">
  <defs>
    <filter id="Trazado_982547" x="0" y="0" width="113" height="113" filterUnits="userSpaceOnUse">
      <feOffset dy="3" input="SourceAlpha"/>
      <feGaussianBlur stdDeviation="3" result="blur"/>
      <feFlood flood-opacity="0.161"/>
      <feComposite operator="in" in2="blur"/>
      <feComposite in="SourceGraphic"/>
    </filter>
  </defs>
  <g id="Grupo_1176392" data-name="Grupo 1176392" transform="translate(-1216.5 -5222.553)">
    <g id="Grupo_1174850" data-name="Grupo 1174850" transform="translate(1225.5 5228.553)">
      <g id="Grupo_1167343" data-name="Grupo 1167343" transform="translate(0)">
        <g id="Grupo_1166777" data-name="Grupo 1166777" transform="translate(0)">
          <g id="Grupo_1164305" data-name="Grupo 1164305">
            <g id="Grupo_1163948" data-name="Grupo 1163948">
              <g id="Grupo_1158168" data-name="Grupo 1158168">
                <g id="Grupo_1152576" data-name="Grupo 1152576">
                  <g id="Grupo_1148633" data-name="Grupo 1148633">
                    <g id="Grupo_1148525" data-name="Grupo 1148525">
                      <g transform="matrix(1, 0, 0, 1, -9, -6)" filter="url(#Trazado_982547)">
                        <g id="Trazado_982547-2" data-name="Trazado 982547" transform="translate(9 6)" fill="#f2f7e5">
                          <path d="M 47.5 93.5 C 41.28937149047852 93.5 35.26533508300781 92.28397369384766 29.59518623352051 89.88570404052734 C 24.11771965026855 87.56893157958984 19.19813346862793 84.25196075439453 14.97309303283691 80.02691650390625 C 10.74804019927979 75.80186462402344 7.431066513061523 70.88229370117188 5.114293098449707 65.40481567382812 C 2.716026782989502 59.73468017578125 1.5 53.71062850952148 1.5 47.5 C 1.5 41.28937149047852 2.716026782989502 35.26533508300781 5.114293098449707 29.59518623352051 C 7.431066513061523 24.11771965026855 10.74804019927979 19.19813346862793 14.97309303283691 14.97309303283691 C 19.19813346862793 10.74804019927979 24.11771965026855 7.431066513061523 29.59518623352051 5.114293098449707 C 35.26533508300781 2.716026782989502 41.28937149047852 1.5 47.5 1.5 C 53.71062850952148 1.5 59.73468017578125 2.716026782989502 65.40481567382812 5.114293098449707 C 70.88229370117188 7.431066513061523 75.80186462402344 10.74804019927979 80.02691650390625 14.97309303283691 C 84.25196075439453 19.19813346862793 87.56893157958984 24.11771965026855 89.88570404052734 29.59518623352051 C 92.28397369384766 35.26533508300781 93.5 41.28937149047852 93.5 47.5 C 93.5 53.71062850952148 92.28397369384766 59.73468017578125 89.88570404052734 65.40481567382812 C 87.56893157958984 70.88229370117188 84.25196075439453 75.80186462402344 80.02691650390625 80.02691650390625 C 75.80186462402344 84.25196075439453 70.88229370117188 87.56893157958984 65.40481567382812 89.88570404052734 C 59.73468017578125 92.28397369384766 53.71062850952148 93.5 47.5 93.5 Z" stroke="none"/>
                          <path d="M 47.5 3 C 41.49121475219727 3 35.66376876831055 4.176155090332031 30.17950439453125 6.495796203613281 C 24.88084411621094 8.736953735351562 20.12152099609375 11.94598388671875 16.03375244140625 16.03375244140625 C 11.94598388671875 20.12152099609375 8.736953735351562 24.88084411621094 6.495796203613281 30.17950439453125 C 4.176155090332031 35.66376876831055 3 41.49121475219727 3 47.5 C 3 53.50878524780273 4.176155090332031 59.33624649047852 6.495796203613281 64.82049560546875 C 8.736953735351562 70.11917114257812 11.94598388671875 74.87849426269531 16.03375244140625 78.96626281738281 C 20.12152099609375 83.05403137207031 24.88084411621094 86.2630615234375 30.17950439453125 88.50419616699219 C 35.66376876831055 90.82384490966797 41.49121475219727 92 47.5 92 C 53.50878524780273 92 59.33624649047852 90.82384490966797 64.82049560546875 88.50419616699219 C 70.11917114257812 86.2630615234375 74.87849426269531 83.05403137207031 78.96626281738281 78.96626281738281 C 83.05403137207031 74.87849426269531 86.2630615234375 70.11917114257812 88.50419616699219 64.82049560546875 C 90.82384490966797 59.33624649047852 92 53.50878524780273 92 47.5 C 92 41.49121475219727 90.82384490966797 35.66376876831055 88.50419616699219 30.17950439453125 C 86.2630615234375 24.88084411621094 83.05403137207031 20.12152099609375 78.96626281738281 16.03375244140625 C 74.87849426269531 11.94598388671875 70.11917114257812 8.736953735351562 64.82049560546875 6.495796203613281 C 59.33624649047852 4.176155090332031 53.50878524780273 3 47.5 3 M 47.5 0 C 73.73353576660156 0 95 21.2664794921875 95 47.5 C 95 73.73353576660156 73.73353576660156 95 47.5 95 C 21.2664794921875 95 0 73.73353576660156 0 47.5 C 0 21.2664794921875 21.2664794921875 0 47.5 0 Z" stroke="none" fill="#86b60c"/>
                        </g>
                      </g>
                    </g>
                  </g>
                </g>
              </g>
            </g>
          </g>
        </g>
      </g>
    </g>
    <g id="profit_17645788" transform="translate(1239.994 5241.027)">
      <g id="Grupo_1174952" data-name="Grupo 1174952" transform="translate(1.37 9.184)">
        <g id="Grupo_1174942" data-name="Grupo 1174942" transform="translate(16.236 10.499)">
          <path id="Trazado_1035508" data-name="Trazado 1035508" d="M150.007,99.948c7.069,0,15.063,10.211,15.063,18.53a15.062,15.062,0,0,1-30.123,0C134.947,110.159,142.938,99.948,150.007,99.948Z" transform="translate(-134.947 -99.948)" fill="#ffd54f" fill-rule="evenodd"/>
        </g>
        <g id="Grupo_1174943" data-name="Grupo 1174943" transform="translate(5.565 40.865)">
          <path id="Trazado_1035509" data-name="Trazado 1035509" d="M51.075,344.468l14,14,5.846-5.847-14-13.995Z" transform="translate(-51.075 -338.625)" fill="#1a5b96" fill-rule="evenodd"/>
        </g>
        <g id="Grupo_1174944" data-name="Grupo 1174944" transform="translate(47.738 3.862)">
          <path id="Trazado_1035510" data-name="Trazado 1035510" d="M386.736,70.386V55.205h-4.179l7.428-7.428,7.428,7.428h-4.179V70.386Z" transform="translate(-382.557 -47.777)" fill="#05e39c" fill-rule="evenodd"/>
        </g>
        <g id="Grupo_1174945" data-name="Grupo 1174945" transform="translate(0 3.862)">
          <path id="Trazado_1035511" data-name="Trazado 1035511" d="M11.512,70.386V55.205H7.333l7.428-7.428,7.428,7.428H18.011V70.386Z" transform="translate(-7.333 -47.777)" fill="#05e39c" fill-rule="evenodd"/>
        </g>
        <g id="Grupo_1174946" data-name="Grupo 1174946" transform="translate(7.428 3.862)">
          <path id="Trazado_1035512" data-name="Trazado 1035512" d="M65.721,47.777l7.428,7.428H68.97V70.386H65.721Z" transform="translate(-65.721 -47.777)" fill="#0ed290" fill-rule="evenodd"/>
        </g>
        <g id="Grupo_1174947" data-name="Grupo 1174947" transform="translate(24.722 10.499)">
          <path id="Trazado_1035513" data-name="Trazado 1035513" d="M208.225,99.948c7.069,0,15.063,10.211,15.063,18.53a15.058,15.058,0,0,1-7.592,13.079,15.031,15.031,0,0,0,5.893-11.95c0-8.316-7.991-18.53-15.06-18.53a9.92,9.92,0,0,0-4.877,1.454,11.169,11.169,0,0,1,6.573-2.583Z" transform="translate(-201.652 -99.948)" fill="#ffc328" fill-rule="evenodd"/>
        </g>
        <g id="Grupo_1174948" data-name="Grupo 1174948" transform="translate(23.507 0)">
          <path id="Trazado_1035514" data-name="Trazado 1035514" d="M195.851,25.751h8.084l3.748-7.567c-4.845,2.993-4.012-.762-7.792-.762s-2.943,3.755-7.788.762Z" transform="translate(-192.103 -17.421)" fill="#ffd54f" fill-rule="evenodd"/>
        </g>
        <g id="Grupo_1174949" data-name="Grupo 1174949" transform="translate(25.153 8.33)">
          <path id="Trazado_1035515" data-name="Trazado 1035515" d="M206.89,82.894h8.59a1.847,1.847,0,0,1,0,3.695h-8.59a1.847,1.847,0,1,1,0-3.695Z" transform="translate(-205.041 -82.894)" fill="#1a5b96" fill-rule="evenodd"/>
        </g>
        <g id="Grupo_1174950" data-name="Grupo 1174950" transform="translate(13.478 34.995)">
          <path id="Trazado_1035516" data-name="Trazado 1035516" d="M113.272,300.419l4.931-4.493c3.274-2.6,6.442-2.644,9.505-.26h7.2a3.072,3.072,0,0,1,3.06,3.064,3.018,3.018,0,0,1-.4,1.507l6.93-6.78a3.435,3.435,0,1,1,4.806,4.909l-4.934,4.824-3.459,3.388a4.509,4.509,0,0,1-3.26,1.329l-12.8.007-2.038,2.038Z" transform="translate(-113.272 -292.482)" fill="#fdb4ba" fill-rule="evenodd"/>
        </g>
        <g id="Grupo_1174951" data-name="Grupo 1174951" transform="translate(55.166 3.862)">
          <path id="Trazado_1035517" data-name="Trazado 1035517" d="M440.945,47.777l7.428,7.428h-4.179V70.386h-3.249Z" transform="translate(-440.945 -47.777)" fill="#0ed290" fill-rule="evenodd"/>
        </g>
      </g>
      <path id="Trazado_1035518" data-name="Trazado 1035518" d="M27.777,31.827a3.6,3.6,0,0,1,.863-2.381,3.324,3.324,0,0,1,2.6-1.119h.878V26.282a.889.889,0,1,1,1.778,0v2.044h3.452a.889.889,0,0,1,0,1.778H31.239a1.594,1.594,0,0,0-1.261.513,1.85,1.85,0,0,0-.423,1.21,1.6,1.6,0,0,0,1.684,1.722h3.535a3.371,3.371,0,0,1,3.462,3.5,3.6,3.6,0,0,1-.864,2.38,3.325,3.325,0,0,1-2.6,1.119H33.9v2.048a.889.889,0,0,1-1.778,0V40.547H28.669a.889.889,0,0,1,0-1.778h6.1a1.594,1.594,0,0,0,1.261-.512,1.848,1.848,0,0,0,.423-1.208,1.6,1.6,0,0,0-1.684-1.72H31.239a3.372,3.372,0,0,1-3.462-3.5ZM65.444,20.619a.889.889,0,0,1-.821.549H61.294V35.615a.889.889,0,0,1-.889.889H53.836a.889.889,0,0,1-.889-.889V21.168H49.617a.889.889,0,0,1-.629-1.518l7.5-7.5a.889.889,0,0,1,.629-.26h0a.889.889,0,0,1,.629.261l7.5,7.5a.889.889,0,0,1,.192.969Zm-2.967-1.229-5.356-5.358-5.358,5.358h2.072a.889.889,0,0,1,.889.889V34.726h4.791V20.279a.889.889,0,0,1,.889-.889ZM12.177,36.5H5.608a.889.889,0,0,1-.889-.889V21.168H1.389A.889.889,0,0,1,.761,19.65l7.5-7.5a.889.889,0,0,1,.629-.26h0a.889.889,0,0,1,.629.261l7.5,7.5a.889.889,0,0,1-.629,1.518H13.066V35.615A.889.889,0,0,1,12.177,36.5Zm0-17.115h2.073L8.894,14.031,3.536,19.389H5.608a.889.889,0,0,1,.889.889V34.726h4.791V20.279a.889.889,0,0,1,.889-.889ZM52.1,44.643a4.367,4.367,0,0,1-.067,6.163l-4.986,4.874L43.548,59.1a5.447,5.447,0,0,1-3.919,1.6l-12.564.007-1.17,1.17,1.79,1.79a.889.889,0,0,1,0,1.257l-5.9,5.907a.889.889,0,0,1-1.257,0L6.383,56.688a.889.889,0,0,1,0-1.257l5.907-5.9a.889.889,0,0,1,1.257,0l1.488,1.488,4.354-3.967.046-.039.062-.047A15.992,15.992,0,0,1,16.9,38.2a20.564,20.564,0,0,1,3.227-10.357,22.882,22.882,0,0,1,6.393-6.963A2.751,2.751,0,0,1,27.6,16.615l-3.258-6.579A.889.889,0,0,1,25.6,8.886c2.437,1.5,2.948,1.114,3.875.407a5.415,5.415,0,0,1,7.061,0c.928.708,1.439,1.1,3.874-.406a.889.889,0,0,1,1.264,1.151l-3.258,6.578a2.753,2.753,0,0,1,1.075,4.264,22.884,22.884,0,0,1,6.392,6.964A20.567,20.567,0,0,1,49.11,38.2a16.173,16.173,0,0,1-.86,5.2A4.36,4.36,0,0,1,52.1,44.643ZM37.347,20.131a.977.977,0,0,0,0-1.954H28.669a.977.977,0,1,0,0,1.954ZM27.066,11.539,29.473,16.4h.792l-.513-2.557a.889.889,0,1,1,1.743-.35l.584,2.907h1.855l.584-2.907a.889.889,0,0,1,1.743.35L35.747,16.4h.792l2.407-4.859a3.5,3.5,0,0,1-3.488-.833,3.653,3.653,0,0,0-4.9,0,3.5,3.5,0,0,1-3.49.833Zm-6.1,34.424a8.159,8.159,0,0,1,3.88-1.166,8.114,8.114,0,0,1,5.042,1.757h6.972a3.989,3.989,0,0,1,3.881,3.1l5-4.893A14.323,14.323,0,0,0,47.332,38.2c0-5.885-4.268-13.125-9.573-16.322a2.753,2.753,0,0,1-.412.031H28.669a2.773,2.773,0,0,1-.412-.031c-5.306,3.2-9.576,10.436-9.576,16.322a14.226,14.226,0,0,0,2.287,7.763ZM25.8,64.3,12.918,51.414,8.269,56.06,21.153,68.944ZM50.824,45.886a2.585,2.585,0,0,0-3.651-.04l-6.914,6.765a3.982,3.982,0,0,1-3.4,1.907H26.7a.889.889,0,0,1,0-1.778H36.861a2.2,2.2,0,0,0,1.915-1.118h0c.02-.035.038-.071.056-.107l.02-.042a2.226,2.226,0,0,0,.129-.347c.007-.026.014-.052.02-.078s.015-.06.021-.091c.011-.055.019-.111.026-.167,0-.02,0-.04.006-.059.006-.064.01-.128.01-.193a2.207,2.207,0,0,0-2.2-2.206H29.59a.889.889,0,0,1-.546-.187c-2.774-2.158-5.548-2.08-8.481.239l-4.271,3.891,8.345,8.345,1.43-1.43a.889.889,0,0,1,.628-.26l12.933-.007a3.675,3.675,0,0,0,2.678-1.091L45.8,54.41l4.986-4.874a2.586,2.586,0,0,0,.039-3.649Z" transform="translate(0 0)"/>
    </g>
  </g>
</svg>
