<svg xmlns="http://www.w3.org/2000/svg" xmlns:xlink="http://www.w3.org/1999/xlink" width="113" height="113" viewBox="0 0 113 113">
  <defs>
    <filter id="Trazado_982547" x="0" y="0" width="113" height="113" filterUnits="userSpaceOnUse">
      <feOffset dy="3" input="SourceAlpha"/>
      <feGaussianBlur stdDeviation="3" result="blur"/>
      <feFlood flood-opacity="0.161"/>
      <feComposite operator="in" in2="blur"/>
      <feComposite in="SourceGraphic"/>
    </filter>
  </defs>
  <g id="Grupo_1176388" data-name="Grupo 1176388" transform="translate(-743.881 -4687.967)">
    <g id="Grupo_1174876" data-name="Grupo 1174876" transform="translate(752.881 4693.967)">
      <g id="Grupo_1167343" data-name="Grupo 1167343" transform="translate(0)">
        <g id="Grupo_1166777" data-name="Grupo 1166777" transform="translate(0)">
          <g id="Grupo_1164305" data-name="Grupo 1164305">
            <g id="Grupo_1163948" data-name="Grupo 1163948">
              <g id="Grupo_1158168" data-name="Grupo 1158168">
                <g id="Grupo_1152576" data-name="Grupo 1152576">
                  <g id="Grupo_1148633" data-name="Grupo 1148633">
                    <g id="Grupo_1148525" data-name="Grupo 1148525">
                      <g transform="matrix(1, 0, 0, 1, -9, -6)" filter="url(#Trazado_982547)">
                        <g id="Trazado_982547-2" data-name="Trazado 982547" transform="translate(9 6)" fill="#f2f7e5">
                          <path d="M 47.5 93.5 C 41.28937149047852 93.5 35.26533508300781 92.28397369384766 29.59518623352051 89.88570404052734 C 24.11771965026855 87.56893157958984 19.19813346862793 84.25196075439453 14.97309303283691 80.02691650390625 C 10.74804019927979 75.80186462402344 7.431066513061523 70.88229370117188 5.114293098449707 65.40481567382812 C 2.716026782989502 59.73468017578125 1.5 53.71062850952148 1.5 47.5 C 1.5 41.28937149047852 2.716026782989502 35.26533508300781 5.114293098449707 29.59518623352051 C 7.431066513061523 24.11771965026855 10.74804019927979 19.19813346862793 14.97309303283691 14.97309303283691 C 19.19813346862793 10.74804019927979 24.11771965026855 7.431066513061523 29.59518623352051 5.114293098449707 C 35.26533508300781 2.716026782989502 41.28937149047852 1.5 47.5 1.5 C 53.71062850952148 1.5 59.73468017578125 2.716026782989502 65.40481567382812 5.114293098449707 C 70.88229370117188 7.431066513061523 75.80186462402344 10.74804019927979 80.02691650390625 14.97309303283691 C 84.25196075439453 19.19813346862793 87.56893157958984 24.11771965026855 89.88570404052734 29.59518623352051 C 92.28397369384766 35.26533508300781 93.5 41.28937149047852 93.5 47.5 C 93.5 53.71062850952148 92.28397369384766 59.73468017578125 89.88570404052734 65.40481567382812 C 87.56893157958984 70.88229370117188 84.25196075439453 75.80186462402344 80.02691650390625 80.02691650390625 C 75.80186462402344 84.25196075439453 70.88229370117188 87.56893157958984 65.40481567382812 89.88570404052734 C 59.73468017578125 92.28397369384766 53.71062850952148 93.5 47.5 93.5 Z" stroke="none"/>
                          <path d="M 47.5 3 C 41.49121475219727 3 35.66376876831055 4.176155090332031 30.17950439453125 6.495796203613281 C 24.88084411621094 8.736953735351562 20.12152099609375 11.94598388671875 16.03375244140625 16.03375244140625 C 11.94598388671875 20.12152099609375 8.736953735351562 24.88084411621094 6.495796203613281 30.17950439453125 C 4.176155090332031 35.66376876831055 3 41.49121475219727 3 47.5 C 3 53.50878524780273 4.176155090332031 59.33624649047852 6.495796203613281 64.82049560546875 C 8.736953735351562 70.11917114257812 11.94598388671875 74.87849426269531 16.03375244140625 78.96626281738281 C 20.12152099609375 83.05403137207031 24.88084411621094 86.2630615234375 30.17950439453125 88.50419616699219 C 35.66376876831055 90.82384490966797 41.49121475219727 92 47.5 92 C 53.50878524780273 92 59.33624649047852 90.82384490966797 64.82049560546875 88.50419616699219 C 70.11917114257812 86.2630615234375 74.87849426269531 83.05403137207031 78.96626281738281 78.96626281738281 C 83.05403137207031 74.87849426269531 86.2630615234375 70.11917114257812 88.50419616699219 64.82049560546875 C 90.82384490966797 59.33624649047852 92 53.50878524780273 92 47.5 C 92 41.49121475219727 90.82384490966797 35.66376876831055 88.50419616699219 30.17950439453125 C 86.2630615234375 24.88084411621094 83.05403137207031 20.12152099609375 78.96626281738281 16.03375244140625 C 74.87849426269531 11.94598388671875 70.11917114257812 8.736953735351562 64.82049560546875 6.495796203613281 C 59.33624649047852 4.176155090332031 53.50878524780273 3 47.5 3 M 47.5 0 C 73.73353576660156 0 95 21.2664794921875 95 47.5 C 95 73.73353576660156 73.73353576660156 95 47.5 95 C 21.2664794921875 95 0 73.73353576660156 0 47.5 C 0 21.2664794921875 21.2664794921875 0 47.5 0 Z" stroke="none" fill="#86b60c"/>
                        </g>
                      </g>
                    </g>
                  </g>
                </g>
              </g>
            </g>
          </g>
        </g>
      </g>
    </g>
    <g id="cooking-time_1691836" transform="translate(768.098 4711.528)">
      <path id="Trazado_1035903" data-name="Trazado 1035903" d="M108.171,82a26.083,26.083,0,0,0-10.295,2.1h0L84.085,97.871l-.007.062A26.175,26.175,0,1,0,108.171,82Zm0,0" transform="translate(-71.781 -71.781)" fill="#7ed8f6"/>
      <path id="Trazado_1035904" data-name="Trazado 1035904" d="M164.371,143.185A21.185,21.185,0,1,1,143.185,122,21.186,21.186,0,0,1,164.371,143.185Zm0,0" transform="translate(-106.796 -106.796)" fill="#e0f4ff"/>
      <path id="Trazado_1035905" data-name="Trazado 1035905" d="M34.924,22.462A12.462,12.462,0,1,1,22.462,10,12.468,12.468,0,0,1,34.924,22.462Zm0,0" transform="translate(-8.753 -8.754)" fill="#fdbf00"/>
      <path id="Trazado_1035906" data-name="Trazado 1035906" d="M433.492,134.246A1.246,1.246,0,1,1,432.246,133,1.246,1.246,0,0,1,433.492,134.246Zm0,0" transform="translate(-377.288 -116.426)"/>
      <path id="Trazado_1035907" data-name="Trazado 1035907" d="M57.364,20.686a1.246,1.246,0,0,0-.332,1.731,24.921,24.921,0,1,1-43.9,4.986c.19.008.381.013.573.013a13.835,13.835,0,0,0,2.2-.175A22.426,22.426,0,1,0,27.241,15.905a13.846,13.846,0,0,0,.175-2.2c0-.191-.005-.382-.013-.573a24.965,24.965,0,0,1,22.958,2.611,1.246,1.246,0,0,0,1.4-2.063,27.466,27.466,0,0,0-24.7-3.083A13.71,13.71,0,1,0,10.6,27.062a27.419,27.419,0,1,0,48.493-6.045,1.246,1.246,0,0,0-1.731-.332Zm-31.1-1.475a19.875,19.875,0,0,1,8.878-2.721v3.7a1.246,1.246,0,1,0,2.492,0v-3.7A19.775,19.775,0,0,1,49.58,21.437l-2.617,2.616a1.246,1.246,0,0,0,1.763,1.763L51.342,23.2a19.773,19.773,0,0,1,4.947,11.944h-3.7a1.246,1.246,0,1,0,0,2.491h3.7a19.777,19.777,0,0,1-4.947,11.945l-2.616-2.616a1.246,1.246,0,0,0-1.763,1.762l2.616,2.616a19.767,19.767,0,0,1-11.944,4.947v-3.7a1.246,1.246,0,0,0-2.492,0v3.7A19.775,19.775,0,0,1,23.2,51.342l2.616-2.616a1.246,1.246,0,1,0-1.762-1.763l-2.616,2.616A19.767,19.767,0,0,1,16.49,37.635h3.7a1.246,1.246,0,0,0,0-2.492h-3.7a19.874,19.874,0,0,1,2.721-8.878,13.781,13.781,0,0,0,7.054-7.054Zm-23.772-5.5A11.216,11.216,0,1,1,13.708,24.924,11.229,11.229,0,0,1,2.493,13.708Zm0,0"/>
      <path id="Trazado_1035908" data-name="Trazado 1035908" d="M283.246,214.462h9.97a1.246,1.246,0,1,0,0-2.492h-8.723v-8.723a1.246,1.246,0,1,0-2.492,0v9.97A1.246,1.246,0,0,0,283.246,214.462Zm0,0" transform="translate(-246.857 -176.827)"/>
      <path id="Trazado_1035909" data-name="Trazado 1035909" d="M61.246,60A1.246,1.246,0,0,0,60,61.246v9.97a1.246,1.246,0,1,0,2.492,0v-9.97A1.246,1.246,0,0,0,61.246,60Zm0,0" transform="translate(-52.523 -52.523)"/>
      <path id="Trazado_1035910" data-name="Trazado 1035910" d="M103.739,72.462a3.743,3.743,0,0,0,3.739-3.739V63.739a3.739,3.739,0,1,0-7.477,0v4.985A3.743,3.743,0,0,0,103.739,72.462Zm-1.246-8.723a1.246,1.246,0,1,1,2.492,0v4.985a1.246,1.246,0,1,1-2.492,0Zm0,0" transform="translate(-87.538 -52.523)"/>
    </g>
  </g>
</svg>
