<svg xmlns="http://www.w3.org/2000/svg" xmlns:xlink="http://www.w3.org/1999/xlink" width="113" height="113" viewBox="0 0 113 113">
  <defs>
    <filter id="Trazado_982547" x="0" y="0" width="113" height="113" filterUnits="userSpaceOnUse">
      <feOffset dy="3" input="SourceAlpha"/>
      <feGaussianBlur stdDeviation="3" result="blur"/>
      <feFlood flood-opacity="0.161"/>
      <feComposite operator="in" in2="blur"/>
      <feComposite in="SourceGraphic"/>
    </filter>
  </defs>
  <g id="Grupo_1175059" data-name="Grupo 1175059" transform="translate(-272 -1005.053)">
    <g id="Grupo_1174859" data-name="Grupo 1174859" transform="translate(281 1011.053)">
      <g id="Grupo_1167343" data-name="Grupo 1167343" transform="translate(0)">
        <g id="Grupo_1166777" data-name="Grupo 1166777" transform="translate(0)">
          <g id="Grupo_1164305" data-name="Grupo 1164305">
            <g id="Grupo_1163948" data-name="Grupo 1163948">
              <g id="Grupo_1158168" data-name="Grupo 1158168">
                <g id="Grupo_1152576" data-name="Grupo 1152576">
                  <g id="Grupo_1148633" data-name="Grupo 1148633">
                    <g id="Grupo_1148525" data-name="Grupo 1148525">
                      <g transform="matrix(1, 0, 0, 1, -9, -6)" filter="url(#Trazado_982547)">
                        <g id="Trazado_982547-2" data-name="Trazado 982547" transform="translate(9 6)" fill="#f2f7e5">
                          <path d="M 47.5 93.5 C 41.28937149047852 93.5 35.26533508300781 92.28397369384766 29.59518623352051 89.88570404052734 C 24.11771965026855 87.56893157958984 19.19813346862793 84.25196075439453 14.97309303283691 80.02691650390625 C 10.74804019927979 75.80186462402344 7.431066513061523 70.88229370117188 5.114293098449707 65.40481567382812 C 2.716026782989502 59.73468017578125 1.5 53.71062850952148 1.5 47.5 C 1.5 41.28937149047852 2.716026782989502 35.26533508300781 5.114293098449707 29.59518623352051 C 7.431066513061523 24.11771965026855 10.74804019927979 19.19813346862793 14.97309303283691 14.97309303283691 C 19.19813346862793 10.74804019927979 24.11771965026855 7.431066513061523 29.59518623352051 5.114293098449707 C 35.26533508300781 2.716026782989502 41.28937149047852 1.5 47.5 1.5 C 53.71062850952148 1.5 59.73468017578125 2.716026782989502 65.40481567382812 5.114293098449707 C 70.88229370117188 7.431066513061523 75.80186462402344 10.74804019927979 80.02691650390625 14.97309303283691 C 84.25196075439453 19.19813346862793 87.56893157958984 24.11771965026855 89.88570404052734 29.59518623352051 C 92.28397369384766 35.26533508300781 93.5 41.28937149047852 93.5 47.5 C 93.5 53.71062850952148 92.28397369384766 59.73468017578125 89.88570404052734 65.40481567382812 C 87.56893157958984 70.88229370117188 84.25196075439453 75.80186462402344 80.02691650390625 80.02691650390625 C 75.80186462402344 84.25196075439453 70.88229370117188 87.56893157958984 65.40481567382812 89.88570404052734 C 59.73468017578125 92.28397369384766 53.71062850952148 93.5 47.5 93.5 Z" stroke="none"/>
                          <path d="M 47.5 3 C 41.49121475219727 3 35.66376876831055 4.176155090332031 30.17950439453125 6.495796203613281 C 24.88084411621094 8.736953735351562 20.12152099609375 11.94598388671875 16.03375244140625 16.03375244140625 C 11.94598388671875 20.12152099609375 8.736953735351562 24.88084411621094 6.495796203613281 30.17950439453125 C 4.176155090332031 35.66376876831055 3 41.49121475219727 3 47.5 C 3 53.50878524780273 4.176155090332031 59.33624649047852 6.495796203613281 64.82049560546875 C 8.736953735351562 70.11917114257812 11.94598388671875 74.87849426269531 16.03375244140625 78.96626281738281 C 20.12152099609375 83.05403137207031 24.88084411621094 86.2630615234375 30.17950439453125 88.50419616699219 C 35.66376876831055 90.82384490966797 41.49121475219727 92 47.5 92 C 53.50878524780273 92 59.33624649047852 90.82384490966797 64.82049560546875 88.50419616699219 C 70.11917114257812 86.2630615234375 74.87849426269531 83.05403137207031 78.96626281738281 78.96626281738281 C 83.05403137207031 74.87849426269531 86.2630615234375 70.11917114257812 88.50419616699219 64.82049560546875 C 90.82384490966797 59.33624649047852 92 53.50878524780273 92 47.5 C 92 41.49121475219727 90.82384490966797 35.66376876831055 88.50419616699219 30.17950439453125 C 86.2630615234375 24.88084411621094 83.05403137207031 20.12152099609375 78.96626281738281 16.03375244140625 C 74.87849426269531 11.94598388671875 70.11917114257812 8.736953735351562 64.82049560546875 6.495796203613281 C 59.33624649047852 4.176155090332031 53.50878524780273 3 47.5 3 M 47.5 0 C 73.73353576660156 0 95 21.2664794921875 95 47.5 C 95 73.73353576660156 73.73353576660156 95 47.5 95 C 21.2664794921875 95 0 73.73353576660156 0 47.5 C 0 21.2664794921875 21.2664794921875 0 47.5 0 Z" stroke="none" fill="#86b60c"/>
                        </g>
                      </g>
                    </g>
                  </g>
                </g>
              </g>
            </g>
          </g>
        </g>
      </g>
    </g>
    <g id="transaction_6851629" transform="translate(298.617 1033)">
      <path id="Trazado_1035713" data-name="Trazado 1035713" d="M2,2H54.176V43H2Z" transform="translate(-0.068 -0.068)" fill="#e2e7f6"/>
      <path id="Trazado_1035714" data-name="Trazado 1035714" d="M2,2V38.337H47.654a2.8,2.8,0,0,0,2.8-2.8V2Z" transform="translate(-0.068 -0.068)" fill="#f2f2f2"/>
      <g id="Grupo_1175058" data-name="Grupo 1175058" transform="translate(28.951 22.429)">
        <path id="Trazado_1035715" data-name="Trazado 1035715" d="M31,24H53.361v1.863H31Z" transform="translate(-31 -24)" fill="#9da1bf"/>
        <path id="Trazado_1035716" data-name="Trazado 1035716" d="M31,28H53.361v1.863H31Z" transform="translate(-31 -24.273)" fill="#9da1bf"/>
        <path id="Trazado_1035717" data-name="Trazado 1035717" d="M31,32H45.538v1.863H31Z" transform="translate(-31 -24.546)" fill="#9da1bf"/>
      </g>
      <circle id="Elipse_12296" data-name="Elipse 12296" cx="13.976" cy="13.976" r="13.976" transform="translate(29.883 29.883)" fill="#78a0d4"/>
      <path id="Trazado_1035718" data-name="Trazado 1035718" d="M57.156,44.112a13.936,13.936,0,0,0-4.885-10.6A13.964,13.964,0,0,0,36.885,56.578,13.956,13.956,0,0,0,57.156,44.112Z" transform="translate(-2.117 -2.117)" fill="#93bee5"/>
      <circle id="Elipse_12297" data-name="Elipse 12297" cx="10.249" cy="10.249" r="10.249" transform="translate(5.659 15.907)" fill="#f4a93c"/>
      <path id="Trazado_1035719" data-name="Trazado 1035719" d="M23.7,26.318a10.24,10.24,0,0,0-5.647-9.149A10.24,10.24,0,0,0,11.647,36.4,10.207,10.207,0,0,0,23.7,26.318Z" transform="translate(-0.341 -1.093)" fill="#f6b940"/>
      <path id="Trazado_1035720" data-name="Trazado 1035720" d="M2,2H54.176V9.454H2Z" transform="translate(-0.068 -0.068)" fill="#4c6cb5"/>
      <path id="Trazado_1035721" data-name="Trazado 1035721" d="M2,2H50.449V9.454H2Z" transform="translate(-0.068 -0.068)" fill="#5e87ca"/>
      <path id="Trazado_1035722" data-name="Trazado 1035722" d="M45,5h1.863V6.863H45Z" transform="translate(-3.005 -0.273)" fill="#474747"/>
      <path id="Trazado_1035723" data-name="Trazado 1035723" d="M49,5h1.863V6.863H49Z" transform="translate(-3.278 -0.273)" fill="#474747"/>
      <path id="Trazado_1035724" data-name="Trazado 1035724" d="M53,5h1.863V6.863H53Z" transform="translate(-3.551 -0.273)" fill="#474747"/>
      <path id="Trazado_1035725" data-name="Trazado 1035725" d="M20.454,25.59v-.932a3.727,3.727,0,0,0-2.8-3.595V20H15.8v1.064a3.719,3.719,0,0,0,.932,7.321,1.863,1.863,0,1,1-1.863,1.863v-.932H13v.932a3.727,3.727,0,0,0,2.8,3.595v1.064h1.863V33.843a3.719,3.719,0,0,0-.932-7.321,1.863,1.863,0,1,1,1.863-1.863v.932Z" transform="translate(-0.819 -1.297)" fill="#fce797"/>
      <path id="Trazado_1035726" data-name="Trazado 1035726" d="M39,42.59h8.385v1.863l4.659-3.727L47.385,37v1.863H39Z" transform="translate(-2.595 -2.458)" fill="#fff"/>
      <path id="Trazado_1035727" data-name="Trazado 1035727" d="M54.044,54.59H45.659v1.863L41,52.727,45.659,49v1.863h8.385Z" transform="translate(-2.731 -3.278)" fill="#fff"/>
      <path id="Trazado_1035728" data-name="Trazado 1035728" d="M32,15H52.5v5.59H32Z" transform="translate(-2.117 -0.956)" fill="#686868"/>
      <path id="Trazado_1035729" data-name="Trazado 1035729" d="M32,15v2.8H48.771a.932.932,0,0,0,.932-.932V15Z" transform="translate(-2.117 -0.956)" fill="#939393"/>
      <path id="Trazado_1035730" data-name="Trazado 1035730" d="M5,5H40.405V6.863H5Z" transform="translate(-0.273 -0.273)" fill="#474747"/>
      <path id="Trazado_1035731" data-name="Trazado 1035731" d="M45,5h1.863V6.863H45Z" transform="translate(-3.005 -0.273)"/>
      <path id="Trazado_1035732" data-name="Trazado 1035732" d="M49,5h1.863V6.863H49Z" transform="translate(-3.278 -0.273)"/>
      <path id="Trazado_1035733" data-name="Trazado 1035733" d="M53,5h1.863V6.863H53Z" transform="translate(-3.551 -0.273)"/>
      <path id="Trazado_1035734" data-name="Trazado 1035734" d="M17.659,21.064V20H15.8v1.064a3.719,3.719,0,0,0,.932,7.321,1.863,1.863,0,1,1-1.863,1.863v-.932H13v.932a3.727,3.727,0,0,0,2.8,3.595v1.064h1.863V33.843a3.719,3.719,0,0,0-.932-7.321,1.863,1.863,0,1,1,1.863-1.863v.932h1.863v-.932a3.727,3.727,0,0,0-2.8-3.595Z" transform="translate(-0.819 -1.297)"/>
      <path id="Trazado_1035735" data-name="Trazado 1035735" d="M31,24H53.361v1.863H31Z" transform="translate(-2.049 -1.571)"/>
      <path id="Trazado_1035736" data-name="Trazado 1035736" d="M31,28H53.361v1.863H31Z" transform="translate(-2.049 -1.844)"/>
      <path id="Trazado_1035737" data-name="Trazado 1035737" d="M16.181,16A11.181,11.181,0,1,0,27.361,27.181,11.181,11.181,0,0,0,16.181,16Zm0,20.5A9.317,9.317,0,1,1,25.5,27.181,9.317,9.317,0,0,1,16.181,36.5Z" transform="translate(-0.273 -1.024)"/>
      <path id="Trazado_1035738" data-name="Trazado 1035738" d="M46.385,44.385a.932.932,0,0,0,1.514.728l4.659-3.727a.932.932,0,0,0,0-1.455L47.9,36.2a.932.932,0,0,0-1.514.728v.932H38.932A.932.932,0,0,0,38,38.8v3.727a.932.932,0,0,0,.932.932h7.454Zm-6.522-2.8V39.727h7.454a.932.932,0,0,0,.932-.859l2.236,1.791-2.236,1.791a.932.932,0,0,0-.932-.859Z" transform="translate(-2.527 -2.39)"/>
      <path id="Trazado_1035739" data-name="Trazado 1035739" d="M53.976,49.863H46.522v-.932a.932.932,0,0,0-1.514-.728l-4.659,3.727a.932.932,0,0,0,0,1.455l4.659,3.727a.932.932,0,0,0,1.514-.728v-.932h7.454a.932.932,0,0,0,.932-.932V50.8a.932.932,0,0,0-.932-.932Zm-.932,3.727H45.59a.932.932,0,0,0-.932.859l-2.236-1.791,2.236-1.791a.932.932,0,0,0,.932.859h7.454Z" transform="translate(-2.663 -3.209)"/>
      <path id="Trazado_1035740" data-name="Trazado 1035740" d="M55.039,34.032V1.932A.932.932,0,0,0,54.108,1H1.932A.932.932,0,0,0,1,1.932v41a.932.932,0,0,0,.932.932h27.02a14.907,14.907,0,1,0,26.088-9.827ZM53.176,2.863v5.59H2.863V2.863ZM2.863,42V10.317H53.176V32.24A14.771,14.771,0,0,0,38.72,29.883H28.951v1.863H35.2A14.9,14.9,0,0,0,29.081,42Zm41,14.907A13.044,13.044,0,1,1,56.9,43.859,13.044,13.044,0,0,1,43.859,56.9Z" transform="translate(0)"/>
      <path id="Trazado_1035741" data-name="Trazado 1035741" d="M31.932,21.454h20.5a.932.932,0,0,0,.932-.932v-5.59A.932.932,0,0,0,52.429,14h-20.5a.932.932,0,0,0-.932.932v5.59A.932.932,0,0,0,31.932,21.454Zm.932-5.59H51.5V19.59H32.863Z" transform="translate(-2.049 -0.888)"/>
      <path id="Trazado_1035742" data-name="Trazado 1035742" d="M5,5H40.405V6.863H5Z" transform="translate(-0.273 -0.273)"/>
    </g>
  </g>
</svg>
