<svg xmlns="http://www.w3.org/2000/svg" xmlns:xlink="http://www.w3.org/1999/xlink" width="113" height="113" viewBox="0 0 113 113">
  <defs>
    <filter id="Trazado_982547" x="0" y="0" width="113" height="113" filterUnits="userSpaceOnUse">
      <feOffset dy="3" input="SourceAlpha"/>
      <feGaussianBlur stdDeviation="3" result="blur"/>
      <feFlood flood-opacity="0.161"/>
      <feComposite operator="in" in2="blur"/>
      <feComposite in="SourceGraphic"/>
    </filter>
  </defs>
  <g id="Grupo_1175065" data-name="Grupo 1175065" transform="translate(-586.5 -1005.053)">
    <g id="Grupo_1174856" data-name="Grupo 1174856" transform="translate(595.5 1011.053)">
      <g id="Grupo_1167343" data-name="Grupo 1167343" transform="translate(0)">
        <g id="Grupo_1166777" data-name="Grupo 1166777" transform="translate(0)">
          <g id="Grupo_1164305" data-name="Grupo 1164305">
            <g id="Grupo_1163948" data-name="Grupo 1163948">
              <g id="Grupo_1158168" data-name="Grupo 1158168">
                <g id="Grupo_1152576" data-name="Grupo 1152576">
                  <g id="Grupo_1148633" data-name="Grupo 1148633">
                    <g id="Grupo_1148525" data-name="Grupo 1148525">
                      <g transform="matrix(1, 0, 0, 1, -9, -6)" filter="url(#Trazado_982547)">
                        <g id="Trazado_982547-2" data-name="Trazado 982547" transform="translate(9 6)" fill="#f2f7e5">
                          <path d="M 47.5 93.5 C 41.28937149047852 93.5 35.26533508300781 92.28397369384766 29.59518623352051 89.88570404052734 C 24.11771965026855 87.56893157958984 19.19813346862793 84.25196075439453 14.97309303283691 80.02691650390625 C 10.74804019927979 75.80186462402344 7.431066513061523 70.88229370117188 5.114293098449707 65.40481567382812 C 2.716026782989502 59.73468017578125 1.5 53.71062850952148 1.5 47.5 C 1.5 41.28937149047852 2.716026782989502 35.26533508300781 5.114293098449707 29.59518623352051 C 7.431066513061523 24.11771965026855 10.74804019927979 19.19813346862793 14.97309303283691 14.97309303283691 C 19.19813346862793 10.74804019927979 24.11771965026855 7.431066513061523 29.59518623352051 5.114293098449707 C 35.26533508300781 2.716026782989502 41.28937149047852 1.5 47.5 1.5 C 53.71062850952148 1.5 59.73468017578125 2.716026782989502 65.40481567382812 5.114293098449707 C 70.88229370117188 7.431066513061523 75.80186462402344 10.74804019927979 80.02691650390625 14.97309303283691 C 84.25196075439453 19.19813346862793 87.56893157958984 24.11771965026855 89.88570404052734 29.59518623352051 C 92.28397369384766 35.26533508300781 93.5 41.28937149047852 93.5 47.5 C 93.5 53.71062850952148 92.28397369384766 59.73468017578125 89.88570404052734 65.40481567382812 C 87.56893157958984 70.88229370117188 84.25196075439453 75.80186462402344 80.02691650390625 80.02691650390625 C 75.80186462402344 84.25196075439453 70.88229370117188 87.56893157958984 65.40481567382812 89.88570404052734 C 59.73468017578125 92.28397369384766 53.71062850952148 93.5 47.5 93.5 Z" stroke="none"/>
                          <path d="M 47.5 3 C 41.49121475219727 3 35.66376876831055 4.176155090332031 30.17950439453125 6.495796203613281 C 24.88084411621094 8.736953735351562 20.12152099609375 11.94598388671875 16.03375244140625 16.03375244140625 C 11.94598388671875 20.12152099609375 8.736953735351562 24.88084411621094 6.495796203613281 30.17950439453125 C 4.176155090332031 35.66376876831055 3 41.49121475219727 3 47.5 C 3 53.50878524780273 4.176155090332031 59.33624649047852 6.495796203613281 64.82049560546875 C 8.736953735351562 70.11917114257812 11.94598388671875 74.87849426269531 16.03375244140625 78.96626281738281 C 20.12152099609375 83.05403137207031 24.88084411621094 86.2630615234375 30.17950439453125 88.50419616699219 C 35.66376876831055 90.82384490966797 41.49121475219727 92 47.5 92 C 53.50878524780273 92 59.33624649047852 90.82384490966797 64.82049560546875 88.50419616699219 C 70.11917114257812 86.2630615234375 74.87849426269531 83.05403137207031 78.96626281738281 78.96626281738281 C 83.05403137207031 74.87849426269531 86.2630615234375 70.11917114257812 88.50419616699219 64.82049560546875 C 90.82384490966797 59.33624649047852 92 53.50878524780273 92 47.5 C 92 41.49121475219727 90.82384490966797 35.66376876831055 88.50419616699219 30.17950439453125 C 86.2630615234375 24.88084411621094 83.05403137207031 20.12152099609375 78.96626281738281 16.03375244140625 C 74.87849426269531 11.94598388671875 70.11917114257812 8.736953735351562 64.82049560546875 6.495796203613281 C 59.33624649047852 4.176155090332031 53.50878524780273 3 47.5 3 M 47.5 0 C 73.73353576660156 0 95 21.2664794921875 95 47.5 C 95 73.73353576660156 73.73353576660156 95 47.5 95 C 21.2664794921875 95 0 73.73353576660156 0 47.5 C 0 21.2664794921875 21.2664794921875 0 47.5 0 Z" stroke="none" fill="#86b60c"/>
                        </g>
                      </g>
                    </g>
                  </g>
                </g>
              </g>
            </g>
          </g>
        </g>
      </g>
    </g>
    <g id="service_11689961" transform="translate(579.019 1026.717)">
      <g id="Grupo_1175064" data-name="Grupo 1175064" transform="translate(38.535 1.967)">
        <g id="Grupo_1175060" data-name="Grupo 1175060" transform="translate(0 0)">
          <path id="Trazado_1035743" data-name="Trazado 1035743" d="M83.047,63.293H47.513a1.941,1.941,0,0,1-1.937-1.937V19.848a1.872,1.872,0,0,1,.567-1.37l8.91-8.91A1.871,1.871,0,0,1,56.423,9H83.047a1.941,1.941,0,0,1,1.937,1.937V61.356A1.942,1.942,0,0,1,83.047,63.293Z" transform="translate(-45.576 -9)" fill="#eff4f7" fill-rule="evenodd"/>
          <path id="Trazado_1035744" data-name="Trazado 1035744" d="M56.274,10.789l-8.91,8.91a1.942,1.942,0,0,0-.4.567h8.128a1.753,1.753,0,0,0,1.749-1.749V10.389A1.94,1.94,0,0,0,56.274,10.789Z" transform="translate(-46.796 -10.221)" fill="#e2e3e3" fill-rule="evenodd"/>
        </g>
        <g id="Grupo_1175061" data-name="Grupo 1175061" transform="translate(7.351 11.674)">
          <path id="Trazado_1035745" data-name="Trazado 1035745" d="M120.779,105.541h-4.123v2.069a10.429,10.429,0,0,0-3.752,1.555L111.44,107.7l-2.915,2.915,1.463,1.463a10.428,10.428,0,0,0-1.555,3.752h-2.069v4.123h2.069a10.429,10.429,0,0,0,1.555,3.752l-1.463,1.463,2.915,2.915,1.463-1.463a10.431,10.431,0,0,0,3.752,1.555v2.069h4.123v-2.069a10.43,10.43,0,0,0,3.753-1.555l1.463,1.463,2.915-2.915-1.463-1.463A10.429,10.429,0,0,0,129,119.955h2.069v-4.123H129a10.428,10.428,0,0,0-1.555-3.752l1.463-1.463-2.915-2.915-1.463,1.463a10.428,10.428,0,0,0-3.752-1.555Z" transform="translate(-106.364 -105.541)" fill="#ffda2d" fill-rule="evenodd"/>
          <circle id="Elipse_12298" data-name="Elipse 12298" cx="6.372" cy="6.372" r="6.372" transform="translate(5.39 18.078) rotate(-84.318)" fill="#fdb800"/>
        </g>
        <g id="Grupo_1175063" data-name="Grupo 1175063" transform="translate(26.444 29.524)">
          <path id="Trazado_1035746" data-name="Trazado 1035746" d="M266.214,253.149h20.527a1.966,1.966,0,0,1,1.96,1.96V281.4a1.966,1.966,0,0,1-1.96,1.96H266.214a1.966,1.966,0,0,1-1.96-1.96V255.109A1.966,1.966,0,0,1,266.214,253.149Z" transform="translate(-264.254 -253.149)" fill="#465759" fill-rule="evenodd"/>
          <path id="Trazado_1035747" data-name="Trazado 1035747" d="M293.241,281.757h16.77a.38.38,0,0,1,.379.379v3.681a.38.38,0,0,1-.379.379h-16.77a.38.38,0,0,1-.379-.379v-3.681A.38.38,0,0,1,293.241,281.757Z" transform="translate(-289.403 -278.298)" fill="#e6f8ff" fill-rule="evenodd"/>
          <g id="Grupo_1175062" data-name="Grupo 1175062" transform="translate(3.459 10.551)">
            <path id="Trazado_1035748" data-name="Trazado 1035748" d="M293.241,447.319H296.4a.38.38,0,0,0,.379-.379v-3.162a.38.38,0,0,0-.379-.379h-3.162a.38.38,0,0,0-.379.379v3.162A.38.38,0,0,0,293.241,447.319Z" transform="translate(-292.862 -430.943)" fill="#ffda2d" fill-rule="evenodd"/>
            <path id="Trazado_1035749" data-name="Trazado 1035749" d="M349.506,447.319h3.162a.38.38,0,0,0,.379-.379v-3.162a.38.38,0,0,0-.379-.379h-3.162a.38.38,0,0,0-.379.379v3.162A.38.38,0,0,0,349.506,447.319Z" transform="translate(-342.323 -430.943)" fill="#ffda2d" fill-rule="evenodd"/>
            <path id="Trazado_1035750" data-name="Trazado 1035750" d="M293.241,395.821H296.4a.38.38,0,0,0,.379-.379v-3.162a.38.38,0,0,0-.379-.379h-3.162a.38.38,0,0,0-.379.379v3.162A.38.38,0,0,0,293.241,395.821Z" transform="translate(-292.862 -385.673)" fill="#ffda2d" fill-rule="evenodd"/>
            <path id="Trazado_1035751" data-name="Trazado 1035751" d="M349.506,395.821h3.162a.38.38,0,0,0,.379-.379v-3.162a.38.38,0,0,0-.379-.379h-3.162a.38.38,0,0,0-.379.379v3.162A.38.38,0,0,0,349.506,395.821Z" transform="translate(-342.323 -385.673)" fill="#ffda2d" fill-rule="evenodd"/>
            <path id="Trazado_1035752" data-name="Trazado 1035752" d="M293.241,344.324H296.4a.38.38,0,0,0,.379-.379v-3.162a.38.38,0,0,0-.379-.379h-3.162a.38.38,0,0,0-.379.379v3.162A.38.38,0,0,0,293.241,344.324Z" transform="translate(-292.862 -340.403)" fill="#ffda2d" fill-rule="evenodd"/>
            <path id="Trazado_1035753" data-name="Trazado 1035753" d="M349.506,344.324h3.162a.38.38,0,0,0,.379-.379v-3.162a.38.38,0,0,0-.379-.379h-3.162a.38.38,0,0,0-.379.379v3.162A.38.38,0,0,0,349.506,344.324Z" transform="translate(-342.323 -340.403)" fill="#ffda2d" fill-rule="evenodd"/>
            <path id="Trazado_1035754" data-name="Trazado 1035754" d="M405.77,344.324h3.162a.38.38,0,0,0,.379-.379v-3.162a.38.38,0,0,0-.379-.379H405.77a.38.38,0,0,0-.379.379v3.162A.38.38,0,0,0,405.77,344.324Z" transform="translate(-391.783 -340.403)" fill="#ffda2d" fill-rule="evenodd"/>
          </g>
          <path id="Trazado_1035755" data-name="Trazado 1035755" d="M405.77,402.049h3.162a.38.38,0,0,0,.379-.379v-9.39a.38.38,0,0,0-.379-.379H405.77a.38.38,0,0,0-.379.379v9.39A.38.38,0,0,0,405.77,402.049Z" transform="translate(-388.324 -375.121)" fill="#72d561" fill-rule="evenodd"/>
        </g>
      </g>
      <path id="Trazado_1035756" data-name="Trazado 1035756" d="M53.774,10.57H66.707a.967.967,0,0,0,0-1.935H53.774a.967.967,0,1,0,0,1.935Zm0-4.075H72.752a.967.967,0,1,0,0-1.935H53.774a.967.967,0,1,0,0,1.935ZM85,43.009H83.017V45H85Zm1.933-.967v3.922a.967.967,0,0,1-.964.967H82.047a.968.968,0,0,1-.969-.967V42.042a.968.968,0,0,1,.969-.967h3.923A.967.967,0,0,1,86.934,42.042Zm-8.736.967h-1.99V45H78.2Zm1.933-.967v3.922a.968.968,0,0,1-.969.967H75.244a.968.968,0,0,1-.969-.967V42.042a.968.968,0,0,1,.969-.967h3.918A.968.968,0,0,1,80.131,42.042Zm-8.736.967H69.4V45h1.99Zm1.933-.967v3.922a.968.968,0,0,1-.969.967H68.441a.968.968,0,0,1-.969-.967V42.042a.968.968,0,0,1,.969-.967h3.918A.968.968,0,0,1,73.328,42.042Zm4.87,7.195h-1.99v1.987H78.2Zm1.933-.967v3.922a.969.969,0,0,1-.969.967H75.244a.969.969,0,0,1-.969-.967V48.27a.968.968,0,0,1,.969-.968h3.918A.968.968,0,0,1,80.131,48.27Zm-8.736.967H69.4v1.987h1.99Zm1.933-.967v3.922a.969.969,0,0,1-.969.967H68.441a.969.969,0,0,1-.969-.967V48.27a.968.968,0,0,1,.969-.968h3.918A.968.968,0,0,1,73.328,48.27ZM85,49.237H83.017v8.213H85Zm1.933-.967V58.418a.967.967,0,0,1-.964.968H82.047a.968.968,0,0,1-.969-.968V48.27a.968.968,0,0,1,.969-.968h3.923A.967.967,0,0,1,86.934,48.27ZM78.2,55.465h-1.99v1.986H78.2Zm1.933-.968v3.921a.968.968,0,0,1-.969.968H75.244a.968.968,0,0,1-.969-.968V54.5a.968.968,0,0,1,.969-.967h3.918A.968.968,0,0,1,80.131,54.5Zm-8.736.968H69.4v1.986h1.99Zm1.933-.968v3.921a.968.968,0,0,1-.969.968H68.441a.968.968,0,0,1-.969-.968V54.5a.968.968,0,0,1,.969-.967h3.918A.968.968,0,0,1,73.328,54.5ZM85,35.918H69.4v2.5H85Zm1.933-.968V39.39a.967.967,0,0,1-.964.968H68.441a.968.968,0,0,1-.969-.968V34.95a.968.968,0,0,1,.969-.967h17.53A.967.967,0,0,1,86.934,34.95Zm1.528-1.5V59.745a1,1,0,0,1-1,.993H66.941a.993.993,0,0,1-.992-.993V33.452a.993.993,0,0,1,.992-.993H87.465A1,1,0,0,1,88.463,33.452ZM66.6,30.544a2.933,2.933,0,0,0-2.595,2.908v.306a.974.974,0,0,0-.5.161,9.387,9.387,0,0,1-3.4,1.411.966.966,0,0,0-.781.948v1.1h-2.19v-1.1a.967.967,0,0,0-.776-.948,9.434,9.434,0,0,1-3.4-1.411.966.966,0,0,0-1.22.12l-.781.779-1.545-1.548.776-.779a.968.968,0,0,0,.12-1.221A9.513,9.513,0,0,1,48.9,27.867a.966.966,0,0,0-.947-.778h-1.1V24.9h1.1a.966.966,0,0,0,.947-.778,9.494,9.494,0,0,1,1.409-3.4.969.969,0,0,0-.12-1.221l-.776-.779,1.545-1.548.781.779a.967.967,0,0,0,1.22.121,9.416,9.416,0,0,1,3.4-1.411.967.967,0,0,0,.775-.948v-1.1h2.19v1.1a.966.966,0,0,0,.781.948,9.358,9.358,0,0,1,3.4,1.411.974.974,0,0,0,1.226-.121l.775-.779,1.551,1.547-.781.779a.969.969,0,0,0-.12,1.221,9.406,9.406,0,0,1,1.409,3.4.972.972,0,0,0,.952.778h1.1v2.188h-1.1a.972.972,0,0,0-.952.778,9.484,9.484,0,0,1-.97,2.677ZM64.01,55.293H40.475a.975.975,0,0,1-.975-.97V12.979h7.333a2.72,2.72,0,0,0,2.714-2.717V2.934h26.46a.97.97,0,0,1,.969.97v26.62H68.766a12.422,12.422,0,0,0,.525-1.5h1.3a.968.968,0,0,0,.969-.967V23.933a.968.968,0,0,0-.969-.967h-1.3A11.4,11.4,0,0,0,68.2,20.323l.924-.922a.977.977,0,0,0,0-1.368L66.2,15.118a.967.967,0,0,0-1.369,0l-.918.922a11.467,11.467,0,0,0-2.646-1.1v-1.3a.967.967,0,0,0-.964-.968H56.18a.968.968,0,0,0-.969.968v1.3a11.323,11.323,0,0,0-2.64,1.1l-.924-.922a.968.968,0,0,0-1.369,0l-2.914,2.915a.97.97,0,0,0,0,1.368l.924.922a11.149,11.149,0,0,0-1.095,2.643H45.887a.968.968,0,0,0-.969.967v4.123a.968.968,0,0,0,.969.967h1.306a11.162,11.162,0,0,0,1.095,2.643l-.924.922a.963.963,0,0,0,0,1.368l2.914,2.915a.969.969,0,0,0,1.369,0l.924-.923a11.325,11.325,0,0,0,2.64,1.1v1.3a.968.968,0,0,0,.969.967H60.3a.967.967,0,0,0,.964-.967v-1.3a11.4,11.4,0,0,0,2.646-1.1l.1.1v5.711H50.05a.967.967,0,0,0,0,1.935H64.01v2.538H50.05a.967.967,0,0,0,0,1.935H64.01v2.538H50.05a.967.967,0,0,0,0,1.935H64.01v2.65ZM40.874,11.045h5.959a.784.784,0,0,0,.781-.782V4.3ZM90.4,33.452V59.745a2.931,2.931,0,0,1-2.931,2.928H66.941a2.935,2.935,0,0,1-2.931-2.928V57.228H40.475a2.911,2.911,0,0,1-2.908-2.9V12.815a2.862,2.862,0,0,1,.85-2.054L47.33,1.85A2.839,2.839,0,0,1,49.383,1H76.008a2.905,2.905,0,0,1,2.9,2.9v26.62h8.554A2.931,2.931,0,0,1,90.4,33.452Zm-32-8.424h-.319a.46.46,0,1,1,0-.921h.451a.47.47,0,0,1,.376.194.968.968,0,0,0,1.568-1.134,2.435,2.435,0,0,0-1.266-.9V22.2a.967.967,0,1,0-1.933,0v.108a2.395,2.395,0,0,0,.8,4.65H58.4a.46.46,0,1,1,0,.92h-.45a.46.46,0,0,1-.371-.194.968.968,0,0,0-1.568,1.134,2.408,2.408,0,0,0,1.266.9v.067a.967.967,0,1,0,1.933,0v-.108a2.4,2.4,0,0,0-.81-4.65Zm5.246.967a5.406,5.406,0,1,0-5.406,5.4A5.411,5.411,0,0,0,63.645,25.995Zm1.933,0a7.339,7.339,0,1,0-7.339,7.34A7.347,7.347,0,0,0,65.578,25.995ZM45.8,41.762H43.555a.967.967,0,0,0,0,1.935H45.8a.967.967,0,0,0,0-1.935Zm0,4.473H43.555a.967.967,0,0,0,0,1.935H45.8a.967.967,0,0,0,0-1.935Zm.964,5.44a.967.967,0,0,0-.964-.967H43.555a.967.967,0,0,0,0,1.935H45.8A.968.968,0,0,0,46.759,51.675Z" transform="translate(0 0)" fill-rule="evenodd"/>
    </g>
  </g>
</svg>
