<svg xmlns="http://www.w3.org/2000/svg" xmlns:xlink="http://www.w3.org/1999/xlink" width="113" height="113" viewBox="0 0 113 113">
  <defs>
    <filter id="Trazado_982547" x="0" y="0" width="113" height="113" filterUnits="userSpaceOnUse">
      <feOffset dy="3" input="SourceAlpha"/>
      <feGaussianBlur stdDeviation="3" result="blur"/>
      <feFlood flood-opacity="0.161"/>
      <feComposite operator="in" in2="blur"/>
      <feComposite in="SourceGraphic"/>
    </filter>
  </defs>
  <g id="Grupo_1175068" data-name="Grupo 1175068" transform="translate(-901.5 -1005.053)">
    <g id="Grupo_1174857" data-name="Grupo 1174857" transform="translate(910.5 1011.053)">
      <g id="Grupo_1167343" data-name="Grupo 1167343" transform="translate(0)">
        <g id="Grupo_1166777" data-name="Grupo 1166777" transform="translate(0)">
          <g id="Grupo_1164305" data-name="Grupo 1164305">
            <g id="Grupo_1163948" data-name="Grupo 1163948">
              <g id="Grupo_1158168" data-name="Grupo 1158168">
                <g id="Grupo_1152576" data-name="Grupo 1152576">
                  <g id="Grupo_1148633" data-name="Grupo 1148633">
                    <g id="Grupo_1148525" data-name="Grupo 1148525">
                      <g transform="matrix(1, 0, 0, 1, -9, -6)" filter="url(#Trazado_982547)">
                        <g id="Trazado_982547-2" data-name="Trazado 982547" transform="translate(9 6)" fill="#f2f7e5">
                          <path d="M 47.5 93.5 C 41.28937149047852 93.5 35.26533508300781 92.28397369384766 29.59518623352051 89.88570404052734 C 24.11771965026855 87.56893157958984 19.19813346862793 84.25196075439453 14.97309303283691 80.02691650390625 C 10.74804019927979 75.80186462402344 7.431066513061523 70.88229370117188 5.114293098449707 65.40481567382812 C 2.716026782989502 59.73468017578125 1.5 53.71062850952148 1.5 47.5 C 1.5 41.28937149047852 2.716026782989502 35.26533508300781 5.114293098449707 29.59518623352051 C 7.431066513061523 24.11771965026855 10.74804019927979 19.19813346862793 14.97309303283691 14.97309303283691 C 19.19813346862793 10.74804019927979 24.11771965026855 7.431066513061523 29.59518623352051 5.114293098449707 C 35.26533508300781 2.716026782989502 41.28937149047852 1.5 47.5 1.5 C 53.71062850952148 1.5 59.73468017578125 2.716026782989502 65.40481567382812 5.114293098449707 C 70.88229370117188 7.431066513061523 75.80186462402344 10.74804019927979 80.02691650390625 14.97309303283691 C 84.25196075439453 19.19813346862793 87.56893157958984 24.11771965026855 89.88570404052734 29.59518623352051 C 92.28397369384766 35.26533508300781 93.5 41.28937149047852 93.5 47.5 C 93.5 53.71062850952148 92.28397369384766 59.73468017578125 89.88570404052734 65.40481567382812 C 87.56893157958984 70.88229370117188 84.25196075439453 75.80186462402344 80.02691650390625 80.02691650390625 C 75.80186462402344 84.25196075439453 70.88229370117188 87.56893157958984 65.40481567382812 89.88570404052734 C 59.73468017578125 92.28397369384766 53.71062850952148 93.5 47.5 93.5 Z" stroke="none"/>
                          <path d="M 47.5 3 C 41.49121475219727 3 35.66376876831055 4.176155090332031 30.17950439453125 6.495796203613281 C 24.88084411621094 8.736953735351562 20.12152099609375 11.94598388671875 16.03375244140625 16.03375244140625 C 11.94598388671875 20.12152099609375 8.736953735351562 24.88084411621094 6.495796203613281 30.17950439453125 C 4.176155090332031 35.66376876831055 3 41.49121475219727 3 47.5 C 3 53.50878524780273 4.176155090332031 59.33624649047852 6.495796203613281 64.82049560546875 C 8.736953735351562 70.11917114257812 11.94598388671875 74.87849426269531 16.03375244140625 78.96626281738281 C 20.12152099609375 83.05403137207031 24.88084411621094 86.2630615234375 30.17950439453125 88.50419616699219 C 35.66376876831055 90.82384490966797 41.49121475219727 92 47.5 92 C 53.50878524780273 92 59.33624649047852 90.82384490966797 64.82049560546875 88.50419616699219 C 70.11917114257812 86.2630615234375 74.87849426269531 83.05403137207031 78.96626281738281 78.96626281738281 C 83.05403137207031 74.87849426269531 86.2630615234375 70.11917114257812 88.50419616699219 64.82049560546875 C 90.82384490966797 59.33624649047852 92 53.50878524780273 92 47.5 C 92 41.49121475219727 90.82384490966797 35.66376876831055 88.50419616699219 30.17950439453125 C 86.2630615234375 24.88084411621094 83.05403137207031 20.12152099609375 78.96626281738281 16.03375244140625 C 74.87849426269531 11.94598388671875 70.11917114257812 8.736953735351562 64.82049560546875 6.495796203613281 C 59.33624649047852 4.176155090332031 53.50878524780273 3 47.5 3 M 47.5 0 C 73.73353576660156 0 95 21.2664794921875 95 47.5 C 95 73.73353576660156 73.73353576660156 95 47.5 95 C 21.2664794921875 95 0 73.73353576660156 0 47.5 C 0 21.2664794921875 21.2664794921875 0 47.5 0 Z" stroke="none" fill="#86b60c"/>
                        </g>
                      </g>
                    </g>
                  </g>
                </g>
              </g>
            </g>
          </g>
        </g>
      </g>
    </g>
    <g id="financial_11320819" transform="translate(927.833 988.5)">
      <g id="Grupo_1175067" data-name="Grupo 1175067" transform="translate(1.044 43.184)">
        <path id="Trazado_1035757" data-name="Trazado 1035757" d="M11.66,50.14H41.472a3.672,3.672,0,0,1,3.66,3.66v46.418a3.671,3.671,0,0,1-3.66,3.66H11.66A3.67,3.67,0,0,1,8,100.217V53.8a3.671,3.671,0,0,1,3.66-3.66Z" transform="translate(-8 -50.14)" fill="#e6f1fa" fill-rule="evenodd"/>
        <path id="Trazado_1035758" data-name="Trazado 1035758" d="M79.852,306.621a6.6,6.6,0,0,0-1.628.677.391.391,0,0,1-.388.01l-.95-.484a.4.4,0,0,0-.466.076l-.961.961a.4.4,0,0,0-.076.47l.484.946a.4.4,0,0,1-.01.388,6.561,6.561,0,0,0-.677,1.63.4.4,0,0,1-.261.279l-1.014.326a.4.4,0,0,0-.275.384v1.363a.4.4,0,0,0,.275.384l1.014.326a.387.387,0,0,1,.261.279,6.6,6.6,0,0,0,.677,1.63.391.391,0,0,1,.01.388l-.484.946a.4.4,0,0,0,.076.466l.961.965a.4.4,0,0,0,.466.076l.95-.484a.4.4,0,0,1,.388.01,6.43,6.43,0,0,0,1.628.673.394.394,0,0,1,.279.265l.33,1.014a.394.394,0,0,0,.384.275h1.363a.391.391,0,0,0,.38-.275l.33-1.014a.392.392,0,0,1,.279-.265,6.448,6.448,0,0,0,1.63-.673.384.384,0,0,1,.384-.01l.95.484a.4.4,0,0,0,.466-.076l.965-.965a.4.4,0,0,0,.076-.466l-.484-.946a.4.4,0,0,1,.01-.388,6.467,6.467,0,0,0,.673-1.63.394.394,0,0,1,.265-.279l1.014-.326a.4.4,0,0,0,.275-.384v-1.363a.4.4,0,0,0-.275-.384l-1.014-.326a.4.4,0,0,1-.265-.279,6.388,6.388,0,0,0-.673-1.63.391.391,0,0,1-.01-.388l.484-.946a.4.4,0,0,0-.076-.47l-.965-.961a.4.4,0,0,0-.466-.076l-.95.484a.387.387,0,0,1-.384-.01,6.623,6.623,0,0,0-1.63-.677.389.389,0,0,1-.279-.261l-.33-1.014a.392.392,0,0,0-.38-.275H80.845a.394.394,0,0,0-.384.275l-.33,1.014A.387.387,0,0,1,79.852,306.621Z" transform="translate(-65.064 -271.797)" fill="#bec7cf" fill-rule="evenodd"/>
        <path id="Trazado_1035759" data-name="Trazado 1035759" d="M79.869,306.629a6.449,6.449,0,0,0-1.466.585l.2.1a.387.387,0,0,0,.384-.01,6.666,6.666,0,0,1,1.63-.677.389.389,0,0,0,.279-.261l.33-1.014a.394.394,0,0,1,.384-.275h-.749a.394.394,0,0,0-.384.275l-.33,1.014A.388.388,0,0,1,79.869,306.629Zm-2.727.326-.236-.121a.4.4,0,0,0-.466.076l-.961.961a.4.4,0,0,0-.076.47l.484.946a.4.4,0,0,1-.01.388,6.623,6.623,0,0,0-.677,1.63.4.4,0,0,1-.261.279l-1.014.326a.4.4,0,0,0-.275.384v1.363a.4.4,0,0,0,.275.384l1.014.326a.387.387,0,0,1,.261.279,6.6,6.6,0,0,0,.677,1.63.391.391,0,0,1,.01.388l-.484.946a.4.4,0,0,0,.076.466l.961.965a.4.4,0,0,0,.466.076l.236-.121-.918-.918a.391.391,0,0,1-.072-.466l.484-.946a.4.4,0,0,0-.01-.388,6.477,6.477,0,0,1-.677-1.63.387.387,0,0,0-.265-.279l-1.01-.326a.4.4,0,0,1-.279-.384V312.3a.4.4,0,0,1,.279-.384l1.01-.326a.394.394,0,0,0,.265-.279,6.317,6.317,0,0,1,.677-1.63.4.4,0,0,0,.01-.388l-.484-.946a.4.4,0,0,1,.072-.47ZM78.4,318.73a6.414,6.414,0,0,0,1.466.585.394.394,0,0,1,.279.265l.33,1.014a.394.394,0,0,0,.384.275h.749a.394.394,0,0,1-.384-.275l-.33-1.014a.392.392,0,0,0-.279-.265,6.506,6.506,0,0,1-1.63-.673.384.384,0,0,0-.384-.01Zm7.028,0,.745.384a.4.4,0,0,0,.466-.076l.047-.047-.713-.362a.387.387,0,0,0-.384.01C85.54,318.672,85.487,318.7,85.432,318.73Zm1.258-11.774-.047-.047a.4.4,0,0,0-.466-.076l-.745.38c.054.033.107.061.162.093a.384.384,0,0,0,.384.01Z" transform="translate(-65.082 -271.806)" fill="#abb3ba" fill-rule="evenodd"/>
        <path id="Trazado_1035760" data-name="Trazado 1035760" d="M114.549,348.941a2.935,2.935,0,1,0-2.939-2.935A2.942,2.942,0,0,0,114.549,348.941Z" transform="translate(-98.087 -304.838)" fill="#eaf6ff" fill-rule="evenodd"/>
        <path id="Trazado_1035761" data-name="Trazado 1035761" d="M134.43,178.55h4.128v11.817H134.43Z" transform="translate(-117.929 -161.79)" fill="#ffdf32" fill-rule="evenodd"/>
        <path id="Trazado_1035762" data-name="Trazado 1035762" d="M195.26,142.71h4.126V159.2H195.26Z" transform="translate(-170.819 -130.628)" fill="#ff3131" fill-rule="evenodd"/>
        <path id="Trazado_1035763" data-name="Trazado 1035763" d="M73.63,214.41h4.126v7.135H73.63Z" transform="translate(-65.064 -192.97)" fill="#ff3131" fill-rule="evenodd"/>
        <g id="Grupo_1175066" data-name="Grupo 1175066" transform="translate(28.018 31.504)">
          <path id="Trazado_1035764" data-name="Trazado 1035764" d="M224.9,291.52h14.859a2.223,2.223,0,1,1,0,4.445H224.9a2.223,2.223,0,1,1,0-4.445Z" transform="translate(-222.67 -291.52)" fill="#ffdf32" fill-rule="evenodd"/>
          <path id="Trazado_1035765" data-name="Trazado 1035765" d="M252.373,330.018h14.859a2.224,2.224,0,0,0,0-4.448H252.373a2.224,2.224,0,0,0,0,4.448Z" transform="translate(-246.563 -321.126)" fill="#ffdf32" fill-rule="evenodd"/>
          <path id="Trazado_1035766" data-name="Trazado 1035766" d="M224.9,359.65h14.859a2.224,2.224,0,0,1,0,4.448H224.9a2.224,2.224,0,1,1,0-4.448Z" transform="translate(-222.67 -350.758)" fill="#ffdf32" fill-rule="evenodd"/>
          <path id="Trazado_1035767" data-name="Trazado 1035767" d="M252.373,398.165h14.859a2.223,2.223,0,0,0,0-4.445H252.373a2.223,2.223,0,0,0,0,4.445Z" transform="translate(-246.563 -380.381)" fill="#ffdf32" fill-rule="evenodd"/>
          <path id="Trazado_1035768" data-name="Trazado 1035768" d="M252.373,432.228h14.859a2.224,2.224,0,0,0,0-4.448H252.373a2.224,2.224,0,0,0,0,4.448Z" transform="translate(-246.563 -409.996)" fill="#ffdf32" fill-rule="evenodd"/>
        </g>
        <path id="Trazado_1035769" data-name="Trazado 1035769" d="M365.726,333.237a9.654,9.654,0,1,0-9.656-9.652A9.672,9.672,0,0,0,365.726,333.237Z" transform="translate(-310.641 -279.501)" fill="#fea832" fill-rule="evenodd"/>
        <path id="Trazado_1035770" data-name="Trazado 1035770" d="M386.645,351.008a6.514,6.514,0,1,0-6.515-6.513A6.524,6.524,0,0,0,386.645,351.008Z" transform="translate(-331.561 -300.412)" fill="#ffdf32" fill-rule="evenodd"/>
        <path id="Trazado_1035771" data-name="Trazado 1035771" d="M224.9,291.52h1.172a2.223,2.223,0,1,0,0,4.445H224.9a2.223,2.223,0,1,1,0-4.445Z" transform="translate(-194.652 -260.016)" fill="#e6c92d" fill-rule="evenodd"/>
        <path id="Trazado_1035772" data-name="Trazado 1035772" d="M252.373,330.018h1.176a2.224,2.224,0,1,1,0-4.448h-1.176a2.224,2.224,0,0,0,0,4.448Z" transform="translate(-218.545 -289.622)" fill="#e6c92d" fill-rule="evenodd"/>
        <path id="Trazado_1035773" data-name="Trazado 1035773" d="M224.9,359.65h1.172a2.224,2.224,0,0,0,0,4.448H224.9a2.224,2.224,0,1,1,0-4.448Z" transform="translate(-194.652 -319.254)" fill="#e6c92d" fill-rule="evenodd"/>
        <path id="Trazado_1035774" data-name="Trazado 1035774" d="M252.373,398.165h1.176a2.223,2.223,0,1,1,0-4.445h-1.176a2.223,2.223,0,0,0,0,4.445Z" transform="translate(-218.545 -348.877)" fill="#e6c92d" fill-rule="evenodd"/>
        <path id="Trazado_1035775" data-name="Trazado 1035775" d="M252.373,432.228h1.176a2.224,2.224,0,1,1,0-4.448h-1.176a2.224,2.224,0,0,0,0,4.448Z" transform="translate(-218.545 -378.492)" fill="#e6c92d" fill-rule="evenodd"/>
        <path id="Trazado_1035776" data-name="Trazado 1035776" d="M365.726,313.96a9.652,9.652,0,1,0,0,19.3c.2,0,.39-.007.587-.018a9.651,9.651,0,0,1,0-19.267C366.116,313.963,365.923,313.96,365.726,313.96Z" transform="translate(-310.641 -279.527)" fill="#e5972d" fill-rule="evenodd"/>
        <path id="Trazado_1035777" data-name="Trazado 1035777" d="M11.66,50.14h1.566a3.671,3.671,0,0,0-3.66,3.66v46.418a3.668,3.668,0,0,0,3.66,3.66H11.66A3.67,3.67,0,0,1,8,100.217V53.8A3.671,3.671,0,0,1,11.66,50.14Z" transform="translate(-8 -50.14)" fill="#cfd9e1" fill-rule="evenodd"/>
      </g>
      <path id="Trazado_1035778" data-name="Trazado 1035778" d="M17.544,58.9A1.042,1.042,0,0,0,16.5,59.946V71.76A1.042,1.042,0,0,0,17.544,72.8h4.128a1.042,1.042,0,0,0,1.043-1.043V59.946A1.042,1.042,0,0,0,21.672,58.9ZM20.63,70.717H18.587V60.991H20.63Zm8.98-16.493H25.484a1.042,1.042,0,0,0-1.043,1.043V71.76A1.042,1.042,0,0,0,25.484,72.8h4.126a1.042,1.042,0,0,0,1.043-1.043V55.266A1.043,1.043,0,0,0,29.609,54.223ZM28.566,70.717H26.528V56.31h2.039ZM9.609,63.58a1.042,1.042,0,0,0-1.043,1.043V71.76A1.042,1.042,0,0,0,9.609,72.8h4.128A1.042,1.042,0,0,0,14.78,71.76V64.623a1.042,1.042,0,0,0-1.043-1.043Zm3.085,7.137H10.652v-5.05h2.043ZM8.7,60.351a1.043,1.043,0,0,1,.4-1.421L26.871,48.909l-.157-.042a1.044,1.044,0,0,1,.539-2.016l2.627.7a1.044,1.044,0,0,1,.739,1.278l-.7,2.627a1.045,1.045,0,0,1-1.008.774,1.074,1.074,0,0,1-.27-.035A1.044,1.044,0,0,1,27.9,50.92l.061-.23L10.12,60.748a1.042,1.042,0,0,1-1.42-.4ZM25.447,82.3l-.688-.223a7.415,7.415,0,0,0-.514-1.239l.333-.653a1.445,1.445,0,0,0-.271-1.672l-.961-.958a1.432,1.432,0,0,0-1.682-.268l-.642.329a7.409,7.409,0,0,0-1.237-.514l-.224-.689a1.444,1.444,0,0,0-1.377-1H16.821a1.441,1.441,0,0,0-1.373,1l-.223.688a7.415,7.415,0,0,0-1.239.514l-.636-.324a1.435,1.435,0,0,0-1.688.261l-.961.959a1.433,1.433,0,0,0-.266,1.677l.329.646a7.378,7.378,0,0,0-.514,1.239l-.689.223a1.441,1.441,0,0,0-1,1.373v1.361a1.445,1.445,0,0,0,1,1.377l.689.223a7.5,7.5,0,0,0,.513,1.236l-.329.642a1.432,1.432,0,0,0,.269,1.682l.959.963a1.448,1.448,0,0,0,1.677.266l.646-.329a7.554,7.554,0,0,0,1.239.514l.226.7a1.443,1.443,0,0,0,1.37.991h1.361a1.448,1.448,0,0,0,1.377-1l.223-.688a7.564,7.564,0,0,0,1.237-.513l.642.329a.107.107,0,0,1,.017.009,1.441,1.441,0,0,0,1.665-.278l.958-.958a1.444,1.444,0,0,0,.278-1.665.12.12,0,0,0-.009-.018l-.329-.642a7.6,7.6,0,0,0,.514-1.236l.7-.226a1.447,1.447,0,0,0,.991-1.374V83.671a1.446,1.446,0,0,0-1-1.374ZM24.36,84.567l-.564.183a1.415,1.415,0,0,0-.958,1.014,5.447,5.447,0,0,1-.57,1.369,1.451,1.451,0,0,0-.035,1.381l.271.53-.305.305-.539-.275a1.451,1.451,0,0,0-1.378.043,5.469,5.469,0,0,1-1.364.568,1.42,1.42,0,0,0-1.014.957l-.183.564H17.29l-.188-.578a1.435,1.435,0,0,0-1.012-.944,5.367,5.367,0,0,1-1.367-.57,1.449,1.449,0,0,0-1.38-.037l-.534.273-.3-.3.277-.54a1.449,1.449,0,0,0-.043-1.377,5.424,5.424,0,0,1-.57-1.377,1.431,1.431,0,0,0-.954-1l-.564-.183v-.431l.578-.188a1.451,1.451,0,0,0,.941-1,5.481,5.481,0,0,1,.572-1.373,1.452,1.452,0,0,0,.037-1.38l-.273-.535.3-.3.543.277a1.451,1.451,0,0,0,1.38-.046,5.413,5.413,0,0,1,1.364-.568H16.1a1.45,1.45,0,0,0,1-.948l.185-.57h.431l.183.564a1.434,1.434,0,0,0,1.008.955,5.4,5.4,0,0,1,1.376.572,1.451,1.451,0,0,0,1.381.035l.531-.271.3.3-.275.542a1.453,1.453,0,0,0,.044,1.381,5.371,5.371,0,0,1,.565,1.359,1.438,1.438,0,0,0,.951,1.014l.57.185v.431ZM17.5,80.4a3.951,3.951,0,1,0,3.951,3.951A3.955,3.955,0,0,0,17.5,80.4Zm0,5.816a1.865,1.865,0,1,1,1.865-1.865A1.867,1.867,0,0,1,17.5,86.214Zm38.621-9.641a10.628,10.628,0,0,0-5.632,1.608,3.212,3.212,0,0,0-.761-.091h-.543a3.264,3.264,0,0,0-3.045-4.447H39.219v-26.8a4.71,4.71,0,0,0-4.7-4.706H4.7A4.71,4.71,0,0,0,0,46.846V93.258a4.71,4.71,0,0,0,4.7,4.706H34.515a1.075,1.075,0,0,0,.129-.009c.074.005.15.009.227.009H49.734a3.267,3.267,0,0,0,2.2-.859,10.7,10.7,0,1,0,4.195-20.533Zm-10.364,8.05a10.737,10.737,0,0,0-.325,2.36H31.285a1.18,1.18,0,1,1,0-2.36ZM33.69,90.251a1.181,1.181,0,0,1,1.18-1.18H45.584a10.616,10.616,0,0,0,.688,2.36H34.87a1.181,1.181,0,0,1-1.18-1.18Zm12.845-7.715H34.87a1.181,1.181,0,0,1-1.18-1.18,1.2,1.2,0,0,1,1.18-1.18H48.128A10.721,10.721,0,0,0,46.536,82.536Zm.787-5.627a1.181,1.181,0,0,1-1.18,1.18H31.285a1.18,1.18,0,0,1,0-2.36H46.143A1.18,1.18,0,0,1,47.323,76.91ZM2.087,93.258V46.846A2.62,2.62,0,0,1,4.7,44.227H34.515a2.62,2.62,0,0,1,2.616,2.619v26.8H31.285a3.267,3.267,0,1,0,0,6.534h.539a3.248,3.248,0,0,0,0,2.36h-.539a3.267,3.267,0,1,0,0,6.534h.539a3.255,3.255,0,0,0,.655,3.4,3.255,3.255,0,0,0-.655,3.4H4.7a2.62,2.62,0,0,1-2.616-2.619Zm47.645,2.619H34.87a1.2,1.2,0,0,1-1.18-1.18,1.181,1.181,0,0,1,1.18-1.18H47.452a10.815,10.815,0,0,0,2.33,2.357Zm6.393,0a8.609,8.609,0,1,1,8.613-8.609A8.619,8.619,0,0,1,56.125,95.878Zm0-16.167a7.556,7.556,0,1,0,7.558,7.558A7.565,7.565,0,0,0,56.125,79.711Zm0,13.027A5.47,5.47,0,1,1,61.6,87.269a5.475,5.475,0,0,1-5.471,5.469Zm1.488-6.1a1.043,1.043,0,0,0,1.227-1.27,2.408,2.408,0,0,0-1.2-1.548,2.764,2.764,0,0,0-.472-.2v-.305a1.043,1.043,0,0,0-2.086,0v.343a2.317,2.317,0,0,0-.919,3.772,2.607,2.607,0,0,0,.2.184,1.092,1.092,0,0,0-.416.08,1.043,1.043,0,0,0-.563,1.364,3.213,3.213,0,0,0,1.7,1.768v.4a1.043,1.043,0,0,0,2.086,0V90.94a2.765,2.765,0,0,0,.718-.333,2.347,2.347,0,0,0,1.056-1.716,2.232,2.232,0,0,0-1.329-2.251Zm-.748,2.047a.252.252,0,0,1-.121.174.937.937,0,0,1-.75.08,1.1,1.1,0,0,1-.684-.685,1.114,1.114,0,0,0-.074-.147,7.139,7.139,0,0,0,.908.258,3.148,3.148,0,0,1,.664.2C56.87,88.63,56.866,88.667,56.865,88.686Zm-.245-2.349a2.266,2.266,0,0,1-.962-.362.225.225,0,0,1-.03-.188.242.242,0,0,1,.183-.175,1.193,1.193,0,0,1,.376-.059.98.98,0,0,1,.454.1.314.314,0,0,1,.175.217,1.041,1.041,0,0,0,.484.65c-.23-.077-.461-.132-.68-.183Z"/>
    </g>
  </g>
</svg>
