<svg xmlns="http://www.w3.org/2000/svg" xmlns:xlink="http://www.w3.org/1999/xlink" width="113" height="113" viewBox="0 0 113 113">
  <defs>
    <filter id="Trazado_982547" x="0" y="0" width="113" height="113" filterUnits="userSpaceOnUse">
      <feOffset dy="3" input="SourceAlpha"/>
      <feGaussianBlur stdDeviation="3" result="blur"/>
      <feFlood flood-opacity="0.161"/>
      <feComposite operator="in" in2="blur"/>
      <feComposite in="SourceGraphic"/>
    </filter>
  </defs>
  <g id="Grupo_1175069" data-name="Grupo 1175069" transform="translate(-1216.5 -1005.053)">
    <g id="Grupo_1174858" data-name="Grupo 1174858" transform="translate(1225.5 1011.053)">
      <g id="Grupo_1167343" data-name="Grupo 1167343" transform="translate(0)">
        <g id="Grupo_1166777" data-name="Grupo 1166777" transform="translate(0)">
          <g id="Grupo_1164305" data-name="Grupo 1164305">
            <g id="Grupo_1163948" data-name="Grupo 1163948">
              <g id="Grupo_1158168" data-name="Grupo 1158168">
                <g id="Grupo_1152576" data-name="Grupo 1152576">
                  <g id="Grupo_1148633" data-name="Grupo 1148633">
                    <g id="Grupo_1148525" data-name="Grupo 1148525">
                      <g transform="matrix(1, 0, 0, 1, -9, -6)" filter="url(#Trazado_982547)">
                        <g id="Trazado_982547-2" data-name="Trazado 982547" transform="translate(9 6)" fill="#f2f7e5">
                          <path d="M 47.5 93.5 C 41.28937149047852 93.5 35.26533508300781 92.28397369384766 29.59518623352051 89.88570404052734 C 24.11771965026855 87.56893157958984 19.19813346862793 84.25196075439453 14.97309303283691 80.02691650390625 C 10.74804019927979 75.80186462402344 7.431066513061523 70.88229370117188 5.114293098449707 65.40481567382812 C 2.716026782989502 59.73468017578125 1.5 53.71062850952148 1.5 47.5 C 1.5 41.28937149047852 2.716026782989502 35.26533508300781 5.114293098449707 29.59518623352051 C 7.431066513061523 24.11771965026855 10.74804019927979 19.19813346862793 14.97309303283691 14.97309303283691 C 19.19813346862793 10.74804019927979 24.11771965026855 7.431066513061523 29.59518623352051 5.114293098449707 C 35.26533508300781 2.716026782989502 41.28937149047852 1.5 47.5 1.5 C 53.71062850952148 1.5 59.73468017578125 2.716026782989502 65.40481567382812 5.114293098449707 C 70.88229370117188 7.431066513061523 75.80186462402344 10.74804019927979 80.02691650390625 14.97309303283691 C 84.25196075439453 19.19813346862793 87.56893157958984 24.11771965026855 89.88570404052734 29.59518623352051 C 92.28397369384766 35.26533508300781 93.5 41.28937149047852 93.5 47.5 C 93.5 53.71062850952148 92.28397369384766 59.73468017578125 89.88570404052734 65.40481567382812 C 87.56893157958984 70.88229370117188 84.25196075439453 75.80186462402344 80.02691650390625 80.02691650390625 C 75.80186462402344 84.25196075439453 70.88229370117188 87.56893157958984 65.40481567382812 89.88570404052734 C 59.73468017578125 92.28397369384766 53.71062850952148 93.5 47.5 93.5 Z" stroke="none"/>
                          <path d="M 47.5 3 C 41.49121475219727 3 35.66376876831055 4.176155090332031 30.17950439453125 6.495796203613281 C 24.88084411621094 8.736953735351562 20.12152099609375 11.94598388671875 16.03375244140625 16.03375244140625 C 11.94598388671875 20.12152099609375 8.736953735351562 24.88084411621094 6.495796203613281 30.17950439453125 C 4.176155090332031 35.66376876831055 3 41.49121475219727 3 47.5 C 3 53.50878524780273 4.176155090332031 59.33624649047852 6.495796203613281 64.82049560546875 C 8.736953735351562 70.11917114257812 11.94598388671875 74.87849426269531 16.03375244140625 78.96626281738281 C 20.12152099609375 83.05403137207031 24.88084411621094 86.2630615234375 30.17950439453125 88.50419616699219 C 35.66376876831055 90.82384490966797 41.49121475219727 92 47.5 92 C 53.50878524780273 92 59.33624649047852 90.82384490966797 64.82049560546875 88.50419616699219 C 70.11917114257812 86.2630615234375 74.87849426269531 83.05403137207031 78.96626281738281 78.96626281738281 C 83.05403137207031 74.87849426269531 86.2630615234375 70.11917114257812 88.50419616699219 64.82049560546875 C 90.82384490966797 59.33624649047852 92 53.50878524780273 92 47.5 C 92 41.49121475219727 90.82384490966797 35.66376876831055 88.50419616699219 30.17950439453125 C 86.2630615234375 24.88084411621094 83.05403137207031 20.12152099609375 78.96626281738281 16.03375244140625 C 74.87849426269531 11.94598388671875 70.11917114257812 8.736953735351562 64.82049560546875 6.495796203613281 C 59.33624649047852 4.176155090332031 53.50878524780273 3 47.5 3 M 47.5 0 C 73.73353576660156 0 95 21.2664794921875 95 47.5 C 95 73.73353576660156 73.73353576660156 95 47.5 95 C 21.2664794921875 95 0 73.73353576660156 0 47.5 C 0 21.2664794921875 21.2664794921875 0 47.5 0 Z" stroke="none" fill="#86b60c"/>
                        </g>
                      </g>
                    </g>
                  </g>
                </g>
              </g>
            </g>
          </g>
        </g>
      </g>
    </g>
    <g id="open_book-pen-lamp-idea" data-name="open book-pen-lamp-idea" transform="translate(1241.959 1027.534)">
      <path id="Trazado_1035779" data-name="Trazado 1035779" d="M3,23H59.145V59.785H3Z" transform="translate(-0.032 -0.673)" fill="#806749"/>
      <path id="Trazado_1035780" data-name="Trazado 1035780" d="M7,21H55.4V55.849H7Z" transform="translate(-0.16 -0.609)" fill="#bdfdff"/>
      <path id="Trazado_1035781" data-name="Trazado 1035781" d="M42,29H53.616v3.872H42Z" transform="translate(-1.279 -0.865)" fill="#acabb1"/>
      <path id="Trazado_1035782" data-name="Trazado 1035782" d="M18.808,36l-1.936,6.776H14.936L13,36Z" transform="translate(-0.352 -1.089)" fill="#ffda44"/>
      <path id="Trazado_1035783" data-name="Trazado 1035783" d="M59.233,14.616a11.627,11.627,0,0,1-7.744,10.939v2.614H43.744V25.555a11.63,11.63,0,0,1-6.176-5.131A11.487,11.487,0,0,1,36,14.616a11.616,11.616,0,0,1,23.233,0Z" transform="translate(-1.087 -0.033)" fill="#ffda44"/>
      <path id="Trazado_1035784" data-name="Trazado 1035784" d="M44,33h7.744A3.872,3.872,0,0,1,44,33Z" transform="translate(-1.343 -0.993)" fill="#57565c"/>
      <path id="Trazado_1035785" data-name="Trazado 1035785" d="M18.808,20.712v14.52H13V12h5.808Z" transform="translate(-0.352 -0.321)" fill="#2488ff"/>
      <path id="Trazado_1035786" data-name="Trazado 1035786" d="M18.808,5.9v5.808H13V5.9a2.9,2.9,0,0,1,5.808,0Z" transform="translate(-0.352 -0.033)" fill="#e0e0e2"/>
      <path id="Trazado_1035787" data-name="Trazado 1035787" d="M16.936,43v2.9A.968.968,0,1,1,15,45.9V43Z" transform="translate(-0.416 -1.312)" fill="#231f20"/>
      <path id="Trazado_1035788" data-name="Trazado 1035788" d="M59.113,21.359h-2a12.584,12.584,0,1,0-22.177-1.936H19.424V12.647H21.36v5.808H23.3V11.679a.968.968,0,0,0-.968-.968h-2.9V5.871a3.872,3.872,0,0,0-7.744,0V19.423H6.84a.968.968,0,0,0-.968.968v.968h-2.9A.968.968,0,0,0,2,22.327V59.112a.968.968,0,0,0,.968.968H59.113a.968.968,0,0,0,.968-.968V22.327A.968.968,0,0,0,59.113,21.359ZM46.529,3.935a10.642,10.642,0,0,1,3.553,20.677.968.968,0,0,0-.649.91v1.646H43.625V25.522a.968.968,0,0,0-.649-.91A10.642,10.642,0,0,1,46.529,3.935Zm-4.84,27.1V29.1h9.68v1.936Zm7.57,1.936a2.892,2.892,0,0,1-5.46,0ZM32.009,21.359h3.94a12.647,12.647,0,0,0,5.74,4.83v.978h-.968a.968.968,0,0,0-.968.968v3.872a.968.968,0,0,0,.968.968h1.065a4.84,4.84,0,0,0,9.487,0h1.065a.968.968,0,0,0,.968-.968V28.135a.968.968,0,0,0-.968-.968h-.968V26.19a12.816,12.816,0,0,0,2.9-1.713v29.8H32.009ZM13.616,5.871a1.936,1.936,0,1,1,3.872,0v4.84H13.616Zm0,6.776h3.872v21.3H13.616Zm3.553,23.233-1.375,4.84H15.31l-1.375-4.84ZM7.808,21.359H11.68V34.911a.774.774,0,0,0,.039.261l1.936,6.776a.968.968,0,0,0,.929.707v1.936a.968.968,0,1,0,1.936,0V42.656a.968.968,0,0,0,.929-.707l1.936-6.776a.774.774,0,0,0,.039-.261V21.359H30.073V54.272H7.808ZM58.145,58.144H3.936V23.3H5.872V55.24a.968.968,0,0,0,.968.968h48.4a.968.968,0,0,0,.968-.968V23.3h1.936Z"/>
      <path id="Trazado_1035789" data-name="Trazado 1035789" d="M35,40H53.392v1.936H35Z" transform="translate(-1.055 -1.217)"/>
      <path id="Trazado_1035790" data-name="Trazado 1035790" d="M35,45H53.392v1.936H35Z" transform="translate(-1.055 -1.376)"/>
      <path id="Trazado_1035791" data-name="Trazado 1035791" d="M44,50h9.68v1.936H44Z" transform="translate(-1.343 -1.536)"/>
      <path id="Trazado_1035792" data-name="Trazado 1035792" d="M35,50h6.776v1.936H35Z" transform="translate(-1.055 -1.536)"/>
      <path id="Trazado_1035793" data-name="Trazado 1035793" d="M44.8,17.168l1.39-3.478.9.9a.968.968,0,0,0,1.369,0l.9-.9,1.39,3.478a.968.968,0,0,0,.9.608h2.9V15.84H52.3l-1.692-4.232a.968.968,0,0,0-1.584-.324l-1.252,1.252-1.252-1.252a.968.968,0,0,0-1.584.324L43.249,15.84H41v1.936h2.9a.968.968,0,0,0,.9-.608Z" transform="translate(-1.247 -0.289)"/>
    </g>
  </g>
</svg>
