<svg xmlns="http://www.w3.org/2000/svg" xmlns:xlink="http://www.w3.org/1999/xlink" width="31.666" height="31.667" viewBox="0 0 31.666 31.667">
  <defs>
    <clipPath id="clip-path">
      <path id="path4094" d="M0-682.665H31.666V-651H0Z" transform="translate(0 682.665)"/>
    </clipPath>
  </defs>
  <g id="g4080" transform="translate(0 682.665)">
    <g id="g4090" transform="translate(0 -682.665)">
      <g id="g4092" clip-path="url(#clip-path)">
        <g id="g4102" transform="translate(10.867 0.624)">
          <path id="path4104" d="M-206.027-21.393a2.2,2.2,0,0,0-1.873-1.041h-4.239a3.91,3.91,0,0,0-3.91,3.91v3.195h7.4a2.942,2.942,0,0,0,1.971-.754,1.991,1.991,0,0,0,1.561.754h1.973v-3.139A2.926,2.926,0,0,0-206.027-21.393Z" transform="translate(216.049 22.433)" fill="none" stroke="#000" stroke-linecap="round" stroke-linejoin="round" stroke-miterlimit="10" stroke-width="0.8" stroke-dasharray="150 35 800 0"/>
        </g>
        <g id="g4106" transform="translate(17.32 16.345)">
          <path id="path4108" d="M-44.386,0l1.825.992-2.575,1.919-1.409-1.471Z" transform="translate(46.545)" fill="none" stroke="#000" stroke-linecap="round" stroke-linejoin="round" stroke-miterlimit="10" stroke-width="0.8"/>
        </g>
        <g id="g4110" transform="translate(7.324 19.673)">
          <path id="path4112" d="M0-41.253H0A2.007,2.007,0,0,1,2.007-43.26H3.569a.781.781,0,0,1,.781.781v2.451a.781.781,0,0,1-.781.781H2.007A2.007,2.007,0,0,1,0-41.253Z" transform="translate(0 43.26)" fill="none" stroke="#000" stroke-linecap="round" stroke-linejoin="round" stroke-miterlimit="10" stroke-width="0.8"/>
        </g>
        <g id="g4114" transform="translate(16.249 17.336)">
          <path id="path4116" d="M-166.382-130.547v-4.011a2.339,2.339,0,0,0-2.339-2.339h-.7L-172-134.978l-1.409-1.471-.7.733v4.8a.369.369,0,0,1-.369.368Z" transform="translate(174.476 136.897)" fill="none" stroke="#000" stroke-linecap="round" stroke-linejoin="round" stroke-miterlimit="10" stroke-width="0.8" stroke-dasharray="60 35 800 0"/>
        </g>
        <g id="g4118" transform="translate(16.618 15.141)">
          <path id="path4120" d="M-14.433-9.628h0a5.225,5.225,0,0,1-.7-.047v1.754l.7.468,2.159-1.439v-1.2A5.19,5.19,0,0,1-14.433-9.628Z" transform="translate(15.135 10.096)" fill="none" stroke="#000" stroke-linecap="round" stroke-linejoin="round" stroke-miterlimit="10" stroke-width="0.8"/>
        </g>
        <g id="g4122" transform="translate(16.618 17.316)">
          <path id="path4124" d="M0,0V1.2L.7.468Z" fill="none" stroke="#000" stroke-linecap="round" stroke-linejoin="round" stroke-miterlimit="10" stroke-width="0.8"/>
        </g>
        <g id="g4126" transform="translate(0.464 19.624)">
          <path id="path4128" d="M-141.025-42.258h0a2,2,0,0,1,.236-.944h-3.221v-.953a.159.159,0,0,0-.248-.131l-3.557,2.428a.159.159,0,0,0,0,.262l3.557,2.428a.159.159,0,0,0,.248-.131v-.953h4.676a.277.277,0,0,0,.083-.014A2.007,2.007,0,0,1-141.025-42.258Z" transform="translate(147.885 44.314)" fill="none" stroke="#000" stroke-linecap="round" stroke-linejoin="round" stroke-miterlimit="10" stroke-width="0.8"/>
        </g>
        <g id="g4130" transform="translate(24.343 19.624)">
          <path id="path4132" d="M-139.6-50.491l-3.558-2.428a.159.159,0,0,0-.248.131v.953h-2.985v2.95h2.985v.953a.159.159,0,0,0,.248.131l3.558-2.428A.159.159,0,0,0-139.6-50.491Z" transform="translate(146.392 52.947)" fill="none" stroke="#000" stroke-linecap="round" stroke-linejoin="round" stroke-miterlimit="10" stroke-width="0.8"/>
        </g>
        <g id="g4134" transform="translate(13.686 23.686)">
          <path id="path4136" d="M-103.1-71.569h-.953V-75.05h-2.95v3.481h-.953a.159.159,0,0,0-.131.248l2.428,3.557a.159.159,0,0,0,.262,0l2.428-3.557A.159.159,0,0,0-103.1-71.569Z" transform="translate(108.117 75.05)" fill="none" stroke="#000" stroke-linecap="round" stroke-linejoin="round" stroke-miterlimit="10" stroke-width="0.8"/>
        </g>
        <g id="g4138" transform="translate(16.618 17.784)">
          <path id="path4140" d="M-14.433,0l-.7.733V2.727h1.408l.4-1.572Z" transform="translate(15.135)" fill="none" stroke="#000" stroke-linecap="round" stroke-linejoin="round" stroke-miterlimit="10" stroke-width="0.8"/>
        </g>
        <g id="g4142" transform="translate(10.34 6.975)">
          <path id="path4144" d="M-252.115-15.5h-.8a1.991,1.991,0,0,1-1.561-.754,2.942,2.942,0,0,1-1.97.754h-6.231a1.769,1.769,0,0,0-1.7,1.768,1.769,1.769,0,0,0,1.769,1.769l.072,0a5.217,5.217,0,0,0,2.788,3.785h1.28a.369.369,0,0,1,.368.369v.145a5.257,5.257,0,0,0,.7.047h0a5.212,5.212,0,0,0,5.139-4.345l.072,0a1.769,1.769,0,0,0,1.769-1.769A1.769,1.769,0,0,0-252.115-15.5Z" transform="translate(264.378 16.252)" fill="none" stroke="#000" stroke-linecap="round" stroke-linejoin="round" stroke-miterlimit="10" stroke-width="0.8"/>
        </g>
        <g id="g4146" transform="translate(16.25 20.511)">
          <path id="path4148" d="M-7.569-57.7a.369.369,0,0,1-.368.368h2.4L-6.162-60.5H-7.569Z" transform="translate(7.937 60.504)" fill="none" stroke="#000" stroke-linecap="round" stroke-linejoin="round" stroke-miterlimit="10" stroke-width="0.8"/>
        </g>
        <g id="g4150" transform="translate(9.499 15.049)">
          <path id="path4152" d="M-138.777,0h-6.382a.369.369,0,0,0-.368.369V2.851a1.01,1.01,0,0,1,.731.971v.8h.663a.781.781,0,0,1,.781.781V7.857a.781.781,0,0,1-.781.781h5.357a.369.369,0,0,0,.369-.368V.369A.369.369,0,0,0-138.777,0Z" transform="translate(145.528)" fill="none" stroke="#000" stroke-linecap="round" stroke-linejoin="round" stroke-miterlimit="10" stroke-width="0.8"/>
        </g>
        <g id="g4154" transform="translate(8.695 17.859)">
          <path id="path4156" d="M-13.072-37.291h.9v-.8a1.011,1.011,0,0,0-1.011-1.011.525.525,0,0,0-.525.525v1.392A2,2,0,0,1-13.072-37.291Z" transform="translate(13.708 39.105)" fill="none" stroke="#000" stroke-linecap="round" stroke-linejoin="round" stroke-miterlimit="10" stroke-width="0.8"/>
        </g>
      </g>
    </g>
  </g>
</svg>
