<svg xmlns="http://www.w3.org/2000/svg" width="190" height="108.029" viewBox="0 0 190 108.029">
  <g id="Grupo_1175057" data-name="Grupo 1175057" transform="translate(-1229 -285.971)">
    <g id="Grupo_1174854" data-name="Grupo 1174854" transform="translate(-1 5)">
      <rect id="Rect치ngulo_415310" data-name="Rect치ngulo 415310" width="190" height="60" rx="5" transform="translate(1230 307)" fill="#103d47"/>
      <rect id="Rect치ngulo_415311" data-name="Rect치ngulo 415311" width="160" height="104" rx="5" transform="translate(1245 285)" fill="#1d7083"/>
    </g>
    <g id="broker_6417455" transform="translate(1265 283.971)">
      <g id="Color" transform="translate(3.8 3.8)">
        <g id="Grupo_1175055" data-name="Grupo 1175055">
          <g id="Grupo_1175052" data-name="Grupo 1175052" transform="translate(5.403)">
            <g id="Grupo_1175050" data-name="Grupo 1175050" transform="translate(30.606)">
              <path id="Trazado_1035655" data-name="Trazado 1035655" d="M44.606,37H69.812A21.606,21.606,0,0,1,91.418,58.606V80.211H23V58.606A21.606,21.606,0,0,1,44.606,37Z" transform="translate(-23 24.216)" fill="#d0d8da"/>
              <path id="Trazado_1035656" data-name="Trazado 1035656" d="M82.776,41.321A21.605,21.605,0,0,0,69.812,37l-.569,5.113Q68.012,53.2,65.823,64.148a8.784,8.784,0,0,1-17.227,0Q46.408,53.21,45.175,42.113L44.606,37A21.606,21.606,0,0,0,23,58.606V80.211H91.418V58.606a21.6,21.6,0,0,0-8.642-17.285Z" transform="translate(-23 24.216)" fill="#b8bebf"/>
              <g id="Grupo_1175047" data-name="Grupo 1175047" transform="translate(21.606 57.615)">
                <path id="Trazado_1035657" data-name="Trazado 1035657" d="M39.656,37.11,38.6,35,35,38.6,40.4,53l.443-.664C42.891,49.271,44.1,45.169,47.6,44A13.738,13.738,0,0,1,39.656,37.11Z" transform="translate(-35 -35)" fill="#b8bebf"/>
                <path id="Trazado_1035658" data-name="Trazado 1035658" d="M48.8,41.8V40H38v1.8a5.4,5.4,0,0,0,3.4,5.009L38,70.608l5.4,7.2,5.4-7.2-3.4-23.8A5.4,5.4,0,0,0,48.8,41.8Z" transform="translate(-32.599 -30.998)" fill="#b8bebf"/>
                <path id="Trazado_1035659" data-name="Trazado 1035659" d="M51,35l-1.055,2.11A13.738,13.738,0,0,1,42,44c3.5,1.167,4.712,5.268,6.759,8.338L49.2,53l5.4-14.4Z" transform="translate(-29.397 -35)" fill="#b8bebf"/>
              </g>
              <g id="Grupo_1175048" data-name="Grupo 1175048" transform="translate(0 61.216)">
                <path id="Trazado_1035660" data-name="Trazado 1035660" d="M51.4,37A21.606,21.606,0,0,1,73.007,58.606V80.211H46a128.093,128.093,0,0,0,5.4-36.8Z" transform="translate(-4.589 -37)" fill="#769fb6"/>
                <path id="Trazado_1035661" data-name="Trazado 1035661" d="M67.606,65.345a3.139,3.139,0,0,0-6.116-.992L58.6,73.01a18.237,18.237,0,0,1-2.621-.212L64,51.4l-7.2-1.8L62.2,46,51.4,37v6.41a128.093,128.093,0,0,1-5.4,36.8H73.007V71.839A6.623,6.623,0,0,1,67.606,65.345Z" transform="translate(-4.589 -37)" fill="#608ea9"/>
                <path id="Trazado_1035662" data-name="Trazado 1035662" d="M44.606,37A21.606,21.606,0,0,0,23,58.606V80.211H50.007a128.094,128.094,0,0,1-5.4-36.8Z" transform="translate(-23 -37)" fill="#608ea9"/>
                <path id="Trazado_1035663" data-name="Trazado 1035663" d="M39.8,37v6.41a128.093,128.093,0,0,0,5.4,36.8H38L29,49.6h5.4l-3.6-5.4Z" transform="translate(-18.197 -37)" fill="#a2bdcd"/>
              </g>
              <path id="Trazado_1035664" data-name="Trazado 1035664" d="M51.4,37v6.41a128.093,128.093,0,0,1-5.4,36.8h7.2l9-30.608H56.8l3.6-5.4Z" transform="translate(-4.589 24.216)" fill="#a2bdcd"/>
              <path id="Trazado_1035665" data-name="Trazado 1035665" d="M49.8,68.207l-5.4,7.2-5.4-7.2L42.6,43h3.6Z" transform="translate(-10.192 29.019)" fill="#f15574"/>
              <path id="Trazado_1035666" data-name="Trazado 1035666" d="M46.393,67.4A3.6,3.6,0,0,1,44.4,64.181V50.2a3.593,3.593,0,0,1,2.35-3.365L46.2,43H42.6L39,68.207l5.4,7.2,5.4-7.2-.122-.862A3.55,3.55,0,0,1,46.393,67.4Z" transform="translate(-10.192 29.019)" fill="#ee2f56"/>
              <path id="Trazado_1035667" data-name="Trazado 1035667" d="M44.4,47.2A5.4,5.4,0,0,1,39,41.8V40H49.8v1.8A5.4,5.4,0,0,1,44.4,47.2Z" transform="translate(-10.192 26.618)" fill="#f47c94"/>
              <path id="Trazado_1035668" data-name="Trazado 1035668" d="M44.4,40H39v1.8a5.367,5.367,0,0,0,.8,2.791C40.95,42.564,42.237,40.722,44.4,40Z" transform="translate(-10.192 26.618)" fill="#f15574"/>
              <path id="Trazado_1035669" data-name="Trazado 1035669" d="M47.4,40H42c2.164.722,3.452,2.564,4.6,4.591a5.367,5.367,0,0,0,.8-2.791Z" transform="translate(-7.791 26.618)" fill="#f15574"/>
              <path id="Trazado_1035670" data-name="Trazado 1035670" d="M55,45.4l-9,1.8-9-1.8V31H55Z" transform="translate(-11.793 19.413)" fill="#f6b98d"/>
              <path id="Trazado_1035671" data-name="Trazado 1035671" d="M52.126,43.569a15.618,15.618,0,0,1-8.956-3.588A16.168,16.168,0,0,0,55,33.973V31H37V45.4l9,1.8,9-1.8V43.484A16.432,16.432,0,0,1,52.126,43.569Z" transform="translate(-11.793 19.413)" fill="#f3a268"/>
              <path id="Trazado_1035672" data-name="Trazado 1035672" d="M39.044,50.54,38.6,51.2,35,38.6,38.6,35l1.055,2.11A13.738,13.738,0,0,0,47.6,44,16.6,16.6,0,0,0,39.044,50.54Z" transform="translate(-13.394 22.615)" fill="#e9f1f2"/>
              <path id="Trazado_1035673" data-name="Trazado 1035673" d="M50.559,50.54,51,51.2l3.6-12.6L51,35l-1.055,2.11A13.738,13.738,0,0,1,42,44,16.6,16.6,0,0,1,50.559,50.54Z" transform="translate(-7.791 22.615)" fill="#e9f1f2"/>
              <path id="Trazado_1035674" data-name="Trazado 1035674" d="M72.1,33.608C79.787,23.369,70.959,6.6,60.619,6.6a14.073,14.073,0,0,0-1.84.133A9.727,9.727,0,0,0,51.051,3C39.424,3,30,11.867,30,22.805A12.075,12.075,0,0,0,42.593,34.87Z" transform="translate(-17.397 -3)" fill="#ffc857"/>
              <path id="Trazado_1035675" data-name="Trazado 1035675" d="M68.148,19.456a6.114,6.114,0,0,1-5.191-4.15,5.957,5.957,0,0,0-8.718-3.225A11.087,11.087,0,0,1,39.314,8.725a10.489,10.489,0,0,1-1.435-3.3A19.346,19.346,0,0,0,30,20.862,12.075,12.075,0,0,0,42.593,32.927L72.1,31.665A15.836,15.836,0,0,0,74.526,18.45,12.7,12.7,0,0,1,68.148,19.456Z" transform="translate(-17.397 -1.057)" fill="#ffb41f"/>
              <path id="Trazado_1035676" data-name="Trazado 1035676" d="M49.2,51.61A16.2,16.2,0,0,1,33,35.406V22.8l.868-1.736A9.886,9.886,0,0,1,42.712,15.6,21.448,21.448,0,0,0,54.606,12l.925,2.315A10.64,10.64,0,0,0,65.409,21v14.4a16.2,16.2,0,0,1-16.2,16.2Z" transform="translate(-14.995 4.204)" fill="#f9cdae"/>
              <g id="Grupo_1175049" data-name="Grupo 1175049" transform="translate(10.803 16.204)">
                <path id="Trazado_1035677" data-name="Trazado 1035677" d="M51,27.8V20.6a3.6,3.6,0,0,1,7.2,0A7.2,7.2,0,0,1,51,27.8Z" transform="translate(-11.39 -7.998)" fill="#f6b98d"/>
                <path id="Trazado_1035678" data-name="Trazado 1035678" d="M36.2,27.8V20.6a3.6,3.6,0,1,0-7.2,0A7.2,7.2,0,0,0,36.2,27.8Z" transform="translate(-29 -7.998)" fill="#f6b98d"/>
                <path id="Trazado_1035679" data-name="Trazado 1035679" d="M55.531,14.315,54.606,12a21.444,21.444,0,0,1-11.894,3.6,9.891,9.891,0,0,0-8.846,5.466L33,22.8v12.6a16.192,16.192,0,0,0,30.025,8.43A16.186,16.186,0,0,1,38.4,30V22.011A9.842,9.842,0,0,1,42.712,21a21.448,21.448,0,0,0,11.894-3.6l.925,2.315A10.64,10.64,0,0,0,65.409,26.4V21a10.64,10.64,0,0,1-9.877-6.687Z" transform="translate(-25.798 -12)" fill="#f6b98d"/>
                <path id="Trazado_1035680" data-name="Trazado 1035680" d="M52,28H46.6A3.6,3.6,0,0,1,43,24.4V22.6A3.6,3.6,0,0,1,46.6,19H52a3.6,3.6,0,0,1,3.6,3.6v1.8A3.6,3.6,0,0,1,52,28Z" transform="translate(-17.793 -6.397)" fill="#f6b98d"/>
                <path id="Trazado_1035681" data-name="Trazado 1035681" d="M40.2,19H34.8a3.578,3.578,0,0,0-1.8.5v8a3.561,3.561,0,0,0,1.8.5h5.4a3.6,3.6,0,0,0,3.6-3.6V22.6A3.6,3.6,0,0,0,40.2,19Z" transform="translate(-25.798 -6.397)" fill="#f6b98d"/>
              </g>
              <path id="Trazado_1035682" data-name="Trazado 1035682" d="M54.6,20.6V17A3.6,3.6,0,0,0,51,20.6v7.2a7.17,7.17,0,0,0,5.754-2.911A5.377,5.377,0,0,1,54.6,20.6Z" transform="translate(-0.587 8.207)" fill="#f3a268"/>
              <path id="Trazado_1035683" data-name="Trazado 1035683" d="M31.957,20.6V17a3.6,3.6,0,0,1,3.6,3.6v7.2A7.17,7.17,0,0,1,29.8,24.891,5.377,5.377,0,0,0,31.957,20.6Z" transform="translate(-17.554 8.207)" fill="#f3a268"/>
              <path id="Trazado_1035684" data-name="Trazado 1035684" d="M53,27H47.6A3.6,3.6,0,0,1,44,23.4V21.6A3.6,3.6,0,0,1,47.6,18H53a3.6,3.6,0,0,1,3.6,3.6v1.8A3.6,3.6,0,0,1,53,27Z" transform="translate(-6.19 9.007)" fill="#e9f1f2"/>
              <path id="Trazado_1035685" data-name="Trazado 1035685" d="M42,27H36.6A3.6,3.6,0,0,1,33,23.4V21.6A3.6,3.6,0,0,1,36.6,18H42a3.6,3.6,0,0,1,3.6,3.6v1.8A3.6,3.6,0,0,1,42,27Z" transform="translate(-14.995 9.007)" fill="#e9f1f2"/>
              <path id="Trazado_1035686" data-name="Trazado 1035686" d="M44,21.6v1.8A3.6,3.6,0,0,0,47.6,27H53a3.59,3.59,0,0,0,2.546-1.055L47.6,18A3.6,3.6,0,0,0,44,21.6Z" transform="translate(-6.19 9.007)" fill="#d0d8da"/>
              <path id="Trazado_1035687" data-name="Trazado 1035687" d="M33,21.6v1.8A3.6,3.6,0,0,0,36.6,27H42a3.59,3.59,0,0,0,2.546-1.055L36.6,18A3.6,3.6,0,0,0,33,21.6Z" transform="translate(-14.995 9.007)" fill="#d0d8da"/>
            </g>
            <g id="Grupo_1175051" data-name="Grupo 1175051" transform="translate(0 61.216)">
              <path id="Trazado_1035688" data-name="Trazado 1035688" d="M33.289,73.808h-14.4L15.284,45h10.8Z" transform="translate(1.43 -30.596)" fill="#769fb6"/>
              <path id="Trazado_1035689" data-name="Trazado 1035689" d="M22.228,60.153l-1.1-7.13A5.4,5.4,0,0,1,26.47,46.8h.067l-.45-1.8h-10.8l3.6,28.808h14.4a17.435,17.435,0,0,1-11.06-13.655Z" transform="translate(1.43 -30.596)" fill="#608ea9"/>
              <path id="Trazado_1035690" data-name="Trazado 1035690" d="M23.655,46h-9L13.911,42.3A4.429,4.429,0,0,1,18.254,37Z" transform="translate(0.261 -37)" fill="#f6b98d"/>
              <path id="Trazado_1035691" data-name="Trazado 1035691" d="M26.087,45h-10.8l.9,7.2h11.7Z" transform="translate(1.43 -30.596)" fill="#f6b98d"/>
              <path id="Trazado_1035692" data-name="Trazado 1035692" d="M15.513,43.673,12.006,39a3.336,3.336,0,0,0-5.445,3.851L9.24,46.865a9,9,0,0,0,7.49,4.01H33.518l-.778-3.111A5.4,5.4,0,0,0,27.5,43.673Z" transform="translate(-6.001 -36.471)" fill="#f9cdae"/>
              <path id="Trazado_1035693" data-name="Trazado 1035693" d="M32.617,47.314H18.907a9,9,0,0,1-7.49-4.01L8.738,39.286a3.291,3.291,0,0,1-.528-1.511,3.281,3.281,0,0,0-.724.353,3.337,3.337,0,0,0-.925,4.625L9.24,46.772a9,9,0,0,0,7.49,4.011H33.518l-.778-3.111c-.032-.124-.085-.238-.122-.358Z" transform="translate(-6.001 -36.38)" fill="#f6b98d"/>
              <path id="Trazado_1035694" data-name="Trazado 1035694" d="M26.47,46.8h.067l-.45-1.8h-10.8l.9,7.2H21.1A5.382,5.382,0,0,1,26.47,46.8Z" transform="translate(1.43 -30.596)" fill="#f3a268"/>
            </g>
          </g>
          <g id="Grupo_1175054" data-name="Grupo 1175054">
            <g id="Grupo_1175053" data-name="Grupo 1175053" transform="translate(5.401 37.81)">
              <path id="Trazado_1035695" data-name="Trazado 1035695" d="M6,30h7.2v7.2H6Z" transform="translate(-6 -19.197)" fill="#f47c94"/>
              <path id="Trazado_1035696" data-name="Trazado 1035696" d="M14,27h7.2V39.6H14Z" transform="translate(0.404 -21.599)" fill="#f47c94"/>
              <path id="Trazado_1035697" data-name="Trazado 1035697" d="M22,24h7.2V42H22Z" transform="translate(6.808 -24)" fill="#f47c94"/>
            </g>
            <circle id="Elipse_12293" data-name="Elipse 12293" cx="12.5" cy="12.5" r="12.5" transform="translate(0.2 0.228)" fill="#fd9"/>
            <path id="Trazado_1035698" data-name="Trazado 1035698" d="M22.805,20.624A12.583,12.583,0,0,1,11.059,3.476,12.6,12.6,0,1,0,27.35,19.767,12.572,12.572,0,0,1,22.805,20.624Z" transform="translate(-3 -2.619)" fill="#ffc857"/>
            <path id="Trazado_1035699" data-name="Trazado 1035699" d="M6,30H9.6v7.2H6Z" transform="translate(-0.599 18.613)" fill="#f15574"/>
            <path id="Trazado_1035700" data-name="Trazado 1035700" d="M14,27h3.6V39.6H14Z" transform="translate(5.805 16.211)" fill="#f15574"/>
            <path id="Trazado_1035701" data-name="Trazado 1035701" d="M22,24h3.6V42H22Z" transform="translate(12.209 13.81)" fill="#f15574"/>
          </g>
        </g>
      </g>
      <g id="Outline_copy" transform="translate(2 2)">
        <g id="Grupo_1175056" data-name="Grupo 1175056">
          <path id="Trazado_1035702" data-name="Trazado 1035702" d="M98.265,67.9A23.551,23.551,0,0,0,85,63.249L82.421,60.67v-2.89a17.971,17.971,0,0,0,7.2-14.37V41.429a9.018,9.018,0,0,0,7.2-8.821,5.368,5.368,0,0,0-7.719-4.859,1.79,1.79,0,0,0-1.284-.542,8.8,8.8,0,0,1-8.2-5.554l-.927-2.315a1.8,1.8,0,0,0-2.672-.828,19.569,19.569,0,0,1-10.891,3.3A11.641,11.641,0,0,0,58.4,23.933a1.8,1.8,0,0,0,2.072,2.947,8.032,8.032,0,0,1,4.652-1.475,23.156,23.156,0,0,0,11.006-2.771l.14.353a12.4,12.4,0,0,0,5.094,6.017H78.82a5.385,5.385,0,0,0-4.606,2.618,6.931,6.931,0,0,0-5.194,0,5.382,5.382,0,0,0-4.6-2.616h-5.4a5.342,5.342,0,0,0-2.649.722,5.386,5.386,0,0,0-3.851-2.452,10.093,10.093,0,0,1-.7-3.671c0-9.928,8.635-18,19.249-18a7.977,7.977,0,0,1,6.3,3.034,1.828,1.828,0,0,0,1.658.686,12.16,12.16,0,0,1,1.61-.119c5.662,0,11.48,6.557,12.45,14.033a1.8,1.8,0,1,0,3.569-.465C95.422,13.3,88.234,5.6,80.631,5.6c-.349,0-.708.014-1.087.043A11.663,11.663,0,0,0,71.061,2c-12.6,0-22.85,9.692-22.85,21.606a13.633,13.633,0,0,0,.742,4.438,5.388,5.388,0,0,0-2.542,4.564,9.019,9.019,0,0,0,7.2,8.821v1.982a17.971,17.971,0,0,0,7.2,14.37v2.89l-2.578,2.578A23.259,23.259,0,0,0,36.454,80.535l-1.167-4.661a7.172,7.172,0,0,0-4.31-4.923L26.86,64.089a1.8,1.8,0,0,0-1.543-.873,6.2,6.2,0,0,0-6.129,7.2H17.215l-2.967-3.957a5.136,5.136,0,0,0-8.383,5.931L8.543,76.41a10.778,10.778,0,0,0,8.986,4.811h4.4l3.4,27.23A1.8,1.8,0,0,0,28.9,108L26.455,88.423h8.257l5.061,20.243a1.8,1.8,0,0,0,1.746,1.363,1.757,1.757,0,0,0,.439-.054,1.8,1.8,0,0,0,1.311-2.184l-4.06-16.231V86.622A19.719,19.719,0,0,1,52.47,67.948l-3.581,2.866a1.8,1.8,0,0,0-.375,2.4l1.734,2.6H48.212a1.8,1.8,0,1,0,0,3.6h5.4a1.8,1.8,0,0,0,1.5-2.8l-2.685-4.028,4.787-3.831v2.663a129.775,129.775,0,0,0,5.477,37.32,1.8,1.8,0,0,0,1.725,1.282,1.841,1.841,0,0,0,.517-.076,1.8,1.8,0,0,0,1.208-2.242,126.137,126.137,0,0,1-5.11-29.269,1.786,1.786,0,0,0,3.082.176l.443-.664A14.515,14.515,0,0,1,65.793,76.4a7.239,7.239,0,0,0,1.865,1.793l-3.225,22.578a1.809,1.809,0,0,0,.342,1.336l5.4,7.2a1.8,1.8,0,0,0,2.881,0l5.4-7.2a1.8,1.8,0,0,0,.342-1.336L76.349,83.6a1.8,1.8,0,0,0-3.567.51l2.348,16.428-3.513,4.685L68.1,100.542l3.023-21.165c.164.011.324.043.49.043A7.211,7.211,0,0,0,77.442,76.4a14.7,14.7,0,0,1,1.237,1.556l.443.664a1.785,1.785,0,0,0,3.082-.176,126.121,126.121,0,0,1-5.11,29.269,1.8,1.8,0,0,0,3.45,1.033,129.772,129.772,0,0,0,5.477-37.318V68.763l4.787,3.83-2.685,4.028a1.8,1.8,0,0,0,1.5,2.8h2.994l-8.322,28.3a1.8,1.8,0,0,0,1.219,2.236,1.84,1.84,0,0,0,.508.072,1.8,1.8,0,0,0,1.727-1.293l9-30.608a1.8,1.8,0,0,0-1.727-2.308H92.986l1.736-2.6a1.8,1.8,0,0,0-.373-2.4L90.768,67.95a19.716,19.716,0,0,1,13.259,18.673v21.606a1.8,1.8,0,1,0,3.6,0V86.622A23.519,23.519,0,0,0,98.265,67.9ZM22.74,69.961A2.626,2.626,0,0,1,24.4,66.985l2.06,3.434H22.83Zm-11.2,4.453L8.858,70.395a1.535,1.535,0,0,1,2.506-1.772L14.872,73.3a1.8,1.8,0,0,0,1.44.72H28.3a3.6,3.6,0,0,1,3.493,2.728l.22.871H17.531a7.191,7.191,0,0,1-5.994-3.207ZM26.006,84.822l-.45-3.6h7.357l.9,3.6ZM91.423,30.808a1.8,1.8,0,0,1,1.8,1.8,5.412,5.412,0,0,1-3.6,5.094V32.608A1.8,1.8,0,0,1,91.423,30.808Zm-12.6,1.8h5.4a1.8,1.8,0,0,1,1.8,1.8v1.8a1.8,1.8,0,0,1-1.8,1.8h-5.4a1.8,1.8,0,0,1-1.8-1.8v-1.8A1.8,1.8,0,0,1,78.82,32.608Zm-19.805,0h5.4a1.8,1.8,0,0,1,1.8,1.8v1.8a1.8,1.8,0,0,1-1.8,1.8h-5.4a1.8,1.8,0,0,1-1.8-1.8v-1.8A1.8,1.8,0,0,1,59.014,32.608Zm-9,0a1.8,1.8,0,0,1,3.6,0V37.7A5.412,5.412,0,0,1,50.012,32.608Zm7.2,10.8V41.279a5.341,5.341,0,0,0,1.8.331h5.4a5.408,5.408,0,0,0,5.4-5.4v-.954a3.3,3.3,0,0,1,3.6,0v.954a5.408,5.408,0,0,0,5.4,5.4h5.4a5.341,5.341,0,0,0,1.8-.331v2.132a14.4,14.4,0,1,1-28.808,0Zm14.4,18a17.878,17.878,0,0,0,7.2-1.514v1.087l-.864,1.73a11.831,11.831,0,0,1-6.338,5.769,11.85,11.85,0,0,1-6.338-5.769l-.864-1.728V59.9A17.907,17.907,0,0,0,71.618,61.416ZM63.361,73.675l-2.324-8.135,1.087-1.086a15.426,15.426,0,0,0,5.3,5.922A18.532,18.532,0,0,0,63.361,73.675Zm8.257,2.144a3.612,3.612,0,0,1-3.109-1.809,14.7,14.7,0,0,1,3.109-1.638,14.781,14.781,0,0,1,3.109,1.638A3.612,3.612,0,0,1,71.618,75.82Zm8.257-2.144a18.532,18.532,0,0,0-4.065-3.3,15.439,15.439,0,0,0,5.3-5.922L82.2,65.541Z" transform="translate(0.401 -2)" fill="#2a0a0a"/>
          <path id="Trazado_1035703" data-name="Trazado 1035703" d="M32.528,47.693a1.8,1.8,0,0,0-3.455,1.017l7.2,24.486A1.8,1.8,0,0,0,38,74.487a1.777,1.777,0,0,0,.508-.074,1.8,1.8,0,0,0,1.219-2.236Z" transform="translate(19.612 33.541)" fill="#323232"/>
          <path id="Trazado_1035704" data-name="Trazado 1035704" d="M57.824,52.014a1.8,1.8,0,0,0-2.009,1.563l-1.8,14.4a1.8,1.8,0,0,0,1.563,2.009A1.591,1.591,0,0,0,55.8,70a1.8,1.8,0,0,0,1.784-1.577l1.8-14.4A1.8,1.8,0,0,0,57.824,52.014Z" transform="translate(39.625 38.024)" fill="#323232"/>
          <path id="Trazado_1035705" data-name="Trazado 1035705" d="M28.577,52.015a1.8,1.8,0,0,0-1.563,2.009l1.8,14.4A1.8,1.8,0,0,0,30.6,70a1.574,1.574,0,0,0,.225-.014,1.8,1.8,0,0,0,1.563-2.009l-1.8-14.4A1.8,1.8,0,0,0,28.577,52.015Z" transform="translate(18.012 38.024)" fill="#323232"/>
          <circle id="Elipse_12294" data-name="Elipse 12294" cx="2" cy="2" r="2" transform="translate(79 32.029)" fill="#2a0a0a"/>
          <circle id="Elipse_12295" data-name="Elipse 12295" cx="2" cy="2" r="2" transform="translate(59 32.029)" fill="#2a0a0a"/>
          <path id="Trazado_1035706" data-name="Trazado 1035706" d="M42.328,30.476a1.8,1.8,0,0,0,2.546-2.546l-.855-.855,1.3-2.423a1.8,1.8,0,1,0-3.172-1.7l-1.932,3.6a1.8,1.8,0,0,0,.313,2.125Z" transform="translate(28.418 14.009)" fill="#2a0a0a"/>
          <path id="Trazado_1035707" data-name="Trazado 1035707" d="M45.2,33.243A11.525,11.525,0,0,0,51.6,31.3a1.8,1.8,0,1,0-2-3,7.919,7.919,0,0,1-8.806,0,1.8,1.8,0,1,0-2,3A11.535,11.535,0,0,0,45.2,33.243Z" transform="translate(26.816 18.812)" fill="#2a0a0a"/>
          <path id="Trazado_1035708" data-name="Trazado 1035708" d="M25.933,30.677a1.8,1.8,0,0,0,2.272.225L43.411,20.765V24a1.8,1.8,0,1,0,3.6,0V16.8a1.8,1.8,0,0,0-1.8-1.8h-7.2a1.8,1.8,0,1,0,0,3.6h2.155L27.435,27.087l-4.357-4.357a1.8,1.8,0,0,0-2.3-.2l-18,12.6A1.8,1.8,0,1,0,4.832,38.08L21.6,26.343Z" transform="translate(-2 8.406)" fill="#2a0a0a"/>
          <path id="Trazado_1035709" data-name="Trazado 1035709" d="M6.8,29A1.8,1.8,0,0,0,5,30.8V38a1.8,1.8,0,0,0,1.8,1.8H14A1.8,1.8,0,0,0,15.8,38V30.8A1.8,1.8,0,0,0,14,29Zm5.4,7.2H8.6V32.6h3.6Z" transform="translate(0.401 19.613)" fill="#2a0a0a"/>
          <path id="Trazado_1035710" data-name="Trazado 1035710" d="M14.8,26A1.8,1.8,0,0,0,13,27.8V40.4a1.8,1.8,0,0,0,1.8,1.8H22a1.8,1.8,0,0,0,1.8-1.8V27.8A1.8,1.8,0,0,0,22,26Zm5.4,12.6H16.6v-9h3.6Z" transform="translate(6.805 17.211)" fill="#2a0a0a"/>
          <path id="Trazado_1035711" data-name="Trazado 1035711" d="M22.8,41a1.8,1.8,0,0,0,0,3.6H30a1.8,1.8,0,0,0,1.8-1.8v-18A1.8,1.8,0,0,0,30,23H22.8A1.8,1.8,0,0,0,21,24.8V35.6a1.8,1.8,0,0,0,3.6,0v-9h3.6V41Z" transform="translate(13.209 14.81)" fill="#2a0a0a"/>
          <path id="Trazado_1035712" data-name="Trazado 1035712" d="M16.4,30.808A14.4,14.4,0,1,0,9.549,3.732,1.8,1.8,0,0,0,11.265,6.9,10.81,10.81,0,0,1,14.6,5.77V7.733A5.388,5.388,0,0,0,16.4,18.2,1.8,1.8,0,1,1,14.6,20,1.8,1.8,0,1,0,11,20a5.394,5.394,0,0,0,3.6,5.07v1.97A10.8,10.8,0,0,1,6.9,11.265,1.8,1.8,0,0,0,3.732,9.549,14.409,14.409,0,0,0,16.4,30.808Zm0-16.2a1.8,1.8,0,1,1,1.8-1.8,1.8,1.8,0,0,0,3.6,0,5.394,5.394,0,0,0-3.6-5.07V5.763a10.79,10.79,0,0,1,0,21.282v-1.97A5.388,5.388,0,0,0,16.4,14.6Z" transform="translate(-2 -2)" fill="#2a0a0a"/>
        </g>
      </g>
    </g>
  </g>
</svg>
