<svg xmlns="http://www.w3.org/2000/svg" xmlns:xlink="http://www.w3.org/1999/xlink" width="108" height="108" viewBox="0 0 108 108">
  <defs>
    <filter id="Trazado_904820" x="0" y="0" width="108" height="108" filterUnits="userSpaceOnUse">
      <feOffset dy="3" input="SourceAlpha"/>
      <feGaussianBlur stdDeviation="3" result="blur"/>
      <feFlood flood-opacity="0.161"/>
      <feComposite operator="in" in2="blur"/>
      <feComposite in="SourceGraphic"/>
    </filter>
  </defs>
  <g id="Grupo_1174870" data-name="Grupo 1174870" transform="translate(9 6)">
    <g id="Grupo_1173585" data-name="Grupo 1173585" transform="translate(0 0)">
      <g id="Grupo_1173428" data-name="Grupo 1173428">
        <g id="Grupo_1171958" data-name="Grupo 1171958">
          <g id="Grupo_1167341" data-name="Grupo 1167341">
            <g id="Grupo_1166792" data-name="Grupo 1166792">
              <g transform="matrix(1, 0, 0, 1, -9, -6)" filter="url(#Trazado_904820)">
                <g id="Trazado_904820-2" data-name="Trazado 904820" transform="translate(9 6)" fill="#f2f7e5">
                  <path d="M 44.99999618530273 88.50004577636719 C 39.12687301635742 88.50004577636719 33.43022155761719 87.35012054443359 28.06829643249512 85.08220672607422 C 22.88852119445801 82.89134216308594 18.23629570007324 79.75463104248047 14.24084663391113 75.75917816162109 C 10.24540901184082 71.76371765136719 7.108683586120605 67.11149597167969 4.917821407318115 61.93173217773438 C 2.649921178817749 56.56979370117188 1.499996185302734 50.87314224243164 1.499996185302734 45.00001907348633 C 1.499996185302734 39.12689590454102 2.649921178817749 33.43024444580078 4.917821407318115 28.06830596923828 C 7.108683586120605 22.88853073120117 10.24540901184082 18.23631858825684 14.24084663391113 14.24086952209473 C 18.23629570007324 10.2454195022583 22.88852119445801 7.108694076538086 28.06829643249512 4.917831420898438 C 33.43022155761719 2.649931669235229 39.12687301635742 1.500006556510925 44.99999618530273 1.500006556510925 C 50.87311935424805 1.500006556510925 56.56977081298828 2.649931669235229 61.93169784545898 4.917831420898438 C 67.11147308349609 7.108694076538086 71.76369476318359 10.2454195022583 75.75914764404297 14.24086952209473 C 79.75458526611328 18.23631858825684 82.89131164550781 22.88853073120117 85.08216857910156 28.06830596923828 C 87.35007476806641 33.43024444580078 88.5 39.12689590454102 88.5 45.00001907348633 C 88.5 50.87314224243164 87.35007476806641 56.56979370117188 85.08216857910156 61.93173217773438 C 82.89131164550781 67.11149597167969 79.75458526611328 71.76371765136719 75.75914764404297 75.75917816162109 C 71.76369476318359 79.75463104248047 67.11147308349609 82.89134216308594 61.93169784545898 85.08220672607422 C 56.56977081298828 87.35012054443359 50.87311935424805 88.50004577636719 44.99999618530273 88.50004577636719 Z" stroke="none"/>
                  <path d="M 44.99999618530273 3.000007629394531 C 39.32870864868164 3.000007629394531 33.82865142822266 4.110061645507812 28.65262603759766 6.299346923828125 C 23.65165710449219 8.414573669433594 19.15968322753906 11.44334411621094 15.301513671875 15.30152130126953 C 11.44333648681641 19.15969085693359 8.414566040039062 23.65166473388672 6.299339294433594 28.65263366699219 C 4.110054016113281 33.82867431640625 2.999992370605469 39.32873153686523 2.999992370605469 45.00001907348633 C 2.999992370605469 50.67130661010742 4.110054016113281 56.17136383056641 6.299339294433594 61.34738922119141 C 8.414566040039062 66.34837341308594 11.44333648681641 70.84033203125 15.301513671875 74.69850158691406 C 19.15968322753906 78.55668640136719 23.65165710449219 81.58546447753906 28.65262603759766 83.70069122314453 C 33.82865142822266 85.88997650146484 39.32870864868164 87.00003051757812 44.99999618530273 87.00003051757812 C 50.67128372192383 87.00003051757812 56.17134094238281 85.88997650146484 61.34736633300781 83.70069122314453 C 66.34834289550781 81.58546447753906 70.84030914306641 78.55668640136719 74.69847869873047 74.69850158691406 C 78.55665588378906 70.84033203125 81.58542633056641 66.34837341308594 83.70065307617188 61.34738922119141 C 85.88993835449219 56.17136383056641 87 50.67130661010742 87 45.00001907348633 C 87 39.32873153686523 85.88993835449219 33.82867431640625 83.70065307617188 28.65263366699219 C 81.58542633056641 23.65166473388672 78.55665588378906 19.15969085693359 74.69847869873047 15.30152130126953 C 70.84030914306641 11.44334411621094 66.34834289550781 8.414573669433594 61.34736633300781 6.299346923828125 C 56.17134094238281 4.110061645507812 50.67128372192383 3.000007629394531 44.99999618530273 3.000007629394531 M 44.99999618530273 7.62939453125e-06 C 69.85281372070312 7.62939453125e-06 90 20.14719390869141 90 45.00001907348633 C 90 69.85282897949219 69.85281372070312 90.00003051757812 44.99999618530273 90.00003051757812 C 20.14717864990234 90.00003051757812 -7.62939453125e-06 69.85282897949219 -7.62939453125e-06 45.00001907348633 C -7.62939453125e-06 20.14719390869141 20.14717864990234 7.62939453125e-06 44.99999618530273 7.62939453125e-06 Z" stroke="none" fill="#86b60c"/>
                </g>
              </g>
            </g>
          </g>
        </g>
      </g>
    </g>
    <g id="financial_17015191" transform="translate(15.52 15.341)">
      <g id="Grupo_1176339" data-name="Grupo 1176339" transform="translate(2.959 2.624)">
        <path id="Trazado_1035843" data-name="Trazado 1035843" d="M18.025,10.855c-.257,5.913-2.16,14.206-3.647,21.889A51.85,51.85,0,0,1,4.456,36a1.164,1.164,0,0,1-1.151-1.876c.089-.115.177-.23.266-.336A17.322,17.322,0,0,0,7.1,24.521c.195-2.85-.416-5.674-.628-8.524-.8-10.851,3.664-13.241,7.169-13.241,3.585-.363,4.6,2.974,4.381,8.1Z" transform="translate(-3.042 -2.73)" fill="#3d68f8"/>
      </g>
      <g id="Grupo_1176340" data-name="Grupo 1176340" transform="translate(3.471 2.617)" opacity="0.1">
        <path id="Trazado_1035844" data-name="Trazado 1035844" d="M18.092,10.854A6.92,6.92,0,0,1,14.71,11a1.944,1.944,0,0,0-.124-2.478,1.82,1.82,0,0,0-2.3.106,3.324,3.324,0,0,0-1.018,2.222,23.483,23.483,0,0,0,.027,2.5,4.26,4.26,0,0,1-.823,2.824A7.734,7.734,0,0,0,8.9,19c-.478,1.938.018,3.983-.053,5.974A10.9,10.9,0,0,1,3.62,33.779a17.322,17.322,0,0,0,3.532-9.267c.195-2.85-.416-5.674-.628-8.524-.8-10.851,3.664-13.241,7.169-13.241,3.6-.354,4.62,2.983,4.4,8.108Z" transform="translate(-3.62 -2.721)" fill="#1e1d26"/>
      </g>
      <g id="Grupo_1176341" data-name="Grupo 1176341" transform="translate(2.323 2.014)">
        <path id="Trazado_1035845" data-name="Trazado 1035845" d="M4.108,36.595a1.77,1.77,0,0,1-1.5-.841,1.812,1.812,0,0,1,.124-2.107,16.723,16.723,0,0,0,3.656-9.241,30.105,30.105,0,0,0-.327-5.567c-.115-.938-.23-1.9-.3-2.868-.407-5.488.469-9.444,2.611-11.745a6.929,6.929,0,0,1,5.2-2.186.637.637,0,1,1,0,1.275A5.683,5.683,0,0,0,9.3,5.094C7.419,7.129,6.649,10.749,7.029,15.874c.071.929.186,1.885.292,2.806a30.161,30.161,0,0,1,.327,5.806,17.92,17.92,0,0,1-3.93,9.966.525.525,0,0,0-.035.628.494.494,0,0,0,.549.23,49.894,49.894,0,0,0,9.8-3.222.642.642,0,1,1,.531,1.168,51.64,51.64,0,0,1-10.046,3.3,3.16,3.16,0,0,1-.407.035Z" transform="translate(-2.324 -2.04)" fill="#1e1d26"/>
      </g>
      <g id="Grupo_1176342" data-name="Grupo 1176342" transform="translate(13.649 2.444)">
        <path id="Trazado_1035846" data-name="Trazado 1035846" d="M56.065,9.407a4.5,4.5,0,0,1-4.08,2.434l-36.219-.292a3.542,3.542,0,0,0,1.337-.62,5.226,5.226,0,0,0,1.761-2.213,4.539,4.539,0,0,0-.3-4.063A4.261,4.261,0,0,0,15.12,2.742c11.621-.212,21.42.009,33.041-.2a20.5,20.5,0,0,1,3.54.142l.425.08a5.914,5.914,0,0,1,3.417,1.912,4.49,4.49,0,0,1,.522,4.735Z" transform="translate(-15.12 -2.526)" fill="#95cbfc"/>
      </g>
      <g id="Grupo_1176343" data-name="Grupo 1176343" transform="translate(14.296 2.607)" opacity="0.1">
        <path id="Trazado_1035847" data-name="Trazado 1035847" d="M56.149,9.428a4.5,4.5,0,0,1-4.08,2.434L15.85,11.57a3.542,3.542,0,0,0,1.337-.62,2.274,2.274,0,0,0,.354-.062,13.625,13.625,0,0,0,3.54-2.027A9.742,9.742,0,0,1,27.073,7.49c1.956.186,3.815.965,5.771,1.186a20.466,20.466,0,0,0,5.771-.451c2.567-.451,5.134-.894,7.7-1.345,1.761-.31,3.7-.717,4.753-2.169a3.968,3.968,0,0,0,.717-2l.425.08A5.914,5.914,0,0,1,55.627,4.7a4.473,4.473,0,0,1,.522,4.726Z" transform="translate(-15.85 -2.71)" fill="#1e1d26"/>
      </g>
      <g id="Grupo_1176344" data-name="Grupo 1176344" transform="translate(13.012 1.813)">
        <path id="Trazado_1035848" data-name="Trazado 1035848" d="M52.044,12.405h-.159a.638.638,0,1,1,.035-1.275,3.856,3.856,0,0,0,3.487-2.08,3.837,3.837,0,0,0-.451-4.036,5.319,5.319,0,0,0-3.045-1.691,16.733,16.733,0,0,0-3.824-.212c-5.806.106-11.259.1-16.525.1-4.3,0-8.718-.009-13.356.053a4.235,4.235,0,0,1,.823.991A5.189,5.189,0,0,1,19.374,8.9a5.4,5.4,0,0,1-3.549,3.2.636.636,0,1,1-.283-1.239A4.186,4.186,0,0,0,18.2,8.4a3.91,3.91,0,0,0-.257-3.487,3.668,3.668,0,0,0-2.947-1.6A.642.642,0,0,1,14.4,2.66a.635.635,0,0,1,.628-.62c5.815-.106,11.259-.106,16.534-.106s10.7.009,16.507-.106a17.984,17.984,0,0,1,4.116.239A6.54,6.54,0,0,1,55.956,4.2a5.124,5.124,0,0,1,.6,5.417,5.121,5.121,0,0,1-4.514,2.788Z" transform="translate(-14.4 -1.813)" fill="#1e1d26"/>
      </g>
      <g id="Grupo_1176345" data-name="Grupo 1176345" transform="translate(14.49 10.847)">
        <path id="Trazado_1035849" data-name="Trazado 1035849" d="M53.2,55.959c-.08-14.2-.106-28.81-.186-42.937-11.984,0-24.234-.283-36.219-.292.08,14.126.159,29.014.239,43.229A1.657,1.657,0,0,0,18.7,57.6c10.949-.071,21.915.1,32.873.027A1.649,1.649,0,0,0,53.2,55.959Z" transform="translate(-16.154 -12.102)" fill="#1e1d26"/>
        <path id="Trazado_1035850" data-name="Trazado 1035850" d="M45.491,58.2c-3.514,0-7.028-.018-10.462-.035-5.381-.027-10.949-.044-16.41-.009a2.3,2.3,0,0,1-2.31-2.275l-.239-43.22a.615.615,0,0,1,.186-.451.668.668,0,0,1,.451-.186c6,0,12.17.071,18.127.142s12.108.142,18.092.142a.635.635,0,0,1,.637.637c.044,7.338.071,14.817.1,22.287.027,6.913.053,13.834.089,20.65a2.3,2.3,0,0,1-2.275,2.3c-1.983.009-3.983.018-5.983.018ZM24.576,56.851c3.514,0,7.028.018,10.462.027,5.39.027,10.967.053,16.445.009a1.016,1.016,0,0,0,1.009-1.018c-.035-6.815-.062-13.737-.089-20.65-.027-7.258-.053-14.516-.1-21.65-5.789-.009-11.728-.08-17.472-.142s-11.683-.142-17.472-.142l.23,42.583a.977.977,0,0,0,.3.708,1.084,1.084,0,0,0,.717.292c1.974-.009,3.974-.018,5.966-.018Z" transform="translate(-16.07 -12.02)" fill="#1e1d26"/>
      </g>
      <g id="Grupo_1176346" data-name="Grupo 1176346" transform="translate(14.384 12.042)">
        <path id="Trazado_1035851" data-name="Trazado 1035851" d="M52.355,56.59a1.657,1.657,0,0,1-1.637,1.664c-10.949.071-21.915-.1-32.873-.027A1.643,1.643,0,0,1,16.18,56.6q-.027-5.616-.062-11.347C16.056,34.595,16,23.779,15.95,13.37c11.064,0,22.349.239,33.448.283.929,0,1.85.009,2.77.009C52.248,27.78,52.284,42.393,52.355,56.59Z" transform="translate(-15.95 -13.37)" fill="#fff"/>
      </g>
      <g id="Grupo_1176347" data-name="Grupo 1176347" transform="translate(34.671 16.441)">
        <path id="Trazado_1035852" data-name="Trazado 1035852" d="M43.366,33.573V19.163a.822.822,0,0,0-.823-.823h-2.85a.816.816,0,0,0-.823.823v14.41Z" transform="translate(-38.87 -18.34)" fill="#ffc94d"/>
      </g>
      <g id="Grupo_1176348" data-name="Grupo 1176348" transform="translate(39.176 22.894)">
        <path id="Trazado_1035853" data-name="Trazado 1035853" d="M48.456,33.587V26.453a.822.822,0,0,0-.823-.823H43.96v8.789h3.673A.829.829,0,0,0,48.456,33.587Z" transform="translate(-43.96 -25.63)" fill="#64c682"/>
      </g>
      <g id="Grupo_1176349" data-name="Grupo 1176349" transform="translate(14.464 11.759)" opacity="0.1">
        <path id="Trazado_1035854" data-name="Trazado 1035854" d="M52.276,56a1.657,1.657,0,0,1-1.637,1.664c-10.949.071-21.915-.1-32.873-.027A1.643,1.643,0,0,1,16.1,56q-.027-5.616-.062-11.347a21.1,21.1,0,0,0,11.94,1.788c3.487-.513,7.045-2.107,8.825-5.151C37.946,39.329,38.23,37,38.77,34.788s1.487-4.514,3.434-5.682c1.717-1.027,3.992-1.036,5.47-2.381,1.46-1.337,1.664-3.532,1.708-5.514q.106-4.076-.071-8.161c.929,0,1.85.009,2.77.009.089,14.126.124,28.74.195,42.937Z" transform="translate(-16.04 -13.05)" fill="#1e1d26"/>
      </g>
      <g id="Grupo_1176350" data-name="Grupo 1176350" transform="translate(13.649 10.847)">
        <path id="Trazado_1035855" data-name="Trazado 1035855" d="M44.541,58.2c-3.514,0-7.028-.018-10.462-.035-5.381-.027-10.949-.044-16.41-.009h-.018a2.248,2.248,0,0,1-1.611-.664,2.286,2.286,0,0,1-.682-1.611l-.239-43.22a.615.615,0,0,1,.186-.451.629.629,0,0,1,.451-.186c6,0,12.17.071,18.127.142s12.108.142,18.092.142a.635.635,0,0,1,.637.637c.044,7.346.071,14.826.1,22.3.027,6.9.053,13.817.089,20.632a2.291,2.291,0,0,1-2.275,2.3c-1.974.009-3.983.018-5.983.018ZM23.626,56.851c3.514,0,7.028.018,10.462.027,5.39.027,10.967.053,16.445.009a1.016,1.016,0,0,0,1.009-1.018c-.035-6.815-.062-13.728-.089-20.632-.027-7.267-.053-14.525-.1-21.667-5.789-.009-11.728-.08-17.472-.142s-11.683-.142-17.472-.142l.23,42.583a.977.977,0,0,0,.3.708,1.021,1.021,0,0,0,.708.292h.009q2.974-.013,5.966-.018Z" transform="translate(-15.12 -12.02)" fill="#1e1d26"/>
      </g>
      <g id="Grupo_1176352" data-name="Grupo 1176352" transform="translate(2.957 47.517)">
        <g id="Grupo_1176351" data-name="Grupo 1176351">
          <path id="Trazado_1035856" data-name="Trazado 1035856" d="M39.232,53.574c-9.382-.044-24.562-.08-34.2-.124A1.981,1.981,0,0,0,3.04,55.433V58.2a1.983,1.983,0,0,0,1.974,1.983c9.639.044,24.827.08,34.21.124l6.169-3.319a.133.133,0,0,0,0-.23Z" transform="translate(-3.04 -53.45)" fill="#64c682"/>
        </g>
      </g>
      <g id="Grupo_1176355" data-name="Grupo 1176355" transform="translate(2.957 47.526)">
        <g id="Grupo_1176353" data-name="Grupo 1176353">
          <path id="Trazado_1035857" data-name="Trazado 1035857" d="M8.147,53.469c-1.089,0-2.133-.009-3.116-.009A1.981,1.981,0,0,0,3.04,55.443v2.77A1.983,1.983,0,0,0,5.014,60.2c.991,0,2.045.009,3.133.009Z" transform="translate(-3.04 -53.46)" fill="#fff"/>
        </g>
        <g id="Grupo_1176354" data-name="Grupo 1176354" transform="translate(36.307 0.177)">
          <path id="Trazado_1035858" data-name="Trazado 1035858" d="M50.105,56.793,44.06,53.66v6.621l6.045-3.257A.133.133,0,0,0,50.105,56.793Z" transform="translate(-44.06 -53.66)" fill="#fff"/>
        </g>
      </g>
      <g id="Grupo_1176356" data-name="Grupo 1176356" transform="translate(21.155 22.885)">
        <path id="Trazado_1035859" data-name="Trazado 1035859" d="M28.1,34.409V25.62H24.423a.822.822,0,0,0-.823.823v7.134a.822.822,0,0,0,.823.823H28.1Z" transform="translate(-23.6 -25.62)" fill="#95cbfc"/>
      </g>
      <g id="Grupo_1176357" data-name="Grupo 1176357" transform="translate(25.66 16.441)">
        <path id="Trazado_1035860" data-name="Trazado 1035860" d="M33.186,33.573V19.163a.822.822,0,0,0-.823-.823h-2.85a.816.816,0,0,0-.823.823v14.41Z" transform="translate(-28.69 -18.34)" fill="#64c682"/>
      </g>
      <g id="Grupo_1176358" data-name="Grupo 1176358" transform="translate(30.157 19.849)">
        <path id="Trazado_1035861" data-name="Trazado 1035861" d="M38.275,34.015V22.19H33.77V34.015Z" transform="translate(-33.77 -22.19)" fill="#95cbfc"/>
      </g>
      <g id="Grupo_1176359" data-name="Grupo 1176359" transform="translate(20.518 22.256)">
        <path id="Trazado_1035862" data-name="Trazado 1035862" d="M28.014,34.965H24.34a1.462,1.462,0,0,1-1.46-1.46V26.37a1.451,1.451,0,0,1,1.46-1.46h3.673a.635.635,0,0,1,.637.637v8.789a.651.651,0,0,1-.186.451A.643.643,0,0,1,28.014,34.965Zm-3.682-8.789a.182.182,0,0,0-.186.186V33.5a.182.182,0,0,0,.186.186h3.036V26.167H24.332Z" transform="translate(-22.88 -24.91)" fill="#1e1d26"/>
      </g>
      <g id="Grupo_1176360" data-name="Grupo 1176360" transform="translate(25.014 15.804)">
        <path id="Trazado_1035863" data-name="Trazado 1035863" d="M33.1,34.127H28.6a.635.635,0,0,1-.637-.637V19.08a1.462,1.462,0,0,1,1.46-1.46h2.85a1.462,1.462,0,0,1,1.46,1.46V33.49a.668.668,0,0,1-.186.451.6.6,0,0,1-.443.186Zm-3.859-1.275h3.222V19.08a.181.181,0,0,0-.186-.186h-2.85a.181.181,0,0,0-.186.186Z" transform="translate(-27.96 -17.62)" fill="#1e1d26"/>
      </g>
      <g id="Grupo_1176361" data-name="Grupo 1176361" transform="translate(29.519 19.212)">
        <path id="Trazado_1035864" data-name="Trazado 1035864" d="M38.192,34.57H33.687a.635.635,0,0,1-.637-.637V22.107a.635.635,0,0,1,.637-.637h4.505a.635.635,0,0,1,.637.637V33.932a.635.635,0,0,1-.637.637ZM34.333,33.3h3.222V22.745H34.333Z" transform="translate(-33.05 -21.47)" fill="#1e1d26"/>
      </g>
      <g id="Grupo_1176362" data-name="Grupo 1176362" transform="translate(34.025 15.804)">
        <path id="Trazado_1035865" data-name="Trazado 1035865" d="M43.282,34.127H38.777a.635.635,0,0,1-.637-.637V19.08a1.462,1.462,0,0,1,1.46-1.46h2.85a1.462,1.462,0,0,1,1.46,1.46V33.49a.668.668,0,0,1-.186.451.6.6,0,0,1-.443.186Zm-3.859-1.275h3.222V19.08a.182.182,0,0,0-.186-.186h-2.85a.182.182,0,0,0-.186.186Z" transform="translate(-38.14 -17.62)" fill="#1e1d26"/>
      </g>
      <g id="Grupo_1176363" data-name="Grupo 1176363" transform="translate(38.53 22.248)">
        <path id="Trazado_1035866" data-name="Trazado 1035866" d="M47.549,34.964H43.876a.635.635,0,0,1-.637-.637l-.009-8.789a.651.651,0,0,1,.186-.451.629.629,0,0,1,.451-.186H47.54A1.462,1.462,0,0,1,49,26.36v7.134A1.445,1.445,0,0,1,47.549,34.964Zm-3.036-1.275h3.036a.182.182,0,0,0,.186-.186V26.369a.187.187,0,0,0-.186-.186H44.513Z" transform="translate(-43.23 -24.9)" fill="#1e1d26"/>
      </g>
      <g id="Grupo_1176364" data-name="Grupo 1176364" transform="translate(20.869 36.893)">
        <path id="Trazado_1035867" data-name="Trazado 1035867" d="M40.716,43.9a8.617,8.617,0,0,1-1.841-.195,12.8,12.8,0,0,1-1.5-.451,8.583,8.583,0,0,0-1.868-.5,9.556,9.556,0,0,0-2.841.257,12.377,12.377,0,0,1-2.885.31,11.633,11.633,0,0,1-1.974-.319c-.381-.089-.743-.168-1.106-.221a3.278,3.278,0,0,0-2.39.327.635.635,0,1,1-.805-.982,4.6,4.6,0,0,1,3.4-.6c.407.062.805.15,1.195.239a10.446,10.446,0,0,0,1.761.292,10.883,10.883,0,0,0,2.576-.283,10.867,10.867,0,0,1,3.231-.274,10.133,10.133,0,0,1,2.142.558,11.748,11.748,0,0,0,1.354.407c2.071.46,4.31-.133,6.621-.823a.638.638,0,0,1,.372,1.221A19.61,19.61,0,0,1,40.716,43.9Z" transform="translate(-23.277 -41.446)" fill="#1e1d26"/>
      </g>
      <g id="Grupo_1176365" data-name="Grupo 1176365" transform="translate(20.846 42.687)">
        <path id="Trazado_1035868" data-name="Trazado 1035868" d="M44.015,50.451a7.423,7.423,0,0,1-1.053-.08c-.407-.062-.805-.15-1.195-.239a10.447,10.447,0,0,0-1.761-.292,10.955,10.955,0,0,0-2.585.283,10.867,10.867,0,0,1-3.231.274,10.132,10.132,0,0,1-2.142-.558,11.748,11.748,0,0,0-1.354-.407c-2.071-.46-4.31.133-6.621.823a.638.638,0,1,1-.372-1.221c2.478-.743,4.9-1.372,7.267-.85a12.8,12.8,0,0,1,1.5.451,8.583,8.583,0,0,0,1.868.5,9.556,9.556,0,0,0,2.841-.257,12.377,12.377,0,0,1,2.885-.31,11.632,11.632,0,0,1,1.974.319c.381.089.743.168,1.106.221a3.269,3.269,0,0,0,2.39-.327.641.641,0,1,1,.814.991A3.681,3.681,0,0,1,44.015,50.451Z" transform="translate(-23.251 -47.993)" fill="#1e1d26"/>
      </g>
      <g id="Grupo_1176367" data-name="Grupo 1176367" transform="translate(2.32 46.889)">
        <g id="Grupo_1176366" data-name="Grupo 1176366">
          <path id="Trazado_1035869" data-name="Trazado 1035869" d="M39.149,60.874c-4.806-.018-11.117-.044-17.437-.062-6.036-.018-12.073-.035-16.782-.062A2.629,2.629,0,0,1,2.32,58.13V55.36a2.614,2.614,0,0,1,2.62-2.62h.009c4.656.018,10.612.035,16.578.062,6.382.018,12.772.044,17.623.062a.676.676,0,0,1,.292.071l6.16,3.2a.767.767,0,0,1,.018,1.354L39.45,60.8A.715.715,0,0,1,39.149,60.874ZM4.94,54.015a1.363,1.363,0,0,0-.947.389,1.339,1.339,0,0,0-.4.956v2.77a1.343,1.343,0,0,0,1.337,1.345c4.709.018,10.745.035,16.782.062,6.249.018,12.489.044,17.269.062l5.178-2.788L38.99,54.13c-4.833-.018-11.152-.044-17.463-.062C15.552,54.05,9.6,54.032,4.94,54.015Z" transform="translate(-2.32 -52.74)" fill="#1e1d26"/>
        </g>
      </g>
      <g id="Grupo_1176368" data-name="Grupo 1176368" transform="translate(38.45 47.039)">
        <path id="Trazado_1035870" data-name="Trazado 1035870" d="M43.822,60.894a.635.635,0,0,1-.637-.637l-.044-6.7a.648.648,0,0,1,.637-.646h.009a.635.635,0,0,1,.637.637l.044,6.7A.644.644,0,0,1,43.822,60.894Z" transform="translate(-43.14 -52.91)" fill="#1e1d26"/>
      </g>
      <g id="Grupo_1176381" data-name="Grupo 1176381" transform="translate(36.987 28.975)">
        <g id="Grupo_1176371" data-name="Grupo 1176371" transform="translate(1.21 0.249)">
          <g id="Grupo_1176369" data-name="Grupo 1176369" transform="translate(0.398 0.394)">
            <path id="Trazado_1035871" data-name="Trazado 1035871" d="M54.391,51.215a9.461,9.461,0,0,0,6.523-8.267c.513-7.435-6.346-11.6-12.746-8.887-4.939,2.1-6.213,9.9-3.381,13.834A9,9,0,0,0,54.391,51.215Z" transform="translate(-43.304 -33.227)" fill="#1e1d26"/>
          </g>
          <g id="Grupo_1176370" data-name="Grupo 1176370">
            <path id="Trazado_1035872" data-name="Trazado 1035872" d="M52.029,51.9a9.507,9.507,0,0,1-7.612-3.815,10.429,10.429,0,0,1-1.124-8.612,8.613,8.613,0,0,1,4.673-5.824,9.8,9.8,0,0,1,9.577.832,9.292,9.292,0,0,1,3.726,8.453,9.908,9.908,0,0,1-6.815,8.621A8.728,8.728,0,0,1,52.029,51.9Zm.089-18.313a9.926,9.926,0,0,0-3.841.8,7.823,7.823,0,0,0-4.213,5.3,9.659,9.659,0,0,0,1,7.931,8.636,8.636,0,0,0,9.161,3.169,9.072,9.072,0,0,0,6.231-7.9,8.275,8.275,0,0,0-8.338-9.294Z" transform="translate(-42.855 -32.782)" fill="#1e1d26"/>
          </g>
        </g>
        <g id="Grupo_1176372" data-name="Grupo 1176372" transform="translate(0.619 0.644)">
          <path id="Trazado_1035873" data-name="Trazado 1035873" d="M59.8,42.957a9.439,9.439,0,0,1-6.523,8.258,9,9,0,0,1-9.6-3.319c-1.593-2.2-1.894-5.629-.974-8.577a8.1,8.1,0,0,1,4.355-5.258,9.435,9.435,0,0,1,8.9.593,8.823,8.823,0,0,1,3.85,8.3Z" transform="translate(-42.186 -33.229)" fill="#ffc94d"/>
        </g>
        <g id="Grupo_1176373" data-name="Grupo 1176373">
          <path id="Trazado_1035874" data-name="Trazado 1035874" d="M50.9,52.1a9.755,9.755,0,0,1-7.807-3.912,10.694,10.694,0,0,1-1.159-8.816,8.9,8.9,0,0,1,4.806-5.983,10.034,10.034,0,0,1,9.807.859,9.525,9.525,0,0,1,3.824,8.665,10.155,10.155,0,0,1-6.984,8.833A8.8,8.8,0,0,1,50.9,52.1Zm.08-18.3a9.669,9.669,0,0,0-3.753.779,7.6,7.6,0,0,0-4.08,5.151,9.423,9.423,0,0,0,.965,7.727,8.4,8.4,0,0,0,8.9,3.08,8.822,8.822,0,0,0,6.063-7.692,8.258,8.258,0,0,0-3.293-7.532A8.119,8.119,0,0,0,50.978,33.792Z" transform="translate(-41.487 -32.501)" fill="#1e1d26"/>
        </g>
        <g id="Grupo_1176374" data-name="Grupo 1176374" transform="translate(6.639 4.504)">
          <path id="Trazado_1035875" data-name="Trazado 1035875" d="M51.592,47.857c-.1,0-.2-.009-.3-.018A2.748,2.748,0,0,1,49,45.662a.635.635,0,1,1,1.248-.239,1.471,1.471,0,0,0,1.195,1.151,1.432,1.432,0,0,0,1.425-.814,1.524,1.524,0,0,0-.319-1.664,3.665,3.665,0,0,0-1.124-.611,4.859,4.859,0,0,1-1.407-.761,3.028,3.028,0,0,1-.859-3.248A2.929,2.929,0,0,1,51.84,37.59h.08a2.941,2.941,0,0,1,2.646,2.045.638.638,0,0,1-1.221.372,1.652,1.652,0,0,0-1.46-1.133h-.035a1.639,1.639,0,0,0-1.478,1.044,1.715,1.715,0,0,0,.478,1.832,3.872,3.872,0,0,0,1.062.549,4.581,4.581,0,0,1,1.522.867,2.824,2.824,0,0,1,.6,3.124,2.712,2.712,0,0,1-2.443,1.567Z" transform="translate(-48.988 -37.59)" fill="#1e1d26"/>
        </g>
        <g id="Grupo_1176375" data-name="Grupo 1176375" transform="translate(8.8 3.548)">
          <path id="Trazado_1035876" data-name="Trazado 1035876" d="M52.067,38.714a.635.635,0,0,1-.637-.637v-.929a.637.637,0,1,1,1.275,0v.929A.635.635,0,0,1,52.067,38.714Z" transform="translate(-51.43 -36.51)" fill="#1e1d26"/>
        </g>
        <g id="Grupo_1176376" data-name="Grupo 1176376" transform="translate(8.818 13.479)">
          <path id="Trazado_1035877" data-name="Trazado 1035877" d="M52.087,50.323a.635.635,0,0,1-.637-.637V48.367a.637.637,0,1,1,1.275,0v1.319A.635.635,0,0,1,52.087,50.323Z" transform="translate(-51.45 -47.73)" fill="#1e1d26"/>
        </g>
        <g id="Grupo_1176378" data-name="Grupo 1176378" transform="translate(0.778 2.079)" opacity="0.1">
          <g id="Grupo_1176377" data-name="Grupo 1176377">
            <path id="Trazado_1035878" data-name="Trazado 1035878" d="M59.983,43.143A9.439,9.439,0,0,1,53.46,51.4a9,9,0,0,1-9.6-3.319c-1.593-2.2-1.894-5.629-.974-8.577l.239.451a15.49,15.49,0,0,0,6.311,6.488,5.263,5.263,0,0,0,2.735.788A2.315,2.315,0,0,0,54.31,45.6c.195-.85-.239-1.806.133-2.593.266-.575.894-.885,1.363-1.31a4.217,4.217,0,0,0,1.186-3.328,12.452,12.452,0,0,0-.859-3.514,8.817,8.817,0,0,1,3.85,8.293Z" transform="translate(-42.366 -34.85)" fill="#1e1d26"/>
          </g>
        </g>
        <g id="Grupo_1176379" data-name="Grupo 1176379" transform="translate(3.092 5.668)">
          <path id="Trazado_1035879" data-name="Trazado 1035879" d="M46.184,46.513a.533.533,0,0,1-.487-.31,8.31,8.31,0,0,1,.115-7,.528.528,0,1,1,.947.469,7.316,7.316,0,0,0-.106,6.09.538.538,0,0,1-.266.708A.462.462,0,0,1,46.184,46.513Z" transform="translate(-44.98 -38.905)" fill="#fff"/>
        </g>
        <g id="Grupo_1176380" data-name="Grupo 1176380" transform="translate(4.827 3.602)">
          <path id="Trazado_1035880" data-name="Trazado 1035880" d="M47.471,37.889a.526.526,0,0,1-.336-.124.533.533,0,0,1-.071-.752l.2-.248a.534.534,0,0,1,.823.682l-.212.248A.515.515,0,0,1,47.471,37.889Z" transform="translate(-46.941 -36.571)" fill="#fff"/>
        </g>
      </g>
      <g id="Grupo_1176382" data-name="Grupo 1176382" transform="translate(7.33 43.357)">
        <path id="Trazado_1035881" data-name="Trazado 1035881" d="M8.67,60.221a.635.635,0,0,1-.637-.637L7.98,51.113A2.352,2.352,0,0,1,10.3,48.759c1.947-.018,2.177-.009,2.5.009.266.018.6.035,2.319.035a.637.637,0,0,1,0,1.275c-1.753,0-2.107-.018-2.39-.035s-.522-.027-2.425-.009A1.079,1.079,0,0,0,9.246,51.1L9.3,59.575A.624.624,0,0,1,8.67,60.221Z" transform="translate(-7.98 -48.749)" fill="#1e1d26"/>
      </g>
      <g id="Grupo_1176383" data-name="Grupo 1176383" transform="translate(14.428 50.642)">
        <path id="Trazado_1035882" data-name="Trazado 1035882" d="M26.533,58.042h-10a.531.531,0,1,1,0-1.062h10a.531.531,0,1,1,0,1.062Z" transform="translate(-16 -56.98)" fill="#fff"/>
      </g>
      <g id="Grupo_1176384" data-name="Grupo 1176384" transform="translate(27.439 50.642)">
        <path id="Trazado_1035883" data-name="Trazado 1035883" d="M31.7,58.042h-.469a.531.531,0,0,1,0-1.062h.46a.533.533,0,0,1,.531.531.525.525,0,0,1-.522.531Z" transform="translate(-30.7 -56.98)" fill="#fff"/>
      </g>
      <g id="Grupo_1176385" data-name="Grupo 1176385" transform="translate(30.759 6.74)">
        <path id="Trazado_1035884" data-name="Trazado 1035884" d="M46.8,8.442H34.981a.531.531,0,1,1,0-1.062H46.8a.531.531,0,0,1,0,1.062Z" transform="translate(-34.45 -7.38)" fill="#fff"/>
      </g>
      <g id="Grupo_1176386" data-name="Grupo 1176386" transform="translate(46.089 6.811)">
        <path id="Trazado_1035885" data-name="Trazado 1035885" d="M52.859,8.522H52.3a.531.531,0,1,1,0-1.062h.558a.531.531,0,1,1,0,1.062Z" transform="translate(-51.77 -7.46)" fill="#fff"/>
      </g>
    </g>
  </g>
</svg>
