<svg xmlns="http://www.w3.org/2000/svg" xmlns:xlink="http://www.w3.org/1999/xlink" width="110" height="110" viewBox="0 0 110 110">
  <defs>
    <filter id="Trazado_982547" x="0" y="0" width="110" height="110" filterUnits="userSpaceOnUse">
      <feOffset dy="3" input="SourceAlpha"/>
      <feGaussianBlur stdDeviation="3" result="blur"/>
      <feFlood flood-opacity="0.161"/>
      <feComposite operator="in" in2="blur"/>
      <feComposite in="SourceGraphic"/>
    </filter>
  </defs>
  <g id="Grupo_1174915" data-name="Grupo 1174915" transform="translate(-913 -1497.935)">
    <g id="Grupo_1174833" data-name="Grupo 1174833" transform="translate(116 307.272)">
      <g id="Grupo_1171898" data-name="Grupo 1171898" transform="translate(-315 -769.338)">
        <g id="Grupo_1164700" data-name="Grupo 1164700" transform="translate(1121 1966)">
          <g id="Grupo_1160931" data-name="Grupo 1160931" transform="translate(0)">
            <g id="Grupo_1160749" data-name="Grupo 1160749" transform="translate(0)">
              <g id="Grupo_1158891" data-name="Grupo 1158891" transform="translate(0 0)">
                <g id="Grupo_1157406" data-name="Grupo 1157406" transform="translate(0)">
                  <g id="Grupo_1155793" data-name="Grupo 1155793" transform="translate(0)">
                    <g id="Grupo_1154704" data-name="Grupo 1154704" transform="translate(0)">
                      <g id="Grupo_1150790" data-name="Grupo 1150790" transform="translate(0)">
                        <g id="Grupo_1154214" data-name="Grupo 1154214" transform="translate(0)">
                          <g id="Grupo_1152583" data-name="Grupo 1152583" transform="translate(0 0)">
                            <g id="Grupo_1146973" data-name="Grupo 1146973" transform="translate(0 0)">
                              <g id="Grupo_1146954" data-name="Grupo 1146954">
                                <g transform="matrix(1, 0, 0, 1, -9, -6)" filter="url(#Trazado_982547)">
                                  <g id="Trazado_982547-2" data-name="Trazado 982547" transform="translate(9 6)" fill="#e9f9fd">
                                    <path d="M 46.00000381469727 90.49988555908203 C 39.99188232421875 90.49988555908203 34.16427230834961 89.32352447509766 28.67905807495117 87.00347137451172 C 23.38020324707031 84.76226043701172 18.62104415893555 81.55342864990234 14.53375053405762 77.46615600585938 C 10.44647026062012 73.37887573242188 7.237643718719482 68.61971282958984 4.996417045593262 63.32085800170898 C 2.676363706588745 57.83565902709961 1.500003814697266 52.00806045532227 1.500003814697266 45.99993896484375 C 1.500003814697266 39.99181747436523 2.676363706588745 34.16421890258789 4.996417045593262 28.67901802062988 C 7.237643718719482 23.38017845153809 10.44647026062012 18.62101936340332 14.53375053405762 14.53373908996582 C 18.62104415893555 10.44645881652832 23.38020324707031 7.237632274627686 28.67905807495117 4.996418952941895 C 34.16427230834961 2.676365613937378 39.99188232421875 1.500005602836609 46.00000381469727 1.500005602836609 C 52.00812530517578 1.500005602836609 57.83573532104492 2.676365613937378 63.32094955444336 4.996418952941895 C 68.61980438232422 7.237632274627686 73.37897491455078 10.44645881652832 77.46625518798828 14.53373908996582 C 81.55355072021484 18.62101936340332 84.76236724853516 23.38017845153809 87.00359344482422 28.67901802062988 C 89.32364654541016 34.16421890258789 90.5 39.99181747436523 90.5 45.99993896484375 C 90.5 52.00806045532227 89.32364654541016 57.83565902709961 87.00359344482422 63.32085800170898 C 84.76236724853516 68.61971282958984 81.55355072021484 73.37887573242188 77.46625518798828 77.46615600585938 C 73.37897491455078 81.55342864990234 68.61980438232422 84.76226043701172 63.32094955444336 87.00347137451172 C 57.83573532104492 89.32352447509766 52.00812530517578 90.49988555908203 46.00000381469727 90.49988555908203 Z" stroke="none"/>
                                    <path d="M 46.00000381469727 2.999992370605469 C 40.19371795654297 2.999992370605469 34.56270217895508 4.136497497558594 29.26338958740234 6.377906799316406 C 24.14333343505859 8.543510437011719 19.54441833496094 11.64437866210938 15.59440612792969 15.59439849853516 C 11.64440155029297 19.54439544677734 8.54351806640625 24.14329528808594 6.377914428710938 29.26335144042969 C 4.136505126953125 34.56266784667969 3.000007629394531 40.19366836547852 3.000007629394531 45.99993896484375 C 3.000007629394531 51.80620956420898 4.136505126953125 57.43722534179688 6.377914428710938 62.73654174804688 C 8.54351806640625 67.85658264160156 11.64440155029297 72.45548248291016 15.59440612792969 76.40549468994141 C 19.54441833496094 80.35549926757812 24.14333343505859 83.45636749267578 29.26337432861328 85.62196350097656 C 34.56270217895508 87.86338043212891 40.19371795654297 88.9998779296875 46.00000381469727 88.9998779296875 C 51.80628967285156 88.9998779296875 57.43730545043945 87.86338043212891 62.73663330078125 85.62196350097656 C 67.85667419433594 83.45636749267578 72.45558929443359 80.35549926757812 76.40560150146484 76.40549468994141 C 80.35560607910156 72.45548248291016 83.45648956298828 67.85658264160156 85.62208557128906 62.73654174804688 C 87.86350250244141 57.43722534179688 89 51.80620956420898 89 45.99993896484375 C 89 40.19366836547852 87.86350250244141 34.56266784667969 85.62208557128906 29.26335144042969 C 83.45648956298828 24.14329528808594 80.35560607910156 19.54439544677734 76.40560150146484 15.59439849853516 C 72.45558929443359 11.64437866210938 67.85667419433594 8.543510437011719 62.73661804199219 6.377906799316406 C 57.43730545043945 4.136497497558594 51.80628967285156 2.999992370605469 46.00000381469727 2.999992370605469 M 46.00000381469727 -7.62939453125e-06 C 71.40510559082031 -7.62939453125e-06 92 20.59487915039062 92 45.99993896484375 C 92 71.40501403808594 71.40510559082031 91.99988555908203 46.00000381469727 91.99988555908203 C 20.59490203857422 91.99988555908203 7.62939453125e-06 71.40501403808594 7.62939453125e-06 45.99993896484375 C 7.62939453125e-06 20.59487915039062 20.59490203857422 -7.62939453125e-06 46.00000381469727 -7.62939453125e-06 Z" stroke="none" fill="#36ceef"/>
                                  </g>
                                </g>
                              </g>
                            </g>
                          </g>
                        </g>
                      </g>
                    </g>
                  </g>
                </g>
              </g>
            </g>
          </g>
        </g>
      </g>
    </g>
    <g id="layer1-0" transform="translate(937.917 1518.911)">
      <path id="path10684" d="M6.169,13.825H7.15a2.944,2.944,0,1,0,0-5.887H6.166Z" transform="translate(21.718 17.199)" fill="#ffd1b5"/>
      <path id="path10690" d="M7.149,7.938a2.944,2.944,0,1,1,0,5.887H6.168v-.18a2.926,2.926,0,0,0,0-5.527v-.18Z" transform="translate(21.718 17.198)" fill="#f5f9fb"/>
      <path id="path10698" d="M11.216,4.729a9.79,9.79,0,0,1,9.812,9.812V16.5H1.4V14.541a9.79,9.79,0,0,1,9.812-9.812Z" transform="translate(8.821 8.508)" fill="#427096"/>
      <path id="path10700" d="M14.579,14.541V16.5H12.616V14.541A9.789,9.789,0,0,0,3.786,4.777a9.545,9.545,0,0,1,.981-.048,9.79,9.79,0,0,1,9.812,9.812Z" transform="translate(15.27 8.508)" fill="#f5f9fb"/>
      <path id="path10702" d="M18.349,7.9v2.453a8.34,8.34,0,0,1-16.68,0V7.9Z" transform="translate(9.538 17.107)" fill="#ffd1b5"/>
      <path id="path10705" d="M10.654,8.124a13.4,13.4,0,0,0,1.962.142v2.01a7.8,7.8,0,0,1-7.849,7.786A7.716,7.716,0,0,1,3.786,18a7.785,7.785,0,0,0,6.868-7.719Z" transform="translate(15.27 17.703)" fill="#f5f9fb"/>
      <path id="path10707" d="M13.179,4.925a9.789,9.789,0,0,0-7.85,9.616V16.5H1.4V14.541a9.79,9.79,0,0,1,9.812-9.812,9.91,9.91,0,0,1,1.962.2Z" transform="translate(8.821 8.508)" fill="#365b7a"/>
      <path id="path10709" d="M6.036,7.214a5.877,5.877,0,0,0,4.4,9.12,3.414,3.414,0,0,1-2.486,3.86,65.187,65.187,0,0,1-6.832-3.71c0-2.94-.761-4.906,0-6.868A3.94,3.94,0,0,1,4.493,6.96,4.113,4.113,0,0,1,6.036,7.214Z" transform="translate(7.141 14.539)" fill="#ffd1b5"/>
      <path id="path10711" d="M3.084,7.249c-1.717,9.6,5.887,11.774,5.887,11.774l-.533.711a3.413,3.413,0,0,1-.485.18A65.187,65.187,0,0,1,1.122,16.2c0-2.94-.761-4.906,0-6.868A4.293,4.293,0,0,1,3.114,7.06c-.011.066-.018.122-.029.19Z" transform="translate(7.14 14.819)" fill="#ffb98d"/>
      <path id="path10715" d="M2.727,10.567a7.871,7.871,0,0,0,3.925,1.044c.167,0,.327-.026.491-.033.164.011.324.033.491.033a7.877,7.877,0,0,0,3.925-1.043V14.43L8.614,17.374H6.652L2.727,13.449Z" transform="translate(12.404 24.318)" fill="#ffd1b5"/>
      <path id="path10720" d="M6.542,10.567v3.862L4.579,16.391V11.357A7.894,7.894,0,0,0,6.542,10.567Z" transform="translate(17.42 24.32)" fill="#f5f9fb"/>
      <path id="path10722" d="M2.727,10.567a7.906,7.906,0,0,0,2.022.8c.566,3.246,3.585,4.443,5.032,4.837L8.614,17.374H6.652L2.727,13.449Z" transform="translate(12.404 24.318)" fill="#ffb98d"/>
      <path id="path10729" d="M17.223,15.3l3.943-3.925,5.483,2.564c2.265,1.091,4.225,1.945,4.6,4.3L32.9,28.65c.374,2.356-2.051,4.3-4.6,4.3H4.181c-2.549,0-4.976-1.943-4.6-4.3L1.234,18.242c.374-2.356,2.336-3.209,4.6-4.3l5.481-2.564L15.261,15.3Z" transform="translate(3.777 26.514)" fill="#e4eff8"/>
      <path id="path10731" d="M10.689,11.378l1.09,1.085-5.322,9.22A4.895,4.895,0,0,1-.227,23.487l.834-5.245c.374-2.356,2.336-3.209,4.6-4.3Z" transform="translate(4.404 26.514)" fill="#c4dcf0"/>
      <path id="path10733" d="M3.93,12.328c.491,14.785,18.212,17.4,25.7,17.847a5.166,5.166,0,0,1-1.332.2H4.181c-2.549,0-4.976-1.943-4.6-4.3L1.234,15.667a4.581,4.581,0,0,1,2.7-3.338Z" transform="translate(3.777 29.089)" fill="#c4dcf0"/>
      <path id="path10735" d="M1.669,13.306l4.906,4.906,2.944-2.944L5.594,11.344Z" transform="translate(9.538 26.423)" fill="#427096"/>
      <path id="path10738" d="M-.846,21.619a4.906,4.906,0,0,0,8.5,4.906l6.378-11.046a1.958,1.958,0,0,0-.718-2.681l-5.1-2.944a1.958,1.958,0,0,0-2.681.718Z" transform="translate(0.934 21.672)" fill="#e4eff8"/>
      <path id="path10741" d="M8.213,9.855l.9.519a2,2,0,0,0-.144.2L2.59,21.619A4.885,4.885,0,0,0,5.1,28.656,4.89,4.89,0,0,1-.846,21.619L5.531,10.573a1.956,1.956,0,0,1,2.681-.718Z" transform="translate(0.934 21.671)" fill="#c4dcf0"/>
      <path id="path10746" d="M12.164,13.306,7.258,18.212,4.315,15.269l3.925-3.925Z" transform="translate(16.704 26.423)" fill="#427096"/>
      <path id="path10748" d="M9.143,14.365,6.2,17.308,3.256,14.365,5.219,12.4H7.181Z" transform="translate(13.837 29.29)" fill="#365b7a"/>
      <path id="path10757" d="M9.143,26.481,7.181,13.725H5.219L3.256,26.481Z" transform="translate(13.837 32.873)" fill="#427096"/>
      <path id="path10759" d="M6.052,13.725C4.264,25.347,9.143,26.481,9.143,26.481H3.256L5.219,13.725Z" transform="translate(13.837 32.873)" fill="#365b7a"/>
      <path id="path10768" d="M6.349,11.344l3.925,1.962L8.938,14.642,5.013,12.68Z" transform="translate(18.595 26.423)" fill="#f5f9fb"/>
      <path id="circle10806" d="M11.774,5.887a5.887,5.887,0,1,0-5.887,5.887,5.887,5.887,0,0,0,5.887-5.887Z" transform="translate(23.962 31.024) rotate(180)" fill="#e4eff8"/>
      <path id="path10809" d="M7.191,6.351a5.883,5.883,0,0,1,3.062,10.908A5.877,5.877,0,0,0,2.166,9.181a5.887,5.887,0,0,1,5.025-2.83Z" transform="translate(10.884 12.899)" fill="#c4dcf0"/>
      <path id="path10968" d="M37.848,12.76A14.705,14.705,0,0,0,9.189,13.832L4.677,21.648l7.8,4.506A14.708,14.708,0,0,0,37.848,12.76Z" transform="translate(17.684 0.703)" fill="#e4eff8"/>
      <path id="path10970" d="M22.589,2.361c9.459,12.819-2.315,25.377-14.86,25.377A14.706,14.706,0,1,0,22.589,2.361Z" transform="translate(25.951 2.092)" fill="#c4dcf0"/>
      <path id="circle10976" d="M28.464,13.7A10.793,10.793,0,1,1,17.671,2.907,10.793,10.793,0,0,1,28.464,13.7Z" transform="translate(23.647 3.572)" fill="#ffca28"/>
      <path id="circle10985" d="M17.671,2.907a10.783,10.783,0,0,0-7.545,18.5A11.023,11.023,0,0,1,25.435,6.2a10.793,10.793,0,0,0-7.763-3.3Z" transform="translate(23.647 3.572)" fill="#f5f9fb"/>
      <path id="circle10980" d="M22.636,3.518A10.78,10.78,0,0,1,7.481,18.608,10.785,10.785,0,1,0,22.636,3.518Z" transform="translate(25.279 5.227)" fill="#ecb200"/>
      <path id="path11055" d="M6.878,13.461h5.887V27.307H6.878Z" transform="translate(23.647 32.157)" fill="#ffca28"/>
      <path id="path11057" d="M6.878,13.461V27.306H8.841V13.461Z" transform="translate(23.647 32.156)" fill="#f5f9fb"/>
      <path id="path11059" d="M7.672,13.461V27.306h2.944V13.461Z" transform="translate(25.797 32.156)" fill="#ecb200"/>
      <path id="path11061" d="M9.524,11.9h5.887V31.526H9.524Z" transform="translate(30.813 27.937)" fill="#ff5151"/>
      <path id="path11064" d="M9.524,11.9V31.526h1.962V11.9Z" transform="translate(30.813 27.937)" fill="#f5f9fb"/>
      <path id="path11077" d="M10.318,11.9V31.526h2.944V11.9Z" transform="translate(32.963 27.937)" fill="#ff2929"/>
      <path id="path11080" d="M12.17,10.315h5.887V35.826H12.17Z" transform="translate(37.979 23.637)" fill="#a0bf05"/>
      <path id="path11082" d="M12.17,10.315V35.826h1.962V10.315Z" transform="translate(37.979 23.637)" fill="#f5f9fb"/>
      <path id="path11090" d="M12.964,10.315V35.826h2.944V10.315Z" transform="translate(40.129 23.637)" fill="#809804"/>
      <path id="rect6824" d="M37.251,2.129A15.7,15.7,0,0,0,25.949,14.2l-.071.121a10.754,10.754,0,0,0-16.735,6.9,5.335,5.335,0,0,0-2.091,2.6A7.571,7.571,0,0,0,6.7,27.32c.085.983.225,1.99.266,3.121a2.917,2.917,0,0,0-1.648,1.324L-1.06,42.808A5.868,5.868,0,0,0,1.1,50.845a5.933,5.933,0,0,0,1.592.632l-.563,3.539a4.313,4.313,0,0,0,1.52,3.918A6.13,6.13,0,0,0,7.7,60.448H36.408a.983.983,0,0,0,.985-.983V45.724a.983.983,0,0,0-.985-.983h-.69l-.021-.13a5,5,0,0,0-1.956-3.244,16.916,16.916,0,0,0-3.187-1.789H30.54l-5.483-2.563a.984.984,0,0,0-.4-.094l-.015,0V35.457a8.75,8.75,0,0,0,3.024-3.445h.9a3.9,3.9,0,0,0,3.457-2.094A15.69,15.69,0,1,0,43.474,1.738c-.5-.071-1.017-.118-1.531-.138q-.579-.023-1.163,0a15.806,15.806,0,0,0-3.528.531Zm4.62,1.431q.676.026,1.34.119a13.734,13.734,0,1,1-12.3,22.555.981.981,0,0,0-.253-.211L23.7,22.006l4.02-6.966a.986.986,0,0,0,.117-.3,13.723,13.723,0,0,1,9.921-10.71,13.912,13.912,0,0,1,3.095-.467q.512-.018,1.019,0ZM29.544,17.289A11.774,11.774,0,1,0,41.318,5.518,11.772,11.772,0,0,0,29.544,17.289Zm21.585,0A9.812,9.812,0,1,1,41.318,7.48,9.81,9.81,0,0,1,51.129,17.289ZM40.337,10.426h-.981a2.926,2.926,0,0,0-2.942,2.941v1.962a2.919,2.919,0,0,0,2.942,2.939h.981v3.926h-.981a.953.953,0,0,1-.979-.977.981.981,0,0,0-1.962,0,2.927,2.927,0,0,0,2.942,2.939h.981a.98.98,0,0,0,1.96,0h.983a2.919,2.919,0,0,0,2.942-2.939V19.255a2.931,2.931,0,0,0-2.942-2.949H42.3V12.39h.983a.953.953,0,0,1,.979.977.981.981,0,0,0,1.962,0,2.937,2.937,0,0,0-2.942-2.941H42.3a.98.98,0,1,0-1.96,0Zm-.981,1.964h.981v3.916h-.981a.953.953,0,0,1-.979-.977V13.367a.97.97,0,0,1,.979-.977ZM19.731,14.344A8.812,8.812,0,0,1,24.9,16.005l-2.4,4.157a6.845,6.845,0,0,0-9.927.5,5.018,5.018,0,0,0-1.265-.119,8.765,8.765,0,0,1,8.418-6.2ZM42.3,18.268h.983a.992.992,0,0,1,.979.987v1.962a.974.974,0,0,1-.979.977H42.3ZM21.49,21.941a.974.974,0,0,0,.378,1.274l.537.31a4.918,4.918,0,1,1-.914-1.584Zm-3.722.253a2.953,2.953,0,0,0-2.94,2.941.981.981,0,1,0,1.962,0,.962.962,0,0,1,.977-.979.981.981,0,0,0,0-1.962Zm-6.86,2.941a6.867,6.867,0,0,0,5.414,6.7,2.409,2.409,0,0,1-1.688,1.929c-.066-.045-.123-.1-.194-.138l-5.1-2.941a2.95,2.95,0,0,0-.406-.184c-.038-1.31-.194-2.42-.274-3.349a5.661,5.661,0,0,1,.217-2.629,3.331,3.331,0,0,1,1.615-1.818,2.5,2.5,0,0,1,.952-.215,6.866,6.866,0,0,0-.537,2.642Zm15.7.814v2.2a6.83,6.83,0,0,1-6.866,6.807,6.9,6.9,0,0,1-2.625-.523,4.436,4.436,0,0,0,1.159-2.46,6.867,6.867,0,0,0,6.368-6.842q-.007-.165-.021-.33Zm1.962,1.132.977.563c.291.331.6.646.91.948a1.961,1.961,0,0,1-1.888,1.464h-.213a8.822,8.822,0,0,0,.213-1.9ZM8.355,32.388l5.1,2.941a.976.976,0,0,1,.362,1.339L7.435,47.711A3.923,3.923,0,1,1,.642,43.785L7.016,32.744a.973.973,0,0,1,.964-.483.993.993,0,0,1,.376.126Zm41.8.582a.983.983,0,0,0-.985.983V59.476a.983.983,0,0,0,.985.983h5.879a.983.983,0,0,0,.985-.983V33.953a.983.983,0,0,0-.985-.983Zm.977,1.973h3.925V58.486H51.129ZM15.9,36.038a8.848,8.848,0,0,0,6.786.383v2.054l-2.369,2.372H19.161l-3.507-3.512a2.991,2.991,0,0,0,.241-1.3ZM40.34,38.856a.983.983,0,0,0-.985.983V59.476a.983.983,0,0,0,.985.983H46.22a.983.983,0,0,0,.985-.983V39.839a.983.983,0,0,0-.985-.983Zm-15.486.224,2.108.987-3.3,3.314-1.55-1.556Zm-10.189.036,2.706,2.705L15.9,43.3l-2.118-2.648Zm26.652,1.713h3.925V58.486H41.318Zm-12.462.123.843.395.008.006a16.441,16.441,0,0,1,2.825,1.558,3,3,0,0,1,1.179,1.832H30.529a.982.982,0,0,0-.985.983V58.486H23.533l-1.776-12.4.922-.918.293.293a.981.981,0,0,0,1.384,0ZM12.724,42.479l2.323,2.9a.981.981,0,0,0,1.464.079l.27-.27.933.914L15.944,58.486H7.7a4.273,4.273,0,0,1-2.744-1.021,2.358,2.358,0,0,1-.883-2.144L4.661,51.6A5.863,5.863,0,0,0,9.137,48.7Zm6.437.33h1.152l.973.969-1.552,1.558L18.171,43.8Zm12.345,3.906h3.925v11.76H31.506Zm-12.033.939a.981.981,0,0,0,.527,0l1.55,10.83H17.925Z" transform="translate(0 0)"/>
    </g>
  </g>
</svg>
