<svg xmlns="http://www.w3.org/2000/svg" xmlns:xlink="http://www.w3.org/1999/xlink" width="110" height="110" viewBox="0 0 110 110">
  <defs>
    <filter id="Trazado_982547" x="0" y="0" width="110" height="110" filterUnits="userSpaceOnUse">
      <feOffset dy="3" input="SourceAlpha"/>
      <feGaussianBlur stdDeviation="3" result="blur"/>
      <feFlood flood-opacity="0.161"/>
      <feComposite operator="in" in2="blur"/>
      <feComposite in="SourceGraphic"/>
    </filter>
  </defs>
  <g id="Grupo_1174926" data-name="Grupo 1174926" transform="translate(-1229 -1497.935)">
    <g id="Grupo_1174834" data-name="Grupo 1174834" transform="translate(116 307.272)">
      <g id="Grupo_1171901" data-name="Grupo 1171901" transform="translate(1 -769.338)">
        <g id="Grupo_1164700" data-name="Grupo 1164700" transform="translate(1121 1966)">
          <g id="Grupo_1160931" data-name="Grupo 1160931" transform="translate(0)">
            <g id="Grupo_1160749" data-name="Grupo 1160749" transform="translate(0)">
              <g id="Grupo_1158891" data-name="Grupo 1158891" transform="translate(0 0)">
                <g id="Grupo_1157406" data-name="Grupo 1157406" transform="translate(0)">
                  <g id="Grupo_1155793" data-name="Grupo 1155793" transform="translate(0)">
                    <g id="Grupo_1154704" data-name="Grupo 1154704" transform="translate(0)">
                      <g id="Grupo_1150790" data-name="Grupo 1150790" transform="translate(0)">
                        <g id="Grupo_1154214" data-name="Grupo 1154214" transform="translate(0)">
                          <g id="Grupo_1152583" data-name="Grupo 1152583" transform="translate(0 0)">
                            <g id="Grupo_1146973" data-name="Grupo 1146973" transform="translate(0 0)">
                              <g id="Grupo_1146954" data-name="Grupo 1146954">
                                <g transform="matrix(1, 0, 0, 1, -9, -6)" filter="url(#Trazado_982547)">
                                  <g id="Trazado_982547-2" data-name="Trazado 982547" transform="translate(9 6)" fill="#e9f9fd">
                                    <path d="M 46.00000381469727 90.49988555908203 C 39.99188232421875 90.49988555908203 34.16427230834961 89.32352447509766 28.67905807495117 87.00347137451172 C 23.38020324707031 84.76226043701172 18.62104415893555 81.55342864990234 14.53375053405762 77.46615600585938 C 10.44647026062012 73.37887573242188 7.237643718719482 68.61971282958984 4.996417045593262 63.32085800170898 C 2.676363706588745 57.83565902709961 1.500003814697266 52.00806045532227 1.500003814697266 45.99993896484375 C 1.500003814697266 39.99181747436523 2.676363706588745 34.16421890258789 4.996417045593262 28.67901802062988 C 7.237643718719482 23.38017845153809 10.44647026062012 18.62101936340332 14.53375053405762 14.53373908996582 C 18.62104415893555 10.44645881652832 23.38020324707031 7.237632274627686 28.67905807495117 4.996418952941895 C 34.16427230834961 2.676365613937378 39.99188232421875 1.500005602836609 46.00000381469727 1.500005602836609 C 52.00812530517578 1.500005602836609 57.83573532104492 2.676365613937378 63.32094955444336 4.996418952941895 C 68.61980438232422 7.237632274627686 73.37897491455078 10.44645881652832 77.46625518798828 14.53373908996582 C 81.55355072021484 18.62101936340332 84.76236724853516 23.38017845153809 87.00359344482422 28.67901802062988 C 89.32364654541016 34.16421890258789 90.5 39.99181747436523 90.5 45.99993896484375 C 90.5 52.00806045532227 89.32364654541016 57.83565902709961 87.00359344482422 63.32085800170898 C 84.76236724853516 68.61971282958984 81.55355072021484 73.37887573242188 77.46625518798828 77.46615600585938 C 73.37897491455078 81.55342864990234 68.61980438232422 84.76226043701172 63.32094955444336 87.00347137451172 C 57.83573532104492 89.32352447509766 52.00812530517578 90.49988555908203 46.00000381469727 90.49988555908203 Z" stroke="none"/>
                                    <path d="M 46.00000381469727 2.999992370605469 C 40.19371795654297 2.999992370605469 34.56270217895508 4.136497497558594 29.26338958740234 6.377906799316406 C 24.14333343505859 8.543510437011719 19.54441833496094 11.64437866210938 15.59440612792969 15.59439849853516 C 11.64440155029297 19.54439544677734 8.54351806640625 24.14329528808594 6.377914428710938 29.26335144042969 C 4.136505126953125 34.56266784667969 3.000007629394531 40.19366836547852 3.000007629394531 45.99993896484375 C 3.000007629394531 51.80620956420898 4.136505126953125 57.43722534179688 6.377914428710938 62.73654174804688 C 8.54351806640625 67.85658264160156 11.64440155029297 72.45548248291016 15.59440612792969 76.40549468994141 C 19.54441833496094 80.35549926757812 24.14333343505859 83.45636749267578 29.26337432861328 85.62196350097656 C 34.56270217895508 87.86338043212891 40.19371795654297 88.9998779296875 46.00000381469727 88.9998779296875 C 51.80628967285156 88.9998779296875 57.43730545043945 87.86338043212891 62.73663330078125 85.62196350097656 C 67.85667419433594 83.45636749267578 72.45558929443359 80.35549926757812 76.40560150146484 76.40549468994141 C 80.35560607910156 72.45548248291016 83.45648956298828 67.85658264160156 85.62208557128906 62.73654174804688 C 87.86350250244141 57.43722534179688 89 51.80620956420898 89 45.99993896484375 C 89 40.19366836547852 87.86350250244141 34.56266784667969 85.62208557128906 29.26335144042969 C 83.45648956298828 24.14329528808594 80.35560607910156 19.54439544677734 76.40560150146484 15.59439849853516 C 72.45558929443359 11.64437866210938 67.85667419433594 8.543510437011719 62.73661804199219 6.377906799316406 C 57.43730545043945 4.136497497558594 51.80628967285156 2.999992370605469 46.00000381469727 2.999992370605469 M 46.00000381469727 -7.62939453125e-06 C 71.40510559082031 -7.62939453125e-06 92 20.59487915039062 92 45.99993896484375 C 92 71.40501403808594 71.40510559082031 91.99988555908203 46.00000381469727 91.99988555908203 C 20.59490203857422 91.99988555908203 7.62939453125e-06 71.40501403808594 7.62939453125e-06 45.99993896484375 C 7.62939453125e-06 20.59487915039062 20.59490203857422 -7.62939453125e-06 46.00000381469727 -7.62939453125e-06 Z" stroke="none" fill="#36ceef"/>
                                  </g>
                                </g>
                              </g>
                            </g>
                          </g>
                        </g>
                      </g>
                    </g>
                  </g>
                </g>
              </g>
            </g>
          </g>
        </g>
      </g>
    </g>
    <g id="statistics_18649084" transform="translate(1250.808 1520.49)">
      <g id="Grupo_1174925" data-name="Grupo 1174925" transform="translate(5.71 1.348)">
        <g id="Grupo_1174916" data-name="Grupo 1174916" transform="translate(11.463 42.146)">
          <path id="Trazado_1035436" data-name="Trazado 1035436" d="M114.6,380.023h6.447v13.27H114.6Z" transform="translate(-114.596 -380.023)" fill="#05e39c" fill-rule="evenodd"/>
        </g>
        <g id="Grupo_1174917" data-name="Grupo 1174917" transform="translate(23.162 36.859)">
          <path id="Trazado_1035437" data-name="Trazado 1035437" d="M217.868,333.357h6.447V351.91h-6.447Z" transform="translate(-217.868 -333.357)" fill="#ffca28" fill-rule="evenodd"/>
        </g>
        <g id="Grupo_1174918" data-name="Grupo 1174918" transform="translate(34.861 27.999)">
          <path id="Trazado_1035438" data-name="Trazado 1035438" d="M321.14,255.144h6.447v27.417H321.14Z" transform="translate(-321.14 -255.144)" fill="red" fill-rule="evenodd"/>
        </g>
        <g id="Grupo_1174919" data-name="Grupo 1174919" transform="translate(46.56 23.044)">
          <path id="Trazado_1035439" data-name="Trazado 1035439" d="M424.412,211.4h6.447v32.369h-6.447Z" transform="translate(-424.412 -211.402)" fill="#31a7fb" fill-rule="evenodd"/>
        </g>
        <g id="Grupo_1174920" data-name="Grupo 1174920" transform="translate(25.597 17.593)">
          <path id="Trazado_1035440" data-name="Trazado 1035440" d="M243.976,172.514a4.613,4.613,0,1,0-4.612-4.612A4.622,4.622,0,0,0,243.976,172.514Z" transform="translate(-239.364 -163.288)" fill="#05e39c" fill-rule="evenodd"/>
        </g>
        <g id="Grupo_1174921" data-name="Grupo 1174921" transform="translate(28.999 22.793)">
          <path id="Trazado_1035441" data-name="Trazado 1035441" d="M277.823,220.94a2.105,2.105,0,0,1,3.886-1.621l.691,1.656a2.1,2.1,0,0,1,3.883-1.621l.681,1.631a2.1,2.1,0,0,1,3.883-1.618l.145.347,1.517,3.634,1.688,4.047a8.348,8.348,0,0,1-4.479,10.882l-.18.073a8.333,8.333,0,0,1-8.258-1.079L270.9,230.091a2.1,2.1,0,0,1,2.394-3.46l3.287,2.271-1.129-2.71L269.577,212.1a2.105,2.105,0,0,1,3.886-1.621Z" transform="translate(-269.393 -209.185)" fill="#ffcebf" fill-rule="evenodd"/>
        </g>
        <g id="Grupo_1174922" data-name="Grupo 1174922" transform="translate(0 7.452)">
          <path id="Trazado_1035442" data-name="Trazado 1035442" d="M24.149,73.771c5.037,0,10.737,7.28,10.737,13.21a10.737,10.737,0,1,1-21.474,0C13.412,81.051,19.109,73.771,24.149,73.771Z" transform="translate(-13.412 -73.771)" fill="#05e39c" fill-rule="evenodd"/>
        </g>
        <g id="Grupo_1174923" data-name="Grupo 1174923" transform="translate(6.359 5.906)">
          <path id="Trazado_1035443" data-name="Trazado 1035443" d="M70.86,60.127h6.122a1.317,1.317,0,1,1,0,2.634H70.86a1.317,1.317,0,0,1,0-2.634Z" transform="translate(-69.545 -60.127)" fill="#12c78b" fill-rule="evenodd"/>
        </g>
        <g id="Grupo_1174924" data-name="Grupo 1174924" transform="translate(5.182)">
          <path id="Trazado_1035444" data-name="Trazado 1035444" d="M61.831,13.9H67.6l1.937-4.12c-1.618-.2-3.668.52-4.854-.6-1.448-1.36-3.312-1.511-5.52-.678Z" transform="translate(-59.159 -7.99)" fill="#05e39c" fill-rule="evenodd"/>
        </g>
      </g>
      <path id="Trazado_1035445" data-name="Trazado 1035445" d="M60.573,56.806h-.4V51.192a8.973,8.973,0,0,0,.743-8.543l-.743-1.783V24.708a.792.792,0,0,0-.792-.792H52.823a.792.792,0,0,0-.792.792v8.6a2.9,2.9,0,0,0-2.982-.387,3.178,3.178,0,0,0-.767.456V29.743a.792.792,0,0,0-.792-.792H41.3l-.737-1.768a5.478,5.478,0,1,0-7.755.966L22.628,38.2H11.658V32.972A11.7,11.7,0,0,0,28.126,22.288a14.9,14.9,0,0,0-2.336-7.5,16.691,16.691,0,0,0-4.5-4.95,2.123,2.123,0,0,0-.8-3.1l1.545-3.286a.792.792,0,0,0-.62-1.123,10.422,10.422,0,0,0-1.886,0c-1.052.064-2.045.125-2.6-.4C15.282.374,13.119.087,10.5,1.074a.792.792,0,0,0-.43,1.092L12.34,6.741a2.123,2.123,0,0,0-.783,3.093,16.691,16.691,0,0,0-4.5,4.95,14.9,14.9,0,0,0-2.336,7.5,11.7,11.7,0,0,0,5.349,9.823V57.6a.792.792,0,0,0,.792.792H60.573a.792.792,0,0,0,0-1.583ZM13.315,9.179a.546.546,0,1,1,0-1.093h6.221a.546.546,0,1,1,0,1.093Zm2.532-6.1c1.055.99,2.5.9,3.781.824.155-.01.307-.019.457-.026L18.851,6.5H13.989L11.9,2.285a3.913,3.913,0,0,1,3.947.8ZM6.309,22.288c0-4.15,3-9.258,6.742-11.543a2.124,2.124,0,0,0,.265.018h6.221a2.124,2.124,0,0,0,.265-.018c3.74,2.286,6.742,7.394,6.742,11.543a10.117,10.117,0,1,1-20.233,0Zm28.5,21.318a2.811,2.811,0,0,0,0,.818V56.806H29.84V39.537h4.971Zm1.583,2.966,3.75,2.594v7.639h-3.75Zm5.333,3.689L46.6,53.629l.1.075v3.1H41.728V50.262Zm6.554,4.4a8.934,8.934,0,0,0,3.75.881v1.265h-3.75Zm5.333.764A9.812,9.812,0,0,0,58,53.509q.307-.237.588-.491v3.787H53.615ZM58.586,25.5V37.068l-1.074-2.576a2.83,2.83,0,0,0-3.825-1.562l-.072.033V25.5h4.971Zm-8.927,8.881a1.258,1.258,0,0,1,1.755.708L52.1,36.74l0,.006c.007.017.015.033.023.049l1.3,3.13a.792.792,0,0,0,1.462-.609l-1.347-3.235a1.347,1.347,0,0,1,2.507-.979l3.4,8.157a7.5,7.5,0,0,1-2.421,9A8.292,8.292,0,0,1,52.9,53.925c-.024,0-.048,0-.072,0a.789.789,0,0,0-.2.027,7.407,7.407,0,0,1-5.08-1.59l-.029-.021L36.967,45.043a1.308,1.308,0,0,1-.572-.782v-.53a1.571,1.571,0,0,1,.244-.551,1.343,1.343,0,0,1,1.075-.622,1.376,1.376,0,0,1,.786.271l3.34,2.308a.792.792,0,0,0,1.181-.956l-1.147-2.753-5.5-13.187a.781.781,0,0,0-.034-.082L35.9,27.114a1.348,1.348,0,0,1,2.487-1.038l.513,1.231a.784.784,0,0,0,.032.078L40.2,30.413q.01.026.021.051l2.6,6.231,0,.006h0l1.365,3.275a.792.792,0,1,0,1.461-.609l-1.365-3.275h0l0,0a1.213,1.213,0,0,1,.114-1.276,1.568,1.568,0,0,1,1.386-.578,1.212,1.212,0,0,1,.986.82l.675,1.617,0,.005,1.368,3.275a.792.792,0,0,0,1.461-.61l-1.341-3.209,0,0a1.259,1.259,0,0,1,.732-1.747ZM46.7,30.534v2.323a2.757,2.757,0,0,0-.719-.194,3.138,3.138,0,0,0-2.707,1.016l-1.311-3.145ZM36.212,19.961a3.9,3.9,0,0,1,3.591,5.4,2.937,2.937,0,0,0-5.526,1.873,3.895,3.895,0,0,1,1.935-7.275ZM11.659,39.787H22.953a.792.792,0,0,0,.556-.228L34.236,28.965a5.431,5.431,0,0,0,.824.246L40.521,42.3,39.4,41.527a2.764,2.764,0,0,0-3-.208V38.746a.792.792,0,0,0-.792-.792H29.049a.792.792,0,0,0-.792.792v18.06h-3.75V44.117a.792.792,0,0,0-.792-.792H17.161a.792.792,0,0,0-.792.792V56.806H11.658ZM22.924,56.806H17.953v-11.9h4.971ZM51.641,11.792a4.46,4.46,0,1,1,5.253,4.386v2.338a.792.792,0,1,1-1.583,0V15.458a.792.792,0,0,1,.792-.792,2.878,2.878,0,1,0-2.878-2.875.792.792,0,1,1-1.583,0Zm5.021,8.815a.792.792,0,0,1,0,1.119.719.719,0,0,1-.12.1.789.789,0,0,1-.137.074.84.84,0,0,1-.148.045.8.8,0,0,1-.715-.217.846.846,0,0,1-.1-.12.791.791,0,0,1-.072-.137.748.748,0,0,1-.045-.148.789.789,0,0,1-.016-.155.8.8,0,0,1,.232-.56.789.789,0,0,1,.121-.1.733.733,0,0,1,.136-.072.786.786,0,0,1,.458-.045.742.742,0,0,1,.148.045.8.8,0,0,1,.137.072.824.824,0,0,1,.12.1Zm-40.234,7.2a.792.792,0,0,1-.792-.792V25.7h-2.32a.792.792,0,1,1,0-1.583h4.378a1,1,0,0,0,.787-.315,1.171,1.171,0,0,0,.265-.765,1.023,1.023,0,0,0-1.052-1.08H15.158A2.566,2.566,0,0,1,12.523,19.3a2.735,2.735,0,0,1,.657-1.808,2.578,2.578,0,0,1,1.978-.855h.477V15.324a.792.792,0,0,1,1.583,0v1.311h2.317a.792.792,0,0,1,0,1.583H15.158a1,1,0,0,0-.787.315,1.171,1.171,0,0,0-.265.765,1.023,1.023,0,0,0,1.052,1.08h2.535a2.566,2.566,0,0,1,2.635,2.663,2.735,2.735,0,0,1-.657,1.808,2.578,2.578,0,0,1-1.978.855h-.474v1.314A.792.792,0,0,1,16.427,27.81Z" transform="translate(0 0)"/>
    </g>
  </g>
</svg>
