<svg xmlns="http://www.w3.org/2000/svg" xmlns:xlink="http://www.w3.org/1999/xlink" width="110" height="110" viewBox="0 0 110 110">
  <defs>
    <filter id="Trazado_982547" x="0" y="0" width="110" height="110" filterUnits="userSpaceOnUse">
      <feOffset dy="3" input="SourceAlpha"/>
      <feGaussianBlur stdDeviation="3" result="blur"/>
      <feFlood flood-opacity="0.161"/>
      <feComposite operator="in" in2="blur"/>
      <feComposite in="SourceGraphic"/>
    </filter>
  </defs>
  <g id="Grupo_1174928" data-name="Grupo 1174928" transform="translate(-913 -1919.935)">
    <g id="Grupo_1174835" data-name="Grupo 1174835" transform="translate(116 729.272)">
      <g id="Grupo_1171898" data-name="Grupo 1171898" transform="translate(-315 -769.338)">
        <g id="Grupo_1164700" data-name="Grupo 1164700" transform="translate(1121 1966)">
          <g id="Grupo_1160931" data-name="Grupo 1160931" transform="translate(0)">
            <g id="Grupo_1160749" data-name="Grupo 1160749" transform="translate(0)">
              <g id="Grupo_1158891" data-name="Grupo 1158891" transform="translate(0 0)">
                <g id="Grupo_1157406" data-name="Grupo 1157406" transform="translate(0)">
                  <g id="Grupo_1155793" data-name="Grupo 1155793" transform="translate(0)">
                    <g id="Grupo_1154704" data-name="Grupo 1154704" transform="translate(0)">
                      <g id="Grupo_1150790" data-name="Grupo 1150790" transform="translate(0)">
                        <g id="Grupo_1154214" data-name="Grupo 1154214" transform="translate(0)">
                          <g id="Grupo_1152583" data-name="Grupo 1152583" transform="translate(0 0)">
                            <g id="Grupo_1146973" data-name="Grupo 1146973" transform="translate(0 0)">
                              <g id="Grupo_1146954" data-name="Grupo 1146954">
                                <g transform="matrix(1, 0, 0, 1, -9, -6)" filter="url(#Trazado_982547)">
                                  <g id="Trazado_982547-2" data-name="Trazado 982547" transform="translate(9 6)" fill="#e9f9fd">
                                    <path d="M 46.00000381469727 90.49988555908203 C 39.99188232421875 90.49988555908203 34.16427230834961 89.32352447509766 28.67905807495117 87.00347137451172 C 23.38020324707031 84.76226043701172 18.62104415893555 81.55342864990234 14.53375053405762 77.46615600585938 C 10.44647026062012 73.37887573242188 7.237643718719482 68.61971282958984 4.996417045593262 63.32085800170898 C 2.676363706588745 57.83565902709961 1.500003814697266 52.00806045532227 1.500003814697266 45.99993896484375 C 1.500003814697266 39.99181747436523 2.676363706588745 34.16421890258789 4.996417045593262 28.67901802062988 C 7.237643718719482 23.38017845153809 10.44647026062012 18.62101936340332 14.53375053405762 14.53373908996582 C 18.62104415893555 10.44645881652832 23.38020324707031 7.237632274627686 28.67905807495117 4.996418952941895 C 34.16427230834961 2.676365613937378 39.99188232421875 1.500005602836609 46.00000381469727 1.500005602836609 C 52.00812530517578 1.500005602836609 57.83573532104492 2.676365613937378 63.32094955444336 4.996418952941895 C 68.61980438232422 7.237632274627686 73.37897491455078 10.44645881652832 77.46625518798828 14.53373908996582 C 81.55355072021484 18.62101936340332 84.76236724853516 23.38017845153809 87.00359344482422 28.67901802062988 C 89.32364654541016 34.16421890258789 90.5 39.99181747436523 90.5 45.99993896484375 C 90.5 52.00806045532227 89.32364654541016 57.83565902709961 87.00359344482422 63.32085800170898 C 84.76236724853516 68.61971282958984 81.55355072021484 73.37887573242188 77.46625518798828 77.46615600585938 C 73.37897491455078 81.55342864990234 68.61980438232422 84.76226043701172 63.32094955444336 87.00347137451172 C 57.83573532104492 89.32352447509766 52.00812530517578 90.49988555908203 46.00000381469727 90.49988555908203 Z" stroke="none"/>
                                    <path d="M 46.00000381469727 2.999992370605469 C 40.19371795654297 2.999992370605469 34.56270217895508 4.136497497558594 29.26338958740234 6.377906799316406 C 24.14333343505859 8.543510437011719 19.54441833496094 11.64437866210938 15.59440612792969 15.59439849853516 C 11.64440155029297 19.54439544677734 8.54351806640625 24.14329528808594 6.377914428710938 29.26335144042969 C 4.136505126953125 34.56266784667969 3.000007629394531 40.19366836547852 3.000007629394531 45.99993896484375 C 3.000007629394531 51.80620956420898 4.136505126953125 57.43722534179688 6.377914428710938 62.73654174804688 C 8.54351806640625 67.85658264160156 11.64440155029297 72.45548248291016 15.59440612792969 76.40549468994141 C 19.54441833496094 80.35549926757812 24.14333343505859 83.45636749267578 29.26337432861328 85.62196350097656 C 34.56270217895508 87.86338043212891 40.19371795654297 88.9998779296875 46.00000381469727 88.9998779296875 C 51.80628967285156 88.9998779296875 57.43730545043945 87.86338043212891 62.73663330078125 85.62196350097656 C 67.85667419433594 83.45636749267578 72.45558929443359 80.35549926757812 76.40560150146484 76.40549468994141 C 80.35560607910156 72.45548248291016 83.45648956298828 67.85658264160156 85.62208557128906 62.73654174804688 C 87.86350250244141 57.43722534179688 89 51.80620956420898 89 45.99993896484375 C 89 40.19366836547852 87.86350250244141 34.56266784667969 85.62208557128906 29.26335144042969 C 83.45648956298828 24.14329528808594 80.35560607910156 19.54439544677734 76.40560150146484 15.59439849853516 C 72.45558929443359 11.64437866210938 67.85667419433594 8.543510437011719 62.73661804199219 6.377906799316406 C 57.43730545043945 4.136497497558594 51.80628967285156 2.999992370605469 46.00000381469727 2.999992370605469 M 46.00000381469727 -7.62939453125e-06 C 71.40510559082031 -7.62939453125e-06 92 20.59487915039062 92 45.99993896484375 C 92 71.40501403808594 71.40510559082031 91.99988555908203 46.00000381469727 91.99988555908203 C 20.59490203857422 91.99988555908203 7.62939453125e-06 71.40501403808594 7.62939453125e-06 45.99993896484375 C 7.62939453125e-06 20.59487915039062 20.59490203857422 -7.62939453125e-06 46.00000381469727 -7.62939453125e-06 Z" stroke="none" fill="#36ceef"/>
                                  </g>
                                </g>
                              </g>
                            </g>
                          </g>
                        </g>
                      </g>
                    </g>
                  </g>
                </g>
              </g>
            </g>
          </g>
        </g>
      </g>
    </g>
    <g id="leverage_10983225" transform="translate(906.902 1907.495)">
      <g id="Grupo_1174927" data-name="Grupo 1174927" transform="translate(31.209 37.951)">
        <path id="Trazado_1035446" data-name="Trazado 1035446" d="M183.841,75.11H163.554l-8.534,8.53v24.522a2.42,2.42,0,0,0,2.414,2.412h26.406a2.416,2.416,0,0,0,2.41-2.412V77.52A2.414,2.414,0,0,0,183.841,75.11Z" transform="translate(-139.221 -70.966)" fill="#666766" fill-rule="evenodd"/>
        <path id="Trazado_1035447" data-name="Trazado 1035447" d="M155.458,44.32H135.17l-8.53,8.534V77.372a2.42,2.42,0,0,0,2.412,2.414h26.406a2.423,2.423,0,0,0,2.414-2.414V46.732A2.419,2.419,0,0,0,155.458,44.32Z" transform="translate(-114.661 -44.32)" fill="#e6e6e6" fill-rule="evenodd"/>
        <path id="Trazado_1035448" data-name="Trazado 1035448" d="M126.64,52.854h6.119a2.42,2.42,0,0,0,2.412-2.414V44.32Z" transform="translate(-114.661 -44.32)" fill="#666766" fill-rule="evenodd"/>
        <path id="Trazado_1035449" data-name="Trazado 1035449" d="M295.97,63.17,299.8,67,280.982,85.827l-7.592,3.7,3.758-7.535Z" transform="translate(-241.661 -60.633)" fill="#00b2ca" fill-rule="evenodd"/>
        <path id="Trazado_1035450" data-name="Trazado 1035450" d="M58.448,246.978c0,2.2-4.658,3.99-10.407,3.99s-10.411-1.789-10.411-3.99V228.06H58.448Z" transform="translate(-37.63 -203.332)" fill="#faa21b" fill-rule="evenodd"/>
        <path id="Trazado_1035451" data-name="Trazado 1035451" d="M48.041,206.391c5.733,0,10.407-1.793,10.407-3.99s-4.673-3.99-10.407-3.99S37.63,200.2,37.63,202.4,42.308,206.391,48.041,206.391Z" transform="translate(-37.63 -177.672)" fill="#ffcd05" fill-rule="evenodd"/>
        <path id="Trazado_1035452" data-name="Trazado 1035452" d="M330.348,258.481a10.39,10.39,0,1,0-10.388-10.392A10.411,10.411,0,0,0,330.348,258.481Z" transform="translate(-281.964 -211.675)" fill="#ffcd05" fill-rule="evenodd"/>
        <path id="Trazado_1035453" data-name="Trazado 1035453" d="M176.746,308.444a12.372,12.372,0,1,0-12.376-12.372A12.4,12.4,0,0,0,176.746,308.444Z" transform="translate(-147.313 -251.484)" fill="#b92025" fill-rule="evenodd"/>
        <path id="Trazado_1035454" data-name="Trazado 1035454" d="M195.249,283.71a12.373,12.373,0,0,1,12.185,14.516,12.372,12.372,0,0,1-21.5-10.289A12.339,12.339,0,0,1,195.249,283.71Z" transform="translate(-165.816 -251.493)" fill="#ed2024" fill-rule="evenodd"/>
        <path id="Trazado_1035455" data-name="Trazado 1035455" d="M242.92,317.92h3.605l-.568,10.613h-2.342Zm0,15.539h3.605v-2.614H242.92Z" transform="translate(-215.292 -281.099)" fill="#fedc97" fill-rule="evenodd"/>
        <path id="Trazado_1035456" data-name="Trazado 1035456" d="M351.248,276.129a7.14,7.14,0,1,0-7.138-7.141A7.155,7.155,0,0,0,351.248,276.129Z" transform="translate(-302.863 -232.574)" fill="#faa21b" fill-rule="evenodd"/>
        <path id="Trazado_1035457" data-name="Trazado 1035457" d="M433.609,295.417a2.019,2.019,0,1,0-2.019-2.019A2.025,2.025,0,0,0,433.609,295.417Z" transform="translate(-378.57 -258.13)" fill="#feeb90" fill-rule="evenodd"/>
        <path id="Trazado_1035458" data-name="Trazado 1035458" d="M130.809,218.977c1.114,0,2.019-.454,2.019-1.011s-.9-1.007-2.019-1.007-2.019.454-2.019,1.007S129.7,218.977,130.809,218.977Z" transform="translate(-116.522 -193.726)" fill="#feeb90" fill-rule="evenodd"/>
        <path id="Trazado_1035459" data-name="Trazado 1035459" d="M147.963,144.136h2.712a1.428,1.428,0,0,0,1.427-1.423v-2.021a1.428,1.428,0,0,0-1.427-1.423h-2.712a1.425,1.425,0,0,0-1.423,1.423v2.021A1.426,1.426,0,0,0,147.963,144.136Z" transform="translate(-131.883 -126.491)" fill="#fff" fill-rule="evenodd"/>
        <path id="Trazado_1035460" data-name="Trazado 1035460" d="M199.745,144.128a1.076,1.076,0,0,0,1.075-1.073v-2.72a1.075,1.075,0,0,0-2.151,0v2.72A1.077,1.077,0,0,0,199.745,144.128Z" transform="translate(-176.997 -126.483)" fill="#fff" fill-rule="evenodd"/>
        <path id="Trazado_1035461" data-name="Trazado 1035461" d="M296.549,322.377a2.019,2.019,0,1,0-2.019-2.019A2.025,2.025,0,0,0,296.549,322.377Z" transform="translate(-259.956 -281.462)" fill="#f15b5c" fill-rule="evenodd"/>
      </g>
      <path id="Trazado_1035462" data-name="Trazado 1035462" d="M58.837,73.776h3.609a1,1,0,0,1,.992,1.129L62.87,85.442a1,1,0,0,1-1,.946v0H59.535a1,1,0,0,1-1-1l-.69-10.555a1,1,0,0,1,1-1.061Zm2.556,2H59.9l.565,8.615h.458ZM59.835,89.315h1.606V88.7H59.835Zm2.61,2H58.835a1,1,0,0,1-1-1V87.7a1,1,0,0,1,1-1h3.609a1,1,0,0,1,1,1v2.614A1,1,0,0,1,62.445,91.318Zm-1.8-22.141a13.307,13.307,0,0,1,7.874,2.564A11.394,11.394,0,0,1,73.421,64.8V61.677L71.24,63.859a.993.993,0,0,1-.31.21l-7.515,3.662a1,1,0,0,1-.476.122H53.031v3.7a13.3,13.3,0,0,1,7.611-2.377Zm9.628,4.093A13.323,13.323,0,0,1,74,81.917a9.391,9.391,0,1,0,5.6-16.934l-1.252.083a9.377,9.377,0,0,0-8.072,8.2Zm3.636,10.972a13.375,13.375,0,0,1-26.219,1.637,25.119,25.119,0,0,1-13.78-.518c-2.285-.873-3.7-2.194-3.7-3.753V62.687c0-1.564,1.418-2.884,3.7-3.753A22.849,22.849,0,0,1,42.189,57.7c0-1.137-.023-11.154.015-11.376a.184.184,0,0,1,.008-.05l0-.023c0-.008,0-.015.008-.023l.015-.046.008-.023.027-.069.031-.069.023-.042.156-.2,8.526-8.526a1,1,0,0,1,.713-.3H72.01a3.419,3.419,0,0,1,3.41,3.41V41.1h.408a3.421,3.421,0,0,1,3.414,3.41v.847l5.57-5.57a1,1,0,0,1,1.416,0l3.83,3.83a1,1,0,0,1,0,1.416L79.243,55.854v7.134a11.39,11.39,0,1,1-5.338,21.253Zm-26.572-.332a13.484,13.484,0,0,1,.26-4.315,25.144,25.144,0,0,1-13.688-.542,9.551,9.551,0,0,1-1.694-.832V81.6c0,.645.919,1.316,2.4,1.884A23.271,23.271,0,0,0,47.334,83.909Zm1.008-6.615a13.351,13.351,0,0,1,2.686-4.044V71.915c-4.36,2.755-14.454,2.755-18.816,0V75.3c0,.645.919,1.316,2.4,1.884A22.979,22.979,0,0,0,48.342,77.294Zm20.341-2.789a11.373,11.373,0,1,0,0,16.084A11.373,11.373,0,0,0,68.683,74.506ZM75.7,77.03a1,1,0,1,1,1.984-.179c.073.794,1.048,1.285,1.911,1.285,1.056,0,1.915-.618,1.915-1.381,0-2.385-5.829-.2-5.829-4.764a3.506,3.506,0,0,1,2.9-3.269v-.7a1,1,0,0,1,1.03-1v0a1,1,0,0,1,1,1.015l-.019.676a3.51,3.51,0,0,1,2.919,3.273,1,1,0,0,1-2,0c0-1.256-2.163-1.873-3.342-.911a1.2,1.2,0,0,0-.484.911c0,2.385,5.825.2,5.825,4.764a3.508,3.508,0,0,1-2.915,3.269l-.015.7a1,1,0,0,1-2,0v-.7A3.54,3.54,0,0,1,75.7,77.03ZM75.42,63.774a11.22,11.22,0,0,1,1.82-.545V57.854l-1.82,1.82ZM44.188,57.815c2.751.26,6.332,1.061,8,2.9h5.482a1,1,0,1,1,0,2H53.03v3.136h9.289L65.8,58.871a1,1,0,0,1,.187-.26L73.42,51.18V40.369a1.418,1.418,0,0,0-1.412-1.412H52.721v5.119a3.421,3.421,0,0,1-3.41,3.414H44.188Zm6.839,7.8c-4.36,2.751-14.454,2.751-18.816,0v3.381c0,.645.919,1.316,2.4,1.888a22.826,22.826,0,0,0,14.009,0c1.484-.572,2.4-1.244,2.4-1.888Zm-2.4-4.814a22.814,22.814,0,0,0-14.009,0c-1.484.572-2.4,1.244-2.4,1.888s.919,1.316,2.4,1.888a22.826,22.826,0,0,0,14.009,0c1.484-.572,2.4-1.244,2.4-1.888a.813.813,0,0,0-.077-.332.93.93,0,0,1-.149-.237A5.209,5.209,0,0,0,48.623,60.8Zm8.66-8.648a1,1,0,0,1,1.988-.183c.114,1.266,2.342,1.946,3.616.9a1.31,1.31,0,0,0,.534-1c0-2.6-6.153-.256-6.153-5.036a3.656,3.656,0,0,1,3.059-3.406v-.782a1,1,0,0,1,1.034-1v0a1,1,0,0,1,1,1.015l-.015.759a3.657,3.657,0,0,1,3.082,3.41,1,1,0,1,1-2,0c0-1.331-2.308-2.075-3.62-1a1.328,1.328,0,0,0-.534,1c0,2.6,6.157.256,6.157,5.036a3.658,3.658,0,0,1-3.079,3.41l-.015.778a1,1,0,1,1-2,0V55.27a3.705,3.705,0,0,1-3.042-3.12ZM75.42,49.181l1.82-1.82V44.513A1.418,1.418,0,0,0,75.828,43.1H75.42ZM87.937,44.33l-2.418-2.418-18,18-2.373,4.749,4.8-2.339ZM45.6,45.49H49.31a1.417,1.417,0,0,0,1.408-1.412V40.373Z" transform="translate(0)" fill="#010101"/>
    </g>
  </g>
</svg>
