<svg xmlns="http://www.w3.org/2000/svg" xmlns:xlink="http://www.w3.org/1999/xlink" width="110" height="110" viewBox="0 0 110 110">
  <defs>
    <filter id="Trazado_982547" x="0" y="0" width="110" height="110" filterUnits="userSpaceOnUse">
      <feOffset dy="3" input="SourceAlpha"/>
      <feGaussianBlur stdDeviation="3" result="blur"/>
      <feFlood flood-opacity="0.161"/>
      <feComposite operator="in" in2="blur"/>
      <feComposite in="SourceGraphic"/>
    </filter>
  </defs>
  <g id="Grupo_1174939" data-name="Grupo 1174939" transform="translate(-913 -2325.935)">
    <g id="Grupo_1174837" data-name="Grupo 1174837" transform="translate(116 1135.272)">
      <g id="Grupo_1171898" data-name="Grupo 1171898" transform="translate(-315 -769.338)">
        <g id="Grupo_1164700" data-name="Grupo 1164700" transform="translate(1121 1966)">
          <g id="Grupo_1160931" data-name="Grupo 1160931" transform="translate(0)">
            <g id="Grupo_1160749" data-name="Grupo 1160749" transform="translate(0)">
              <g id="Grupo_1158891" data-name="Grupo 1158891" transform="translate(0 0)">
                <g id="Grupo_1157406" data-name="Grupo 1157406" transform="translate(0)">
                  <g id="Grupo_1155793" data-name="Grupo 1155793" transform="translate(0)">
                    <g id="Grupo_1154704" data-name="Grupo 1154704" transform="translate(0)">
                      <g id="Grupo_1150790" data-name="Grupo 1150790" transform="translate(0)">
                        <g id="Grupo_1154214" data-name="Grupo 1154214" transform="translate(0)">
                          <g id="Grupo_1152583" data-name="Grupo 1152583" transform="translate(0 0)">
                            <g id="Grupo_1146973" data-name="Grupo 1146973" transform="translate(0 0)">
                              <g id="Grupo_1146954" data-name="Grupo 1146954">
                                <g transform="matrix(1, 0, 0, 1, -9, -6)" filter="url(#Trazado_982547)">
                                  <g id="Trazado_982547-2" data-name="Trazado 982547" transform="translate(9 6)" fill="#e9f9fd">
                                    <path d="M 46.00000381469727 90.49988555908203 C 39.99188232421875 90.49988555908203 34.16427230834961 89.32352447509766 28.67905807495117 87.00347137451172 C 23.38020324707031 84.76226043701172 18.62104415893555 81.55342864990234 14.53375053405762 77.46615600585938 C 10.44647026062012 73.37887573242188 7.237643718719482 68.61971282958984 4.996417045593262 63.32085800170898 C 2.676363706588745 57.83565902709961 1.500003814697266 52.00806045532227 1.500003814697266 45.99993896484375 C 1.500003814697266 39.99181747436523 2.676363706588745 34.16421890258789 4.996417045593262 28.67901802062988 C 7.237643718719482 23.38017845153809 10.44647026062012 18.62101936340332 14.53375053405762 14.53373908996582 C 18.62104415893555 10.44645881652832 23.38020324707031 7.237632274627686 28.67905807495117 4.996418952941895 C 34.16427230834961 2.676365613937378 39.99188232421875 1.500005602836609 46.00000381469727 1.500005602836609 C 52.00812530517578 1.500005602836609 57.83573532104492 2.676365613937378 63.32094955444336 4.996418952941895 C 68.61980438232422 7.237632274627686 73.37897491455078 10.44645881652832 77.46625518798828 14.53373908996582 C 81.55355072021484 18.62101936340332 84.76236724853516 23.38017845153809 87.00359344482422 28.67901802062988 C 89.32364654541016 34.16421890258789 90.5 39.99181747436523 90.5 45.99993896484375 C 90.5 52.00806045532227 89.32364654541016 57.83565902709961 87.00359344482422 63.32085800170898 C 84.76236724853516 68.61971282958984 81.55355072021484 73.37887573242188 77.46625518798828 77.46615600585938 C 73.37897491455078 81.55342864990234 68.61980438232422 84.76226043701172 63.32094955444336 87.00347137451172 C 57.83573532104492 89.32352447509766 52.00812530517578 90.49988555908203 46.00000381469727 90.49988555908203 Z" stroke="none"/>
                                    <path d="M 46.00000381469727 2.999992370605469 C 40.19371795654297 2.999992370605469 34.56270217895508 4.136497497558594 29.26338958740234 6.377906799316406 C 24.14333343505859 8.543510437011719 19.54441833496094 11.64437866210938 15.59440612792969 15.59439849853516 C 11.64440155029297 19.54439544677734 8.54351806640625 24.14329528808594 6.377914428710938 29.26335144042969 C 4.136505126953125 34.56266784667969 3.000007629394531 40.19366836547852 3.000007629394531 45.99993896484375 C 3.000007629394531 51.80620956420898 4.136505126953125 57.43722534179688 6.377914428710938 62.73654174804688 C 8.54351806640625 67.85658264160156 11.64440155029297 72.45548248291016 15.59440612792969 76.40549468994141 C 19.54441833496094 80.35549926757812 24.14333343505859 83.45636749267578 29.26337432861328 85.62196350097656 C 34.56270217895508 87.86338043212891 40.19371795654297 88.9998779296875 46.00000381469727 88.9998779296875 C 51.80628967285156 88.9998779296875 57.43730545043945 87.86338043212891 62.73663330078125 85.62196350097656 C 67.85667419433594 83.45636749267578 72.45558929443359 80.35549926757812 76.40560150146484 76.40549468994141 C 80.35560607910156 72.45548248291016 83.45648956298828 67.85658264160156 85.62208557128906 62.73654174804688 C 87.86350250244141 57.43722534179688 89 51.80620956420898 89 45.99993896484375 C 89 40.19366836547852 87.86350250244141 34.56266784667969 85.62208557128906 29.26335144042969 C 83.45648956298828 24.14329528808594 80.35560607910156 19.54439544677734 76.40560150146484 15.59439849853516 C 72.45558929443359 11.64437866210938 67.85667419433594 8.543510437011719 62.73661804199219 6.377906799316406 C 57.43730545043945 4.136497497558594 51.80628967285156 2.999992370605469 46.00000381469727 2.999992370605469 M 46.00000381469727 -7.62939453125e-06 C 71.40510559082031 -7.62939453125e-06 92 20.59487915039062 92 45.99993896484375 C 92 71.40501403808594 71.40510559082031 91.99988555908203 46.00000381469727 91.99988555908203 C 20.59490203857422 91.99988555908203 7.62939453125e-06 71.40501403808594 7.62939453125e-06 45.99993896484375 C 7.62939453125e-06 20.59487915039062 20.59490203857422 -7.62939453125e-06 46.00000381469727 -7.62939453125e-06 Z" stroke="none" fill="#36ceef"/>
                                  </g>
                                </g>
                              </g>
                            </g>
                          </g>
                        </g>
                      </g>
                    </g>
                  </g>
                </g>
              </g>
            </g>
          </g>
        </g>
      </g>
    </g>
    <g id="process-improvement_9186413" transform="translate(923.889 2338.984)">
      <g id="Grupo_1174938" data-name="Grupo 1174938" transform="translate(19.906 12.888)">
        <g id="Grupo_1174935" data-name="Grupo 1174935" transform="translate(0 5.342)">
          <path id="Trazado_1035478" data-name="Trazado 1035478" d="M81.541,388.1h3.837a.875.875,0,0,1,.873.874v8.965a.875.875,0,0,1-.873.874H81.541a.875.875,0,0,1-.873-.874v-8.965A.875.875,0,0,1,81.541,388.1Z" transform="translate(-74.276 -353.115)" fill="#fe646f" fill-rule="evenodd"/>
          <path id="Trazado_1035479" data-name="Trazado 1035479" d="M108.024,388.1h1.456a.875.875,0,0,1,.873.873v8.965a.875.875,0,0,1-.873.874h-1.456a.875.875,0,0,0,.873-.874v-8.965A.875.875,0,0,0,108.024,388.1Z" transform="translate(-98.378 -353.115)" fill="#fd4755" fill-rule="evenodd"/>
          <path id="Trazado_1035480" data-name="Trazado 1035480" d="M172.533,340.922H168.7a.875.875,0,0,0-.873.873v14.577a.875.875,0,0,0,.873.873h3.837a.875.875,0,0,0,.873-.873V341.8A.875.875,0,0,0,172.533,340.922Z" transform="translate(-151.063 -311.548)" fill="#ffe177" fill-rule="evenodd"/>
          <path id="Trazado_1035481" data-name="Trazado 1035481" d="M196.636,340.922H195.18a.875.875,0,0,1,.873.873v14.577a.875.875,0,0,1-.873.873h1.456a.875.875,0,0,0,.873-.873V341.8A.875.875,0,0,0,196.636,340.922Z" transform="translate(-175.166 -311.548)" fill="#ffd064" fill-rule="evenodd"/>
          <path id="Trazado_1035482" data-name="Trazado 1035482" d="M259.687,291.659H255.85a.875.875,0,0,0-.873.873v20.437a.875.875,0,0,0,.873.874h3.837a.875.875,0,0,0,.873-.874V292.532A.875.875,0,0,0,259.687,291.659Z" transform="translate(-227.85 -268.145)" fill="#6cf5c2" fill-rule="evenodd"/>
          <path id="Trazado_1035483" data-name="Trazado 1035483" d="M283.79,291.659h-1.456a.875.875,0,0,1,.873.874v20.437a.875.875,0,0,1-.873.874h1.456a.875.875,0,0,0,.874-.874V292.532A.875.875,0,0,0,283.79,291.659Z" transform="translate(-251.952 -268.145)" fill="#00e499" fill-rule="evenodd"/>
          <path id="Trazado_1035484" data-name="Trazado 1035484" d="M343,247.341h3.837a.875.875,0,0,1,.873.873v25.709a.875.875,0,0,1-.873.873H343a.875.875,0,0,1-.873-.873V248.215A.875.875,0,0,1,343,247.341Z" transform="translate(-304.636 -229.099)" fill="#8ac9fe" fill-rule="evenodd"/>
          <path id="Trazado_1035485" data-name="Trazado 1035485" d="M369.487,247.342h1.456a.875.875,0,0,1,.873.873v25.709a.875.875,0,0,1-.873.873h-1.456a.875.875,0,0,0,.873-.873V248.215A.875.875,0,0,0,369.487,247.342Z" transform="translate(-328.738 -229.1)" fill="#60b7ff" fill-rule="evenodd"/>
          <path id="Trazado_1035486" data-name="Trazado 1035486" d="M29.5,137.29H72.8v2.571H26.931V93.992H29.5Z" transform="translate(-26.931 -93.992)" fill="#9facba" fill-rule="evenodd"/>
        </g>
        <g id="Grupo_1174936" data-name="Grupo 1174936" transform="translate(31.666 30.339)">
          <circle id="Elipse_12286" data-name="Elipse 12286" cx="11.412" cy="11.412" r="11.412" transform="translate(0 0)" fill="#ffe177"/>
          <path id="Trazado_1035487" data-name="Trazado 1035487" d="M383.372,304.132a11.412,11.412,0,1,1,0,22.824c-.258,0-.515-.009-.769-.026a11.412,11.412,0,0,0,0-22.771c.254-.017.51-.026.769-.026Z" transform="translate(-371.96 -304.132)" fill="#ffd064" fill-rule="evenodd"/>
          <ellipse id="Elipse_12287" data-name="Elipse 12287" cx="8.715" cy="8.714" rx="8.715" ry="8.714" transform="translate(2.385 2.985) rotate(-1.892)" fill="#ffc338"/>
          <path id="Trazado_1035488" data-name="Trazado 1035488" d="M324.523,326.809a8.714,8.714,0,0,0,0,17.429q.355,0,.7-.028a8.715,8.715,0,0,1,0-17.372Q324.879,326.81,324.523,326.809Z" transform="translate(-313.112 -324.111)" fill="#f5b829" fill-rule="evenodd"/>
        </g>
        <g id="Grupo_1174937" data-name="Grupo 1174937" transform="translate(9.281 0)">
          <path id="Trazado_1035489" data-name="Trazado 1035489" d="M117.019,50.751a8.586,8.586,0,0,1,2.514,1.042l1.634-.726,1.926,1.926-.725,1.633a8.585,8.585,0,0,1,1.043,2.515l1.667.642v2.723l-1.667.642a8.586,8.586,0,0,1-1.042,2.514l.726,1.634-1.926,1.926-1.633-.725a8.586,8.586,0,0,1-2.515,1.043l-.642,1.667h-2.723l-.642-1.667A8.589,8.589,0,0,1,110.5,66.5l-1.634.726L106.938,65.3l.726-1.633a8.582,8.582,0,0,1-1.043-2.515l-1.667-.642V57.784l1.667-.642a8.586,8.586,0,0,1,1.042-2.514l-.726-1.634,1.926-1.926,1.634.726a8.59,8.59,0,0,1,2.514-1.042l.642-1.667h2.723Z" transform="translate(-104.954 -49.084)" fill="#a79ba7" fill-rule="evenodd"/>
          <path id="Trazado_1035490" data-name="Trazado 1035490" d="M137.591,66.5l-1.634.726-.252-.252,1.532-.68Q137.412,66.4,137.591,66.5Zm6.521-15.746a8.587,8.587,0,0,1,2.514,1.042l-.464.206a11.325,11.325,0,0,0-2.868-1.249l-.642-1.667h.818ZM146.627,66.5a8.586,8.586,0,0,1-2.515,1.043l-.642,1.667h-.818l.642-1.667a11.323,11.323,0,0,0,2.869-1.249ZM135.706,51.319l.252-.252,1.634.726q-.179.1-.354.206Zm11.988,0,.566-.252,1.926,1.926-.725,1.633a8.585,8.585,0,0,1,1.043,2.515l1.667.642v2.723l-1.667.642a8.586,8.586,0,0,1-1.042,2.514l.726,1.634-1.926,1.926-.566-.252,1.674-1.674-.726-1.634a8.589,8.589,0,0,0,1.042-2.514l1.667-.642V57.783l-1.667-.642a8.587,8.587,0,0,0-1.043-2.515l.725-1.633Z" transform="translate(-132.048 -49.083)" fill="#837683" fill-rule="evenodd"/>
          <circle id="Elipse_12288" data-name="Elipse 12288" cx="4.749" cy="4.749" r="4.749" transform="translate(3.372 9.395) rotate(-39.358)" fill="#eceff1"/>
          <path id="Trazado_1035491" data-name="Trazado 1035491" d="M154.36,93.74a4.749,4.749,0,1,0,0,9.5q.191,0,.378-.015a4.749,4.749,0,0,1,0-9.468Q154.551,93.74,154.36,93.74Z" transform="translate(-144.299 -88.428)" fill="#d1d1d6" fill-rule="evenodd"/>
        </g>
      </g>
      <path id="Trazado_1035492" data-name="Trazado 1035492" d="M70.285,54.639a7.3,7.3,0,1,0-7.3,7.3A7.306,7.306,0,0,0,70.285,54.639Zm1.9,0a9.2,9.2,0,1,1-9.2-9.2,9.207,9.207,0,0,1,9.2,9.2Zm-9.035-.969c2.083.342,3.231,1.279,3.414,2.784a2.523,2.523,0,0,1-.592,2,3.6,3.6,0,0,1-2.032,1.093v.305a.952.952,0,0,1-1.9,0v-.321a3.374,3.374,0,0,1-2.617-2.449.951.951,0,1,1,1.846-.46,1.7,1.7,0,0,0,1.807,1.113,2.113,2.113,0,0,0,1.46-.525.636.636,0,0,0,.143-.53c-.031-.255-.1-.852-1.833-1.136-2.665-.438-3.133-1.944-3.175-2.8a2.95,2.95,0,0,1,2.37-2.987v-.338a.952.952,0,1,1,1.9,0v.329a3.368,3.368,0,0,1,2.354,2.016.951.951,0,1,1-1.754.737,1.656,1.656,0,0,0-1.966-.915c-.174.039-1.043.277-1.005,1.066.01.209.037.764,1.582,1.017Zm10.3.969a10.461,10.461,0,1,1-10.462-10.46A10.473,10.473,0,0,1,73.448,54.639ZM20.86,63.147H54.025q-.307-.323-.59-.668H22.48a.952.952,0,0,1-.952-.951V19.182H20.86V63.147Zm6.387-2.571V54.169h3.681v6.407Zm10.37,0V48.557H41.3v12.02h-3.68Zm10.368,0V42.7h3.681v6.976a12.351,12.351,0,0,0,0,9.935v.969Zm10.369-17.4a12.249,12.249,0,0,1,3.681-.865V37.424H58.354Zm17,11.462A12.36,12.36,0,0,1,56.325,65.05H19.908a.952.952,0,0,1-.951-.951V18.23a.952.952,0,0,1,.951-.952H22.48a.953.953,0,0,1,.952.952V60.576h1.913V53.218a.952.952,0,0,1,.952-.952H31.88a.952.952,0,0,1,.952.952v7.358h2.882V47.6a.952.952,0,0,1,.952-.952h5.583a.952.952,0,0,1,.952.952V60.576h2.881V41.744a.952.952,0,0,1,.951-.951h5.585a.952.952,0,0,1,.951.951v4.894a12.445,12.445,0,0,1,2.881-2.489V36.472a.952.952,0,0,1,.952-.952h5.583a.952.952,0,0,1,.952.952v5.84A12.381,12.381,0,0,1,75.352,54.639Zm-26.991-32.4v1.416l-1.058.407a.953.953,0,0,0-.584.668,7.619,7.619,0,0,1-.927,2.236.95.95,0,0,0-.059.885l.46,1.037-1,1-1.036-.46a.953.953,0,0,0-.886.059,7.6,7.6,0,0,1-2.236.927.953.953,0,0,0-.667.584l-.407,1.057H38.543L38.136,31a.954.954,0,0,0-.667-.584,7.63,7.63,0,0,1-2.237-.927.951.951,0,0,0-.885-.059l-1.038.461-1-1,.46-1.036a.948.948,0,0,0-.059-.885,7.636,7.636,0,0,1-.927-2.236.951.951,0,0,0-.584-.668l-1.057-.407V22.241l1.057-.407a.95.95,0,0,0,.584-.668,7.64,7.64,0,0,1,.927-2.236.948.948,0,0,0,.059-.885l-.46-1.036,1-1,1.038.461a.951.951,0,0,0,.885-.06,7.633,7.633,0,0,1,2.237-.927.954.954,0,0,0,.667-.584l.407-1.058h1.417l.407,1.058a.953.953,0,0,0,.669.584,7.622,7.622,0,0,1,2.235.927.954.954,0,0,0,.885.059l1.037-.461,1,1-.46,1.036a.954.954,0,0,0,.059.885,7.617,7.617,0,0,1,.927,2.236.954.954,0,0,0,.584.668Zm.078-2.01,1.214.467a.952.952,0,0,1,.611.888V24.31a.951.951,0,0,1-.611.888l-1.214.468a9.586,9.586,0,0,1-.769,1.857l.528,1.19a.952.952,0,0,1-.2,1.059L46.076,31.7a.953.953,0,0,1-1.06.2l-1.19-.529a9.521,9.521,0,0,1-1.858.77L41.5,33.352a.953.953,0,0,1-.889.61H37.89a.952.952,0,0,1-.889-.61l-.467-1.215a9.51,9.51,0,0,1-1.857-.77l-1.19.529a.952.952,0,0,1-1.06-.2L30.5,29.773a.953.953,0,0,1-.2-1.059l.529-1.19a9.483,9.483,0,0,1-.771-1.858L28.848,25.2a.95.95,0,0,1-.61-.887V21.587a.952.952,0,0,1,.61-.888l1.214-.467a9.494,9.494,0,0,1,.771-1.858l-.529-1.19a.952.952,0,0,1,.2-1.059L32.426,14.2a.953.953,0,0,1,1.06-.2l1.19.529a9.5,9.5,0,0,1,1.857-.77L37,12.546a.952.952,0,0,1,.889-.61h2.723a.953.953,0,0,1,.889.61l.467,1.215a9.517,9.517,0,0,1,1.857.77L45.016,14a.953.953,0,0,1,1.06.2L48,16.124a.952.952,0,0,1,.2,1.059l-.528,1.19A9.531,9.531,0,0,1,48.439,20.232Zm-5.391,2.717a3.8,3.8,0,1,1-3.8-3.8A3.8,3.8,0,0,1,43.049,22.949Zm1.9,0a5.7,5.7,0,1,1-5.7-5.7,5.708,5.708,0,0,1,5.7,5.7Zm-17.8,7.983a.95.95,0,0,1-.823-.473,14.948,14.948,0,0,1,20.661-20.3.952.952,0,0,1,1.866-.327l.708,2.483a.951.951,0,0,1-.88,1.212l-2.58.093h-.036a.951.951,0,0,1-.156-1.889A13.045,13.045,0,0,0,27.972,29.5a.952.952,0,0,1-.821,1.431Zm25.071-6.617A12.933,12.933,0,0,0,50.53,16.4a.952.952,0,0,1,1.645-.957A14.949,14.949,0,0,1,39.279,37.9a15.242,15.242,0,0,1-1.593-.084,14.893,14.893,0,0,1-6.174-2.075.951.951,0,0,1-1.864.326l-.709-2.483a.952.952,0,0,1,.882-1.212l2.58-.092a.951.951,0,0,1,.19,1.889,13.044,13.044,0,0,0,19.631-9.851Zm5.22,2.259a.951.951,0,0,1,.9-1l4.467-.242a.95.95,0,0,1,.992,1.087l-.644,4.426a.952.952,0,0,1-1.884-.274l.264-1.811A106.47,106.47,0,0,1,25.892,49.241a.937.937,0,0,1-.312.053.952.952,0,0,1-.313-1.851A104.6,104.6,0,0,0,60.224,27.376l-1.781.1A.95.95,0,0,1,57.442,26.574Z" transform="translate(0 0)" fill-rule="evenodd"/>
    </g>
  </g>
</svg>
