<svg xmlns="http://www.w3.org/2000/svg" xmlns:xlink="http://www.w3.org/1999/xlink" width="113" height="113" viewBox="0 0 113 113">
  <defs>
    <filter id="Trazado_982547" x="0" y="0" width="113" height="113" filterUnits="userSpaceOnUse">
      <feOffset dy="3" input="SourceAlpha"/>
      <feGaussianBlur stdDeviation="3" result="blur"/>
      <feFlood flood-opacity="0.161"/>
      <feComposite operator="in" in2="blur"/>
      <feComposite in="SourceGraphic"/>
    </filter>
  </defs>
  <g id="Grupo_1176387" data-name="Grupo 1176387" transform="translate(-324.381 -4687.967)">
    <g id="Grupo_1174875" data-name="Grupo 1174875" transform="translate(333.381 4693.967)">
      <g id="Grupo_1167343" data-name="Grupo 1167343" transform="translate(0)">
        <g id="Grupo_1166777" data-name="Grupo 1166777" transform="translate(0)">
          <g id="Grupo_1164305" data-name="Grupo 1164305">
            <g id="Grupo_1163948" data-name="Grupo 1163948">
              <g id="Grupo_1158168" data-name="Grupo 1158168">
                <g id="Grupo_1152576" data-name="Grupo 1152576">
                  <g id="Grupo_1148633" data-name="Grupo 1148633">
                    <g id="Grupo_1148525" data-name="Grupo 1148525">
                      <g transform="matrix(1, 0, 0, 1, -9, -6)" filter="url(#Trazado_982547)">
                        <g id="Trazado_982547-2" data-name="Trazado 982547" transform="translate(9 6)" fill="#f2f7e5">
                          <path d="M 47.5 93.5 C 41.28937149047852 93.5 35.26533508300781 92.28397369384766 29.59518623352051 89.88570404052734 C 24.11771965026855 87.56893157958984 19.19813346862793 84.25196075439453 14.97309303283691 80.02691650390625 C 10.74804019927979 75.80186462402344 7.431066513061523 70.88229370117188 5.114293098449707 65.40481567382812 C 2.716026782989502 59.73468017578125 1.5 53.71062850952148 1.5 47.5 C 1.5 41.28937149047852 2.716026782989502 35.26533508300781 5.114293098449707 29.59518623352051 C 7.431066513061523 24.11771965026855 10.74804019927979 19.19813346862793 14.97309303283691 14.97309303283691 C 19.19813346862793 10.74804019927979 24.11771965026855 7.431066513061523 29.59518623352051 5.114293098449707 C 35.26533508300781 2.716026782989502 41.28937149047852 1.5 47.5 1.5 C 53.71062850952148 1.5 59.73468017578125 2.716026782989502 65.40481567382812 5.114293098449707 C 70.88229370117188 7.431066513061523 75.80186462402344 10.74804019927979 80.02691650390625 14.97309303283691 C 84.25196075439453 19.19813346862793 87.56893157958984 24.11771965026855 89.88570404052734 29.59518623352051 C 92.28397369384766 35.26533508300781 93.5 41.28937149047852 93.5 47.5 C 93.5 53.71062850952148 92.28397369384766 59.73468017578125 89.88570404052734 65.40481567382812 C 87.56893157958984 70.88229370117188 84.25196075439453 75.80186462402344 80.02691650390625 80.02691650390625 C 75.80186462402344 84.25196075439453 70.88229370117188 87.56893157958984 65.40481567382812 89.88570404052734 C 59.73468017578125 92.28397369384766 53.71062850952148 93.5 47.5 93.5 Z" stroke="none"/>
                          <path d="M 47.5 3 C 41.49121475219727 3 35.66376876831055 4.176155090332031 30.17950439453125 6.495796203613281 C 24.88084411621094 8.736953735351562 20.12152099609375 11.94598388671875 16.03375244140625 16.03375244140625 C 11.94598388671875 20.12152099609375 8.736953735351562 24.88084411621094 6.495796203613281 30.17950439453125 C 4.176155090332031 35.66376876831055 3 41.49121475219727 3 47.5 C 3 53.50878524780273 4.176155090332031 59.33624649047852 6.495796203613281 64.82049560546875 C 8.736953735351562 70.11917114257812 11.94598388671875 74.87849426269531 16.03375244140625 78.96626281738281 C 20.12152099609375 83.05403137207031 24.88084411621094 86.2630615234375 30.17950439453125 88.50419616699219 C 35.66376876831055 90.82384490966797 41.49121475219727 92 47.5 92 C 53.50878524780273 92 59.33624649047852 90.82384490966797 64.82049560546875 88.50419616699219 C 70.11917114257812 86.2630615234375 74.87849426269531 83.05403137207031 78.96626281738281 78.96626281738281 C 83.05403137207031 74.87849426269531 86.2630615234375 70.11917114257812 88.50419616699219 64.82049560546875 C 90.82384490966797 59.33624649047852 92 53.50878524780273 92 47.5 C 92 41.49121475219727 90.82384490966797 35.66376876831055 88.50419616699219 30.17950439453125 C 86.2630615234375 24.88084411621094 83.05403137207031 20.12152099609375 78.96626281738281 16.03375244140625 C 74.87849426269531 11.94598388671875 70.11917114257812 8.736953735351562 64.82049560546875 6.495796203613281 C 59.33624649047852 4.176155090332031 53.50878524780273 3 47.5 3 M 47.5 0 C 73.73353576660156 0 95 21.2664794921875 95 47.5 C 95 73.73353576660156 73.73353576660156 95 47.5 95 C 21.2664794921875 95 0 73.73353576660156 0 47.5 C 0 21.2664794921875 21.2664794921875 0 47.5 0 Z" stroke="none" fill="#86b60c"/>
                        </g>
                      </g>
                    </g>
                  </g>
                </g>
              </g>
            </g>
          </g>
        </g>
      </g>
    </g>
    <g id="Digital_paymentv" data-name="Digital paymentv" transform="translate(348.868 4709.84)">
      <rect id="Rectángulo_415713" data-name="Rectángulo 415713" width="23.705" height="37.533" rx="2" transform="translate(2.988 22.742)" fill="#bdfdff"/>
      <path id="Trazado_1035886" data-name="Trazado 1035886" d="M26.926,24.975V58.558a1.981,1.981,0,0,1-1.975,1.975H21a1.981,1.981,0,0,0,1.975-1.975V24.975A1.981,1.981,0,0,0,21,23h3.951a1.981,1.981,0,0,1,1.975,1.975Z" transform="translate(-0.233 -0.258)" fill="#46f8ff"/>
      <circle id="Elipse_12305" data-name="Elipse 12305" cx="14.816" cy="14.816" r="14.816" transform="translate(30.644 2.988)" fill="#ebbf00"/>
      <path id="Trazado_1035887" data-name="Trazado 1035887" d="M60.791,17.816A14.821,14.821,0,0,1,45.975,32.632,14.421,14.421,0,0,1,44,32.493,14.809,14.809,0,0,0,44,3.138,14.421,14.421,0,0,1,45.975,3,14.821,14.821,0,0,1,60.791,17.816Z" transform="translate(-0.516 -0.012)" fill="#cca400"/>
      <circle id="Elipse_12306" data-name="Elipse 12306" cx="10.865" cy="10.865" r="10.865" transform="translate(34.595 6.938)" fill="#ffde55"/>
      <path id="Trazado_1035888" data-name="Trazado 1035888" d="M56.84,17.865A10.882,10.882,0,0,1,44,28.552,10.865,10.865,0,0,0,44,7.178,10.882,10.882,0,0,1,56.84,17.865Z" transform="translate(-0.516 -0.062)" fill="#ffcd00"/>
      <path id="Trazado_1035889" data-name="Trazado 1035889" d="M7,33H60.337V60.656H7Z" transform="translate(-0.061 -0.381)" fill="#0b7"/>
      <path id="Trazado_1035890" data-name="Trazado 1035890" d="M57,33h3.951V60.656H57Z" transform="translate(-0.675 -0.381)" fill="#00665a"/>
      <path id="Trazado_1035891" data-name="Trazado 1035891" d="M56.435,40.951V52.8a3.951,3.951,0,0,0-3.951,3.951H14.951A3.951,3.951,0,0,0,11,52.8V40.951A3.951,3.951,0,0,0,14.951,37H52.484A3.951,3.951,0,0,0,56.435,40.951Z" transform="translate(-0.111 -0.43)" fill="#5eac24"/>
      <path id="Trazado_1035892" data-name="Trazado 1035892" d="M56.9,40.951V52.8a3.951,3.951,0,0,0-3.951,3.951H49A3.951,3.951,0,0,1,52.951,52.8V40.951A3.951,3.951,0,0,1,49,37h3.951A3.951,3.951,0,0,0,56.9,40.951Z" transform="translate(-0.577 -0.43)" fill="#4e901e"/>
      <circle id="Elipse_12307" data-name="Elipse 12307" cx="5.926" cy="5.926" r="5.926" transform="translate(27.681 40.521)" fill="#ffde55"/>
      <path id="Trazado_1035893" data-name="Trazado 1035893" d="M39.9,46.926a5.926,5.926,0,0,1-5.926,5.926A5.729,5.729,0,0,1,32,52.507a5.916,5.916,0,0,0,0-11.161A5.729,5.729,0,0,1,33.975,41,5.926,5.926,0,0,1,39.9,46.926Z" transform="translate(-0.368 -0.479)" fill="#ffcd00"/>
      <circle id="Elipse_12308" data-name="Elipse 12308" cx="1.975" cy="1.975" r="1.975" transform="translate(12.865 14.84)" fill="#ff3051"/>
      <path id="Trazado_1035894" data-name="Trazado 1035894" d="M16.963,16.975A1.975,1.975,0,0,1,14,18.684a1.975,1.975,0,0,0,0-3.418,1.975,1.975,0,0,1,2.963,1.709Z" transform="translate(-0.147 -0.16)" fill="#cd2a00"/>
      <path id="Trazado_1035895" data-name="Trazado 1035895" d="M14.87,3.975a12.793,12.793,0,0,1,9.081,3.762l1.394-1.4a14.816,14.816,0,0,0-20.95,0l1.394,1.4A12.793,12.793,0,0,1,14.87,3.975Z" transform="translate(-0.029 0)"/>
      <path id="Trazado_1035896" data-name="Trazado 1035896" d="M22.586,9.183a10.859,10.859,0,0,0-15.363,0l1.4,1.4a8.889,8.889,0,0,1,12.57,0Z" transform="translate(-0.064 -0.049)"/>
      <path id="Trazado_1035897" data-name="Trazado 1035897" d="M19.829,12.031a6.9,6.9,0,0,0-9.778,0l1.4,1.391a4.927,4.927,0,0,1,6.973,0Z" transform="translate(-0.099 -0.098)"/>
      <path id="Trazado_1035898" data-name="Trazado 1035898" d="M12,16.963A2.963,2.963,0,1,0,14.963,14,2.963,2.963,0,0,0,12,16.963Zm3.951,0a.988.988,0,1,1-.988-.988A.988.988,0,0,1,15.951,16.963Z" transform="translate(-0.123 -0.147)"/>
      <path id="Trazado_1035899" data-name="Trazado 1035899" d="M60.275,31.631H53.094a15.8,15.8,0,1,0-15.268,0H27.681V24.717a2.963,2.963,0,0,0-2.963-2.963H4.963A2.963,2.963,0,0,0,2,24.717V58.3a2.963,2.963,0,0,0,2.963,2.963H60.275a.988.988,0,0,0,.988-.988V32.619A.988.988,0,0,0,60.275,31.631ZM33.657,16.816H31.682a13.683,13.683,0,0,1,1.354-5.044l1.713.988A11.742,11.742,0,0,0,33.657,16.816Zm0,1.975a11.742,11.742,0,0,0,1.086,4.056l-1.713.988a13.683,13.683,0,0,1-1.349-5.043Zm1.925-.988a9.877,9.877,0,1,1,9.877,9.877A9.877,9.877,0,0,1,35.582,17.8ZM46.447,6V4.026A13.683,13.683,0,0,1,51.492,5.38L50.5,7.093A11.748,11.748,0,0,0,46.447,6ZM44.472,6a11.748,11.748,0,0,0-4.056,1.086l-.988-1.713a13.683,13.683,0,0,1,5.043-1.349Zm12.79,12.79h1.975a13.683,13.683,0,0,1-1.354,5.044l-1.713-.988A11.742,11.742,0,0,0,57.262,18.791Zm0-1.975a11.742,11.742,0,0,0-1.086-4.056l1.713-.988a13.683,13.683,0,0,1,1.349,5.043ZM46.447,29.606A11.748,11.748,0,0,0,50.5,28.514l.988,1.713a13.683,13.683,0,0,1-5.043,1.354Zm-1.975,0v1.975a13.683,13.683,0,0,1-5.044-1.354l.988-1.713a11.748,11.748,0,0,0,4.057,1.091Zm8.736-.357-.988-1.72a11.951,11.951,0,0,0,2.97-2.97l1.72.988a13.915,13.915,0,0,1-3.7,3.7Zm3.7-19.194-1.72.993a11.951,11.951,0,0,0-2.97-2.97l.988-1.72a13.915,13.915,0,0,1,3.7,3.7Zm-19.194-3.7.988,1.72a11.952,11.952,0,0,0-2.97,2.97l-1.72-.993a13.915,13.915,0,0,1,3.7-3.7Zm-3.7,19.194,1.72-.988a11.951,11.951,0,0,0,2.97,2.97l-.988,1.72a13.915,13.915,0,0,1-3.7-3.7ZM5.951,32.619V59.288H4.963a.988.988,0,0,1-.988-.988V24.717a.988.988,0,0,1,.988-.988H24.718a.988.988,0,0,1,.988.988v6.914H6.939A.988.988,0,0,0,5.951,32.619ZM59.288,59.288H7.926V33.607H59.288Z" transform="translate(0 0)"/>
      <path id="Trazado_1035900" data-name="Trazado 1035900" d="M33.914,53.828A6.914,6.914,0,1,0,27,46.914,6.914,6.914,0,0,0,33.914,53.828Zm0-11.853a4.939,4.939,0,1,1-4.939,4.939,4.939,4.939,0,0,1,4.939-4.939Z" transform="translate(-0.307 -0.467)"/>
      <path id="Trazado_1035901" data-name="Trazado 1035901" d="M13.951,36.988a2.963,2.963,0,0,1-2.963,2.963.988.988,0,0,0-.988.988V52.791a.988.988,0,0,0,.988.988,2.963,2.963,0,0,1,2.963,2.963.988.988,0,0,0,.988.988H52.472a.988.988,0,0,0,.988-.988,2.963,2.963,0,0,1,2.963-2.963.988.988,0,0,0,.988-.988V40.939a.988.988,0,0,0-.988-.988,2.963,2.963,0,0,1-2.963-2.963A.988.988,0,0,0,52.472,36H14.939A.988.988,0,0,0,13.951,36.988Zm37.632.988a4.951,4.951,0,0,0,3.852,3.852V51.9a4.951,4.951,0,0,0-3.852,3.852H15.828A4.951,4.951,0,0,0,11.975,51.9V41.828a4.951,4.951,0,0,0,3.852-3.852Z" transform="translate(-0.098 -0.418)"/>
      <path id="Trazado_1035902" data-name="Trazado 1035902" d="M43.951,22.853l-.011,1.934,1.975.01.011-1.944H47.9l-.011,1.934,1.975.01.011-2.125a2.935,2.935,0,0,0,1.205-4.758,2.936,2.936,0,0,0-1.216-4.76L49.877,11,47.9,11l-.011,1.975H45.915L45.926,11l-1.975,0-.011,1.975H40v1.975h1.975v5.926H40v1.975Zm4.939-1.975H43.951V18.9h4.939a.988.988,0,1,1,0,1.975Zm0-3.951H43.951V14.951h4.939a.988.988,0,1,1,0,1.975Z" transform="translate(-0.467 -0.111)"/>
    </g>
  </g>
</svg>
