<svg xmlns="http://www.w3.org/2000/svg" xmlns:xlink="http://www.w3.org/1999/xlink" width="113" height="113" viewBox="0 0 113 113">
  <defs>
    <filter id="Trazado_982547" x="0" y="0" width="113" height="113" filterUnits="userSpaceOnUse">
      <feOffset dy="3" input="SourceAlpha"/>
      <feGaussianBlur stdDeviation="3" result="blur"/>
      <feFlood flood-opacity="0.161"/>
      <feComposite operator="in" in2="blur"/>
      <feComposite in="SourceGraphic"/>
    </filter>
  </defs>
  <g id="Grupo_1176390" data-name="Grupo 1176390" transform="translate(-1164.381 -4687.967)">
    <g id="Grupo_1174877" data-name="Grupo 1174877" transform="translate(1173.381 4693.967)">
      <g id="Grupo_1167343" data-name="Grupo 1167343" transform="translate(0)">
        <g id="Grupo_1166777" data-name="Grupo 1166777" transform="translate(0)">
          <g id="Grupo_1164305" data-name="Grupo 1164305">
            <g id="Grupo_1163948" data-name="Grupo 1163948">
              <g id="Grupo_1158168" data-name="Grupo 1158168">
                <g id="Grupo_1152576" data-name="Grupo 1152576">
                  <g id="Grupo_1148633" data-name="Grupo 1148633">
                    <g id="Grupo_1148525" data-name="Grupo 1148525">
                      <g transform="matrix(1, 0, 0, 1, -9, -6)" filter="url(#Trazado_982547)">
                        <g id="Trazado_982547-2" data-name="Trazado 982547" transform="translate(9 6)" fill="#f2f7e5">
                          <path d="M 47.5 93.5 C 41.28937149047852 93.5 35.26533508300781 92.28397369384766 29.59518623352051 89.88570404052734 C 24.11771965026855 87.56893157958984 19.19813346862793 84.25196075439453 14.97309303283691 80.02691650390625 C 10.74804019927979 75.80186462402344 7.431066513061523 70.88229370117188 5.114293098449707 65.40481567382812 C 2.716026782989502 59.73468017578125 1.5 53.71062850952148 1.5 47.5 C 1.5 41.28937149047852 2.716026782989502 35.26533508300781 5.114293098449707 29.59518623352051 C 7.431066513061523 24.11771965026855 10.74804019927979 19.19813346862793 14.97309303283691 14.97309303283691 C 19.19813346862793 10.74804019927979 24.11771965026855 7.431066513061523 29.59518623352051 5.114293098449707 C 35.26533508300781 2.716026782989502 41.28937149047852 1.5 47.5 1.5 C 53.71062850952148 1.5 59.73468017578125 2.716026782989502 65.40481567382812 5.114293098449707 C 70.88229370117188 7.431066513061523 75.80186462402344 10.74804019927979 80.02691650390625 14.97309303283691 C 84.25196075439453 19.19813346862793 87.56893157958984 24.11771965026855 89.88570404052734 29.59518623352051 C 92.28397369384766 35.26533508300781 93.5 41.28937149047852 93.5 47.5 C 93.5 53.71062850952148 92.28397369384766 59.73468017578125 89.88570404052734 65.40481567382812 C 87.56893157958984 70.88229370117188 84.25196075439453 75.80186462402344 80.02691650390625 80.02691650390625 C 75.80186462402344 84.25196075439453 70.88229370117188 87.56893157958984 65.40481567382812 89.88570404052734 C 59.73468017578125 92.28397369384766 53.71062850952148 93.5 47.5 93.5 Z" stroke="none"/>
                          <path d="M 47.5 3 C 41.49121475219727 3 35.66376876831055 4.176155090332031 30.17950439453125 6.495796203613281 C 24.88084411621094 8.736953735351562 20.12152099609375 11.94598388671875 16.03375244140625 16.03375244140625 C 11.94598388671875 20.12152099609375 8.736953735351562 24.88084411621094 6.495796203613281 30.17950439453125 C 4.176155090332031 35.66376876831055 3 41.49121475219727 3 47.5 C 3 53.50878524780273 4.176155090332031 59.33624649047852 6.495796203613281 64.82049560546875 C 8.736953735351562 70.11917114257812 11.94598388671875 74.87849426269531 16.03375244140625 78.96626281738281 C 20.12152099609375 83.05403137207031 24.88084411621094 86.2630615234375 30.17950439453125 88.50419616699219 C 35.66376876831055 90.82384490966797 41.49121475219727 92 47.5 92 C 53.50878524780273 92 59.33624649047852 90.82384490966797 64.82049560546875 88.50419616699219 C 70.11917114257812 86.2630615234375 74.87849426269531 83.05403137207031 78.96626281738281 78.96626281738281 C 83.05403137207031 74.87849426269531 86.2630615234375 70.11917114257812 88.50419616699219 64.82049560546875 C 90.82384490966797 59.33624649047852 92 53.50878524780273 92 47.5 C 92 41.49121475219727 90.82384490966797 35.66376876831055 88.50419616699219 30.17950439453125 C 86.2630615234375 24.88084411621094 83.05403137207031 20.12152099609375 78.96626281738281 16.03375244140625 C 74.87849426269531 11.94598388671875 70.11917114257812 8.736953735351562 64.82049560546875 6.495796203613281 C 59.33624649047852 4.176155090332031 53.50878524780273 3 47.5 3 M 47.5 0 C 73.73353576660156 0 95 21.2664794921875 95 47.5 C 95 73.73353576660156 73.73353576660156 95 47.5 95 C 21.2664794921875 95 0 73.73353576660156 0 47.5 C 0 21.2664794921875 21.2664794921875 0 47.5 0 Z" stroke="none" fill="#86b60c"/>
                        </g>
                      </g>
                    </g>
                  </g>
                </g>
              </g>
            </g>
          </g>
        </g>
      </g>
    </g>
    <g id="financial_14148652_1_" data-name="financial_14148652 (1)" transform="translate(1190 4710)">
      <path id="Trazado_1035911" data-name="Trazado 1035911" d="M45,58.97V61H3V11l8-8H45V25.03" fill="#f4f4f2"/>
      <circle id="Elipse_12309" data-name="Elipse 12309" cx="17" cy="17" r="17" transform="translate(27 25)" fill="#4a8cdd"/>
      <circle id="Elipse_12310" data-name="Elipse 12310" cx="11" cy="11" r="11" transform="translate(33 31)" fill="#5cccbc"/>
      <path id="Trazado_1035912" data-name="Trazado 1035912" d="M22.71,56A28.84,28.84,0,0,0,39,61H3V11l8-8H39A29,29,0,0,0,22.71,56Z" fill="#e2e2e2"/>
      <path id="Trazado_1035913" data-name="Trazado 1035913" d="M33,42A17,17,0,0,1,47,25.28,17.43,17.43,0,0,0,44,25a17,17,0,1,0,0,34,17.43,17.43,0,0,0,3-.28A17,17,0,0,1,33,42Z" fill="#356baa"/>
      <path id="Trazado_1035914" data-name="Trazado 1035914" d="M53.57,27.87l-3.56.58L48.1,25.39,55.53,9l1.91,3.06L61,11.48Z" fill="#fccc75"/>
      <path id="Trazado_1035915" data-name="Trazado 1035915" d="M39,42a11,11,0,0,1,8-10.58,11,11,0,1,0,0,21.16A11,11,0,0,1,39,42Z" fill="#3eb5a7"/>
      <circle id="Elipse_12311" data-name="Elipse 12311" cx="4" cy="4" r="4" transform="translate(40 38)" fill="#f9715f"/>
      <g id="Grupo_1176389" data-name="Grupo 1176389">
        <path id="Trazado_1035916" data-name="Trazado 1035916" d="M7,39h8v6H7Z" fill="#7e7f7f"/>
        <path id="Trazado_1035917" data-name="Trazado 1035917" d="M7,51h8v6H7Z" fill="#7e7f7f"/>
        <path id="Trazado_1035918" data-name="Trazado 1035918" d="M20,39h8v6H20Z" fill="#7e7f7f"/>
        <path id="Trazado_1035919" data-name="Trazado 1035919" d="M20,51h8v6H20Z" fill="#7e7f7f"/>
      </g>
      <circle id="Elipse_12312" data-name="Elipse 12312" cx="12" cy="12" r="12" transform="translate(12 7)" fill="#fccc75"/>
      <path id="Trazado_1035920" data-name="Trazado 1035920" d="M24,7V31A12,12,0,1,0,24,7Z" fill="#e2a656"/>
      <circle id="Elipse_12313" data-name="Elipse 12313" cx="8" cy="8" r="8" transform="translate(16 11)" fill="#fad55c"/>
      <path id="Trazado_1035921" data-name="Trazado 1035921" d="M24,11V27a8,8,0,0,0,0-16Z" fill="#edc045"/>
      <path id="Trazado_1035922" data-name="Trazado 1035922" d="M11,3v8H3Z" fill="#4a8cdd"/>
      <path id="Trazado_1035923" data-name="Trazado 1035923" d="M31.88,14.66A9,9,0,0,0,29.63,12l-1.26,1.56A6.973,6.973,0,0,1,25,25.92V24h1a1,1,0,0,0,1-1V19a1,1,0,0,0-1-1H23V16h4V14H25V12.08a7.27,7.27,0,0,1,1.63.43l.74-1.86A9.14,9.14,0,0,0,24,10a9,9,0,1,0,9,9,8.9,8.9,0,0,0-1.12-4.34ZM17,19a7,7,0,0,1,6-6.92V14H22a1,1,0,0,0-1,1v4a1,1,0,0,0,1,1h3v2H21v2h2v1.92A7,7,0,0,1,17,19Z"/>
      <path id="Trazado_1035924" data-name="Trazado 1035924" d="M54.79,27.6l7.12-15.71a1,1,0,0,0-1.07-1.4l-2.9.48-1.56-2.5a1,1,0,0,0-1.76.12L47.48,24.34c-.49-.09-1-.17-1.48-.22V3a1,1,0,0,0-1-1H11a1,1,0,0,0-.71.29l-8,8A1,1,0,0,0,2,11V61a1,1,0,0,0,1,1H45a1,1,0,0,0,1-1V59.88A18,18,0,0,0,54.79,27.6Zm.88-16.49.92,1.48a1,1,0,0,0,1,.46l1.72-.28L52.88,27l-2.37.39-1.27-2ZM10,5.41V10H5.41ZM44,58a16.15,16.15,0,0,1-4.7-.69,17.13,17.13,0,0,1-1.88-.73l-.84,1.82a20.149,20.149,0,0,0,2.13.82A18.16,18.16,0,0,0,44,60H4V12h7a1,1,0,0,0,1-1V4H44V24H42.94a18,18,0,0,0-8.58,2.79A13,13,0,1,0,23,32v2H11a1,1,0,0,0-1,1v3H7a1,1,0,0,0-1,1v6a1,1,0,0,0,1,1h3v4H7a1,1,0,0,0-1,1v6a1,1,0,0,0,1,1h8a1,1,0,0,0,1-1V51a1,1,0,0,0-1-1H12V46h3a1,1,0,0,0,1-1V39a1,1,0,0,0-1-1H12V36H23v2H20a1,1,0,0,0-1,1v6a1,1,0,0,0,1,1h3v4H20a1,1,0,0,0-1,1v6a1,1,0,0,0,1,1h8a1,1,0,0,0,1-1V51.9a18.11,18.11,0,0,0,3.35,3.81,18.689,18.689,0,0,0,2.12,1.56l1.06-1.7a15.42,15.42,0,0,1-1.88-1.38A16.05,16.05,0,0,1,28,42.94c0-.31,0-.62,0-.94A16,16,0,0,1,43.06,26a16.18,16.18,0,0,1,4.49.37l1.33,2.13-1,2.14A11.69,11.69,0,0,0,45,30.05V28H43v2.05a12,12,0,0,0-11,11H30v2h2A12,12,0,0,0,43,54v2h2V54A12,12,0,0,0,56,43h2V41H56a12,12,0,0,0-6.21-9.53l1-2.11,2.53-.42A16,16,0,0,1,44,58ZM27,52v4H21V52Zm-2-2V46h1.48a17.61,17.61,0,0,0,1.41,4Zm1.12-10A19,19,0,0,0,26,42v1.06s.07.63.11.94H21V40Zm.34-2H25V36h2a17,17,0,0,0-.54,2Zm1.43-4H25V32a13,13,0,0,0,5.26-1.56A17.85,17.85,0,0,0,27.89,34ZM24,30A11,11,0,1,1,35,19,11,11,0,0,1,24,30ZM8,44V40h6v4Zm6,8v4H8V52Zm30.73-9.47L46,39.77A3,3,0,1,1,44,39h.13l-1.22,2.7ZM44,37a5,5,0,1,0,2.83.89l2.08-4.59A10,10,0,0,1,54,41H52v2h2a10,10,0,0,1-9,9V50H43v2a10,10,0,0,1-9-9h2V41H34a10,10,0,0,1,9-9v2h2V32a10.35,10.35,0,0,1,2.09.44L45,37.1A5.56,5.56,0,0,0,44,37Z"/>
      <ellipse id="Elipse_12314" data-name="Elipse 12314" cx="2.54" cy="1.25" rx="2.54" ry="1.25" transform="matrix(0.804, -0.595, 0.595, 0.804, 35.649, 36.272)" fill="#f7f7f7"/>
      <circle id="Elipse_12315" data-name="Elipse 12315" cx="1" cy="1" r="1" transform="matrix(0.148, -0.989, 0.989, 0.148, 35.272, 39.868)" fill="#f7f7f7"/>
    </g>
  </g>
</svg>
