<svg xmlns="http://www.w3.org/2000/svg" xmlns:xlink="http://www.w3.org/1999/xlink" width="113" height="113" viewBox="0 0 113 113">
  <defs>
    <filter id="Trazado_982547" x="0" y="0" width="113" height="113" filterUnits="userSpaceOnUse">
      <feOffset dy="3" input="SourceAlpha"/>
      <feGaussianBlur stdDeviation="3" result="blur"/>
      <feFlood flood-opacity="0.161"/>
      <feComposite operator="in" in2="blur"/>
      <feComposite in="SourceGraphic"/>
    </filter>
  </defs>
  <g id="Grupo_1174967" data-name="Grupo 1174967" transform="translate(-272 -5222.553)">
    <g id="Grupo_1172014" data-name="Grupo 1172014" transform="translate(281 5228.553)">
      <g id="Grupo_1167343" data-name="Grupo 1167343" transform="translate(0)">
        <g id="Grupo_1166777" data-name="Grupo 1166777" transform="translate(0)">
          <g id="Grupo_1164305" data-name="Grupo 1164305">
            <g id="Grupo_1163948" data-name="Grupo 1163948">
              <g id="Grupo_1158168" data-name="Grupo 1158168">
                <g id="Grupo_1152576" data-name="Grupo 1152576">
                  <g id="Grupo_1148633" data-name="Grupo 1148633">
                    <g id="Grupo_1148525" data-name="Grupo 1148525">
                      <g transform="matrix(1, 0, 0, 1, -9, -6)" filter="url(#Trazado_982547)">
                        <g id="Trazado_982547-2" data-name="Trazado 982547" transform="translate(9 6)" fill="#f2f7e5">
                          <path d="M 47.5 93.5 C 41.28937149047852 93.5 35.26533508300781 92.28397369384766 29.59518623352051 89.88570404052734 C 24.11771965026855 87.56893157958984 19.19813346862793 84.25196075439453 14.97309303283691 80.02691650390625 C 10.74804019927979 75.80186462402344 7.431066513061523 70.88229370117188 5.114293098449707 65.40481567382812 C 2.716026782989502 59.73468017578125 1.5 53.71062850952148 1.5 47.5 C 1.5 41.28937149047852 2.716026782989502 35.26533508300781 5.114293098449707 29.59518623352051 C 7.431066513061523 24.11771965026855 10.74804019927979 19.19813346862793 14.97309303283691 14.97309303283691 C 19.19813346862793 10.74804019927979 24.11771965026855 7.431066513061523 29.59518623352051 5.114293098449707 C 35.26533508300781 2.716026782989502 41.28937149047852 1.5 47.5 1.5 C 53.71062850952148 1.5 59.73468017578125 2.716026782989502 65.40481567382812 5.114293098449707 C 70.88229370117188 7.431066513061523 75.80186462402344 10.74804019927979 80.02691650390625 14.97309303283691 C 84.25196075439453 19.19813346862793 87.56893157958984 24.11771965026855 89.88570404052734 29.59518623352051 C 92.28397369384766 35.26533508300781 93.5 41.28937149047852 93.5 47.5 C 93.5 53.71062850952148 92.28397369384766 59.73468017578125 89.88570404052734 65.40481567382812 C 87.56893157958984 70.88229370117188 84.25196075439453 75.80186462402344 80.02691650390625 80.02691650390625 C 75.80186462402344 84.25196075439453 70.88229370117188 87.56893157958984 65.40481567382812 89.88570404052734 C 59.73468017578125 92.28397369384766 53.71062850952148 93.5 47.5 93.5 Z" stroke="none"/>
                          <path d="M 47.5 3 C 41.49121475219727 3 35.66376876831055 4.176155090332031 30.17950439453125 6.495796203613281 C 24.88084411621094 8.736953735351562 20.12152099609375 11.94598388671875 16.03375244140625 16.03375244140625 C 11.94598388671875 20.12152099609375 8.736953735351562 24.88084411621094 6.495796203613281 30.17950439453125 C 4.176155090332031 35.66376876831055 3 41.49121475219727 3 47.5 C 3 53.50878524780273 4.176155090332031 59.33624649047852 6.495796203613281 64.82049560546875 C 8.736953735351562 70.11917114257812 11.94598388671875 74.87849426269531 16.03375244140625 78.96626281738281 C 20.12152099609375 83.05403137207031 24.88084411621094 86.2630615234375 30.17950439453125 88.50419616699219 C 35.66376876831055 90.82384490966797 41.49121475219727 92 47.5 92 C 53.50878524780273 92 59.33624649047852 90.82384490966797 64.82049560546875 88.50419616699219 C 70.11917114257812 86.2630615234375 74.87849426269531 83.05403137207031 78.96626281738281 78.96626281738281 C 83.05403137207031 74.87849426269531 86.2630615234375 70.11917114257812 88.50419616699219 64.82049560546875 C 90.82384490966797 59.33624649047852 92 53.50878524780273 92 47.5 C 92 41.49121475219727 90.82384490966797 35.66376876831055 88.50419616699219 30.17950439453125 C 86.2630615234375 24.88084411621094 83.05403137207031 20.12152099609375 78.96626281738281 16.03375244140625 C 74.87849426269531 11.94598388671875 70.11917114257812 8.736953735351562 64.82049560546875 6.495796203613281 C 59.33624649047852 4.176155090332031 53.50878524780273 3 47.5 3 M 47.5 0 C 73.73353576660156 0 95 21.2664794921875 95 47.5 C 95 73.73353576660156 73.73353576660156 95 47.5 95 C 21.2664794921875 95 0 73.73353576660156 0 47.5 C 0 21.2664794921875 21.2664794921875 0 47.5 0 Z" stroke="none" fill="#86b60c"/>
                        </g>
                      </g>
                    </g>
                  </g>
                </g>
              </g>
            </g>
          </g>
        </g>
      </g>
    </g>
    <g id="income_18274482" transform="translate(294.918 5236.453)">
      <g id="Grupo_1174966" data-name="Grupo 1174966" transform="translate(1.367 13.966)">
        <g id="Grupo_1174953" data-name="Grupo 1174953" transform="translate(16.507 15.707)">
          <path id="Trazado_1035519" data-name="Trazado 1035519" d="M156.264,145.089h5.018c8.163,5.593,12.391,15.416,12.391,24.6a8.3,8.3,0,0,1-8.283,8.283H147.138a8.3,8.3,0,0,1-8.28-8.283c0-9.186,4.229-19.008,12.391-24.6Z" transform="translate(-138.858 -145.089)" fill="#6c9" fill-rule="evenodd"/>
        </g>
        <g id="Grupo_1174954" data-name="Grupo 1174954" transform="translate(36.133 15.707)">
          <path id="Trazado_1035520" data-name="Trazado 1035520" d="M295.163,145.089h2.8c8.163,5.593,12.392,15.416,12.392,24.6a8.3,8.3,0,0,1-8.283,8.283h-2.8a8.3,8.3,0,0,0,8.283-8.283C307.554,160.5,303.322,150.682,295.163,145.089Z" transform="translate(-295.163 -145.089)" fill="#396" fill-rule="evenodd"/>
        </g>
        <g id="Grupo_1174955" data-name="Grupo 1174955" transform="translate(31.695 4.437)">
          <path id="Trazado_1035521" data-name="Trazado 1035521" d="M259.815,56.816c3-2.153,6.606-1.759,9.929-.082l-5.135,3.248Z" transform="translate(-259.815 -55.336)" fill="#258053" fill-rule="evenodd"/>
        </g>
        <g id="Grupo_1174956" data-name="Grupo 1174956" transform="translate(26.425 5.067)">
          <path id="Trazado_1035522" data-name="Trazado 1035522" d="M221.072,68.272l-3.227-7.487a7.52,7.52,0,0,1,7.278,1.233,4.412,4.412,0,0,0,4.058.494l3.863-1.39-2.974,6.812Z" transform="translate(-217.845 -60.354)" fill="#396" fill-rule="evenodd"/>
        </g>
        <g id="Grupo_1174957" data-name="Grupo 1174957" transform="translate(25.785 10.945)">
          <path id="Trazado_1035523" data-name="Trazado 1035523" d="M215.686,107.166H226.07a2.939,2.939,0,0,1,0,5.878H215.686a2.939,2.939,0,0,1,0-5.878Z" transform="translate(-212.751 -107.166)" fill="#dbc39e" fill-rule="evenodd"/>
        </g>
        <g id="Grupo_1174958" data-name="Grupo 1174958" transform="translate(49.029 34.42)">
          <path id="Trazado_1035524" data-name="Trazado 1035524" d="M397.866,305.3l2.715-9a3.068,3.068,0,0,1,3.809-2.047,3.027,3.027,0,0,1,1.162.657,2.449,2.449,0,0,0-.135.274c-.835,1.887,1.066,7.8.27,10.085-.188.54-4.581-.792-5.114-.576l-2.615,1.055A2.682,2.682,0,0,0,397.866,305.3Z" transform="translate(-397.866 -294.115)" fill="#ffaa7b" fill-rule="evenodd"/>
        </g>
        <g id="Grupo_1174959" data-name="Grupo 1174959" transform="translate(14.452 33.658)">
          <path id="Trazado_1035525" data-name="Trazado 1035525" d="M170.217,292.344c-6.393,14.474-4.918,11.436-18.823,19.474-10.348,3.969-17.072-2.384-28.895,0l.128-14.868,9.438.423c3.5.156,6.688-5.568,14.861.423h7.214a3.065,3.065,0,0,1,3.028,2.644l2.754-1.112a1.854,1.854,0,0,0,1.038-1c.9-2.04,3.365-7.772,3.667-8.45a3.056,3.056,0,0,1,5.59,2.47Z" transform="translate(-122.499 -288.054)" fill="#ffc7ab" fill-rule="evenodd"/>
        </g>
        <g id="Grupo_1174960" data-name="Grupo 1174960" transform="translate(9.499 40.71)">
          <path id="Trazado_1035526" data-name="Trazado 1035526" d="M83.049,344.214H93.084v18.557H83.049Z" transform="translate(-83.049 -344.214)" fill="#6ba7ff" fill-rule="evenodd"/>
        </g>
        <g id="Grupo_1174961" data-name="Grupo 1174961" transform="translate(0 0)">
          <path id="Trazado_1035527" data-name="Trazado 1035527" d="M17.323,39.843A9.922,9.922,0,1,0,7.4,29.922a9.939,9.939,0,0,0,9.922,9.922Z" transform="translate(-7.401 -20)" fill="#fedb41" fill-rule="evenodd"/>
        </g>
        <g id="Grupo_1174962" data-name="Grupo 1174962" transform="translate(46.208 1.809)">
          <path id="Trazado_1035528" data-name="Trazado 1035528" d="M383.508,50.63a8.113,8.113,0,1,0-8.113-8.113A8.128,8.128,0,0,0,383.508,50.63Z" transform="translate(-375.395 -34.404)" fill="#fedb41" fill-rule="evenodd"/>
        </g>
        <g id="Grupo_1174963" data-name="Grupo 1174963" transform="translate(37.174 10.945)">
          <path id="Trazado_1035529" data-name="Trazado 1035529" d="M303.455,107.166h1.93a2.939,2.939,0,0,1,0,5.878h-1.93a2.939,2.939,0,0,0,0-5.878Z" transform="translate(-303.455 -107.166)" fill="#c7aa7f" fill-rule="evenodd"/>
        </g>
        <g id="Grupo_1174964" data-name="Grupo 1174964" transform="translate(53.475 1.809)">
          <path id="Trazado_1035530" data-name="Trazado 1035530" d="M434.116,34.4a8.113,8.113,0,0,1,0,16.226,8.278,8.278,0,0,1-.846-.046,8.111,8.111,0,0,0,0-16.133A7.354,7.354,0,0,1,434.116,34.4Z" transform="translate(-433.27 -34.405)" fill="#f0ae42" fill-rule="evenodd"/>
        </g>
        <g id="Grupo_1174965" data-name="Grupo 1174965" transform="translate(9.126 0)">
          <path id="Trazado_1035531" data-name="Trazado 1035531" d="M80.874,20a9.922,9.922,0,0,1,0,19.843c-.27,0-.533-.011-.8-.032a9.922,9.922,0,0,0,0-19.779C80.341,20.011,80.6,20,80.874,20Z" transform="translate(-80.078 -20)" fill="#f0ae42" fill-rule="evenodd"/>
        </g>
      </g>
      <path id="Trazado_1035532" data-name="Trazado 1035532" d="M11.3,46.215a.874.874,0,0,0,.62-.257L17.472,40.4a.877.877,0,1,0-1.241-1.241l-4.058,4.058v-8.57a10.794,10.794,0,1,0-1.755,0v8.57L6.36,39.161A.877.877,0,0,0,5.119,40.4l5.556,5.556A.875.875,0,0,0,11.3,46.215ZM2.255,23.9a9.039,9.039,0,1,1,9.04,9.037A9.051,9.051,0,0,1,2.255,23.9Zm18.27,15.737a32.718,32.718,0,0,0-3.4,11.825.877.877,0,0,0,.8.952c.027,0,.053,0,.079,0a.878.878,0,0,0,.873-.8A29.4,29.4,0,0,1,29.2,31.566a3.8,3.8,0,0,0,.887.105h10.38a3.811,3.811,0,0,0,.892-.106,28.583,28.583,0,0,1,9.584,15.57.877.877,0,1,0,1.705-.413,30.487,30.487,0,0,0-9.613-16.047,3.813,3.813,0,0,0-1.071-6.328l1.826-4.186s0-.009,0-.014a.875.875,0,0,0,.06-.223c0-.008,0-.016,0-.023a.877.877,0,0,0-.006-.227l0-.026a.868.868,0,0,0-.026-.1l0-.006a.889.889,0,0,0-.042-.1l-.012-.024a.873.873,0,0,0-.132-.19l-.007-.009-.008-.008a.866.866,0,0,0-.181-.144l-.028-.016-.028-.016c-3.689-1.863-7.255-1.969-10.1-.318a8.254,8.254,0,0,0-5.735-.078.878.878,0,0,0-.557,1.188l1.9,4.416a3.814,3.814,0,0,0-1.365,6.441,28.9,28.9,0,0,0-7,8.955ZM40.546,19.755l-1.72.619a3.535,3.535,0,0,1-3.272-.4q-.182-.122-.366-.241A8.141,8.141,0,0,1,40.546,19.755Zm-5.966,1.68a5.3,5.3,0,0,0,4.84.589l1.946-.7-1.185,2.716H30.714l-1.709-3.969C31.51,19.568,32.926,20.329,34.581,21.436ZM30.087,25.8h10.38a2.06,2.06,0,0,1,.8,3.957c-.021.007-.041.015-.061.023a2.047,2.047,0,0,1-.743.141H30.087a2.038,2.038,0,0,1-.713-.13.885.885,0,0,0-.093-.035,2.061,2.061,0,0,1,.806-3.955ZM64.4,49.258a3.928,3.928,0,0,0-6.52-1.287,3.8,3.8,0,0,0-.712-.3,3.94,3.94,0,0,0-4.9,2.629l-2.172,7.2a3.924,3.924,0,0,0-2.636-1.022H40.527c-6-4.286-9.638-2.569-12.3-1.311a6.52,6.52,0,0,1-2.8.889L21.782,55.9V54.669a.877.877,0,0,0-.877-.877H10.873a.877.877,0,0,0-.877.877V73.223a.877.877,0,0,0,.877.877H20.9a.877.877,0,0,0,.877-.877V71.707a48.225,48.225,0,0,1,8.026.974,42.877,42.877,0,0,0,7.7.917,20.516,20.516,0,0,0,7.514-1.4.867.867,0,0,0,.125-.06c2.342-1.354,4.275-2.409,5.828-3.256C58.9,64.559,59,64.339,64.09,52.8l.236-.535a3.9,3.9,0,0,0,.069-3.01ZM53.943,50.808a2.185,2.185,0,0,1,2.717-1.454,2.045,2.045,0,0,1,.3.119c-.232.533-.643,1.483-1.131,2.611-.828,1.913-1.858,4.295-2.366,5.45a.971.971,0,0,1-.563.545l-1.315.531ZM20.027,72.345H11.75v-16.8h8.277Zm42.7-20.787-.237.537c-2.5,5.663-3.755,8.5-5.273,10.371-1.483,1.824-3.352,2.844-7.077,4.876-1.548.845-3.472,1.894-5.806,3.243-5.244,1.99-9.6,1.2-14.209.37a49.452,49.452,0,0,0-8.339-1v-12.3l3.566.161a7.775,7.775,0,0,0,3.624-1.055c2.557-1.207,5.455-2.574,10.752,1.309a.877.877,0,0,0,.519.17h7.211a2.186,2.186,0,0,1,2.037,1.417c.016.041.03.083.043.125s.017.059.025.089.016.064.023.1.014.071.02.107A2.168,2.168,0,0,1,47.454,62.6H33.913a.877.877,0,0,0,0,1.755H47.454a3.938,3.938,0,0,0,3.928-3.766l2.18-.881a2.709,2.709,0,0,0,1.512-1.465c.511-1.161,1.542-3.545,2.37-5.46.626-1.446,1.166-2.7,1.295-2.985a2.178,2.178,0,0,1,3.983,1.763ZM37.486,41.433a.877.877,0,1,0,1.755,0,3.435,3.435,0,0,0-3.087-3.1V37.089a.877.877,0,0,0-1.755,0V38.33a3.433,3.433,0,0,0-3.083,3.1,3.433,3.433,0,0,0,3.083,3.1v2.812c-.773-.225-1.328-.731-1.328-1.3a.877.877,0,1,0-1.755,0,3.433,3.433,0,0,0,3.083,3.1v1.241a.877.877,0,0,0,1.755,0V49.147a3.435,3.435,0,0,0,3.087-3.1,3.386,3.386,0,0,0-3.087-3.107V40.128c.775.224,1.332.732,1.332,1.305Zm-4.415,0c0-.573.555-1.08,1.328-1.3v2.61C33.626,42.513,33.071,42.007,33.071,41.433Zm4.415,4.611c0,.574-.557,1.081-1.332,1.305v-2.61c.775.224,1.332.731,1.332,1.305Zm-25.313-15.5V29.3a3.433,3.433,0,0,0,3.084-3.1,3.385,3.385,0,0,0-3.084-3.107V20.285c.774.225,1.329.731,1.329,1.3a.877.877,0,1,0,1.755,0,3.385,3.385,0,0,0-3.084-3.107V17.245a.877.877,0,0,0-1.755,0v1.238A3.386,3.386,0,0,0,7.331,21.59a3.434,3.434,0,0,0,3.087,3.1v2.813c-.775-.224-1.332-.731-1.332-1.305a.877.877,0,1,0-1.755,0,3.434,3.434,0,0,0,3.087,3.1v1.241a.877.877,0,0,0,1.755,0ZM13.5,26.2c0,.561-.562,1.071-1.329,1.3V24.9C12.946,25.121,13.5,25.627,13.5,26.2ZM9.086,21.59c0-.574.557-1.081,1.332-1.305V22.9C9.642,22.671,9.086,22.164,9.086,21.59ZM55.678,32.879A8.986,8.986,0,1,0,46.69,23.9,8.994,8.994,0,0,0,55.678,32.879Zm0-16.216A7.231,7.231,0,1,1,48.445,23.9,7.239,7.239,0,0,1,55.678,16.663Zm-1.648,9.115a.877.877,0,0,0-1.755,0A2.9,2.9,0,0,0,54.8,28.452v.878a.877.877,0,1,0,1.755,0v-.878a2.9,2.9,0,0,0,2.522-2.674,2.892,2.892,0,0,0-2.522-2.671V21.166c.475.194.767.53.767.844a.877.877,0,0,0,1.755,0,2.9,2.9,0,0,0-2.522-2.674v-.878a.877.877,0,1,0-1.755,0v.878a2.9,2.9,0,0,0-2.526,2.674A2.9,2.9,0,0,0,54.8,24.683v1.939C54.323,26.428,54.029,26.092,54.029,25.778Zm3.293,0c0,.313-.293.649-.767.844V24.938C57.03,25.131,57.322,25.466,57.322,25.778Zm-3.293-3.769c0-.314.294-.65.771-.844v1.689C54.323,22.659,54.029,22.323,54.029,22.009Z"/>
    </g>
  </g>
</svg>
