<svg xmlns="http://www.w3.org/2000/svg" xmlns:xlink="http://www.w3.org/1999/xlink" width="113" height="113" viewBox="0 0 113 113">
  <defs>
    <filter id="Trazado_982547" x="0" y="0" width="113" height="113" filterUnits="userSpaceOnUse">
      <feOffset dy="3" input="SourceAlpha"/>
      <feGaussianBlur stdDeviation="3" result="blur"/>
      <feFlood flood-opacity="0.161"/>
      <feComposite operator="in" in2="blur"/>
      <feComposite in="SourceGraphic"/>
    </filter>
  </defs>
  <g id="Grupo_1174848" data-name="Grupo 1174848" transform="translate(9 6)">
    <g id="Grupo_1167343" data-name="Grupo 1167343" transform="translate(0)">
      <g id="Grupo_1166777" data-name="Grupo 1166777" transform="translate(0)">
        <g id="Grupo_1164305" data-name="Grupo 1164305">
          <g id="Grupo_1163948" data-name="Grupo 1163948">
            <g id="Grupo_1158168" data-name="Grupo 1158168">
              <g id="Grupo_1152576" data-name="Grupo 1152576">
                <g id="Grupo_1148633" data-name="Grupo 1148633">
                  <g id="Grupo_1148525" data-name="Grupo 1148525">
                    <g transform="matrix(1, 0, 0, 1, -9, -6)" filter="url(#Trazado_982547)">
                      <g id="Trazado_982547-2" data-name="Trazado 982547" transform="translate(9 6)" fill="#f2f7e5">
                        <path d="M 47.5 93.5 C 41.28937149047852 93.5 35.26533508300781 92.28397369384766 29.59518623352051 89.88570404052734 C 24.11771965026855 87.56893157958984 19.19813346862793 84.25196075439453 14.97309303283691 80.02691650390625 C 10.74804019927979 75.80186462402344 7.431066513061523 70.88229370117188 5.114293098449707 65.40481567382812 C 2.716026782989502 59.73468017578125 1.5 53.71062850952148 1.5 47.5 C 1.5 41.28937149047852 2.716026782989502 35.26533508300781 5.114293098449707 29.59518623352051 C 7.431066513061523 24.11771965026855 10.74804019927979 19.19813346862793 14.97309303283691 14.97309303283691 C 19.19813346862793 10.74804019927979 24.11771965026855 7.431066513061523 29.59518623352051 5.114293098449707 C 35.26533508300781 2.716026782989502 41.28937149047852 1.5 47.5 1.5 C 53.71062850952148 1.5 59.73468017578125 2.716026782989502 65.40481567382812 5.114293098449707 C 70.88229370117188 7.431066513061523 75.80186462402344 10.74804019927979 80.02691650390625 14.97309303283691 C 84.25196075439453 19.19813346862793 87.56893157958984 24.11771965026855 89.88570404052734 29.59518623352051 C 92.28397369384766 35.26533508300781 93.5 41.28937149047852 93.5 47.5 C 93.5 53.71062850952148 92.28397369384766 59.73468017578125 89.88570404052734 65.40481567382812 C 87.56893157958984 70.88229370117188 84.25196075439453 75.80186462402344 80.02691650390625 80.02691650390625 C 75.80186462402344 84.25196075439453 70.88229370117188 87.56893157958984 65.40481567382812 89.88570404052734 C 59.73468017578125 92.28397369384766 53.71062850952148 93.5 47.5 93.5 Z" stroke="none"/>
                        <path d="M 47.5 3 C 41.49121475219727 3 35.66376876831055 4.176155090332031 30.17950439453125 6.495796203613281 C 24.88084411621094 8.736953735351562 20.12152099609375 11.94598388671875 16.03375244140625 16.03375244140625 C 11.94598388671875 20.12152099609375 8.736953735351562 24.88084411621094 6.495796203613281 30.17950439453125 C 4.176155090332031 35.66376876831055 3 41.49121475219727 3 47.5 C 3 53.50878524780273 4.176155090332031 59.33624649047852 6.495796203613281 64.82049560546875 C 8.736953735351562 70.11917114257812 11.94598388671875 74.87849426269531 16.03375244140625 78.96626281738281 C 20.12152099609375 83.05403137207031 24.88084411621094 86.2630615234375 30.17950439453125 88.50419616699219 C 35.66376876831055 90.82384490966797 41.49121475219727 92 47.5 92 C 53.50878524780273 92 59.33624649047852 90.82384490966797 64.82049560546875 88.50419616699219 C 70.11917114257812 86.2630615234375 74.87849426269531 83.05403137207031 78.96626281738281 78.96626281738281 C 83.05403137207031 74.87849426269531 86.2630615234375 70.11917114257812 88.50419616699219 64.82049560546875 C 90.82384490966797 59.33624649047852 92 53.50878524780273 92 47.5 C 92 41.49121475219727 90.82384490966797 35.66376876831055 88.50419616699219 30.17950439453125 C 86.2630615234375 24.88084411621094 83.05403137207031 20.12152099609375 78.96626281738281 16.03375244140625 C 74.87849426269531 11.94598388671875 70.11917114257812 8.736953735351562 64.82049560546875 6.495796203613281 C 59.33624649047852 4.176155090332031 53.50878524780273 3 47.5 3 M 47.5 0 C 73.73353576660156 0 95 21.2664794921875 95 47.5 C 95 73.73353576660156 73.73353576660156 95 47.5 95 C 21.2664794921875 95 0 73.73353576660156 0 47.5 C 0 21.2664794921875 21.2664794921875 0 47.5 0 Z" stroke="none" fill="#86b60c"/>
                      </g>
                    </g>
                  </g>
                </g>
              </g>
            </g>
          </g>
        </g>
      </g>
    </g>
    <g id="dollar_7655758" transform="translate(14.505 14.5)">
      <g id="Grupo_1175009" data-name="Grupo 1175009">
        <g id="Grupo_1174968" data-name="Grupo 1174968">
          <path id="Trazado_1035533" data-name="Trazado 1035533" d="M61.56,6.5h-9c-1.66,0-4,1.34-4,3s2.34,3,4,3h1.76L43.1,23.72l-5.3-5.3a3,3,0,0,0-4.24,0l-8.2,8.2-4.28-4.27a3,3,0,0,0-4.24,0L5.13,34.06a3,3,0,0,0,2.12,5.12,2.958,2.958,0,0,0,2.12-.88l9.59-9.59,4.28,4.27a3,3,0,0,0,4.24,0l8.2-8.2,5.3,5.3a3,3,0,0,0,4.24,0L58.56,16.74V19.5a3,3,0,0,0,6,0V9.5a3,3,0,0,0-3-3Z" fill="#7cb5e8"/>
        </g>
        <g id="Grupo_1174969" data-name="Grupo 1174969" opacity="0.3">
          <path id="Trazado_1035534" data-name="Trazado 1035534" d="M45.22,30.09,58.56,16.75v2.76a3,3,0,1,0,6,0v-10a3.02,3.02,0,0,0-.62-1.81L41.29,30.34A2.991,2.991,0,0,0,45.22,30.09Z" fill="#e2e2e2"/>
        </g>
        <g id="Grupo_1174970" data-name="Grupo 1174970">
          <path id="Trazado_1035535" data-name="Trazado 1035535" d="M18.22,45.74a19.654,19.654,0,0,1,.29-3.33H15.02a1.05,1.05,0,0,0-1.05,1.05v3.6a1.05,1.05,0,0,0,1.05,1.05h3.36a17.779,17.779,0,0,1-.16-2.37Z" fill="#ffab03"/>
        </g>
        <g id="Grupo_1174971" data-name="Grupo 1174971">
          <path id="Trazado_1035536" data-name="Trazado 1035536" d="M15.02,53.81h5.26c2.52,3.95,7.06,5.69,12.27,5.69H15.02a1.05,1.05,0,0,1-1.05-1.05v-3.6a1.041,1.041,0,0,1,1.05-1.04Z" fill="#ffab03"/>
        </g>
        <g id="Grupo_1174972" data-name="Grupo 1174972">
          <path id="Trazado_1035537" data-name="Trazado 1035537" d="M15.02,48.11h3.33a13.309,13.309,0,0,0,1.93,5.69H15.02a1.05,1.05,0,0,1-1.05-1.05v-3.6A1.048,1.048,0,0,1,15.02,48.11Z" fill="#ffab03"/>
        </g>
        <g id="Grupo_1174973" data-name="Grupo 1174973" opacity="0.3">
          <path id="Trazado_1035538" data-name="Trazado 1035538" d="M24.51,53.81H17.13v1.63a1.007,1.007,0,0,0,1.01,1.01h7.38V54.82A1.007,1.007,0,0,0,24.51,53.81Z" fill="#fff"/>
        </g>
        <g id="Grupo_1174974" data-name="Grupo 1174974" opacity="0.3">
          <path id="Trazado_1035539" data-name="Trazado 1035539" d="M24.51,48.1H17.13v1.63a1.007,1.007,0,0,0,1.01,1.01h7.38V49.11A1.007,1.007,0,0,0,24.51,48.1Z" fill="#fff"/>
        </g>
        <g id="Grupo_1174975" data-name="Grupo 1174975" opacity="0.3">
          <path id="Trazado_1035540" data-name="Trazado 1035540" d="M24.51,42.4H17.13v1.63a1.007,1.007,0,0,0,1.01,1.01h7.38V43.41A1.007,1.007,0,0,0,24.51,42.4Z" fill="#fff"/>
        </g>
        <g id="Grupo_1174976" data-name="Grupo 1174976">
          <path id="Trazado_1035541" data-name="Trazado 1035541" d="M50.11,53.81H44.85c-2.52,3.95-7.06,5.69-12.27,5.69H50.11a1.05,1.05,0,0,0,1.05-1.05v-3.6A1.054,1.054,0,0,0,50.11,53.81Z" fill="#ffab03"/>
        </g>
        <g id="Grupo_1174977" data-name="Grupo 1174977">
          <path id="Trazado_1035542" data-name="Trazado 1035542" d="M50.11,48.11H46.78a13.309,13.309,0,0,1-1.93,5.69h5.26a1.05,1.05,0,0,0,1.05-1.05v-3.6A1.061,1.061,0,0,0,50.11,48.11Z" fill="#ffab03"/>
        </g>
        <g id="Grupo_1174978" data-name="Grupo 1174978" opacity="0.3">
          <path id="Trazado_1035543" data-name="Trazado 1035543" d="M50.11,53.81H42.73v1.63a1.007,1.007,0,0,0,1.01,1.01h7.38V54.82A1,1,0,0,0,50.11,53.81Z" fill="#fff"/>
        </g>
        <g id="Grupo_1174979" data-name="Grupo 1174979" opacity="0.3">
          <path id="Trazado_1035544" data-name="Trazado 1035544" d="M50.11,48.1H42.73v1.63a1.007,1.007,0,0,0,1.01,1.01h7.38V49.11A1,1,0,0,0,50.11,48.1Z" fill="#fff"/>
        </g>
        <g id="Grupo_1174980" data-name="Grupo 1174980">
          <path id="Trazado_1035545" data-name="Trazado 1035545" d="M62.64,53.81H52.2a1.05,1.05,0,0,0-1.05,1.05v3.6a1.05,1.05,0,0,0,1.05,1.05H62.64a1.05,1.05,0,0,0,1.05-1.05v-3.6A1.044,1.044,0,0,0,62.64,53.81Z" fill="#ffab03"/>
        </g>
        <g id="Grupo_1174981" data-name="Grupo 1174981">
          <path id="Trazado_1035546" data-name="Trazado 1035546" d="M62.64,48.11H52.2a1.05,1.05,0,0,0-1.05,1.05v3.6a1.05,1.05,0,0,0,1.05,1.05H62.64a1.05,1.05,0,0,0,1.05-1.05v-3.6A1.05,1.05,0,0,0,62.64,48.11Z" fill="#ffab03"/>
        </g>
        <g id="Grupo_1174982" data-name="Grupo 1174982">
          <path id="Trazado_1035547" data-name="Trazado 1035547" d="M62.64,42.42H52.2a1.05,1.05,0,0,0-1.05,1.05v3.6a1.05,1.05,0,0,0,1.05,1.05H62.64a1.05,1.05,0,0,0,1.05-1.05v-3.6A1.05,1.05,0,0,0,62.64,42.42Z" fill="#ffab03"/>
        </g>
        <g id="Grupo_1174983" data-name="Grupo 1174983">
          <path id="Trazado_1035548" data-name="Trazado 1035548" d="M35.54,27.76H29.61l-3.96-8.65a1.82,1.82,0,0,1,1.72-2.42H37.78a1.825,1.825,0,0,1,1.72,2.42Z" fill="#ef4a51"/>
        </g>
        <g id="Grupo_1174984" data-name="Grupo 1174984">
          <path id="Trazado_1035549" data-name="Trazado 1035549" d="M40.55,20H39.09l-3.55,7.76H29.61L26.06,20H24.6a1.813,1.813,0,0,0-1.61,2.66l3.13,5.11H39.03l3.13-5.11A1.813,1.813,0,0,0,40.55,20Z" fill="#e2e2e2"/>
        </g>
        <g id="Grupo_1174985" data-name="Grupo 1174985">
          <path id="Trazado_1035550" data-name="Trazado 1035550" d="M41.2,27.76H23.95a2.22,2.22,0,0,0,0,4.44H41.2a2.22,2.22,0,1,0,0-4.44Z" fill="#e2e2e2"/>
        </g>
        <g id="Grupo_1174986" data-name="Grupo 1174986" opacity="0.5">
          <path id="Trazado_1035551" data-name="Trazado 1035551" d="M41.2,27.76H27.54a2.26,2.26,0,0,0-.11.64,2.215,2.215,0,0,0,2.22,2.22H43.31a2.26,2.26,0,0,0,.11-.64,2.221,2.221,0,0,0-2.22-2.22Z" fill="#fff"/>
        </g>
        <g id="Grupo_1174987" data-name="Grupo 1174987">
          <path id="Trazado_1035552" data-name="Trazado 1035552" d="M41.77,32.12a2.121,2.121,0,0,1-.57.08H23.95a2.121,2.121,0,0,1-.57-.08c-3.15,4.31-5.15,8.17-5.15,13.62,0,9.75,6.43,13.76,14.35,13.76s14.35-4.01,14.35-13.76C46.93,40.3,44.92,36.44,41.77,32.12Z" fill="#ef4a51"/>
        </g>
        <g id="Grupo_1174988" data-name="Grupo 1174988">
          <path id="Trazado_1035553" data-name="Trazado 1035553" d="M12.92,53.81H2.48a1.05,1.05,0,0,0-1.05,1.05v3.6a1.05,1.05,0,0,0,1.05,1.05H12.92a1.05,1.05,0,0,0,1.05-1.05v-3.6A1.044,1.044,0,0,0,12.92,53.81Z" fill="#ffab03"/>
        </g>
        <g id="Grupo_1174989" data-name="Grupo 1174989">
          <path id="Trazado_1035554" data-name="Trazado 1035554" d="M12.92,48.11H2.48a1.05,1.05,0,0,0-1.05,1.05v3.6a1.05,1.05,0,0,0,1.05,1.05H12.92a1.05,1.05,0,0,0,1.05-1.05v-3.6A1.05,1.05,0,0,0,12.92,48.11Z" fill="#ffab03"/>
        </g>
        <g id="Grupo_1174990" data-name="Grupo 1174990" opacity="0.3">
          <path id="Trazado_1035555" data-name="Trazado 1035555" d="M62.68,53.81H55.3v1.63a1.007,1.007,0,0,0,1.01,1.01h7.38V54.82A1.014,1.014,0,0,0,62.68,53.81Z" fill="#fff"/>
        </g>
        <g id="Grupo_1174991" data-name="Grupo 1174991" opacity="0.3">
          <path id="Trazado_1035556" data-name="Trazado 1035556" d="M62.68,48.1H55.3v1.63a1.007,1.007,0,0,0,1.01,1.01h7.38V49.11A1.014,1.014,0,0,0,62.68,48.1Z" fill="#fff"/>
        </g>
        <g id="Grupo_1174992" data-name="Grupo 1174992" opacity="0.3">
          <path id="Trazado_1035557" data-name="Trazado 1035557" d="M62.68,42.4H55.3v1.63a1.007,1.007,0,0,0,1.01,1.01h7.38V43.41A1.014,1.014,0,0,0,62.68,42.4Z" fill="#fff"/>
        </g>
        <g id="Grupo_1174993" data-name="Grupo 1174993" opacity="0.3">
          <path id="Trazado_1035558" data-name="Trazado 1035558" d="M12.96,53.81H5.58v1.63a1.007,1.007,0,0,0,1.01,1.01h7.38V54.82A1.007,1.007,0,0,0,12.96,53.81Z" fill="#fff"/>
        </g>
        <g id="Grupo_1174994" data-name="Grupo 1174994" opacity="0.3">
          <path id="Trazado_1035559" data-name="Trazado 1035559" d="M12.96,48.1H5.58v1.63a1.007,1.007,0,0,0,1.01,1.01h7.38V49.11A1.007,1.007,0,0,0,12.96,48.1Z" fill="#fff"/>
        </g>
        <g id="Grupo_1174995" data-name="Grupo 1174995" opacity="0.3">
          <path id="Trazado_1035560" data-name="Trazado 1035560" d="M41.2,32.21H23.95a2.121,2.121,0,0,1-.57-.08c-.67.92-1.28,1.82-1.84,2.72A19.818,19.818,0,0,0,46.02,51.42a16.493,16.493,0,0,0,.92-5.68c0-5.45-2-9.31-5.15-13.62a2.411,2.411,0,0,1-.59.09Z" fill="#e2e2e2"/>
        </g>
        <g id="Grupo_1174999" data-name="Grupo 1174999">
          <g id="Grupo_1174996" data-name="Grupo 1174996">
            <circle id="Elipse_12292" data-name="Elipse 12292" cx="7.78" cy="7.78" r="7.78" transform="translate(24.79 38.15)" fill="#ffab03"/>
          </g>
          <g id="Grupo_1174997" data-name="Grupo 1174997" opacity="0.3">
            <path id="Trazado_1035561" data-name="Trazado 1035561" d="M32.57,38.15a7.705,7.705,0,0,0-4.58,1.5A7.532,7.532,0,0,0,27.87,41a7.771,7.771,0,0,0,12.36,6.28,7.532,7.532,0,0,0,.12-1.35,7.776,7.776,0,0,0-7.78-7.78Z" fill="#fff"/>
          </g>
          <g id="Grupo_1174998" data-name="Grupo 1174998" opacity="0.3">
            <path id="Trazado_1035562" data-name="Trazado 1035562" d="M39.99,43.57a7.785,7.785,0,0,0-7.41-5.42h-.03a1.5,1.5,0,0,0-.05,3h.05a4.8,4.8,0,0,1,4.58,3.42,1.39,1.39,0,0,0,.73.8,1.509,1.509,0,0,0,2.13-1.8Z" fill="#fff"/>
          </g>
        </g>
        <g id="Grupo_1175000" data-name="Grupo 1175000" opacity="0.3">
          <path id="Trazado_1035563" data-name="Trazado 1035563" d="M43.63,34.85a1.6,1.6,0,0,0-2.96.97,1.535,1.535,0,0,0,.21.6,16.638,16.638,0,0,1,2.86,9.32,2.6,2.6,0,0,0,.03.4c.25,1.89,3.16,1.63,3.17-.28v-.12a19.66,19.66,0,0,0-3.31-10.89Z" fill="#e2e2e2"/>
        </g>
        <g id="Grupo_1175001" data-name="Grupo 1175001" opacity="0.3">
          <path id="Trazado_1035564" data-name="Trazado 1035564" d="M37.78,16.7H29.35a7.038,7.038,0,0,0,6.71,9.23,3.028,3.028,0,0,0,.31-.02l3.11-6.81A1.792,1.792,0,0,0,37.78,16.7Z" fill="#e2e2e2"/>
        </g>
        <g id="Grupo_1175002" data-name="Grupo 1175002" opacity="0.3">
          <path id="Trazado_1035565" data-name="Trazado 1035565" d="M37.78,16.7H35.3a1.517,1.517,0,0,0-.7,2.87,1.621,1.621,0,0,0,.6.13h.72l-.17.37c-.01.02-.01.03-.02.05-.78,1.77,1.97,2.91,2.77,1.15.51-1.12.99-2.15.99-2.15a1.812,1.812,0,0,0-1.71-2.42Z" fill="#e2e2e2"/>
        </g>
        <g id="Grupo_1175005" data-name="Grupo 1175005">
          <g id="Grupo_1175003" data-name="Grupo 1175003">
            <path id="Trazado_1035566" data-name="Trazado 1035566" d="M11.6,36.5,6.58,31.49,1.56,36.5h2.8v7.78H8.8V36.5Z" fill="#8aba55"/>
          </g>
          <g id="Grupo_1175004" data-name="Grupo 1175004" opacity="0.3">
            <path id="Trazado_1035567" data-name="Trazado 1035567" d="M6.58,31.49l-.83.83A5.992,5.992,0,0,0,8.8,39.14V36.5h2.8Z" fill="#fff"/>
          </g>
        </g>
        <g id="Grupo_1175008" data-name="Grupo 1175008">
          <g id="Grupo_1175006" data-name="Grupo 1175006">
            <path id="Trazado_1035568" data-name="Trazado 1035568" d="M63.44,31.2l-5.02-5.02L53.4,31.2h2.8v7.77h4.44V31.2Z" fill="#4e6575"/>
          </g>
          <g id="Grupo_1175007" data-name="Grupo 1175007" opacity="0.3">
            <path id="Trazado_1035569" data-name="Trazado 1035569" d="M58.44,26.18l-.83.83a5.992,5.992,0,0,0,3.05,6.82V31.2h2.8Z" fill="#fff"/>
          </g>
        </g>
      </g>
      <g id="Grupo_1175033" data-name="Grupo 1175033">
        <g id="Grupo_1175010" data-name="Grupo 1175010">
          <path id="Trazado_1035570" data-name="Trazado 1035570" d="M62.64,60.2H52.2a1.805,1.805,0,0,1-1.8-1.8V54.8A1.805,1.805,0,0,1,52.2,53H62.64a1.805,1.805,0,0,1,1.8,1.8v3.6a1.805,1.805,0,0,1-1.8,1.8ZM52.2,54.5a.3.3,0,0,0-.3.3v3.6a.3.3,0,0,0,.3.3H62.64a.3.3,0,0,0,.3-.3V54.8a.3.3,0,0,0-.3-.3Z"/>
        </g>
        <g id="Grupo_1175011" data-name="Grupo 1175011">
          <path id="Trazado_1035571" data-name="Trazado 1035571" d="M62.64,54.5H52.2a1.805,1.805,0,0,1-1.8-1.8V49.1a1.805,1.805,0,0,1,1.8-1.8H62.64a1.805,1.805,0,0,1,1.8,1.8v3.6a1.8,1.8,0,0,1-1.8,1.8ZM52.2,48.81a.3.3,0,0,0-.3.3v3.6a.3.3,0,0,0,.3.3H62.64a.3.3,0,0,0,.3-.3v-3.6a.3.3,0,0,0-.3-.3Z"/>
        </g>
        <g id="Grupo_1175012" data-name="Grupo 1175012">
          <path id="Trazado_1035572" data-name="Trazado 1035572" d="M62.64,48.81H52.2a1.805,1.805,0,0,1-1.8-1.8v-3.6a1.805,1.805,0,0,1,1.8-1.8H62.64a1.805,1.805,0,0,1,1.8,1.8v3.6a1.805,1.805,0,0,1-1.8,1.8ZM52.2,43.11a.3.3,0,0,0-.3.3v3.6a.3.3,0,0,0,.3.3H62.64a.3.3,0,0,0,.3-.3v-3.6a.3.3,0,0,0-.3-.3Z"/>
        </g>
        <g id="Grupo_1175013" data-name="Grupo 1175013">
          <path id="Trazado_1035573" data-name="Trazado 1035573" d="M32.57,51.34a.755.755,0,0,1-.75-.75V49.38a.75.75,0,0,1,1.5,0v1.21A.743.743,0,0,1,32.57,51.34Z"/>
        </g>
        <g id="Grupo_1175014" data-name="Grupo 1175014">
          <path id="Trazado_1035574" data-name="Trazado 1035574" d="M8.8,44.97a.755.755,0,0,1-.75-.75V36.45a.755.755,0,0,1,.75-.75h.99L6.58,32.49,3.37,35.7h.99a.755.755,0,0,1,.75.75v7.77a.75.75,0,0,1-1.5,0V37.2H1.56a.741.741,0,0,1-.69-.46.757.757,0,0,1,.16-.82L6.05,30.9a.754.754,0,0,1,1.06,0l5.02,5.02a.751.751,0,0,1-.53,1.28H9.55v7.02a.749.749,0,0,1-.75.75Z"/>
        </g>
        <g id="Grupo_1175015" data-name="Grupo 1175015">
          <path id="Trazado_1035575" data-name="Trazado 1035575" d="M60.64,39.67a.755.755,0,0,1-.75-.75V31.15a.755.755,0,0,1,.75-.75h.99l-3.21-3.21L55.21,30.4h.99a.755.755,0,0,1,.75.75v7.77a.75.75,0,0,1-1.5,0V31.9H53.4a.741.741,0,0,1-.69-.46.757.757,0,0,1,.16-.82l5.02-5.02a.754.754,0,0,1,1.06,0l5.02,5.02a.751.751,0,0,1-.53,1.28H61.39v7.02a.749.749,0,0,1-.75.75Z"/>
        </g>
        <g id="Grupo_1175016" data-name="Grupo 1175016">
          <path id="Trazado_1035576" data-name="Trazado 1035576" d="M32.57,50.13a2.5,2.5,0,0,1-2.5-2.5.75.75,0,0,1,1.5,0,1,1,0,1,0,1-1,2.5,2.5,0,1,1,2.5-2.5.75.75,0,1,1-1.5,0,1,1,0,1,0-1,1,2.5,2.5,0,0,1,0,5Z"/>
        </g>
        <g id="Grupo_1175017" data-name="Grupo 1175017">
          <path id="Trazado_1035577" data-name="Trazado 1035577" d="M32.57,43.11a.755.755,0,0,1-.75-.75V41.15a.75.75,0,1,1,1.5,0v1.21A.743.743,0,0,1,32.57,43.11Z"/>
        </g>
        <g id="Grupo_1175018" data-name="Grupo 1175018">
          <path id="Trazado_1035578" data-name="Trazado 1035578" d="M32.57,54.4a8.53,8.53,0,1,1,8.53-8.53A8.544,8.544,0,0,1,32.57,54.4Zm0-15.56a7.03,7.03,0,1,0,7.03,7.03A7.033,7.033,0,0,0,32.57,38.84Z"/>
        </g>
        <g id="Grupo_1175019" data-name="Grupo 1175019">
          <path id="Trazado_1035579" data-name="Trazado 1035579" d="M35.54,28.46H29.61a.745.745,0,0,1-.68-.44l-3.96-8.65a2.6,2.6,0,0,1,.3-2.4,2.556,2.556,0,0,1,2.09-1.08H37.77a2.556,2.556,0,0,1,2.09,1.08,2.582,2.582,0,0,1,.33,2.33l-3.98,8.71a.73.73,0,0,1-.67.45Zm-5.45-1.5h4.97l3.75-8.21a1.059,1.059,0,0,0-.16-.91,1.041,1.041,0,0,0-.87-.45H27.37a1.041,1.041,0,0,0-.87.45,1.083,1.083,0,0,0-.14.97Z"/>
        </g>
        <g id="Grupo_1175020" data-name="Grupo 1175020">
          <path id="Trazado_1035580" data-name="Trazado 1035580" d="M41.2,32.9H23.95a2.97,2.97,0,0,1,0-5.94H41.2a2.97,2.97,0,1,1,0,5.94ZM23.95,28.46a1.47,1.47,0,0,0,0,2.94H41.2a1.47,1.47,0,1,0,0-2.94Z"/>
        </g>
        <g id="Grupo_1175021" data-name="Grupo 1175021">
          <path id="Trazado_1035581" data-name="Trazado 1035581" d="M12.92,60.2H2.48a1.805,1.805,0,0,1-1.8-1.8V54.8A1.805,1.805,0,0,1,2.48,53H12.92a1.805,1.805,0,0,1,1.8,1.8v3.6A1.8,1.8,0,0,1,12.92,60.2ZM2.48,54.5a.3.3,0,0,0-.3.3v3.6a.3.3,0,0,0,.3.3H12.92a.3.3,0,0,0,.3-.3V54.8a.3.3,0,0,0-.3-.3Z"/>
        </g>
        <g id="Grupo_1175022" data-name="Grupo 1175022">
          <path id="Trazado_1035582" data-name="Trazado 1035582" d="M12.92,54.5H2.48a1.805,1.805,0,0,1-1.8-1.8V49.1a1.805,1.805,0,0,1,1.8-1.8H12.92a1.805,1.805,0,0,1,1.8,1.8v3.6A1.793,1.793,0,0,1,12.92,54.5ZM2.48,48.81a.3.3,0,0,0-.3.3v3.6a.3.3,0,0,0,.3.3H12.92a.3.3,0,0,0,.3-.3v-3.6a.3.3,0,0,0-.3-.3Z"/>
        </g>
        <g id="Grupo_1175023" data-name="Grupo 1175023">
          <path id="Trazado_1035583" data-name="Trazado 1035583" d="M46.31,29.69a.742.742,0,0,1-.53-.22.754.754,0,0,1,0-1.06L58.03,16.16a.751.751,0,0,1,1.28.53v2.76a2.25,2.25,0,1,0,4.5,0v-10A2.253,2.253,0,0,0,61.56,7.2h-9c-1.36,0-3.25,1.13-3.25,2.25s1.89,2.25,3.25,2.25h1.76a.741.741,0,0,1,.69.46.757.757,0,0,1-.16.82l-8.96,8.96a.75.75,0,0,1-1.06-1.06l7.68-7.68c-1.89-.03-4.7-1.52-4.7-3.75,0-2.25,2.86-3.75,4.75-3.75h9a3.751,3.751,0,0,1,3.75,3.75v10a3.75,3.75,0,0,1-7.5,0V18.5L46.84,29.47a.749.749,0,0,1-.53.22Z"/>
        </g>
        <g id="Grupo_1175024" data-name="Grupo 1175024">
          <path id="Trazado_1035584" data-name="Trazado 1035584" d="M13.5,34.87a.742.742,0,0,1-.53-.22.754.754,0,0,1,0-1.06l5.37-5.37a.75.75,0,0,1,1.06,1.06l-5.37,5.37A.767.767,0,0,1,13.5,34.87Z"/>
        </g>
        <g id="Grupo_1175025" data-name="Grupo 1175025">
          <path id="Trazado_1035585" data-name="Trazado 1035585" d="M9.26,30.62a.742.742,0,0,1-.53-.22.754.754,0,0,1,0-1.06l7.58-7.58a3.749,3.749,0,0,1,3.68-.94.753.753,0,1,1-.41,1.45,2.244,2.244,0,0,0-2.21.56L9.79,30.4a.742.742,0,0,1-.53.22Z"/>
        </g>
        <g id="Grupo_1175026" data-name="Grupo 1175026">
          <path id="Trazado_1035586" data-name="Trazado 1035586" d="M16.91,54.5H15.02a1.805,1.805,0,0,1-1.8-1.8V49.1a1.805,1.805,0,0,1,1.8-1.8h.34a.75.75,0,1,1,0,1.5h-.34a.3.3,0,0,0-.3.3v3.6a.3.3,0,0,0,.3.3h1.89a.75.75,0,0,1,0,1.5Z"/>
        </g>
        <g id="Grupo_1175027" data-name="Grupo 1175027">
          <path id="Trazado_1035587" data-name="Trazado 1035587" d="M50.11,54.5H48.24a.75.75,0,0,1,0-1.5h1.87a.3.3,0,0,0,.3-.3V49.1a.3.3,0,0,0-.3-.3h-.32a.75.75,0,0,1,0-1.5h.32a1.805,1.805,0,0,1,1.8,1.8v3.6A1.805,1.805,0,0,1,50.11,54.5Z"/>
        </g>
        <g id="Grupo_1175028" data-name="Grupo 1175028">
          <path id="Trazado_1035588" data-name="Trazado 1035588" d="M21.87,60.3H15.12a1.805,1.805,0,0,1-1.8-1.8V54.9a1.805,1.805,0,0,1,1.8-1.8h1.89a.75.75,0,0,1,0,1.5H15.12a.3.3,0,0,0-.3.3v3.6a.3.3,0,0,0,.3.3h6.75a.75.75,0,0,1,0,1.5Z"/>
        </g>
        <g id="Grupo_1175029" data-name="Grupo 1175029">
          <path id="Trazado_1035589" data-name="Trazado 1035589" d="M50.11,60.2H43.39a.75.75,0,0,1,0-1.5h6.72a.3.3,0,0,0,.3-.3V54.8a.3.3,0,0,0-.3-.3H48.24a.75.75,0,0,1,0-1.5h1.87a1.805,1.805,0,0,1,1.8,1.8v3.6A1.812,1.812,0,0,1,50.11,60.2Z"/>
        </g>
        <g id="Grupo_1175030" data-name="Grupo 1175030">
          <path id="Trazado_1035590" data-name="Trazado 1035590" d="M15.36,48.81h-.34a1.805,1.805,0,0,1-1.8-1.8v-3.6a1.805,1.805,0,0,1,1.8-1.8h.46a.75.75,0,1,1,0,1.5h-.46a.3.3,0,0,0-.3.3v3.6a.3.3,0,0,0,.3.3h.34a.75.75,0,1,1,0,1.5Z"/>
        </g>
        <g id="Grupo_1175031" data-name="Grupo 1175031">
          <path id="Trazado_1035591" data-name="Trazado 1035591" d="M32.57,60.2c-9.46,0-15.1-5.42-15.1-14.51A20.276,20.276,0,0,1,21.02,34.2a.746.746,0,0,1,1.26.8,18.872,18.872,0,0,0-3.32,10.69c0,8.27,4.96,13.01,13.6,13.01s13.6-4.74,13.6-13.01A18.872,18.872,0,0,0,42.84,35a.746.746,0,1,1,1.26-.8,20.276,20.276,0,0,1,3.55,11.49c.03,9.08-5.62,14.51-15.08,14.51Z"/>
        </g>
        <g id="Grupo_1175032" data-name="Grupo 1175032">
          <path id="Trazado_1035592" data-name="Trazado 1035592" d="M39.03,28.46H26.12a.764.764,0,0,1-.64-.36l-3.13-5.11a2.588,2.588,0,0,1,.15-2.71.748.748,0,1,1,1.23.85,1.058,1.058,0,0,0-.07,1.11l2.89,4.7H38.62l2.91-4.75a1,1,0,0,0-.1-1.06.746.746,0,0,1,1.22-.86,2.548,2.548,0,0,1,.17,2.67l-3.16,5.15a.723.723,0,0,1-.63.37Z"/>
        </g>
      </g>
    </g>
  </g>
</svg>
