<svg xmlns="http://www.w3.org/2000/svg" xmlns:xlink="http://www.w3.org/1999/xlink" width="110" height="110" viewBox="0 0 110 110">
  <defs>
    <filter id="Trazado_982547" x="0" y="0" width="110" height="110" filterUnits="userSpaceOnUse">
      <feOffset dy="3" input="SourceAlpha"/>
      <feGaussianBlur stdDeviation="3" result="blur"/>
      <feFlood flood-opacity="0.161"/>
      <feComposite operator="in" in2="blur"/>
      <feComposite in="SourceGraphic"/>
    </filter>
  </defs>
  <g id="Grupo_1174911" data-name="Grupo 1174911" transform="translate(-797 -1621.662)">
    <g id="Grupo_1174829" data-name="Grupo 1174829" transform="translate(0 431)">
      <g id="Grupo_1171898" data-name="Grupo 1171898" transform="translate(-315 -769.338)">
        <g id="Grupo_1164700" data-name="Grupo 1164700" transform="translate(1121 1966)">
          <g id="Grupo_1160931" data-name="Grupo 1160931" transform="translate(0)">
            <g id="Grupo_1160749" data-name="Grupo 1160749" transform="translate(0)">
              <g id="Grupo_1158891" data-name="Grupo 1158891" transform="translate(0 0)">
                <g id="Grupo_1157406" data-name="Grupo 1157406" transform="translate(0)">
                  <g id="Grupo_1155793" data-name="Grupo 1155793" transform="translate(0)">
                    <g id="Grupo_1154704" data-name="Grupo 1154704" transform="translate(0)">
                      <g id="Grupo_1150790" data-name="Grupo 1150790" transform="translate(0)">
                        <g id="Grupo_1154214" data-name="Grupo 1154214" transform="translate(0)">
                          <g id="Grupo_1152583" data-name="Grupo 1152583" transform="translate(0 0)">
                            <g id="Grupo_1146973" data-name="Grupo 1146973" transform="translate(0 0)">
                              <g id="Grupo_1146954" data-name="Grupo 1146954">
                                <g transform="matrix(1, 0, 0, 1, -9, -6)" filter="url(#Trazado_982547)">
                                  <g id="Trazado_982547-2" data-name="Trazado 982547" transform="translate(9 6)" fill="#e9f9fd">
                                    <path d="M 46.00000381469727 90.49988555908203 C 39.99188232421875 90.49988555908203 34.16427230834961 89.32352447509766 28.67905807495117 87.00347137451172 C 23.38020324707031 84.76226043701172 18.62104415893555 81.55342864990234 14.53375053405762 77.46615600585938 C 10.44647026062012 73.37887573242188 7.237643718719482 68.61971282958984 4.996417045593262 63.32085800170898 C 2.676363706588745 57.83565902709961 1.500003814697266 52.00806045532227 1.500003814697266 45.99993896484375 C 1.500003814697266 39.99181747436523 2.676363706588745 34.16421890258789 4.996417045593262 28.67901802062988 C 7.237643718719482 23.38017845153809 10.44647026062012 18.62101936340332 14.53375053405762 14.53373908996582 C 18.62104415893555 10.44645881652832 23.38020324707031 7.237632274627686 28.67905807495117 4.996418952941895 C 34.16427230834961 2.676365613937378 39.99188232421875 1.500005602836609 46.00000381469727 1.500005602836609 C 52.00812530517578 1.500005602836609 57.83573532104492 2.676365613937378 63.32094955444336 4.996418952941895 C 68.61980438232422 7.237632274627686 73.37897491455078 10.44645881652832 77.46625518798828 14.53373908996582 C 81.55355072021484 18.62101936340332 84.76236724853516 23.38017845153809 87.00359344482422 28.67901802062988 C 89.32364654541016 34.16421890258789 90.5 39.99181747436523 90.5 45.99993896484375 C 90.5 52.00806045532227 89.32364654541016 57.83565902709961 87.00359344482422 63.32085800170898 C 84.76236724853516 68.61971282958984 81.55355072021484 73.37887573242188 77.46625518798828 77.46615600585938 C 73.37897491455078 81.55342864990234 68.61980438232422 84.76226043701172 63.32094955444336 87.00347137451172 C 57.83573532104492 89.32352447509766 52.00812530517578 90.49988555908203 46.00000381469727 90.49988555908203 Z" stroke="none"/>
                                    <path d="M 46.00000381469727 2.999992370605469 C 40.19371795654297 2.999992370605469 34.56270217895508 4.136497497558594 29.26338958740234 6.377906799316406 C 24.14333343505859 8.543510437011719 19.54441833496094 11.64437866210938 15.59440612792969 15.59439849853516 C 11.64440155029297 19.54439544677734 8.54351806640625 24.14329528808594 6.377914428710938 29.26335144042969 C 4.136505126953125 34.56266784667969 3.000007629394531 40.19366836547852 3.000007629394531 45.99993896484375 C 3.000007629394531 51.80620956420898 4.136505126953125 57.43722534179688 6.377914428710938 62.73654174804688 C 8.54351806640625 67.85658264160156 11.64440155029297 72.45548248291016 15.59440612792969 76.40549468994141 C 19.54441833496094 80.35549926757812 24.14333343505859 83.45636749267578 29.26337432861328 85.62196350097656 C 34.56270217895508 87.86338043212891 40.19371795654297 88.9998779296875 46.00000381469727 88.9998779296875 C 51.80628967285156 88.9998779296875 57.43730545043945 87.86338043212891 62.73663330078125 85.62196350097656 C 67.85667419433594 83.45636749267578 72.45558929443359 80.35549926757812 76.40560150146484 76.40549468994141 C 80.35560607910156 72.45548248291016 83.45648956298828 67.85658264160156 85.62208557128906 62.73654174804688 C 87.86350250244141 57.43722534179688 89 51.80620956420898 89 45.99993896484375 C 89 40.19366836547852 87.86350250244141 34.56266784667969 85.62208557128906 29.26335144042969 C 83.45648956298828 24.14329528808594 80.35560607910156 19.54439544677734 76.40560150146484 15.59439849853516 C 72.45558929443359 11.64437866210938 67.85667419433594 8.543510437011719 62.73661804199219 6.377906799316406 C 57.43730545043945 4.136497497558594 51.80628967285156 2.999992370605469 46.00000381469727 2.999992370605469 M 46.00000381469727 -7.62939453125e-06 C 71.40510559082031 -7.62939453125e-06 92 20.59487915039062 92 45.99993896484375 C 92 71.40501403808594 71.40510559082031 91.99988555908203 46.00000381469727 91.99988555908203 C 20.59490203857422 91.99988555908203 7.62939453125e-06 71.40501403808594 7.62939453125e-06 45.99993896484375 C 7.62939453125e-06 20.59487915039062 20.59490203857422 -7.62939453125e-06 46.00000381469727 -7.62939453125e-06 Z" stroke="none" fill="#36ceef"/>
                                  </g>
                                </g>
                              </g>
                            </g>
                          </g>
                        </g>
                      </g>
                    </g>
                  </g>
                </g>
              </g>
            </g>
          </g>
        </g>
      </g>
    </g>
    <g id="increase" transform="translate(816.059 1636.781)">
      <path id="Trazado_1035386" data-name="Trazado 1035386" d="M40.733,10.643,34.079,2.432a1.215,1.215,0,0,0-1.826,0L25.6,10.643a1.175,1.175,0,0,0,.913,1.915H29.38l-1.3,12.989a1.174,1.174,0,0,0,1.169,1.292,1.147,1.147,0,0,0,.207-.018,21.272,21.272,0,0,1,7.412,0,1.175,1.175,0,0,0,1.376-1.273L36.965,12.558h2.856a1.175,1.175,0,0,0,.913-1.915Z" transform="translate(2.775 0)" fill="#34d143"/>
      <path id="Trazado_1035387" data-name="Trazado 1035387" d="M56.591,19.705l-6.654-8.212a1.215,1.215,0,0,0-1.826,0l-6.655,8.212a1.175,1.175,0,0,0,.913,1.915h2.888l-.678,8.029a1.173,1.173,0,0,0,.181.732l6.189,9.663a1.176,1.176,0,0,0,.99.542h.279a2.011,2.011,0,0,0,1.53-.706,1.946,1.946,0,0,0,.466-1.526L52.8,21.621h2.874a1.175,1.175,0,0,0,.913-1.915Z" transform="translate(5.55 1.586)" fill="#34d143"/>
      <path id="Trazado_1035388" data-name="Trazado 1035388" d="M24.875,19.705l-6.655-8.212a1.215,1.215,0,0,0-1.826,0L9.741,19.705a1.175,1.175,0,0,0,.913,1.915h2.875l-1.4,16.649a2.008,2.008,0,0,0,1.986,2.316h.279a1.176,1.176,0,0,0,.99-.542l6.189-9.663a1.173,1.173,0,0,0,.181-.732l-.678-8.029h2.888a1.175,1.175,0,0,0,.913-1.915Z" transform="translate(0 1.586)" fill="#34d143"/>
      <path id="Trazado_1035389" data-name="Trazado 1035389" d="M58,44.468c0,.4-.012.787-.035,1.175a22.576,22.576,0,0,1-5.781,13.982c-.54.587-1.093,1.14-1.668,1.657a22.478,22.478,0,0,1-13.97,5.781c-.388.023-.775.035-1.175.035s-.787-.012-1.175-.035a22.358,22.358,0,0,1-11.421-3.8,23.166,23.166,0,0,1-2.55-1.986c-.576-.517-1.128-1.069-1.668-1.657a22.576,22.576,0,0,1-5.781-13.982c-.023-.388-.035-.775-.035-1.175s.012-.787.035-1.175a22.544,22.544,0,0,1,5.781-13.971c.54-.587,1.093-1.14,1.668-1.657A22.556,22.556,0,0,1,34.2,21.874c.388-.012.775-.023,1.175-.023s.787.012,1.175.023a22.687,22.687,0,0,1,9.611,2.7,22.343,22.343,0,0,1,4.359,3.09c.576.517,1.128,1.069,1.668,1.657a22.544,22.544,0,0,1,5.781,13.971c.023.388.035.775.035,1.175Z" transform="translate(0.571 3.47)" fill="#ffc239"/>
      <path id="Trazado_1035390" data-name="Trazado 1035390" d="M46.156,24.576A51.257,51.257,0,0,1,22.774,63.268a23.166,23.166,0,0,1-2.55-1.986c-.576-.517-1.128-1.069-1.668-1.657a22.576,22.576,0,0,1-5.781-13.982c-.023-.388-.035-.775-.035-1.175s.012-.787.035-1.175a22.544,22.544,0,0,1,5.781-13.97c.54-.587,1.093-1.14,1.668-1.657A22.556,22.556,0,0,1,34.2,21.874c.388-.012.775-.024,1.175-.024s.787.012,1.175.024a22.687,22.687,0,0,1,9.611,2.7Z" transform="translate(0.571 3.47)" fill="#ffe266"/>
      <g id="Grupo_1174910" data-name="Grupo 1174910" transform="translate(13.311 25.32)">
        <path id="Trazado_1035391" data-name="Trazado 1035391" d="M33.35,21.874v5.4a1.175,1.175,0,0,1-2.35,0v-5.4c.388-.012.775-.024,1.175-.024S32.962,21.862,33.35,21.874Z" transform="translate(-9.545 -21.85)" fill="#ffad1d"/>
        <path id="Trazado_1035392" data-name="Trazado 1035392" d="M23.177,32.275a1.166,1.166,0,0,1-.834.352,1.187,1.187,0,0,1-.834-.352L17.69,28.457c.54-.587,1.093-1.14,1.668-1.657l3.819,3.819a1.17,1.17,0,0,1,0,1.657Z" transform="translate(-11.874 -20.984)" fill="#ffad1d"/>
        <path id="Trazado_1035393" data-name="Trazado 1035393" d="M19.355,41.275A1.171,1.171,0,0,1,18.18,42.45h-5.4c-.024-.388-.035-.775-.035-1.175s.012-.787.035-1.175h5.4a1.178,1.178,0,0,1,1.175,1.175Z" transform="translate(-12.74 -18.657)" fill="#ffad1d"/>
        <path id="Trazado_1035394" data-name="Trazado 1035394" d="M23.177,52.458l-3.819,3.819c-.576-.517-1.128-1.069-1.668-1.657L21.509,50.8a1.176,1.176,0,1,1,1.669,1.657Z" transform="translate(-11.874 -16.845)" fill="#ffad1d"/>
        <path id="Trazado_1035395" data-name="Trazado 1035395" d="M33.35,55.915v5.393c-.388.023-.775.035-1.175.035s-.787-.012-1.175-.035V55.915a1.175,1.175,0,0,1,2.35,0Z" transform="translate(-9.545 -16.095)" fill="#ffad1d"/>
        <path id="Trazado_1035396" data-name="Trazado 1035396" d="M47.178,54.62c-.54.587-1.093,1.14-1.668,1.657l-3.819-3.819A1.176,1.176,0,1,1,43.359,50.8Z" transform="translate(-7.734 -16.845)" fill="#ffad1d"/>
        <path id="Trazado_1035397" data-name="Trazado 1035397" d="M52.245,41.275c0,.4-.012.787-.035,1.175H46.8a1.175,1.175,0,0,1,0-2.35h5.4C52.233,40.488,52.245,40.875,52.245,41.275Z" transform="translate(-6.985 -18.657)" fill="#ffad1d"/>
        <path id="Trazado_1035398" data-name="Trazado 1035398" d="M47.178,28.457l-3.819,3.819a1.176,1.176,0,0,1-1.668-1.657L45.509,26.8C46.085,27.317,46.637,27.869,47.178,28.457Z" transform="translate(-7.734 -20.984)" fill="#ffad1d"/>
        <path id="Trazado_1035399" data-name="Trazado 1035399" d="M53.1,43.835a18.352,18.352,0,1,1-8.178-15.286A18.352,18.352,0,0,1,53.1,43.835Z" transform="translate(-12.101 -21.217)" fill="#ffad1d"/>
      </g>
      <path id="Trazado_1035400" data-name="Trazado 1035400" d="M44.921,28.549a51.237,51.237,0,0,1-19.011,31.4,18.368,18.368,0,1,1,19.011-31.4Z" transform="translate(1.206 4.103)" fill="#ffc239"/>
      <path id="Trazado_1035401" data-name="Trazado 1035401" d="M32.849,52.852a5.707,5.707,0,0,1-5.7-5.7,1.175,1.175,0,0,1,2.35,0,3.35,3.35,0,1,0,6.7,0v-.9A2.448,2.448,0,0,0,33.754,43.8H31.944a4.8,4.8,0,0,1-4.8-4.8V38.1a5.7,5.7,0,1,1,11.4,0,1.175,1.175,0,1,1-2.35,0,3.35,3.35,0,1,0-6.7,0v.905a2.448,2.448,0,0,0,2.445,2.445h1.809a4.8,4.8,0,0,1,4.8,4.794v.9a5.707,5.707,0,0,1-5.7,5.7Z" transform="translate(3.092 5.317)" fill="#ffe266"/>
      <path id="Trazado_1035402" data-name="Trazado 1035402" d="M32.175,35.021A1.175,1.175,0,0,1,31,33.846V32.036a1.175,1.175,0,1,1,2.35,0v1.809A1.175,1.175,0,0,1,32.175,35.021Z" transform="translate(3.766 5.047)" fill="#ffe266"/>
      <path id="Trazado_1035403" data-name="Trazado 1035403" d="M32.175,51.966A1.175,1.175,0,0,1,31,50.791V48.982a1.175,1.175,0,0,1,2.35,0v1.809A1.175,1.175,0,0,1,32.175,51.966Z" transform="translate(3.766 8.012)" fill="#ffe266"/>
      <path id="Trazado_1035404" data-name="Trazado 1035404" d="M35.544,68.449a23.8,23.8,0,1,1,23.8-23.8,23.8,23.8,0,0,1-23.8,23.8Zm0-45.251a21.45,21.45,0,1,0,21.45,21.45A21.45,21.45,0,0,0,35.544,23.2Z" transform="translate(0.396 3.295)"/>
      <path id="Trazado_1035405" data-name="Trazado 1035405" d="M34.736,62.21a18.37,18.37,0,1,1,18.37-18.37,18.37,18.37,0,0,1-18.37,18.37Zm0-34.39a16.02,16.02,0,1,0,16.02,16.02A16.02,16.02,0,0,0,34.736,27.82Z" transform="translate(1.205 4.103)"/>
      <path id="Trazado_1035406" data-name="Trazado 1035406" d="M32.849,52.852a5.707,5.707,0,0,1-5.7-5.7,1.175,1.175,0,0,1,2.35,0,3.35,3.35,0,1,0,6.7,0v-.9A2.448,2.448,0,0,0,33.754,43.8H31.944a4.8,4.8,0,0,1-4.8-4.8V38.1a5.7,5.7,0,1,1,11.4,0,1.175,1.175,0,1,1-2.35,0,3.35,3.35,0,1,0-6.7,0v.905a2.448,2.448,0,0,0,2.445,2.445h1.809a4.8,4.8,0,0,1,4.8,4.794v.9a5.707,5.707,0,0,1-5.7,5.7Z" transform="translate(3.092 5.317)"/>
      <path id="Trazado_1035407" data-name="Trazado 1035407" d="M32.175,35.021A1.175,1.175,0,0,1,31,33.846V32.036a1.175,1.175,0,1,1,2.35,0v1.809A1.175,1.175,0,0,1,32.175,35.021Z" transform="translate(3.766 5.047)"/>
      <path id="Trazado_1035408" data-name="Trazado 1035408" d="M32.175,51.966A1.175,1.175,0,0,1,31,50.791V48.982a1.175,1.175,0,0,1,2.35,0v1.809A1.175,1.175,0,0,1,32.175,51.966Z" transform="translate(3.766 8.012)"/>
      <path id="Trazado_1035409" data-name="Trazado 1035409" d="M32.175,28.629A1.175,1.175,0,0,1,31,27.454v-5.43a1.175,1.175,0,0,1,2.35,0v5.43a1.175,1.175,0,0,1-1.175,1.175Z" transform="translate(3.766 3.295)"/>
      <path id="Trazado_1035410" data-name="Trazado 1035410" d="M22.4,32.678a1.171,1.171,0,0,1-.831-.344l-3.84-3.839a1.175,1.175,0,1,1,1.662-1.662l3.84,3.839a1.175,1.175,0,0,1-.831,2.006Z" transform="translate(1.383 4.282)"/>
      <path id="Trazado_1035411" data-name="Trazado 1035411" d="M18.349,42.454h-5.43a1.175,1.175,0,1,1,0-2.35h5.43a1.175,1.175,0,1,1,0,2.35Z" transform="translate(0.396 6.664)"/>
      <path id="Trazado_1035412" data-name="Trazado 1035412" d="M18.559,56.642a1.175,1.175,0,0,1-.831-2.006l3.84-3.839a1.175,1.175,0,1,1,1.662,1.662L19.389,56.3a1.171,1.171,0,0,1-.831.344Z" transform="translate(1.383 8.475)"/>
      <path id="Trazado_1035413" data-name="Trazado 1035413" d="M32.175,62.519A1.175,1.175,0,0,1,31,61.344v-5.43a1.175,1.175,0,1,1,2.35,0v5.43A1.175,1.175,0,0,1,32.175,62.519Z" transform="translate(3.766 9.225)"/>
      <path id="Trazado_1035414" data-name="Trazado 1035414" d="M46.363,56.642a1.171,1.171,0,0,1-.831-.344l-3.84-3.839A1.175,1.175,0,1,1,43.354,50.8l3.84,3.839a1.175,1.175,0,0,1-.831,2.006Z" transform="translate(5.577 8.475)"/>
      <path id="Trazado_1035415" data-name="Trazado 1035415" d="M52.24,42.454h-5.43a1.175,1.175,0,0,1,0-2.35h5.43a1.175,1.175,0,1,1,0,2.35Z" transform="translate(6.327 6.664)"/>
      <path id="Trazado_1035416" data-name="Trazado 1035416" d="M42.523,32.678a1.175,1.175,0,0,1-.831-2.006l3.84-3.839a1.175,1.175,0,1,1,1.662,1.662l-3.84,3.839a1.171,1.171,0,0,1-.831.344Z" transform="translate(5.577 4.282)"/>
      <path id="Trazado_1035417" data-name="Trazado 1035417" d="M29.253,26.839a1.174,1.174,0,0,1-1.169-1.292l1.3-12.989H26.511a1.175,1.175,0,0,1-.913-1.915l6.654-8.211a1.215,1.215,0,0,1,1.826,0l6.654,8.211a1.175,1.175,0,0,1-.913,1.915H36.965l1.283,12.99a1.175,1.175,0,0,1-1.376,1.273,21.272,21.272,0,0,0-7.412,0,1.147,1.147,0,0,1-.206.018Zm3.913-2.7a23.592,23.592,0,0,1,2.594.143L34.5,11.5a1.174,1.174,0,0,1,1.169-1.291h1.688l-4.19-5.17-4.19,5.17h1.7A1.176,1.176,0,0,1,31.847,11.5L30.571,24.287a23.587,23.587,0,0,1,2.595-.143Z" transform="translate(2.775)"/>
      <path id="Trazado_1035418" data-name="Trazado 1035418" d="M52.218,40.585h-.279a1.175,1.175,0,0,1-.089-2.347L50.355,20.544a1.175,1.175,0,0,1,1.171-1.274h1.688L49.024,14.1l-4.19,5.172h1.7a1.175,1.175,0,0,1,1.171,1.274l-.785,9.3a1.175,1.175,0,1,1-2.342-.2l.678-8.029H42.369a1.175,1.175,0,0,1-.913-1.915l6.655-8.212a1.215,1.215,0,0,1,1.826,0l6.654,8.212a1.175,1.175,0,0,1-.913,1.915H52.8l1.41,16.733a1.946,1.946,0,0,1-.466,1.526,2.011,2.011,0,0,1-1.53.706Zm-.339-2a.283.283,0,0,0,0,.049Z" transform="translate(5.55 1.586)"/>
      <path id="Trazado_1035419" data-name="Trazado 1035419" d="M14.394,40.585h-.279a2.008,2.008,0,0,1-1.986-2.316l1.4-16.649H10.654a1.175,1.175,0,0,1-.913-1.915L16.4,11.493a1.215,1.215,0,0,1,1.826,0l6.655,8.212a1.175,1.175,0,0,1-.913,1.915H21.075l.678,8.029a1.175,1.175,0,0,1-2.342.2l-.785-9.3A1.175,1.175,0,0,1,19.8,19.27h1.7L17.308,14.1l-4.19,5.172h1.688a1.175,1.175,0,0,1,1.171,1.274L14.486,38.239a1.175,1.175,0,0,1-.092,2.347Zm.067-2.042v.008Z" transform="translate(0 1.586)"/>
    </g>
  </g>
</svg>
