<svg xmlns="http://www.w3.org/2000/svg" xmlns:xlink="http://www.w3.org/1999/xlink" width="110" height="110" viewBox="0 0 110 110">
  <defs>
    <filter id="Trazado_982547" x="0" y="0" width="110" height="110" filterUnits="userSpaceOnUse">
      <feOffset dy="3" input="SourceAlpha"/>
      <feGaussianBlur stdDeviation="3" result="blur"/>
      <feFlood flood-opacity="0.161"/>
      <feComposite operator="in" in2="blur"/>
      <feComposite in="SourceGraphic"/>
    </filter>
  </defs>
  <g id="Grupo_1174914" data-name="Grupo 1174914" transform="translate(-1113 -1621.662)">
    <g id="Grupo_1174830" data-name="Grupo 1174830" transform="translate(0 431)">
      <g id="Grupo_1171901" data-name="Grupo 1171901" transform="translate(1 -769.338)">
        <g id="Grupo_1164700" data-name="Grupo 1164700" transform="translate(1121 1966)">
          <g id="Grupo_1160931" data-name="Grupo 1160931" transform="translate(0)">
            <g id="Grupo_1160749" data-name="Grupo 1160749" transform="translate(0)">
              <g id="Grupo_1158891" data-name="Grupo 1158891" transform="translate(0 0)">
                <g id="Grupo_1157406" data-name="Grupo 1157406" transform="translate(0)">
                  <g id="Grupo_1155793" data-name="Grupo 1155793" transform="translate(0)">
                    <g id="Grupo_1154704" data-name="Grupo 1154704" transform="translate(0)">
                      <g id="Grupo_1150790" data-name="Grupo 1150790" transform="translate(0)">
                        <g id="Grupo_1154214" data-name="Grupo 1154214" transform="translate(0)">
                          <g id="Grupo_1152583" data-name="Grupo 1152583" transform="translate(0 0)">
                            <g id="Grupo_1146973" data-name="Grupo 1146973" transform="translate(0 0)">
                              <g id="Grupo_1146954" data-name="Grupo 1146954">
                                <g transform="matrix(1, 0, 0, 1, -9, -6)" filter="url(#Trazado_982547)">
                                  <g id="Trazado_982547-2" data-name="Trazado 982547" transform="translate(9 6)" fill="#e9f9fd">
                                    <path d="M 46.00000381469727 90.49988555908203 C 39.99188232421875 90.49988555908203 34.16427230834961 89.32352447509766 28.67905807495117 87.00347137451172 C 23.38020324707031 84.76226043701172 18.62104415893555 81.55342864990234 14.53375053405762 77.46615600585938 C 10.44647026062012 73.37887573242188 7.237643718719482 68.61971282958984 4.996417045593262 63.32085800170898 C 2.676363706588745 57.83565902709961 1.500003814697266 52.00806045532227 1.500003814697266 45.99993896484375 C 1.500003814697266 39.99181747436523 2.676363706588745 34.16421890258789 4.996417045593262 28.67901802062988 C 7.237643718719482 23.38017845153809 10.44647026062012 18.62101936340332 14.53375053405762 14.53373908996582 C 18.62104415893555 10.44645881652832 23.38020324707031 7.237632274627686 28.67905807495117 4.996418952941895 C 34.16427230834961 2.676365613937378 39.99188232421875 1.500005602836609 46.00000381469727 1.500005602836609 C 52.00812530517578 1.500005602836609 57.83573532104492 2.676365613937378 63.32094955444336 4.996418952941895 C 68.61980438232422 7.237632274627686 73.37897491455078 10.44645881652832 77.46625518798828 14.53373908996582 C 81.55355072021484 18.62101936340332 84.76236724853516 23.38017845153809 87.00359344482422 28.67901802062988 C 89.32364654541016 34.16421890258789 90.5 39.99181747436523 90.5 45.99993896484375 C 90.5 52.00806045532227 89.32364654541016 57.83565902709961 87.00359344482422 63.32085800170898 C 84.76236724853516 68.61971282958984 81.55355072021484 73.37887573242188 77.46625518798828 77.46615600585938 C 73.37897491455078 81.55342864990234 68.61980438232422 84.76226043701172 63.32094955444336 87.00347137451172 C 57.83573532104492 89.32352447509766 52.00812530517578 90.49988555908203 46.00000381469727 90.49988555908203 Z" stroke="none"/>
                                    <path d="M 46.00000381469727 2.999992370605469 C 40.19371795654297 2.999992370605469 34.56270217895508 4.136497497558594 29.26338958740234 6.377906799316406 C 24.14333343505859 8.543510437011719 19.54441833496094 11.64437866210938 15.59440612792969 15.59439849853516 C 11.64440155029297 19.54439544677734 8.54351806640625 24.14329528808594 6.377914428710938 29.26335144042969 C 4.136505126953125 34.56266784667969 3.000007629394531 40.19366836547852 3.000007629394531 45.99993896484375 C 3.000007629394531 51.80620956420898 4.136505126953125 57.43722534179688 6.377914428710938 62.73654174804688 C 8.54351806640625 67.85658264160156 11.64440155029297 72.45548248291016 15.59440612792969 76.40549468994141 C 19.54441833496094 80.35549926757812 24.14333343505859 83.45636749267578 29.26337432861328 85.62196350097656 C 34.56270217895508 87.86338043212891 40.19371795654297 88.9998779296875 46.00000381469727 88.9998779296875 C 51.80628967285156 88.9998779296875 57.43730545043945 87.86338043212891 62.73663330078125 85.62196350097656 C 67.85667419433594 83.45636749267578 72.45558929443359 80.35549926757812 76.40560150146484 76.40549468994141 C 80.35560607910156 72.45548248291016 83.45648956298828 67.85658264160156 85.62208557128906 62.73654174804688 C 87.86350250244141 57.43722534179688 89 51.80620956420898 89 45.99993896484375 C 89 40.19366836547852 87.86350250244141 34.56266784667969 85.62208557128906 29.26335144042969 C 83.45648956298828 24.14329528808594 80.35560607910156 19.54439544677734 76.40560150146484 15.59439849853516 C 72.45558929443359 11.64437866210938 67.85667419433594 8.543510437011719 62.73661804199219 6.377906799316406 C 57.43730545043945 4.136497497558594 51.80628967285156 2.999992370605469 46.00000381469727 2.999992370605469 M 46.00000381469727 -7.62939453125e-06 C 71.40510559082031 -7.62939453125e-06 92 20.59487915039062 92 45.99993896484375 C 92 71.40501403808594 71.40510559082031 91.99988555908203 46.00000381469727 91.99988555908203 C 20.59490203857422 91.99988555908203 7.62939453125e-06 71.40501403808594 7.62939453125e-06 45.99993896484375 C 7.62939453125e-06 20.59487915039062 20.59490203857422 -7.62939453125e-06 46.00000381469727 -7.62939453125e-06 Z" stroke="none" fill="#36ceef"/>
                                  </g>
                                </g>
                              </g>
                            </g>
                          </g>
                        </g>
                      </g>
                    </g>
                  </g>
                </g>
              </g>
            </g>
          </g>
        </g>
      </g>
    </g>
    <g id="analysis_18612658" transform="translate(1133.247 1639.488)">
      <path id="Trazado_1035420" data-name="Trazado 1035420" d="M49.682,22.66a1.065,1.065,0,0,1-.97.6h-4.36V54.872a1.093,1.093,0,0,1-1.09,1.09H34.541a1.093,1.093,0,0,1-1.09-1.09V23.259H29.09a1.065,1.065,0,0,1-.97-.6,1.086,1.086,0,0,1,.1-1.145L38.029,8.434a1.135,1.135,0,0,1,1.744,0l1.145,1.537,1.2,1.6,7.467,9.942a1.086,1.086,0,0,1,.1,1.145Z" transform="translate(1.892)" fill="#4caf1d"/>
      <rect id="Rectángulo_415351" data-name="Rectángulo 415351" width="10.901" height="21.802" rx="1" transform="translate(22.262 34.16)" fill="#86e25b"/>
      <rect id="Rectángulo_415352" data-name="Rectángulo 415352" width="10.901" height="28.343" rx="1" transform="translate(9.18 27.62)" fill="#4f9e0e"/>
      <circle id="Elipse_12281" data-name="Elipse 12281" cx="10.901" cy="10.901" r="10.901" transform="translate(39.703 27.62)" fill="#ff0"/>
      <path id="Trazado_1035421" data-name="Trazado 1035421" d="M21.833,8.366a1.092,1.092,0,0,0-.948-.305L11.63,9.609a1.084,1.084,0,0,0-.589,1.842l1.537,1.537L7.956,17.61a1.086,1.086,0,0,0,0,1.537l3.085,3.085a1.079,1.079,0,0,0,.774.316,1.126,1.126,0,0,0,.774-.316l4.622-4.622,1.537,1.537a1.111,1.111,0,0,0,1.1.273,1.076,1.076,0,0,0,.741-.861L22.128,9.3a1.092,1.092,0,0,0-.305-.948Z" transform="translate(0.057 0.002)" fill="#92aadd"/>
      <rect id="Rectángulo_415353" data-name="Rectángulo 415353" width="54.505" height="6.541" rx="1" transform="translate(7 53.782)" fill="#597fd7"/>
      <circle id="Elipse_12282" data-name="Elipse 12282" cx="1.09" cy="1.09" r="1.09" transform="translate(55.51 31.435)" fill="#fff"/>
      <g id="Grupo_1174913" data-name="Grupo 1174913" transform="translate(8.09 9.142)">
        <path id="Trazado_1035422" data-name="Trazado 1035422" d="M14.036,12.909l-2.322-2.322L20.969,9.05l-1.537,9.255L17.11,15.983l-5.4,5.4L8.64,18.305Z" transform="translate(-7.942 -9.05)" fill="none" stroke="#000" stroke-linecap="round" stroke-linejoin="round" stroke-width="2"/>
        <path id="Trazado_1035423" data-name="Trazado 1035423" d="M12.786,55.36H8V51H60.325v4.36H16.612" transform="translate(-8 -5.27)" fill="none" stroke="#000" stroke-linecap="round" stroke-linejoin="round" stroke-width="2"/>
        <circle id="Elipse_12283" data-name="Elipse 12283" cx="9.811" cy="9.811" r="9.811" transform="translate(32.703 19.567)" fill="none" stroke="#000" stroke-linecap="round" stroke-linejoin="round" stroke-width="2"/>
        <g id="Grupo_1174912" data-name="Grupo 1174912" transform="translate(40.334 23.928)">
          <path id="Trazado_1035424" data-name="Trazado 1035424" d="M49.36,34.18a2.18,2.18,0,1,0-2.18,2.18A2.18,2.18,0,1,1,45,38.541" transform="translate(-45 -30.91)" fill="none" stroke="#000" stroke-linecap="round" stroke-linejoin="round" stroke-width="2"/>
          <path id="Trazado_1035425" data-name="Trazado 1035425" d="M47,32.09V31" transform="translate(-44.82 -31)" fill="none" stroke="#000" stroke-linecap="round" stroke-linejoin="round" stroke-width="2"/>
          <path id="Trazado_1035426" data-name="Trazado 1035426" d="M47,40v1.09" transform="translate(-44.82 -30.189)" fill="none" stroke="#000" stroke-linecap="round" stroke-linejoin="round" stroke-width="2"/>
        </g>
      </g>
      <path id="Trazado_1035427" data-name="Trazado 1035427" d="M19.9,27.09V47.257A37.765,37.765,0,0,1,9,49.841V27.09A1.093,1.093,0,0,1,10.09,26h8.721a1.093,1.093,0,0,1,1.09,1.09Z" transform="translate(0.18 1.62)" fill="#fff"/>
      <path id="Trazado_1035428" data-name="Trazado 1035428" d="M19.9,27.09V46.8A37.655,37.655,0,0,1,9,49.732V27.09A1.093,1.093,0,0,1,10.09,26h8.721A1.093,1.093,0,0,1,19.9,27.09Z" transform="translate(0.18 1.62)" fill="#4caf1d"/>
      <path id="Trazado_1035429" data-name="Trazado 1035429" d="M31.9,33.09V38A38.167,38.167,0,0,1,21,45.768V33.09A1.093,1.093,0,0,1,22.09,32h8.721A1.093,1.093,0,0,1,31.9,33.09Z" transform="translate(1.262 2.16)" fill="#fff"/>
      <path id="Trazado_1035430" data-name="Trazado 1035430" d="M31.9,33.09v3.75A38.143,38.143,0,0,1,21,45.223V33.09A1.093,1.093,0,0,1,22.09,32h8.721a1.093,1.093,0,0,1,1.09,1.09Z" transform="translate(1.262 2.16)" fill="#86e25b"/>
      <path id="Trazado_1035431" data-name="Trazado 1035431" d="M33.45,37.736V23.259H29.09a1.065,1.065,0,0,1-.97-.6,1.086,1.086,0,0,1,.1-1.145L38.029,8.434a1.135,1.135,0,0,1,1.744,0l1.145,1.537,1.2,1.6c.044.621.055,1.243.055,1.875A38.027,38.027,0,0,1,33.45,37.736Z" transform="translate(1.892)" fill="#fff"/>
      <path id="Trazado_1035432" data-name="Trazado 1035432" d="M33.45,36.341V23.259H29.09a1.065,1.065,0,0,1-.97-.6,1.086,1.086,0,0,1,.1-1.145L38.029,8.434a1.135,1.135,0,0,1,1.744,0l1.145,1.537c.109,1.145.164,2.3.164,3.477A38.013,38.013,0,0,1,33.45,36.341Z" transform="translate(1.892)" fill="#4caf1d"/>
      <path id="Trazado_1035433" data-name="Trazado 1035433" d="M43.171,46.587v8.2H34.451v-32.7H29L38.811,9l9.811,13.081H43.171v8.2" transform="translate(1.982 0.088)" fill="none" stroke="#000" stroke-linecap="round" stroke-linejoin="round" stroke-width="2"/>
      <path id="Trazado_1035434" data-name="Trazado 1035434" d="M22,33h8.721V52.622H22Z" transform="translate(1.352 2.25)" fill="none" stroke="#000" stroke-linecap="round" stroke-linejoin="round" stroke-width="2"/>
      <path id="Trazado_1035435" data-name="Trazado 1035435" d="M10,27h8.721V53.163H10Z" transform="translate(0.27 1.71)" fill="none" stroke="#000" stroke-linecap="round" stroke-linejoin="round" stroke-width="2"/>
    </g>
  </g>
</svg>
